<?xml version="1.0" encoding="UTF-8" standalone="no"?>
<!-- Created with Inkscape (http://www.inkscape.org/) -->

<svg
   xmlns:dc="http://purl.org/dc/elements/1.1/"
   xmlns:cc="http://creativecommons.org/ns#"
   xmlns:rdf="http://www.w3.org/1999/02/22-rdf-syntax-ns#"
   xmlns:svg="http://www.w3.org/2000/svg"
   xmlns="http://www.w3.org/2000/svg"
   xmlns:sodipodi="http://sodipodi.sourceforge.net/DTD/sodipodi-0.dtd"
   xmlns:inkscape="http://www.inkscape.org/namespaces/inkscape"
   width="10mm"
   height="10mm"
   viewBox="0 0 35.43307 35.43307"
   id="svg6558"
   version="1.1"
   inkscape:version="0.91 r13725"
   sodipodi:docname="budget.svg">
  <defs
     id="defs6560" />
  <sodipodi:namedview
     id="base"
     pagecolor="#ffffff"
     bordercolor="#666666"
     borderopacity="1.0"
     inkscape:pageopacity="0.0"
     inkscape:pageshadow="2"
     inkscape:zoom="5.6"
     inkscape:cx="17.844033"
     inkscape:cy="28.832559"
     inkscape:document-units="px"
     inkscape:current-layer="layer1"
     showgrid="false"
     inkscape:window-width="727"
     inkscape:window-height="662"
     inkscape:window-x="2"
     inkscape:window-y="0"
     inkscape:window-maximized="0" />
  <metadata
     id="metadata6563">
    <rdf:RDF>
      <cc:Work
         rdf:about="">
        <dc:format>image/svg+xml</dc:format>
        <dc:type
           rdf:resource="http://purl.org/dc/dcmitype/StillImage" />
        <dc:title></dc:title>
      </cc:Work>
    </rdf:RDF>
  </metadata>
  <g
     inkscape:label="Layer 1"
     inkscape:groupmode="layer"
     id="layer1"
     transform="translate(0,-1016.9291)">
    <g
       id="g6376"
       transform="translate(-211.17536,952.69953)">
      <g
         transform="matrix(0.7476972,0,0,0.7476972,228.56751,-2.324597)"
         id="g4742">
        <path
           inkscape:connector-curvature="0"
           style="fill:#d3d5e7;fill-opacity:1"
           d="m -9.6875,104.1875 0,15.5 12.75,0 0,-13.53125 -2.03125,0 0,-1.96875 -10.71875,0 z"
           id="rect7096" />
        <path
           inkscape:connector-curvature="0"
           style="fill:none;stroke:#242c88;stroke-width:0.3981145;stroke-linecap:round;stroke-linejoin:round;stroke-miterlimit:10"
           d="m -9.6875,104.1875 0,15.5 12.75,0 0,-13.84375 -1.71875,-1.65625 -11.03125,0 z"
           id="rect7098" />
        <rect
           id="rect6628"
           y="110.02802"
           x="-7.9631138"
           width="7.8376412"
           height="1.1484751"
           style="fill:#4caf50;fill-opacity:1" />
        <g
           transform="matrix(0.02801158,0,0,0.02801158,-9.4533317,104.85988)"
           id="g6630"
           style="fill:#ffffff">
          <path
             id="path6632"
             d="m 337,415.2 -287.8,0 0,-234.7 287.8,0 0,234.7 z m -279.9,-8 271.9,0 0,-218.7 -271.9,0 0,218.7 z"
             inkscape:connector-curvature="0"
             style="fill:#ffffff" />
        </g>
        <g
           transform="matrix(0.02801158,0,0,0.02801158,-9.4533317,104.85988)"
           id="g6634"
           style="fill:#ffffff">
          <path
             id="path6636"
             d="m 255.4,415.2 -164.9,0 0,-234.7 164.9,0 0,234.7 z m -157,-8 149,0 0,-218.7 -149,0 0,218.7 z"
             inkscape:connector-curvature="0"
             style="fill:#ffffff" />
        </g>
        <rect
           ry="0.28291705"
           id="rect6666"
           y="117.43989"
           x="-7.9631138"
           width="5.554698"
           height="0.56583411"
           style="fill:#ffffff" />
        <g
           id="g3668"
           transform="translate(-1.25,0)">
          <path
             style="fill:#242c88;fill-opacity:1;stroke:none"
             inkscape:connector-curvature="0"
             d="m 7.2812572,113.71025 -6.1391399,0 c -0.181295,0 -0.32704162,0.14575 -0.32704162,0.32704 l 0,8.66306 c 0,0.18127 0.1457395,0.32704 0.32704162,0.32704 l 6.1391399,0 c 0.181295,0 0.3270417,-0.14575 0.3270417,-0.32704 l 0,-8.66306 c 0,-0.17773 -0.1457395,-0.32704 -0.3270417,-0.32704 z"
             id="path7203" />
          <path
             id="path6640"
             d="m 7.1055349,113.97694 -5.7876953,0 c -0.1709162,0 -0.3083194,0.1374 -0.3083194,0.30832 l 0,8.16712 c 0,0.17091 0.1373975,0.30832 0.3083194,0.30832 l 5.7876953,0 c 0.1709163,0 0.3083195,-0.1374 0.3083195,-0.30832 l 0,-8.16712 c 0,-0.16756 -0.1373976,-0.30832 -0.3083195,-0.30832 z"
             inkscape:connector-curvature="0"
             style="fill:#788d9a;stroke:#242c88;stroke-width:0;stroke-miterlimit:4;stroke-dasharray:none;stroke-opacity:1" />
          <path
             id="path6642"
             d="m 7.1055349,122.42891 -5.7876953,0 c -0.1709162,0 -0.3083194,-0.1374 -0.3083194,-0.30832 l 0,0.33513 c 0,0.17092 0.1373975,0.30832 0.3083194,0.30832 l 5.7876953,0 c 0.1709163,0 0.3083195,-0.1374 0.3083195,-0.30832 l 0,-0.33513 c 0,0.17092 -0.1373976,0.30832 -0.3083195,0.30832 z"
             inkscape:connector-curvature="0"
             style="fill:#445c6c" />
          <rect
             id="rect6644"
             y="115.01919"
             x="1.9780465"
             width="4.4672832"
             height="1.4645182"
             style="fill:#ff5722;fill-opacity:1" />
          <rect
             id="rect6646"
             y="116.28263"
             x="1.9780465"
             width="4.4672832"
             height="0.20107801"
             style="fill:#ffc408;fill-opacity:1" />
          <rect
             id="rect6648"
             y="117.42877"
             x="1.9780465"
             width="1.0724161"
             height="1.0724161"
             style="fill:#ffffff;fill-opacity:1" />
          <rect
             id="rect6650"
             y="117.42877"
             x="3.6738021"
             width="1.0724161"
             height="1.0724161"
             style="fill:#ffffff;fill-opacity:1" />
          <rect
             id="rect6652"
             y="117.42877"
             x="5.3695631"
             width="1.0724161"
             height="1.0724161"
             style="fill:#ffffff;fill-opacity:1" />
          <rect
             id="rect6654"
             y="119.06755"
             x="1.9780465"
             width="1.0724161"
             height="1.0724161"
             style="fill:#ffffff;fill-opacity:1" />
          <rect
             id="rect6656"
             y="119.06755"
             x="3.6738021"
             width="1.0724161"
             height="1.0724161"
             style="fill:#ffffff;fill-opacity:1" />
          <rect
             id="rect6658"
             y="119.06755"
             x="5.3695631"
             width="1.0724161"
             height="1.0724161"
             style="fill:#ffffff;fill-opacity:1" />
          <rect
             id="rect6660"
             y="120.70299"
             x="1.9780465"
             width="1.0724161"
             height="1.0724161"
             style="fill:#ffffff;fill-opacity:1" />
          <rect
             id="rect6662"
             y="120.70299"
             x="3.6738021"
             width="1.0724161"
             height="1.0724161"
             style="fill:#ffffff;fill-opacity:1" />
          <rect
             id="rect6664"
             y="120.70299"
             x="5.3695631"
             width="1.0724161"
             height="1.0724161"
             style="fill:#ffc408;fill-opacity:1" />
        </g>
        <text
           xml:space="preserve"
           style="font-style:normal;font-variant:normal;font-weight:normal;font-stretch:normal;font-size:2.38771605px;line-height:125%;font-family:Calibri;-inkscape-font-specification:Sans;letter-spacing:0px;word-spacing:0px;fill:#58b25e;fill-opacity:1;stroke:none"
           x="-8.4037733"
           y="106.70081"
           id="text7052"
           sodipodi:linespacing="125%"><tspan
             sodipodi:role="line"
             id="tspan7054"
             x="-8.4037733"
             y="106.70081">Budget</tspan></text>
        <rect
           style="fill:#ffffff"
           height="0.43724507"
           width="5.554698"
           x="-8.0259714"
           y="109.14539"
           id="rect7186"
           ry="0.21862254" />
        <rect
           ry="0.21862254"
           id="rect7188"
           y="108.51394"
           x="-8.0259714"
           width="5.554698"
           height="0.43724507"
           style="fill:#ffffff" />
        <polygon
           transform="matrix(0.13995108,0,0,0.13995108,-12.407811,100.90648)"
           id="polygon3684"
           points="97,23 111,37 97,37 "
           class="st18"
           style="fill:#ffc408" />
        <polygon
           transform="matrix(0.13995108,0,0,0.13995108,-12.407811,100.90648)"
           id="polygon3686"
           points="97,23 111,37 97,37 "
           class="st53"
           style="fill:#ffc408;fill-opacity:1;stroke:#242c88;stroke-width:1.84800005;stroke-linecap:round;stroke-linejoin:round;stroke-miterlimit:10" />
      </g>
    </g>
  </g>
</svg>
