<?xml version="1.0" encoding="UTF-8" standalone="no"?>
<!-- Created with Inkscape (http://www.inkscape.org/) -->

<svg
   xmlns:dc="http://purl.org/dc/elements/1.1/"
   xmlns:cc="http://creativecommons.org/ns#"
   xmlns:rdf="http://www.w3.org/1999/02/22-rdf-syntax-ns#"
   xmlns:svg="http://www.w3.org/2000/svg"
   xmlns="http://www.w3.org/2000/svg"
   xmlns:sodipodi="http://sodipodi.sourceforge.net/DTD/sodipodi-0.dtd"
   xmlns:inkscape="http://www.inkscape.org/namespaces/inkscape"
   width="10mm"
   height="10mm"
   viewBox="0 0 35.43307 35.43307"
   id="svg6558"
   version="1.1"
   inkscape:version="0.91 r13725"
   sodipodi:docname="Competency.svg">
  <defs
     id="defs6560" />
  <sodipodi:namedview
     id="base"
     pagecolor="#ffffff"
     bordercolor="#666666"
     borderopacity="1.0"
     inkscape:pageopacity="0.0"
     inkscape:pageshadow="2"
     inkscape:zoom="5.6"
     inkscape:cx="17.844033"
     inkscape:cy="28.832559"
     inkscape:document-units="px"
     inkscape:current-layer="layer1"
     showgrid="false"
     inkscape:window-width="727"
     inkscape:window-height="662"
     inkscape:window-x="2"
     inkscape:window-y="0"
     inkscape:window-maximized="0" />
  <metadata
     id="metadata6563">
    <rdf:RDF>
      <cc:Work
         rdf:about="">
        <dc:format>image/svg+xml</dc:format>
        <dc:type
           rdf:resource="http://purl.org/dc/dcmitype/StillImage" />
        <dc:title></dc:title>
      </cc:Work>
    </rdf:RDF>
  </metadata>
  <g
     inkscape:label="Layer 1"
     inkscape:groupmode="layer"
     id="layer1"
     transform="translate(0,-1016.9291)">
    <g
       id="g6199"
       transform="translate(-44.506221,952.41542)">
      <g
         transform="matrix(0.10884107,0,0,0.10884107,48.888729,52.913619)"
         id="g4580">
        <path
           inkscape:connector-curvature="0"
           id="path4574"
           d="m 116.91802,239.27126 -29.998637,13.91638 -10.937001,43.96313 41.248118,7.59076 14.06186,-24.66996 16.56174,-25.30251 z"
           style="fill:#242c88;fill-opacity:0.91947865;fill-rule:evenodd;stroke:none" />
        <g
           style="fill:#242c88;fill-opacity:1;fill-rule:evenodd"
           id="_271592200"
           transform="matrix(0.0885489,0,0,0.0885489,26.241098,181.56999)">
          <path
             id="path6947"
             d="m 1029,342 -7,4 -287,166 0,0 -288,166 0,672 8,4 280,162 0,0 295,170 7,-4 287,-166 0,0 288,-166 0,-672 -8,-4 -280,-162 0,0 -295,-170 z m 289,202 263,152 0,638 -263,152 0,0 -289,167 -289,-167 0,0 -263,-152 0,-638 263,-152 0,0 289,-167 289,167 0,0 z"
             class="fil1"
             inkscape:connector-curvature="0"
             style="fill:#242c88;fill-opacity:1" />
          <path
             id="path6949"
             d="m 567,748 0,9 0,525 8,4 455,262 8,-4 455,-262 0,-9 0,-525 -8,-4 -455,-262 -8,4 -455,262 z m 462,-232 432,249 0,499 -432,249 -432,-249 0,-499 432,-249 z"
             class="fil1"
             inkscape:connector-curvature="0"
             style="fill:#242c88;fill-opacity:1" />
          <path
             id="path6951"
             d="m 687,817 0,394 8,4 334,193 8,-4 334,-193 0,-394 -8,-4 -334,-193 -8,4 -334,193 z m 342,-163 311,180 0,360 -311,180 -311,-180 0,-360 311,-180 z"
             class="fil1"
             inkscape:connector-curvature="0"
             style="fill:#242c88;fill-opacity:1" />
          <path
             id="path6953"
             d="m 808,887 0,255 8,4 214,123 8,-4 214,-123 0,-255 -8,-4 -214,-123 -8,4 -214,123 z m 221,-93 191,110 0,221 -191,110 -191,-110 0,-221 191,-110 z"
             class="fil1"
             inkscape:connector-curvature="0"
             style="fill:#242c88;fill-opacity:1" />
          <path
             id="path6955"
             d="m 928,956 0,116 8,4 93,54 101,-58 0,-116 -8,-4 -93,-54 -101,58 z m 101,-24 70,41 0,82 -70,41 -70,-41 0,-82 70,-41 z"
             class="fil1"
             inkscape:connector-curvature="0"
             style="fill:#242c88;fill-opacity:1" />
          <path
             id="path6957"
             d="m 294,607 642,371 c 7,4 16,2 20,-5 4,-7 2,-16 -5,-20 L 309,582 c -7,-4 -16,-2 -20,5 -4,7 -2,16 5,20 z"
             class="fil1"
             inkscape:connector-curvature="0"
             style="fill:#242c88;fill-opacity:1" />
          <path
             id="path6959"
             d="m 309,1452 642,-371 c 7,-4 10,-13 5,-20 -4,-7 -13,-10 -20,-5 l -642,371 c -7,4 -10,13 -5,20 4,7 13,10 20,5 z"
             class="fil1"
             inkscape:connector-curvature="0"
             style="fill:#242c88;fill-opacity:1" />
          <path
             id="path6961"
             d="m 1039,1777 5,-664 c 0,-8 -7,-15 -15,-15 -8,0 -15,7 -15,15 l -5,664 c 0,8 7,15 15,15 8,0 15,-7 15,-15 z"
             class="fil1"
             inkscape:connector-curvature="0"
             style="fill:#242c88;fill-opacity:1" />
          <path
             id="path6963"
             d="m 1009,271 4,649 c 0,8 7,15 15,15 8,0 15,-7 15,-15 l -4,-649 c 0,-8 -7,-15 -15,-15 -8,0 -15,7 -15,15 z"
             class="fil1"
             inkscape:connector-curvature="0"
             style="fill:#242c88;fill-opacity:1" />
          <path
             id="path6965"
             d="m 1739,581 -632,365 c -7,4 -10,13 -5,20 4,7 13,10 20,5 l 632,-365 c 7,-4 10,-13 5,-20 -4,-7 -13,-10 -20,-5 z"
             class="fil1"
             inkscape:connector-curvature="0"
             style="fill:#242c88;fill-opacity:1" />
          <path
             id="path6967"
             d="m 1754,1426 -642,-371 c -7,-4 -16,-2 -20,5 -4,7 -2,16 5,20 l 642,371 c 7,4 16,2 20,-5 4,-7 2,-16 -5,-20 z"
             class="fil1"
             inkscape:connector-curvature="0"
             style="fill:#242c88;fill-opacity:1" />
        </g>
        <path
           style="fill:#70d5f7;fill-opacity:1;fill-rule:evenodd;stroke:#70d5f7;stroke-width:0.82278621px;stroke-linecap:butt;stroke-linejoin:miter;stroke-opacity:1"
           d="m 116.61988,241.59269 -28.209814,12.92949 -10.284827,40.84546 38.788491,7.05246 13.22335,-22.92048 15.57416,-23.50817 z"
           id="path7023"
           inkscape:connector-curvature="0" />
        <line
           id="line5108-5-4"
           y2="250.76711"
           y1="264.65363"
           x2="118.20087"
           x1="126.21289"
           class="st48"
           style="opacity:0.2;fill:none;stroke:#ffffff;stroke-width:1.67134154;stroke-linecap:round;stroke-linejoin:round;stroke-miterlimit:10" />
        <path
           style="fill:#42bee6;fill-opacity:1;fill-rule:evenodd;stroke:#70d5f7;stroke-width:0;stroke-linecap:butt;stroke-linejoin:miter;stroke-miterlimit:4;stroke-dasharray:none;stroke-opacity:1"
           d="m 117.14942,302.9659 10.1063,-18.29543 -11.01804,15.24346 -12.71018,0.43286 z"
           id="path7040"
           inkscape:connector-curvature="0"
           sodipodi:nodetypes="ccccc" />
        <path
           inkscape:connector-curvature="0"
           id="path4576"
           d="m 116.52336,224.26019 -18.342751,35.33223 12.381361,17.11059 6.19067,16.44394 32.3291,-2.44437 -11.92278,-30.22127 z"
           style="fill:#242c88;fill-opacity:1;fill-rule:evenodd;stroke:none" />
        <path
           style="fill:#ffc408;fill-opacity:1;fill-rule:evenodd;stroke:#ffc408;stroke-width:0.82278621px;stroke-linecap:butt;stroke-linejoin:miter;stroke-opacity:1"
           d="m 116.57113,226.76208 -16.622796,33.03779 11.220386,15.99944 5.61019,15.37608 29.29767,-2.28563 -10.80481,-28.25874 z"
           id="path7019"
           inkscape:connector-curvature="0" />
        <path
           inkscape:connector-curvature="0"
           id="path4578"
           d="m 117.79455,250.24527 -8.78203,16.24678 -21.955108,22.3942 30.298038,-9.22114 8.78204,-4.83012 0,-9.66025 z"
           style="fill:#242c88;fill-opacity:1;fill-rule:evenodd;stroke:none" />
        <path
           style="fill:#ef3763;fill-opacity:1;fill-rule:evenodd;stroke:#ef3763;stroke-width:0.82278621px;stroke-linecap:butt;stroke-linejoin:miter;stroke-opacity:1"
           d="m 117.19448,251.28069 -8.31139,15.37608 -20.778494,21.19406 28.674314,-8.72696 8.3114,-4.57127 0,-9.14254 z"
           id="path7017"
           inkscape:connector-curvature="0" />
        <path
           style="fill:#42bee6;fill-opacity:1;fill-rule:evenodd;stroke:#70d5f7;stroke-width:0;stroke-linecap:butt;stroke-linejoin:miter;stroke-miterlimit:4;stroke-dasharray:none;stroke-opacity:1"
           d="m 146.34154,255.83965 -5.41555,-2.66406 4.03166,2.62608 -2.24903,5.39784 z"
           id="path7040-0"
           inkscape:connector-curvature="0"
           sodipodi:nodetypes="ccccc" />
        <path
           style="fill:#e82453;fill-opacity:1;fill-rule:evenodd;stroke:#70d5f7;stroke-width:0;stroke-linecap:butt;stroke-linejoin:miter;stroke-miterlimit:4;stroke-dasharray:none;stroke-opacity:1"
           d="m 125.50278,274.79104 0.0358,-9.46316 -0.90063,8.11704 -7.52804,5.891 z"
           id="path7040-4"
           inkscape:connector-curvature="0"
           sodipodi:nodetypes="ccccc" />
        <path
           style="fill:#e82453;fill-opacity:1;fill-rule:evenodd;stroke:#70d5f7;stroke-width:0;stroke-linecap:butt;stroke-linejoin:miter;stroke-miterlimit:4;stroke-dasharray:none;stroke-opacity:1"
           d="m 117.15865,250.48026 -2.48943,4.66648 2.32349,-3.37837 4.31869,6.1196 z"
           id="path7040-4-9"
           inkscape:connector-curvature="0"
           sodipodi:nodetypes="ccccc" />
        <path
           style="fill:#efb90c;fill-opacity:0.44252876;fill-rule:evenodd;stroke:#70d5f7;stroke-width:0;stroke-linecap:butt;stroke-linejoin:miter;stroke-miterlimit:4;stroke-dasharray:none;stroke-opacity:1"
           d="m 146.67766,289.274 -4.22379,-11.12545 2.26809,9.70142 -5.47616,1.94307 z"
           id="path7040-4-2"
           inkscape:connector-curvature="0"
           sodipodi:nodetypes="ccccc" />
        <path
           style="fill:#efb90c;fill-opacity:0.44252876;fill-rule:evenodd;stroke:#70d5f7;stroke-width:0;stroke-linecap:butt;stroke-linejoin:miter;stroke-miterlimit:4;stroke-dasharray:none;stroke-opacity:1"
           d="m 135.35147,259.80455 -6.14581,-10.9696 4.34594,9.28585 3.8222,6.77407 z"
           id="path7040-4-2-6"
           inkscape:connector-curvature="0"
           sodipodi:nodetypes="ccccc" />
        <path
           style="fill:#efb90c;fill-opacity:0.44252876;fill-rule:evenodd;stroke:#70d5f7;stroke-width:0;stroke-linecap:butt;stroke-linejoin:miter;stroke-miterlimit:4;stroke-dasharray:none;stroke-opacity:1"
           d="m 116.55114,225.71302 -1.62783,3.46588 1.26049,-1.47649 7.01785,10.15338 z"
           id="path7040-4-2-6-7"
           inkscape:connector-curvature="0"
           sodipodi:nodetypes="ccccc" />
      </g>
    </g>
  </g>
</svg>
