<?xml version="1.0" encoding="UTF-8" standalone="no"?>
<!-- Created with Inkscape (http://www.inkscape.org/) -->

<svg
   xmlns:dc="http://purl.org/dc/elements/1.1/"
   xmlns:cc="http://creativecommons.org/ns#"
   xmlns:rdf="http://www.w3.org/1999/02/22-rdf-syntax-ns#"
   xmlns:svg="http://www.w3.org/2000/svg"
   xmlns="http://www.w3.org/2000/svg"
   xmlns:sodipodi="http://sodipodi.sourceforge.net/DTD/sodipodi-0.dtd"
   xmlns:inkscape="http://www.inkscape.org/namespaces/inkscape"
   width="10mm"
   height="10mm"
   viewBox="0 0 35.43307 35.43307"
   id="svg6558"
   version="1.1"
   inkscape:version="0.91 r13725"
   sodipodi:docname="Leave.svg">
  <defs
     id="defs6560" />
  <sodipodi:namedview
     id="base"
     pagecolor="#ffffff"
     bordercolor="#666666"
     borderopacity="1.0"
     inkscape:pageopacity="0.0"
     inkscape:pageshadow="2"
     inkscape:zoom="5.6"
     inkscape:cx="17.844033"
     inkscape:cy="28.832559"
     inkscape:document-units="px"
     inkscape:current-layer="layer1"
     showgrid="false"
     inkscape:window-width="727"
     inkscape:window-height="662"
     inkscape:window-x="2"
     inkscape:window-y="0"
     inkscape:window-maximized="0" />
  <metadata
     id="metadata6563">
    <rdf:RDF>
      <cc:Work
         rdf:about="">
        <dc:format>image/svg+xml</dc:format>
        <dc:type
           rdf:resource="http://purl.org/dc/dcmitype/StillImage" />
        <dc:title></dc:title>
      </cc:Work>
    </rdf:RDF>
  </metadata>
  <g
     inkscape:label="Layer 1"
     inkscape:groupmode="layer"
     id="layer1"
     transform="translate(0,-1016.9291)">
    <g
       id="g4872"
       transform="matrix(0.75868145,0,0,0.75868145,70.835501,949.41964)">
      <g
         transform="matrix(0.29238011,0,0,0.29238011,-102.14318,120.06981)"
         id="g5972">
        <path
           style="clip-rule:evenodd;fill:#b5dbff;fill-rule:evenodd;stroke:#242c88;stroke-opacity:1"
           inkscape:connector-curvature="0"
           class="st91"
           d="m 109,-9.6699965 -9.000002,0 c -1.104569,0 -2,0.895431 -2,2 l 0,1 c 0,1.104568 0.895431,2 2,2 l 9.000002,0 c 1.10457,0 2,-0.895432 2,-2 l 0,-1 c 0,-1.104569 -0.89543,-2 -2,-2 z"
           id="path5390" />
        <path
           style="clip-rule:evenodd;fill:#5e61a3;fill-opacity:1;fill-rule:evenodd"
           inkscape:connector-curvature="0"
           class="st92"
           d="m 109.89335,-8.8465837 -3.01089,3.6232222 -5.06779,0 c -0.86802,0 -1.57171,-0.716982 -1.57171,-1.6015023 l 0,-0.8007508 c 0,-0.8844719 0.70369,-1.6015018 1.57171,-1.6015018 l 7.07266,0 c 0.38487,0 0.73277,0.1465237 1.00602,0.3805327 z"
           id="path5392" />
        <path
           style="clip-rule:evenodd;fill:#d4eaff;fill-rule:evenodd;stroke:#242c88;stroke-opacity:1"
           inkscape:connector-curvature="0"
           class="st93"
           d="m 109,-33.669997 -9.000002,0 c -1.104569,0 -2,-0.895432 -2,-2 l 0,-1 c 0,-1.10457 0.895431,-2 2,-2 l 9.000002,0 c 1.10457,0 2,0.89543 2,2 l 0,1 c 0,1.104568 -0.89543,2 -2,2 z"
           id="path5394" />
        <path
           style="clip-rule:evenodd;fill:#5e61a3;fill-opacity:1;fill-rule:evenodd"
           inkscape:connector-curvature="0"
           class="st94"
           d="m 110.00389,-34.548943 -3.10324,-3.60811 -5.22323,0 c -0.89464,0 -1.61991,0.713991 -1.61991,1.594823 l 0,0.797411 c 0,0.880783 0.72527,1.594822 1.61991,1.594822 l 7.2896,0 c 0.39667,0 0.75522,-0.145913 1.03687,-0.378946 z"
           id="path5396" />
        <path
           style="clip-rule:evenodd;fill:#ff5751;fill-opacity:1;fill-rule:evenodd;stroke:#242c88;stroke-opacity:1"
           inkscape:connector-curvature="0"
           class="st88"
           d="M 97.68429,-15.770003 91.764391,7.0179005 c -0.04139,0.206802 0.0068,0.401603 0.1404,0.563102 0.133701,0.164399 0.315502,0.249001 0.5261,0.249001 l 2.319107,0 c 0.491394,0 0.913193,-0.238502 1.166092,-0.659706 l 15.6358,-20.7502985 c 0.747,-0.991397 1.9066,-1.588806 3.1476,-1.614807 -5.17167,-2.452499 -11.02908,-5.325111 -15.824492,-3.662689 -0.685062,0.237488 -0.9375,2 -1.190708,3.087494 z"
           id="path5398" />
        <path
           style="clip-rule:evenodd;fill:#5e61a3;fill-opacity:1;fill-rule:evenodd"
           inkscape:connector-curvature="0"
           class="st89"
           d="m 98.468542,-16.25414 -0.477024,1.81619 12.486472,1.251607 0.81147,-1.065175 c 0.69062,-0.906568 1.7627,-1.452865 2.91006,-1.476641 -4.6953,-2.202301 -9.92286,-4.196307 -14.283422,-2.777752 -0.714266,0.232363 -1.040087,0.857286 -1.447556,2.251771 z"
           id="path5400" />
        <path
           style="clip-rule:evenodd;fill:#ff5751;fill-opacity:1;fill-rule:evenodd;stroke:#242c88;stroke-opacity:1"
           inkscape:connector-curvature="0"
           class="st95"
           d="m 114.925,-27.641402 c -1.23441,-0.02978 -2.38291,-0.625599 -3.12571,-1.611896 L 96.16609,-50.0103 C 95.913191,-50.4315 95.491392,-50.67 94.999998,-50.67 l -2.250805,0 c -0.210602,0 -0.392402,0.0845 -0.5261,0.2476 -0.133602,0.163101 -0.181801,0.359201 -0.1404,0.5645 l 6.104805,23.750403 c 5.845242,3.482178 11.267152,1.747315 16.737502,-1.533905 z"
           id="path5402" />
        <path
           style="fill:#caeafb;fill-opacity:1;fill-rule:evenodd;stroke:#242c88;stroke-opacity:1"
           d="m 75.8125,-32.84375 4,11 -4,11 0.25,0 -0.0625,0.1875 2,0 8,-7 c 0,0 1.388855,0.209778 5.5625,0.78125 4.70221,0.643799 23.375,1.1875 23.375,1.1875 4.81572,-0.155959 17.54612,-0.378313 17.85938,-5.78125 l 0.0156,-0.1875 c 0.002,-0.04471 0,-0.07964 0,-0.125 l 0,-0.125 c 0,-2.733799 -4.31931,-4.401397 -7,-4.9375 -3.47031,-0.694099 -8.37721,-0.903752 -11.0625,-0.96875 0,0 -17.171242,0.783653 -23.09375,1.34375 -3.826578,0.361885 -5.84375,0.625 -5.84375,0.625 l -8,-7 z"
           id="path5404"
           inkscape:connector-curvature="0"
           sodipodi:nodetypes="cccccccscccssccsccc" />
        <path
           style="opacity:0.5;fill:#bdefff;stroke:#242c88;stroke-opacity:1"
           inkscape:connector-curvature="0"
           class="st97"
           d="m 89.999998,-37.669997 -8.000002,0 c -0.552284,0 -0.999998,-0.447714 -0.999998,-0.999998 l 0,-4e-6 c 0,-0.552284 0.447714,-0.999998 0.999998,-0.999998 l 8.000002,0 c 0.552284,0 1,0.447714 1,0.999998 l 0,4e-6 c 0,0.552284 -0.447716,0.999998 -1,0.999998 z"
           id="path5406" />
        <path
           style="opacity:0.5;fill:#bdefff;stroke:#242c88;stroke-opacity:1"
           inkscape:connector-curvature="0"
           class="st97"
           d="m 90.999998,-33.669997 -5.000002,0 c -0.552284,0 -0.999998,-0.447716 -0.999998,-1 l 0,-2e-6 c 0,-0.552284 0.447714,-0.999998 0.999998,-0.999998 l 5.000002,0 c 0.552284,0 1,0.447714 1,0.999998 l 0,2e-6 c 0,0.552284 -0.447716,1 -1,1 z"
           id="path5408" />
        <path
           style="opacity:0.5;fill:#bdefff;stroke:#242c88;stroke-opacity:1"
           inkscape:connector-curvature="0"
           class="st97"
           d="m 88.999998,-41.669997 -2.000002,0 c -0.552284,0 -0.999998,-0.447714 -0.999998,-0.999998 l 0,-4e-6 c 0,-0.552284 0.447714,-0.999998 0.999998,-0.999998 l 2.000002,0 c 0.552284,0 1,0.447714 1,0.999998 l 0,4e-6 c 0,0.552284 -0.447716,0.999998 -1,0.999998 z"
           id="path5410" />
        <path
           style="opacity:0.5;fill:#bdefff;stroke:#242c88;stroke-opacity:1"
           inkscape:connector-curvature="0"
           class="st97"
           d="m 89.999998,-3.6699965 -8.000002,0 c -0.552284,0 -0.999998,-0.447716 -0.999998,-1 l 0,0 c 0,-0.552284 0.447714,-1 0.999998,-1 l 8.000002,0 c 0.552284,0 1,0.447716 1,1 l 0,0 c 0,0.552284 -0.447716,1 -1,1 z"
           id="path5412" />
        <path
           style="opacity:0.5;fill:#bdefff;stroke:#242c88;stroke-opacity:1"
           inkscape:connector-curvature="0"
           class="st97"
           d="m 90.999998,-7.6699965 -5.000002,0 c -0.552284,0 -0.999998,-0.447716 -0.999998,-1 l 0,0 c 0,-0.552284 0.447714,-1 0.999998,-1 l 5.000002,0 c 0.552284,0 1,0.447716 1,1 l 0,0 c 0,0.552284 -0.447716,1 -1,1 z"
           id="path5414" />
        <path
           style="opacity:0.5;fill:#bdefff;stroke:#242c88;stroke-opacity:1"
           inkscape:connector-curvature="0"
           class="st97"
           d="m 88.999998,0.33000347 -2.000002,0 c -0.552284,0 -0.999998,-0.447716 -0.999998,-1 l 0,0 c 0,-0.55228397 0.447714,-0.99999997 0.999998,-0.99999997 l 2.000002,0 c 0.552284,0 1,0.447716 1,0.99999997 l 0,0 c 0,0.552284 -0.447716,1 -1,1 z"
           id="path5416" />
        <path
           style="clip-rule:evenodd;fill:#5e61a3;fill-opacity:1;fill-rule:evenodd"
           inkscape:connector-curvature="0"
           class="st104"
           d="m 122.0625,-24.670001 c 3.125,0 5.625,1.343102 5.625,3 0,1.656902 -2.5,3 -5.625,3 l 0,-6 z"
           id="path5420" />
        <rect
           style="fill:#9edbff;fill-opacity:1;stroke:none"
           id="rect5491"
           width="29.317196"
           height="3.371671"
           x="90.571838"
           y="-21.757748"
           ry="1.6858355"
           transform="matrix(0.99900974,-0.044492,0.0701066,0.99753951,0,0)" />
      </g>
    </g>
  </g>
</svg>
