<?xml version="1.0" encoding="UTF-8" standalone="no"?>
<!-- Created with Inkscape (http://www.inkscape.org/) -->

<svg
   xmlns:dc="http://purl.org/dc/elements/1.1/"
   xmlns:cc="http://creativecommons.org/ns#"
   xmlns:rdf="http://www.w3.org/1999/02/22-rdf-syntax-ns#"
   xmlns:svg="http://www.w3.org/2000/svg"
   xmlns="http://www.w3.org/2000/svg"
   xmlns:sodipodi="http://sodipodi.sourceforge.net/DTD/sodipodi-0.dtd"
   xmlns:inkscape="http://www.inkscape.org/namespaces/inkscape"
   width="10mm"
   height="10mm"
   viewBox="0 0 35.43307 35.43307"
   id="svg6558"
   version="1.1"
   inkscape:version="0.91 r13725"
   sodipodi:docname="OM.svg">
  <defs
     id="defs6560" />
  <sodipodi:namedview
     id="base"
     pagecolor="#ffffff"
     bordercolor="#666666"
     borderopacity="1.0"
     inkscape:pageopacity="0.0"
     inkscape:pageshadow="2"
     inkscape:zoom="5.6"
     inkscape:cx="17.844033"
     inkscape:cy="28.832559"
     inkscape:document-units="px"
     inkscape:current-layer="layer1"
     showgrid="false"
     inkscape:window-width="727"
     inkscape:window-height="662"
     inkscape:window-x="2"
     inkscape:window-y="0"
     inkscape:window-maximized="0" />
  <metadata
     id="metadata6563">
    <rdf:RDF>
      <cc:Work
         rdf:about="">
        <dc:format>image/svg+xml</dc:format>
        <dc:type
           rdf:resource="http://purl.org/dc/dcmitype/StillImage" />
        <dc:title></dc:title>
      </cc:Work>
    </rdf:RDF>
  </metadata>
  <g
     inkscape:label="Layer 1"
     inkscape:groupmode="layer"
     id="layer1"
     transform="translate(0,-1016.9291)">
    <g
       id="g6408"
       inkscape:export-filename="/Users/divisihct_hcit/Desktop/icon/one-one/OM"
       inkscape:export-xdpi="90"
       inkscape:export-ydpi="90"
       transform="translate(-246.39357,955.39536)">
      <g
         transform="matrix(0.6692036,0,0,0.6692036,262.85945,21.181308)"
         id="g4730">
        <path
           style="fill:#242c88;fill-opacity:1;stroke:none"
           inkscape:connector-curvature="0"
           d="m -6.6107915,91.696528 13.5142229,0 0,4.267649 0.7112749,0 0,-4.623286 c 0,-0.196414 -0.1592245,-0.355638 -0.3556379,-0.355638 l -14.2254973,0 c -0.1964132,0 -0.3556375,0.159224 -0.3556375,0.355638 l 0,4.623286 0.7112749,0 0,-4.267649 z"
           id="shape" />
        <rect
           style="fill:#242c88;fill-opacity:1;stroke:none"
           height="8.5352983"
           id="rect6466"
           width="0.71127492"
           x="-0.20931737"
           y="87.428879" />
        <path
           style="fill:#f44336;stroke:#242c88;stroke-width:0.41232991;stroke-miterlimit:4;stroke-dasharray:none;stroke-opacity:1"
           inkscape:connector-curvature="0"
           d="m -2.3431419,85.650692 0,2.133824 c 0,0.196413 0.1592245,0.355637 0.355637,0.355637 l 4.2676492,0 c 0.1964134,0 0.3556379,-0.159224 0.3556379,-0.355637 l 0,-2.133824 c 0,-0.196414 -0.1592245,-0.355638 -0.3556379,-0.355638 l -4.2676492,0 c -0.1964125,0 -0.355637,0.159224 -0.355637,0.355638 z"
           id="path6468" />
        <path
           style="fill:#ffc107;stroke:#242c88;stroke-width:0.41232991;stroke-miterlimit:4;stroke-dasharray:none;stroke-opacity:1"
           inkscape:connector-curvature="0"
           d="m -2.3431419,95.60854 0,2.133825 c 0,0.196412 0.1592245,0.355637 0.355637,0.355637 l 4.2676492,0 c 0.1964134,0 0.3556379,-0.159225 0.3556379,-0.355637 l 0,-2.133825 c 0,-0.196413 -0.1592245,-0.355638 -0.3556379,-0.355638 l -4.2676492,0 c -0.1964125,0 -0.355637,0.159225 -0.355637,0.355638 z"
           id="path6470" />
        <path
           style="fill:#2196f3;stroke:#242c88;stroke-width:0.41232991;stroke-miterlimit:4;stroke-dasharray:none;stroke-opacity:1"
           inkscape:connector-curvature="0"
           d="m -9.455891,95.60854 0,2.133825 c 0,0.196412 0.1592243,0.355637 0.3556374,0.355637 l 4.2676493,0 c 0.1964133,0 0.3556378,-0.159225 0.3556378,-0.355637 l 0,-2.133825 c 0,-0.196413 -0.1592245,-0.355638 -0.3556378,-0.355638 l -4.2676493,0 c -0.1964131,0 -0.3556374,0.159225 -0.3556374,0.355638 z"
           id="path6472" />
        <path
           style="fill:#4caf50;stroke:#242c88;stroke-width:0.41232991;stroke-miterlimit:4;stroke-dasharray:none;stroke-opacity:1"
           inkscape:connector-curvature="0"
           d="m 4.7696068,95.60854 0,2.133825 c 0,0.196412 0.1592245,0.355637 0.355637,0.355637 l 4.2676492,0 c 0.1964134,0 0.3556379,-0.159225 0.3556379,-0.355637 l 0,-2.133825 c 0,-0.196413 -0.1592245,-0.355638 -0.3556379,-0.355638 l -4.2676492,0 c -0.1964125,0 -0.355637,0.159225 -0.355637,0.355638 z"
           id="path6474" />
        <path
           style="fill:#4cabf7;fill-opacity:1;stroke:none"
           d="m -9.1641143,95.555807 c -0.021864,0.269178 0.00745,1.256528 0.00745,1.256528 l -0.00497,0.180637 1.3220355,-1.424832 -0.6069413,-0.01367 c 0,0 -0.4819167,-0.0043 -0.5822761,-0.0019 z"
           id="path6593"
           inkscape:connector-curvature="0"
           sodipodi:nodetypes="cccccsc" />
        <path
           sodipodi:nodetypes="cccccsc"
           inkscape:connector-curvature="0"
           id="path6595"
           d="m -2.0514234,95.555807 c -0.021862,0.269178 0.00742,1.256528 0.00742,1.256528 l -0.00495,0.180637 1.32203521,-1.424832 -0.60694141,-0.01367 c 0,0 -0.4819163,-0.0043 -0.5822758,-0.0019 z"
           style="fill:#f1d37a;fill-opacity:1;stroke:none" />
        <path
           style="fill:#89d08b;fill-opacity:1;stroke:none"
           d="m 5.0612675,95.555807 c -0.021862,0.269178 0.00742,1.256528 0.00742,1.256528 l -0.00495,0.180637 1.3220353,-1.424832 -0.6069414,-0.01367 c 0,0 -0.4819164,-0.0043 -0.5822758,-0.0019 z"
           id="path6597"
           inkscape:connector-curvature="0"
           sodipodi:nodetypes="cccccsc" />
        <path
           style="fill:#fe7366;fill-opacity:1;stroke:none"
           d="m -2.0514234,85.608348 c -0.021862,0.269178 0.00742,1.256528 0.00742,1.256528 l -0.00495,0.180637 1.32203521,-1.424832 -0.60694141,-0.01367 c 0,0 -0.4819163,-0.0043 -0.5822758,-0.0019 z"
           id="path6599"
           inkscape:connector-curvature="0"
           sodipodi:nodetypes="cccccsc" />
      </g>
    </g>
  </g>
</svg>
