<?xml version="1.0" encoding="UTF-8" standalone="no"?>
<!-- Created with Inkscape (http://www.inkscape.org/) -->

<svg
   xmlns:dc="http://purl.org/dc/elements/1.1/"
   xmlns:cc="http://creativecommons.org/ns#"
   xmlns:rdf="http://www.w3.org/1999/02/22-rdf-syntax-ns#"
   xmlns:svg="http://www.w3.org/2000/svg"
   xmlns="http://www.w3.org/2000/svg"
   xmlns:sodipodi="http://sodipodi.sourceforge.net/DTD/sodipodi-0.dtd"
   xmlns:inkscape="http://www.inkscape.org/namespaces/inkscape"
   width="10mm"
   height="10mm"
   viewBox="0 0 35.43307 35.43307"
   id="svg6558"
   version="1.1"
   inkscape:version="0.91 r13725"
   sodipodi:docname="Outsourching.svg">
  <defs
     id="defs6560" />
  <sodipodi:namedview
     id="base"
     pagecolor="#ffffff"
     bordercolor="#666666"
     borderopacity="1.0"
     inkscape:pageopacity="0.0"
     inkscape:pageshadow="2"
     inkscape:zoom="5.6"
     inkscape:cx="17.844033"
     inkscape:cy="28.832559"
     inkscape:document-units="px"
     inkscape:current-layer="layer1"
     showgrid="false"
     inkscape:window-width="727"
     inkscape:window-height="662"
     inkscape:window-x="2"
     inkscape:window-y="0"
     inkscape:window-maximized="0" />
  <metadata
     id="metadata6563">
    <rdf:RDF>
      <cc:Work
         rdf:about="">
        <dc:format>image/svg+xml</dc:format>
        <dc:type
           rdf:resource="http://purl.org/dc/dcmitype/StillImage" />
        <dc:title></dc:title>
      </cc:Work>
    </rdf:RDF>
  </metadata>
  <g
     inkscape:label="Layer 1"
     inkscape:groupmode="layer"
     id="layer1"
     transform="translate(0,-1016.9291)">
    <g
       id="g4571"
       transform="matrix(0.75849051,0,0,0.75849051,37.562706,937.2784)">
      <g
         style="fill:#242c88;fill-opacity:1"
         transform="matrix(0.11579605,0,0,0.11579605,-39.419068,119.92328)"
         id="g6217">
        <g
           style="fill:#242c88;fill-opacity:1"
           id="g6219">
          <path
             id="path6221"
             d="m 42.6,160.8 -13.5,0 c -1.4,0 -2.5,-1.1 -2.5,-2.5 0,-1.4 1.1,-2.5 2.5,-2.5 l 13.5,0 c 1.4,0 2.5,1.1 2.5,2.5 0,1.4 -1.1,2.5 -2.5,2.5 z"
             class="st0"
             inkscape:connector-curvature="0"
             style="fill:#242c88;fill-opacity:1" />
        </g>
        <g
           style="fill:#242c88;fill-opacity:1"
           id="g6223">
          <path
             id="path6225"
             d="m 222.6,160.8 -171,0 c -1.4,0 -2.5,-1.1 -2.5,-2.5 0,-1.4 1.1,-2.5 2.5,-2.5 l 171,0 c 1.4,0 2.5,1.1 2.5,2.5 0,1.4 -1.1,2.5 -2.5,2.5 z"
             class="st0"
             inkscape:connector-curvature="0"
             style="fill:#242c88;fill-opacity:1" />
        </g>
      </g>
      <g
         style="fill:#589fff;fill-opacity:1"
         transform="matrix(0.11579605,0,0,0.11579605,-40.928635,120.40911)"
         id="g6229">
        <circle
           style="fill:#589fff;fill-opacity:1"
           class="st1"
           cx="185.89999"
           cy="123.2"
           r="20"
           id="circle6231" />
      </g>
      <g
         style="fill:#242c88;fill-opacity:1"
         transform="matrix(0.11579605,0,0,0.11579605,-40.928635,120.40911)"
         id="g6233">
        <path
           style="fill:#242c88;fill-opacity:1"
           inkscape:connector-curvature="0"
           class="st0"
           d="m 185.9,145.7 c -12.4,0 -22.5,-10.1 -22.5,-22.5 0,-12.4 10.1,-22.5 22.5,-22.5 12.4,0 22.5,10.1 22.5,22.5 0,12.4 -10.1,22.5 -22.5,22.5 z m 0,-40 c -9.6,0 -17.5,7.8 -17.5,17.5 0,9.7 7.8,17.5 17.5,17.5 9.6,0 17.5,-7.8 17.5,-17.5 0,-9.7 -7.9,-17.5 -17.5,-17.5 z"
           id="path6235" />
      </g>
      <g
         style="fill:#242c88;fill-opacity:1"
         transform="matrix(0.11579605,0,0,0.11579605,-40.928635,120.40911)"
         id="g6237">
        <path
           style="fill:#242c88;fill-opacity:1"
           inkscape:connector-curvature="0"
           class="st0"
           d="m 185.9,132.3 c -1,0 -2.1,-0.1 -3.1,-0.4 -5.9,-1.7 -9.3,-7.9 -7.6,-13.8 0.8,-2.9 2.7,-5.2 5.3,-6.7 2.6,-1.4 5.6,-1.8 8.5,-0.9 l 0,0 c 5.9,1.7 9.3,7.9 7.6,13.8 -1.4,4.8 -5.9,8 -10.7,8 z m 0,-17.3 c -1,0 -2,0.3 -3,0.8 -1.4,0.8 -2.5,2.1 -3,3.7 -0.9,3.3 0.9,6.7 4.2,7.7 3.3,0.9 6.7,-0.9 7.7,-4.2 0.9,-3.3 -0.9,-6.7 -4.2,-7.7 l 0,0 c -0.6,-0.2 -1.2,-0.3 -1.7,-0.3 z"
           id="path6239" />
      </g>
      <g
         style="fill:#242c88;fill-opacity:1"
         transform="matrix(0.11579605,0,0,0.11579605,-40.928635,120.40911)"
         id="g6241">
        <path
           style="fill:#242c88;fill-opacity:1"
           inkscape:connector-curvature="0"
           class="st0"
           d="m 200.3,139 c -1.4,0 -2.5,-1.1 -2.5,-2.5 0,-1.5 -4.5,-4.2 -11.9,-4.2 -7.4,0 -11.9,2.7 -11.9,4.2 0,1.4 -1.1,2.5 -2.5,2.5 -1.4,0 -2.5,-1.1 -2.5,-2.5 0,-5.2 7.3,-9.2 16.9,-9.2 9.6,0 16.9,3.9 16.9,9.2 0,1.4 -1.1,2.5 -2.5,2.5 z"
           id="path6243" />
      </g>
      <g
         style="fill:#ff5751;fill-opacity:1"
         transform="matrix(0.08744046,0,0,0.08744046,-36.699767,122.23066)"
         id="g6247">
        <circle
           style="fill:#ff5751;fill-opacity:1"
           class="st2"
           cx="185.89999"
           cy="63.200001"
           r="20"
           id="circle6249" />
      </g>
      <g
         style="fill:#242c88;fill-opacity:1"
         transform="matrix(0.08744046,0,0,0.08744046,-36.699767,122.23066)"
         id="g6251">
        <path
           style="fill:#242c88;fill-opacity:1"
           inkscape:connector-curvature="0"
           class="st0"
           d="m 185.9,85.7 c -12.4,0 -22.5,-10.1 -22.5,-22.5 0,-12.4 10.1,-22.5 22.5,-22.5 12.4,0 22.5,10.1 22.5,22.5 0,12.4 -10.1,22.5 -22.5,22.5 z m 0,-40 c -9.6,0 -17.5,7.8 -17.5,17.5 0,9.7 7.8,17.5 17.5,17.5 9.6,0 17.5,-7.8 17.5,-17.5 0,-9.7 -7.9,-17.5 -17.5,-17.5 z"
           id="path6253" />
      </g>
      <g
         style="fill:#242c88;fill-opacity:1"
         transform="matrix(0.08744046,0,0,0.08744046,-36.699767,122.23066)"
         id="g6255">
        <path
           style="fill:#242c88;fill-opacity:1"
           inkscape:connector-curvature="0"
           class="st0"
           d="m 185.9,72.3 c -1,0 -2.1,-0.1 -3.1,-0.4 -5.9,-1.7 -9.3,-7.9 -7.6,-13.8 0.8,-2.9 2.7,-5.2 5.3,-6.7 2.6,-1.5 5.6,-1.8 8.5,-0.9 l 0,0 c 5.9,1.7 9.3,7.9 7.6,13.8 -0.8,2.9 -2.7,5.2 -5.3,6.7 -1.7,0.9 -3.6,1.3 -5.4,1.3 z m 0,-17.3 c -1,0 -2,0.3 -3,0.8 -1.4,0.8 -2.5,2.1 -3,3.7 -0.9,3.3 0.9,6.7 4.2,7.7 1.6,0.5 3.3,0.3 4.7,-0.5 1.4,-0.8 2.5,-2.1 3,-3.7 0.9,-3.3 -0.9,-6.7 -4.2,-7.7 l 0,0 C 187,55.1 186.4,55 185.9,55 Z"
           id="path6257" />
      </g>
      <g
         style="fill:#242c88;fill-opacity:1"
         transform="matrix(0.08744046,0,0,0.08744046,-36.699767,122.23066)"
         id="g6259">
        <path
           style="fill:#242c88;fill-opacity:1"
           inkscape:connector-curvature="0"
           class="st0"
           d="m 200.3,79 c -1.4,0 -2.5,-1.1 -2.5,-2.5 0,-1.5 -4.5,-4.2 -11.9,-4.2 -7.4,0 -11.9,2.7 -11.9,4.2 0,1.4 -1.1,2.5 -2.5,2.5 -1.4,0 -2.5,-1.1 -2.5,-2.5 0,-5.2 7.3,-9.2 16.9,-9.2 9.6,0 16.9,3.9 16.9,9.2 0,1.4 -1.1,2.5 -2.5,2.5 z"
           id="path6261" />
      </g>
      <g
         style="fill:#ff5751;fill-opacity:1"
         transform="matrix(0.11579605,0,0,0.11579605,-37.873144,120.04597)"
         id="g6265">
        <circle
           style="fill:#ff5751;fill-opacity:1"
           class="st2"
           cx="65.900002"
           cy="123.2"
           r="20"
           id="circle6267" />
      </g>
      <g
         style="fill:#242c88;fill-opacity:1"
         transform="matrix(0.11579605,0,0,0.11579605,-37.873144,120.04597)"
         id="g6269">
        <path
           style="fill:#242c88;fill-opacity:1"
           inkscape:connector-curvature="0"
           class="st0"
           d="m 65.9,145.7 c -12.4,0 -22.5,-10.1 -22.5,-22.5 0,-12.4 10.1,-22.5 22.5,-22.5 12.4,0 22.5,10.1 22.5,22.5 0,12.4 -10.1,22.5 -22.5,22.5 z m 0,-40 c -9.6,0 -17.5,7.8 -17.5,17.5 0,9.7 7.8,17.5 17.5,17.5 9.7,0 17.5,-7.8 17.5,-17.5 0,-9.7 -7.9,-17.5 -17.5,-17.5 z"
           id="path6271" />
      </g>
      <g
         style="fill:#242c88;fill-opacity:1"
         transform="matrix(0.11579605,0,0,0.11579605,-37.873144,120.04597)"
         id="g6273">
        <path
           style="fill:#242c88;fill-opacity:1"
           inkscape:connector-curvature="0"
           class="st0"
           d="m 65.9,132.3 c -1,0 -2.1,-0.1 -3.1,-0.4 -5.9,-1.7 -9.3,-7.9 -7.6,-13.8 1.7,-5.9 7.9,-9.3 13.8,-7.6 0,0 0,0 0,0 5.9,1.7 9.3,7.9 7.6,13.8 -1.4,4.8 -5.9,8 -10.7,8 z m 0,-17.3 c -2.7,0 -5.2,1.8 -5.9,4.5 -0.9,3.3 0.9,6.7 4.2,7.7 3.3,0.9 6.7,-0.9 7.7,-4.2 0.9,-3.3 -0.9,-6.7 -4.2,-7.7 l 0,0 C 67,115.1 66.4,115 65.9,115 Z"
           id="path6275" />
      </g>
      <g
         style="fill:#242c88;fill-opacity:1"
         transform="matrix(0.11579605,0,0,0.11579605,-37.873144,120.04597)"
         id="g6277">
        <path
           style="fill:#242c88;fill-opacity:1"
           inkscape:connector-curvature="0"
           class="st0"
           d="m 80.3,139 c -1.4,0 -2.5,-1.1 -2.5,-2.5 0,-1.5 -4.5,-4.2 -11.9,-4.2 -7.4,0 -11.9,2.7 -11.9,4.2 0,1.4 -1.1,2.5 -2.5,2.5 -1.4,0 -2.5,-1.1 -2.5,-2.5 0,-5.2 7.3,-9.2 16.9,-9.2 9.6,0 16.9,3.9 16.9,9.2 0,1.4 -1.1,2.5 -2.5,2.5 z"
           id="path6279" />
      </g>
      <g
         style="fill:#589fff;fill-opacity:1"
         transform="matrix(0.11579605,0,0,0.11579605,-38.030962,121.03376)"
         id="g6283">
        <circle
           style="fill:#589fff;fill-opacity:1"
           class="st1"
           cx="65.900002"
           cy="63.200001"
           r="20"
           id="circle6285" />
      </g>
      <g
         style="fill:#242c88;fill-opacity:1"
         transform="matrix(0.11579605,0,0,0.11579605,-38.030962,121.03376)"
         id="g6287">
        <path
           style="fill:#242c88;fill-opacity:1"
           inkscape:connector-curvature="0"
           class="st0"
           d="m 65.9,85.7 c -12.4,0 -22.5,-10.1 -22.5,-22.5 0,-12.4 10.1,-22.5 22.5,-22.5 12.4,0 22.5,10.1 22.5,22.5 0,12.4 -10.1,22.5 -22.5,22.5 z m 0,-40 c -9.6,0 -17.5,7.8 -17.5,17.5 0,9.7 7.8,17.5 17.5,17.5 9.7,0 17.5,-7.8 17.5,-17.5 0,-9.7 -7.9,-17.5 -17.5,-17.5 z"
           id="path6289" />
      </g>
      <g
         style="fill:#242c88;fill-opacity:1"
         transform="matrix(0.11579605,0,0,0.11579605,-38.030962,121.03376)"
         id="g6291">
        <path
           style="fill:#242c88;fill-opacity:1"
           inkscape:connector-curvature="0"
           class="st0"
           d="m 65.9,72.3 c -1,0 -2.1,-0.1 -3.1,-0.4 C 56.9,70.2 53.5,64 55.2,58.1 56.9,52.2 63.1,48.8 69,50.5 l 0,0 c 5.9,1.7 9.3,7.9 7.6,13.8 -0.8,2.9 -2.7,5.2 -5.3,6.7 -1.7,0.9 -3.6,1.3 -5.4,1.3 z m 0,-17.3 c -2.7,0 -5.2,1.8 -5.9,4.5 -0.9,3.3 0.9,6.7 4.2,7.7 1.6,0.5 3.3,0.3 4.7,-0.5 1.4,-0.8 2.5,-2.1 3,-3.7 0.9,-3.3 -0.9,-6.7 -4.2,-7.7 l 0,0 C 67,55.1 66.4,55 65.9,55 Z"
           id="path6293" />
      </g>
      <g
         style="fill:#242c88;fill-opacity:1"
         transform="matrix(0.11579605,0,0,0.11579605,-38.030962,121.03376)"
         id="g6295">
        <path
           style="fill:#242c88;fill-opacity:1"
           inkscape:connector-curvature="0"
           class="st0"
           d="M 80.3,79 C 78.9,79 77.8,77.9 77.8,76.5 77.8,75 73.3,72.3 65.9,72.3 58.5,72.3 54,75 54,76.5 54,77.9 52.9,79 51.5,79 50.1,79 49,77.9 49,76.5 c 0,-5.2 7.3,-9.2 16.9,-9.2 9.6,0 16.9,3.9 16.9,9.2 0,1.4 -1.1,2.5 -2.5,2.5 z"
           id="path6297" />
      </g>
      <g
         style="fill:#ffc408;fill-opacity:1"
         transform="matrix(0.11579605,0,0,0.11579605,-39.419068,119.92328)"
         id="g6301">
        <circle
           style="fill:#ffc408;fill-opacity:1"
           class="st3"
           cx="125.9"
           cy="103.2"
           r="20"
           id="circle6303" />
      </g>
      <g
         style="fill:#242c88;fill-opacity:1"
         transform="matrix(0.11579605,0,0,0.11579605,-39.419068,119.92328)"
         id="g6305">
        <path
           style="fill:#242c88;fill-opacity:1"
           inkscape:connector-curvature="0"
           class="st0"
           d="m 125.9,125.7 c -12.4,0 -22.5,-10.1 -22.5,-22.5 0,-12.4 10.1,-22.5 22.5,-22.5 12.4,0 22.5,10.1 22.5,22.5 -0.1,12.4 -10.1,22.5 -22.5,22.5 z m 0,-40 c -9.6,0 -17.5,7.8 -17.5,17.5 0,9.6 7.8,17.5 17.5,17.5 9.6,0 17.5,-7.8 17.5,-17.5 -0.1,-9.6 -7.9,-17.5 -17.5,-17.5 z"
           id="path6307" />
      </g>
      <g
         style="fill:#242c88;fill-opacity:1"
         transform="matrix(0.11579605,0,0,0.11579605,-39.419068,119.92328)"
         id="g6309">
        <path
           style="fill:#242c88;fill-opacity:1"
           inkscape:connector-curvature="0"
           class="st0"
           d="m 125.9,112.3 c -1,0 -2.1,-0.1 -3.1,-0.4 -5.9,-1.7 -9.3,-7.9 -7.6,-13.8 0.8,-2.9 2.7,-5.2 5.3,-6.7 2.6,-1.4 5.6,-1.8 8.5,-0.9 l 0,0 c 5.9,1.7 9.3,7.9 7.6,13.8 -1.4,4.8 -5.9,8 -10.7,8 z m 0,-17.3 c -1,0 -2,0.3 -3,0.8 -1.4,0.8 -2.5,2.1 -3,3.7 -0.9,3.3 0.9,6.7 4.2,7.7 3.3,0.9 6.7,-0.9 7.7,-4.2 0.9,-3.3 -0.9,-6.7 -4.2,-7.7 l 0,0 C 127,95.1 126.4,95 125.9,95 Z"
           id="path6311" />
      </g>
      <g
         style="fill:#242c88;fill-opacity:1"
         transform="matrix(0.11579605,0,0,0.11579605,-39.419068,119.92328)"
         id="g6313">
        <path
           style="fill:#242c88;fill-opacity:1"
           inkscape:connector-curvature="0"
           class="st0"
           d="m 140.3,119 c -1.4,0 -2.5,-1.1 -2.5,-2.5 0,-1.5 -4.5,-4.2 -11.9,-4.2 -7.4,0 -11.9,2.7 -11.9,4.2 0,1.4 -1.1,2.5 -2.5,2.5 -1.4,0 -2.5,-1.1 -2.5,-2.5 0,-5.2 7.3,-9.2 16.9,-9.2 9.6,0 16.9,3.9 16.9,9.2 0,1.4 -1.1,2.5 -2.5,2.5 z"
           id="path6315" />
      </g>
      <g
         style="fill:#242c88;fill-opacity:1"
         transform="matrix(0.05860532,0,0,0.05885703,-33.142165,125.19407)"
         id="g6317">
        <path
           id="path6319"
           d="m 110.4,93 c -0.5,0 -0.9,-0.1 -1.3,-0.4 L 81.8,75.3 C 80.6,74.6 80.3,73 81,71.8 81.7,70.6 83.3,70.3 84.5,71 l 27.3,17.4 c 1.2,0.7 1.5,2.3 0.8,3.5 -0.5,0.7 -1.3,1.1 -2.2,1.1 z"
           class="st0"
           inkscape:connector-curvature="0"
           style="fill:#242c88;fill-opacity:1" />
      </g>
      <path
         sodipodi:nodetypes="scccccscccs"
         id="path6323"
         d="m -24.651398,129.87016 c -0.007,0 -0.01392,0 -0.02088,0 -0.09746,-0.0109 -0.160117,-0.076 -0.146194,-0.152 l 0.299349,-1.74253 c 0.01392,-0.0706 0.09746,-0.11943 0.181001,-0.11943 l 2.108595,-0.65495 c 0.09746,0.005 0.167078,0.0706 0.160117,0.14657 -0.007,0.076 -0.0905,0.13028 -0.187963,0.12486 l -1.941517,0.6658 -0.278464,1.61768 c -0.01392,0.0651 -0.0905,0.114 -0.17404,0.114 z"
         class="st0"
         inkscape:connector-curvature="0"
         style="fill:#242c88;fill-opacity:1" />
      <g
         style="fill:#242c88;fill-opacity:1"
         transform="matrix(0.07758381,0,0,0.06449696,-33.929918,124.96524)"
         id="g6325">
        <path
           id="path6327"
           d="m 145.8,105.7 c -0.8,0 -1.6,-0.4 -2.1,-1.2 -0.7,-1.2 -0.4,-2.7 0.8,-3.4 l 14,-8.9 c 1.2,-0.7 2.7,-0.4 3.4,0.8 0.7,1.2 0.4,2.7 -0.8,3.5 l -14,8.9 c -0.3,0.2 -0.8,0.3 -1.3,0.3 z"
           class="st0"
           inkscape:connector-curvature="0"
           style="fill:#242c88;fill-opacity:1" />
      </g>
      <g
         style="fill:#242c88;fill-opacity:1"
         transform="matrix(0.06200192,0,0,0.08910968,-31.782757,122.86132)"
         id="g6329">
        <path
           id="path6331"
           d="m 165.9,125.7 c -0.2,0 -0.5,0 -0.7,-0.1 l -23.7,-6.7 c -1.3,-0.4 -2.1,-1.8 -1.7,-3.1 0.4,-1.3 1.8,-2.1 3.1,-1.7 l 23.7,6.7 c 1.3,0.4 2.1,1.8 1.7,3.1 -0.3,1.1 -1.3,1.8 -2.4,1.8 z"
           class="st0"
           inkscape:connector-curvature="0"
           style="fill:#242c88;fill-opacity:1" />
      </g>
      <g
         style="fill:#242c88;fill-opacity:1"
         transform="matrix(0.0643639,0,0,0.05609651,-33.773759,126.53427)"
         id="g6333">
        <path
           id="path6335"
           d="m 85.8,123.7 c -1,0 -2,-0.6 -2.3,-1.6 -0.5,-1.3 0.2,-2.7 1.5,-3.2 l 21.4,-8 c 1.3,-0.5 2.7,0.2 3.2,1.5 0.5,1.3 -0.2,2.7 -1.5,3.2 l -21.4,8 c -0.3,0 -0.6,0.1 -0.9,0.1 z"
           class="st0"
           inkscape:connector-curvature="0"
           style="fill:#242c88;fill-opacity:1" />
      </g>
      <g
         style="fill:#242c88;fill-opacity:1"
         transform="matrix(0.04685144,0,0,0.04950597,-32.046414,128.52922)"
         id="g6337">
        <path
           id="path6339"
           d="m 110.4,144.2 c -0.3,0 -0.7,-0.1 -1,-0.2 L 83.7,132.2 c -1.3,-0.6 -1.8,-2.1 -1.2,-3.3 0.6,-1.3 2.1,-1.8 3.3,-1.2 l 25.7,11.8 c 1.3,0.6 1.8,2.1 1.2,3.3 -0.4,0.8 -1.3,1.4 -2.3,1.4 z"
           class="st0"
           inkscape:connector-curvature="0"
           style="fill:#242c88;fill-opacity:1" />
      </g>
      <g
         style="fill:#242c88;fill-opacity:1"
         transform="matrix(0.11579605,0,0,0.11579605,-39.632992,121.96459)"
         id="g6341">
        <circle
           id="circle6343"
           r="8.6999998"
           cy="50.400002"
           cx="133.5"
           class="st0"
           style="fill:#242c88;fill-opacity:1" />
      </g>
      <g
         style="fill:#242c88;fill-opacity:1"
         transform="matrix(0.11579605,0,0,0.11579605,-39.787146,120.09505)"
         id="g6345">
        <circle
           id="circle6347"
           r="8.6999998"
           cy="92.5"
           cx="162.60001"
           class="st0"
           style="fill:#242c88;fill-opacity:1" />
      </g>
      <g
         style="fill:#242c88;fill-opacity:0.94117647"
         transform="matrix(0.11579605,0,0,0.11579605,-39.243899,119.45602)"
         id="g6349">
        <circle
           id="circle6351"
           r="8.6999998"
           cy="140.8"
           cx="111.5"
           class="st0"
           style="fill:#242c88;fill-opacity:0.94117647" />
      </g>
    </g>
  </g>
</svg>
