<?xml version="1.0" encoding="UTF-8" standalone="no"?>
<!-- Created with Inkscape (http://www.inkscape.org/) -->

<svg
   xmlns:dc="http://purl.org/dc/elements/1.1/"
   xmlns:cc="http://creativecommons.org/ns#"
   xmlns:rdf="http://www.w3.org/1999/02/22-rdf-syntax-ns#"
   xmlns:svg="http://www.w3.org/2000/svg"
   xmlns="http://www.w3.org/2000/svg"
   xmlns:sodipodi="http://sodipodi.sourceforge.net/DTD/sodipodi-0.dtd"
   xmlns:inkscape="http://www.inkscape.org/namespaces/inkscape"
   width="10mm"
   height="10mm"
   viewBox="0 0 35.43307 35.43307"
   id="svg6558"
   version="1.1"
   inkscape:version="0.91 r13725"
   sodipodi:docname="Performance.svg">
  <defs
     id="defs6560" />
  <sodipodi:namedview
     id="base"
     pagecolor="#ffffff"
     bordercolor="#666666"
     borderopacity="1.0"
     inkscape:pageopacity="0.0"
     inkscape:pageshadow="2"
     inkscape:zoom="5.6"
     inkscape:cx="17.844033"
     inkscape:cy="28.832559"
     inkscape:document-units="px"
     inkscape:current-layer="layer1"
     showgrid="false"
     inkscape:window-width="727"
     inkscape:window-height="662"
     inkscape:window-x="2"
     inkscape:window-y="0"
     inkscape:window-maximized="0" />
  <metadata
     id="metadata6563">
    <rdf:RDF>
      <cc:Work
         rdf:about="">
        <dc:format>image/svg+xml</dc:format>
        <dc:type
           rdf:resource="http://purl.org/dc/dcmitype/StillImage" />
        <dc:title></dc:title>
      </cc:Work>
    </rdf:RDF>
  </metadata>
  <g
     inkscape:label="Layer 1"
     inkscape:groupmode="layer"
     id="layer1"
     transform="translate(0,-1016.9291)">
    <g
       id="g4828"
       transform="matrix(0.72233582,0,0,0.72233582,34.77978,955.08199)">
      <rect
         id="rect6003"
         y="104.02656"
         x="-34.305069"
         width="16.803925"
         ry="0.281111"
         rx="0.40704778"
         height="16.803925"
         class="fil2"
         style="fill:#242c88;fill-opacity:1;fill-rule:evenodd;stroke:none" />
      <rect
         id="rect6005"
         y="106.50837"
         x="-33.876225"
         width="15.943199"
         height="13.893272"
         class="fil3"
         style="fill:#d3d5e7;fill-opacity:1;fill-rule:evenodd;stroke:#242c88;stroke-width:0.00304144;stroke-opacity:1" />
      <rect
         id="rect6007"
         y="104.82646"
         x="-28.635836"
         width="9.7021761"
         ry="0.14294742"
         rx="0.14294742"
         height="0.67823988"
         class="fil4"
         style="fill:#d3d5e7;fill-opacity:1;fill-rule:evenodd;stroke:#242c88;stroke-width:0.00304144;stroke-opacity:1" />
      <path
         id="path6009"
         d="m -32.705274,104.67135 c 0.27373,0 0.492713,0.22202 0.492713,0.49271 0,0.27373 -0.222025,0.49575 -0.492713,0.49575 -0.273729,0 -0.492712,-0.22202 -0.492712,-0.49575 0,-0.27373 0.222025,-0.49271 0.492712,-0.49271 z m 2.579137,0 c 0.273729,0 0.495754,0.22202 0.495754,0.49271 0,0.27373 -0.222025,0.49575 -0.495754,0.49575 -0.273729,0 -0.492713,-0.22202 -0.492713,-0.49575 0,-0.27373 0.222025,-0.49271 0.492713,-0.49271 z m -1.289568,0 c 0.273729,0 0.495754,0.22202 0.495754,0.49271 0,0.27373 -0.222025,0.49575 -0.495754,0.49575 -0.273729,0 -0.492713,-0.22202 -0.492713,-0.49575 0,-0.27373 0.222025,-0.49271 0.492713,-0.49271 z"
         class="fil4"
         inkscape:connector-curvature="0"
         style="fill:#d3d5e7;fill-opacity:1;fill-rule:evenodd;stroke:#242c88;stroke-width:0.00304144;stroke-opacity:1" />
      <path
         id="path6012"
         d="m -22.878399,114.5408 c 0.492712,0.75428 0.544417,1.68496 -0.124699,2.51527 -0.669116,0.83031 -2.089465,1.0645 -3.007979,0.32239 -0.921554,-0.74211 -1.064501,-2.08947 -0.322392,-3.00798 0.596121,-0.74211 1.587629,-0.97934 2.430107,-0.65695 l 3.975153,-3.88087 0,0 z m -1.371688,0.65087 c 0.285895,0.23115 0.331518,0.65391 0.100367,0.9398 -0.231149,0.28894 -0.653908,0.33152 -0.939803,0.10037 -0.288936,-0.23115 -0.331517,-0.65391 -0.100366,-0.9398 0.23115,-0.2859 0.653909,-0.33152 0.939802,-0.10037 z"
         class="fil0"
         inkscape:connector-curvature="0"
         style="fill:#ff5722;fill-opacity:1;fill-rule:evenodd;stroke:#242c88;stroke-width:0.40299773;stroke-miterlimit:4;stroke-dasharray:none;stroke-opacity:1"
         sodipodi:nodetypes="csccccccsccss" />
      <path
         id="path6016"
         d="m -24.976989,109.5346 c 1.316941,0 2.551763,0.36801 3.601059,1.00367 -0.690406,0.59613 -1.6515,1.42948 -2.341905,2.04993 -0.775566,-0.34976 -1.636292,-0.54442 -2.539597,-0.54442 -2.487894,0 -4.632105,1.46597 -5.61753,3.57977 0.425801,-3.43378 3.351661,-6.09199 6.901015,-6.09199 z"
         class="fil6"
         inkscape:connector-curvature="0"
         style="fill:#4caf50;fill-opacity:1;fill-rule:evenodd;stroke:#242c88;stroke-width:0.40299773;stroke-miterlimit:4;stroke-dasharray:none;stroke-opacity:1" />
      <path
         sodipodi:nodetypes="sccss"
         style="fill:#ffc408;fill-opacity:1;fill-rule:evenodd;stroke:none"
         inkscape:connector-curvature="0"
         class="fil0"
         d="m -24.250087,115.19167 c 0.285895,0.23115 0.331518,0.65391 0.100367,0.9398 -0.231149,0.28894 -0.653908,0.33152 -0.939803,0.10037 -0.288936,-0.23115 -0.331517,-0.65391 -0.100366,-0.9398 0.23115,-0.2859 0.653909,-0.33152 0.939802,-0.10037 z"
         id="path7170" />
    </g>
  </g>
</svg>
