<?xml version="1.0" encoding="UTF-8" standalone="no"?>
<!-- Created with Inkscape (http://www.inkscape.org/) -->

<svg
   xmlns:dc="http://purl.org/dc/elements/1.1/"
   xmlns:cc="http://creativecommons.org/ns#"
   xmlns:rdf="http://www.w3.org/1999/02/22-rdf-syntax-ns#"
   xmlns:svg="http://www.w3.org/2000/svg"
   xmlns="http://www.w3.org/2000/svg"
   xmlns:sodipodi="http://sodipodi.sourceforge.net/DTD/sodipodi-0.dtd"
   xmlns:inkscape="http://www.inkscape.org/namespaces/inkscape"
   width="10mm"
   height="10mm"
   viewBox="0 0 35.43307 35.43307"
   id="svg6558"
   version="1.1"
   inkscape:version="0.91 r13725"
   sodipodi:docname="plan.svg">
  <defs
     id="defs6560" />
  <sodipodi:namedview
     id="base"
     pagecolor="#ffffff"
     bordercolor="#666666"
     borderopacity="1.0"
     inkscape:pageopacity="0.0"
     inkscape:pageshadow="2"
     inkscape:zoom="5.6"
     inkscape:cx="17.844033"
     inkscape:cy="28.832559"
     inkscape:document-units="px"
     inkscape:current-layer="layer1"
     showgrid="false"
     inkscape:window-width="727"
     inkscape:window-height="662"
     inkscape:window-x="2"
     inkscape:window-y="0"
     inkscape:window-maximized="0" />
  <metadata
     id="metadata6563">
    <rdf:RDF>
      <cc:Work
         rdf:about="">
        <dc:format>image/svg+xml</dc:format>
        <dc:type
           rdf:resource="http://purl.org/dc/dcmitype/StillImage" />
        <dc:title></dc:title>
      </cc:Work>
    </rdf:RDF>
  </metadata>
  <g
     inkscape:label="Layer 1"
     inkscape:groupmode="layer"
     id="layer1"
     transform="translate(0,-1016.9291)">
    <g
       id="g6338"
       transform="translate(-174.87017,952.98474)">
      <g
         transform="matrix(0.5613305,0,0,0.5613305,159.86354,27.834278)"
         id="g7624">
        <g
           id="g7346"
           transform="matrix(0.06930693,0,0,0.06930693,37.742921,80.82018)"
           style="fill:#2196f3;fill-opacity:1">
          <g
             id="g7689">
            <g
               id="g7538"
               transform="matrix(7.0130722,0,0,7.0130722,213.91235,-600.63323)">
              <path
                 d="m 14.766874,127.05091 -1,1.89999 -0.1,0.20001 c -0.4,0.19999 -0.8,0.29999 -1.2,0.39999 -0.4,0.10001 -0.8,0.3 -1.2,0.3 -0.1,0 -0.2,0.1 -0.4,0.1 -0.5,0.1 -0.9,0.20001 -1.4,0.3 -0.5,0.1 -1,0.2 -1.5,0.2 0,0 -0.1,0 -0.2,0 -0.1,0 -0.2,0 -0.4,0 -0.5,0 -1,0.1 -1.5,0.1 -0.5,0 -1,0 -1.5,-0.1 -0.1,0 -0.3,0 -0.4,0 -0.1,0 -0.1,0 -0.2,0 -0.5,0 -1,-0.1 -1.5,-0.2 -2.2,-0.4 -4.2,-1.09999 -6.1,-2 -0.7,-2.8 -1.4,-5.9 -1.1,-6.3 0.7,-0.8 3.2,-4.2 3.2,-4.2 l 1,-0.29999 2,-0.60001 0.3,-0.1 0.1,0 0.3,-0.1 1.4,-0.4 2.3,-0.69999 2.4,0.59999 1.4,0.40001 0.3,0.1 0.1,0 0.3,0.1 2.1,0.6 1.7,0.4 0.8,9.30001 z"
                 id="path7540"
                 inkscape:connector-curvature="0"
                 style="fill:#54c0eb" />
              <path
                 d="m 7.666874,129.6509 0.2,0.9 c -0.1,0 -0.2,0 -0.4,0 -0.5,0 -1,0.1 -1.5,0.1 -0.5,0 -1,0 -1.5,-0.1 -0.1,0 -0.3,0 -0.4,0 l 0.2,-0.9 1.4,-7.8 -1.5,-1.89999 -1.4,-1.80001 6.5,0 -1.5,1.70001 -1.5,1.9 1.4,7.9 z"
                 id="path7542"
                 inkscape:connector-curvature="0"
                 style="fill:#ff7058" />
              <path
                 d="m 10.066874,114.6509 c 0,3 -1.8,3.5 -4.1,3.5 -2.3,0 -4.1,-0.4 -4.1,-3.5 0,-3 1.8,-7.9 4.1,-7.9 2.3,0 4.1,4.9 4.1,7.9 z"
                 id="path7544"
                 inkscape:connector-curvature="0"
                 style="fill:#e6e9ee" />
              <path
                 d="m 3.966874,130.4509 c -0.5,0 -1,-0.1 -1.5,-0.2 -2.2,-0.4 -4.2,-1.1 -6.1,-2 -0.4,-0.2 -0.7,-0.4 -1.1,-0.6 -1.7,-1 -3.3,-2.3 -4.6,-3.8 -0.8,-2.5 -1.4,-4.2 -1.4,-4.29999 0,0 0,0 0,0 7.1,-1.90001 10.2,-3.70001 11.5,-4.8 0.7,-0.60001 0.9,-1 0.9,-1 0,0.1 0,0.1 0,0.2 0,0.9 0.1,1.9 0.2,2.8 0,0.6 0.1,1.1 0.2,1.7 0.4,4.7 1.1,8.8 1.9,11.99999 z"
                 id="path7546"
                 inkscape:connector-curvature="0"
                 style="fill:#324a5e" />
              <path
                 d="m 4.466874,130.5509 c -0.1,0 -0.3,0 -0.4,0 -0.1,0 -0.1,0 -0.2,0 -0.5,0 -1,-0.1 -1.5,-0.2 -2,-5.4 -3.9,-10.89999 -3.9,-10.89999 l 2,-1 -1,-1 -0.2,-0.20001 c 0.4,-0.9 0.9,-1.79999 1.4,-2.5 0.5,-0.69999 1,-1.29999 1.2,-1.5 0,0 0,0 0,0 0.1,-0.1 0.1,-0.1 0.1,-0.1 0,0 0,0.1 0,0.1 0,0 0,0.1 0,0.20001 -0.1,0.5 -0.2,1.1 -0.1,2 0,0 0,0 0,0 0,0.39999 0,0.89999 0.1,1.5 0.1,0.69999 0.2,1.5 0.3,2.29999 l 0,0 c 0.4,3.2 1.2,7.00001 2,10.6 0.1,0.1 0.1,0.4 0.2,0.7 z"
                 id="path7548"
                 inkscape:connector-curvature="0"
                 style="fill:#324a5e" />
              <path
                 d="m 22.666874,119.55091 c 0,0 0,0 0,0 0,0.1 -0.6,1.7 -1.4,4.29999 -1.4,1.5 -2.9,2.8 -4.6,3.8 -0.9,0.5 -1.8,1 -2.8,1.4 -0.1,0 -0.2,0.1 -0.2,0.1 -0.4,0.2 -0.8,0.3 -1.2,0.4 -0.4,0.1 -0.8,0.3 -1.2,0.3 -0.1,0 -0.2,0.1 -0.4,0.1 -0.5,0.1 -0.9,0.2 -1.4,0.3 -0.5,0.1 -1,0.2 -1.5,0.2 0.8,-3.3 1.5,-7.4 2,-12.1 0.1,-0.6 0.1,-1.2 0.2,-1.79999 0.1,-0.90001 0.1,-1.80001 0.2,-2.70001 l 0,0 c 0,-0.1 0,-0.1 0,-0.2 0,0 0.2,0.4 0.9,1 1.3,1.2 4.4,3 11.4,4.9 z"
                 id="path7550"
                 inkscape:connector-curvature="0"
                 style="fill:#324a5e" />
              <path
                 d="m 13.366874,119.45091 c 0,0 -1.9,5.49999 -3.9,10.89999 -0.5,0.1 -1,0.2 -1.5,0.2 0,0 -0.1,0 -0.2,0 -0.1,0 -0.2,0 -0.4,0 0.1,-0.3 0.1,-0.6 0.2,-0.9 0.8,-3.59999 1.6,-7.5 2,-10.59999 0,0 0,0 0,0 0.1,-0.90001 0.2,-1.70001 0.3,-2.40001 0,-0.5 0.1,-1 0.1,-1.4 0,0 0,0 0,0 l 0,0 c 0,-0.79999 0,-1.4 -0.2,-1.79999 l 0,0 c 0,0 0,-0.10001 0,-0.10001 0,0 0,-0.1 0,-0.1 0,0 0,0 0.1,0.1 0,0 0,0 0,0 0.2,0.3 0.7,0.8 1.2,1.5 0.5,0.70001 1,1.60001 1.4,2.5 l 0,0 -1.1,1.20001 2,0.9 z"
                 id="path7552"
                 inkscape:connector-curvature="0"
                 style="fill:#324a5e" />
              <ellipse
                 transform="translate(-46.233126,57.350905)"
                 cx="52.200001"
                 cy="48.5"
                 rx="7.0999999"
                 ry="8.8999996"
                 id="ellipse7554"
                 style="fill:#ffffff" />
              <ellipse
                 cx="59.299999"
                 cy="47.900002"
                 rx="1.3"
                 ry="2.4000001"
                 transform="matrix(0.9465,0.3227,-0.3227,0.9465,-27.589826,40.789505)"
                 id="ellipse7556"
                 style="fill:#ffffff" />
              <ellipse
                 cx="45.099998"
                 cy="47.900002"
                 rx="1.3"
                 ry="2.4000001"
                 transform="matrix(-0.9465,0.3227,-0.3227,-0.9465,57.074874,136.1151)"
                 id="ellipse7558"
                 style="fill:#ffffff" />
              <path
                 d="m -0.433126,107.1509 c -3.7,-7.599995 1.4,-10.099995 1.4,-10.099995 l -2.4,1.4 c 7.5781428,-7.031143 12.5,-1.6 12.5,-1.6 5,3.899995 1.8,9.799995 1.8,9.799995 0,0 -0.6,-4.3 -2.7,-6.2 0,0 -2.6,2.9 -8.6,0.2 l -1.7,3 c 0,0.1 -0.7,2 -0.3,3.5 z"
                 id="path7560"
                 inkscape:connector-curvature="0"
                 style="fill:#324a5e"
                 sodipodi:nodetypes="ccccccccc" />
              <path
                 d="m 2.166874,113.05091 c 0,0 0.6,3.5 3.8,5.09999 0,0 -2.2,1.70001 -2.6,3 0,0 -3.5,-5.09999 -1.2,-8.09999 z"
                 id="path7562"
                 inkscape:connector-curvature="0"
                 style="fill:#84dbff" />
              <path
                 d="m 9.766874,113.05091 c 0,0 -0.6,3.5 -3.8,5.09999 0,0 2.2,1.70001 2.6,3 0,0 3.5,-5.09999 1.2,-8.09999 z"
                 id="path7564"
                 inkscape:connector-curvature="0"
                 style="fill:#84dbff" />
              <path
                 d="m 13.866874,129.0509 c -0.1,0 -0.2,0.1 -0.2,0.1 -0.4,0.2 -0.8,0.3 -1.2,0.4 l 1,-1 0.4,0.5 z"
                 id="path7566"
                 inkscape:connector-curvature="0"
                 style="fill:#324a5e" />
            </g>
            <path
               transform="matrix(14.428571,0,0,14.428571,-544.57644,-1166.1197)"
               id="path7344"
               d="m 65.091436,97.370675 -19.211881,0 c -0.443565,0 -0.810891,0.360396 -0.810891,0.810891 l 0,10.645544 c 0,0.44356 0.360396,0.81089 0.810891,0.81089 l 19.218811,0 c 0.443565,0 0.810891,-0.36039 0.810891,-0.81089 l 0,-10.645544 c -0.0069,-0.443564 -0.367326,-0.810891 -0.817821,-0.810891 z"
               inkscape:connector-curvature="0"
               style="fill:#242c88;fill-opacity:1" />
            <g
               transform="translate(5.7757681e-7,1.4768934e-6)"
               id="g7356">
              <g
                 id="g7358">
                <path
                   id="path7360"
                   d="m 407.5,310 -4.8,0 c -3.5,0 -6.3,-2.8 -6.3,-6.3 l 0,0 c 0,-3.5 2.8,-6.3 6.3,-6.3 l 4.8,0 c 3.5,0 6.3,2.8 6.3,6.3 l 0,0 c 0,3.5 -2.8,6.3 -6.3,6.3 z"
                   inkscape:connector-curvature="0"
                   style="fill:#ffd05b" />
                <path
                   id="path7362"
                   d="m 407.5,322.6 -4.8,0 c -3.5,0 -6.3,-2.8 -6.3,-6.3 l 0,0 c 0,-3.5 2.8,-6.3 6.3,-6.3 l 4.8,0 c 3.5,0 6.3,2.8 6.3,6.3 l 0,0 c 0,3.5 -2.8,6.3 -6.3,6.3 z"
                   inkscape:connector-curvature="0"
                   style="fill:#ffd05b" />
                <path
                   id="path7364"
                   d="m 407.5,335.2 -4.8,0 c -3.5,0 -6.3,-2.8 -6.3,-6.3 l 0,0 c 0,-3.5 2.8,-6.3 6.3,-6.3 l 4.8,0 c 3.5,0 6.3,2.8 6.3,6.3 l 0,0 c 0,3.4 -2.8,6.3 -6.3,6.3 z"
                   inkscape:connector-curvature="0"
                   style="fill:#ffd05b" />
                <path
                   id="path7366"
                   d="m 407.5,347.7 -4.8,0 c -3.5,0 -6.3,-2.8 -6.3,-6.3 l 0,0 c 0,-3.5 2.8,-6.3 6.3,-6.3 l 4.8,0 c 3.5,0 6.3,2.8 6.3,6.3 l 0,0 c 0,3.5 -2.8,6.3 -6.3,6.3 z"
                   inkscape:connector-curvature="0"
                   style="fill:#ffd05b" />
              </g>
              <g
                 id="g7368">
                <path
                   id="path7370"
                   d="m 109.3,310 -4.8,0 c -3.5,0 -6.3,-2.8 -6.3,-6.3 l 0,0 c 0,-3.5 2.8,-6.3 6.3,-6.3 l 4.8,0 c 3.5,0 6.3,2.8 6.3,6.3 l 0,0 c 0,3.5 -2.9,6.3 -6.3,6.3 z"
                   inkscape:connector-curvature="0"
                   style="fill:#ffd05b" />
                <path
                   id="path7372"
                   d="m 109.3,322.6 -4.8,0 c -3.5,0 -6.3,-2.8 -6.3,-6.3 l 0,0 c 0,-3.5 2.8,-6.3 6.3,-6.3 l 4.8,0 c 3.5,0 6.3,2.8 6.3,6.3 l 0,0 c 0,3.5 -2.9,6.3 -6.3,6.3 z"
                   inkscape:connector-curvature="0"
                   style="fill:#ffd05b" />
                <path
                   id="path7374"
                   d="m 109.3,335.2 -4.8,0 c -3.5,0 -6.3,-2.8 -6.3,-6.3 l 0,0 c 0,-3.5 2.8,-6.3 6.3,-6.3 l 4.8,0 c 3.5,0 6.3,2.8 6.3,6.3 l 0,0 c 0,3.4 -2.9,6.3 -6.3,6.3 z"
                   inkscape:connector-curvature="0"
                   style="fill:#ffd05b" />
                <path
                   id="path7376"
                   d="m 109.3,347.7 -4.8,0 c -3.5,0 -6.3,-2.8 -6.3,-6.3 l 0,0 c 0,-3.5 2.8,-6.3 6.3,-6.3 l 4.8,0 c 3.5,0 6.3,2.8 6.3,6.3 l 0,0 c 0,3.5 -2.9,6.3 -6.3,6.3 z"
                   inkscape:connector-curvature="0"
                   style="fill:#ffd05b" />
              </g>
            </g>
            <path
               transform="matrix(14.428571,0,0,14.428571,-544.57644,-1166.1197)"
               style="fill:#ffffff"
               inkscape:connector-curvature="0"
               d="m 64.210822,97.933175 -17.450017,0 c -0.402887,0 -0.736526,0.327345 -0.736526,0.736526 l 0,9.669269 c 0,0.40288 0.327344,0.73653 0.736526,0.73653 l 17.456311,0 c 0.402887,0 0.736526,-0.32734 0.736526,-0.73653 l 0,-9.669269 c -0.0062,-0.402886 -0.333639,-0.736526 -0.74282,-0.736526 z"
               id="path7622" />
            <path
               transform="matrix(14.428571,0,0,14.428571,-544.57644,-1166.1197)"
               style="fill:#f3eded;fill-opacity:1;stroke:none"
               d="m 46.38176,98.429685 c -0.0503,0.619396 0.01703,2.891345 0.01703,2.891345 l -0.01151,0.41566 3.042089,-3.278626 -1.396612,-0.03145 c 0,0 -1.10892,-0.0099 -1.339854,-0.0044 z"
               id="path7620"
               inkscape:connector-curvature="0"
               sodipodi:nodetypes="cccccsc" />
            <path
               id="path7348"
               d="m 189.7,300.1 c 3.9,3.3 5.8,8.4 5.8,15.2 0,6.9 -2,11.9 -6,15 -4,3.2 -10.1,4.8 -18.3,4.8 l -7.4,0 0,15.5 -12.4,0 0,-55.5 19.6,0 c 8.6,0 14.8,1.6 18.7,5 z m -9.1,21.8 c 1.5,-1.7 2.2,-4.1 2.2,-7.3 0,-3.2 -1,-5.5 -2.9,-6.8 -1.9,-1.3 -4.9,-2 -9,-2 l -7.1,0 0,18.6 8.3,0 c 4.2,0 7,-0.9 8.5,-2.5 z"
               inkscape:connector-curvature="0"
               style="fill:#2196f3;fill-opacity:1" />
            <path
               id="path7350"
               d="m 205.2,350.6 0,-55.5 12.4,0 0,44.4 23.6,0 0,11 -36,0 z"
               inkscape:connector-curvature="0"
               style="fill:#2196f3;fill-opacity:1" />
            <path
               id="path7352"
               d="m 289.8,350.6 -5.2,-12 -23.3,0 -5.2,12 -13.1,0 24,-55.5 12,0 24,55.5 -13.2,0 z m -16.8,-39 -7,16.1 13.9,0 -6.9,-16.1 z"
               inkscape:connector-curvature="0"
               style="fill:#2196f3;fill-opacity:1" />
            <path
               id="path7354"
               d="m 348.2,295.1 12.4,0 0,55.5 -12.4,0 -26.4,-34.8 0,34.8 -12.4,0 0,-55.5 11.6,0 27.2,35.7 0,-35.7 z"
               inkscape:connector-curvature="0"
               style="fill:#2196f3;fill-opacity:1" />
          </g>
        </g>
      </g>
    </g>
  </g>
</svg>
