<?xml version="1.0" encoding="UTF-8" standalone="no"?>
<!-- Created with Inkscape (http://www.inkscape.org/) -->

<svg
   xmlns:dc="http://purl.org/dc/elements/1.1/"
   xmlns:cc="http://creativecommons.org/ns#"
   xmlns:rdf="http://www.w3.org/1999/02/22-rdf-syntax-ns#"
   xmlns:svg="http://www.w3.org/2000/svg"
   xmlns="http://www.w3.org/2000/svg"
   xmlns:sodipodi="http://sodipodi.sourceforge.net/DTD/sodipodi-0.dtd"
   xmlns:inkscape="http://www.inkscape.org/namespaces/inkscape"
   width="10mm"
   height="10mm"
   viewBox="0 0 35.43307 35.43307"
   id="svg6558"
   version="1.1"
   inkscape:version="0.91 r13725"
   sodipodi:docname="Termination.svg">
  <defs
     id="defs6560" />
  <sodipodi:namedview
     id="base"
     pagecolor="#ffffff"
     bordercolor="#666666"
     borderopacity="1.0"
     inkscape:pageopacity="0.0"
     inkscape:pageshadow="2"
     inkscape:zoom="5.6"
     inkscape:cx="17.844033"
     inkscape:cy="28.832559"
     inkscape:document-units="px"
     inkscape:current-layer="layer1"
     showgrid="false"
     inkscape:window-width="727"
     inkscape:window-height="662"
     inkscape:window-x="2"
     inkscape:window-y="0"
     inkscape:window-maximized="0" />
  <metadata
     id="metadata6563">
    <rdf:RDF>
      <cc:Work
         rdf:about="">
        <dc:format>image/svg+xml</dc:format>
        <dc:type
           rdf:resource="http://purl.org/dc/dcmitype/StillImage" />
        <dc:title></dc:title>
      </cc:Work>
    </rdf:RDF>
  </metadata>
  <g
     inkscape:label="Layer 1"
     inkscape:groupmode="layer"
     id="layer1"
     transform="translate(0,-1016.9291)">
    <g
       id="g6836"
       transform="matrix(1.2926751,0,0,1.2926751,93.655204,957.21438)">
      <path
         inkscape:connector-curvature="0"
         id="path11466"
         d="m -63.092626,58.95538 -0.416333,-0.34898 c 0.02558,-0.0015 0.05097,-0.0039 0.07692,-0.0039 l 0.678793,0 c 0.02595,0 0.05137,0.0023 0.07695,0.0039 l -0.416332,0.34898 z"
         style="fill:#3b4652;fill-opacity:1" />
      <path
         inkscape:connector-curvature="0"
         id="path11464"
         d="m -64.070388,57.147901 c 0,-0.539103 0.438612,-0.977645 0.977715,-0.977645 0.53922,0 0.977855,0.438542 0.977855,0.977645 0,0.53915 -0.438635,0.977832 -0.977855,0.977832 -0.539103,0 -0.977715,-0.438682 -0.977715,-0.977832 z"
         style="fill:#3b4652;fill-opacity:1" />
      <path
         inkscape:connector-curvature="0"
         id="path10923"
         d="m -61.47052,61.877035 c 0,0.292626 -0.09621,0.568216 -0.278211,0.79714 l -0.04259,0.05347 0,2.748172 c 0,0.209874 -0.170769,0.380644 -0.380644,0.380644 -0.209851,0 -0.380573,-0.17077 -0.380573,-0.380644 l 0,-2.120068 -0.0047,-0.196021 -1.075398,0 0,2.316089 c 0,0.209874 -0.170722,0.380644 -0.380597,0.380644 -0.209851,0 -0.380667,-0.17077 -0.380667,-0.380644 l 0,-2.747891 -0.04252,-0.05357 c -0.182096,-0.229088 -0.278375,-0.504841 -0.278375,-0.797304 l 0,-1.991821 c 0,-0.512331 0.30262,-0.954102 0.737862,-1.15953 l 0.688341,0.576921 0,1.360746 0.391995,0 0,-1.36077 0.688294,-0.57692 c 0.435196,0.205427 0.737768,0.647199 0.737768,1.159529 l 0,1.991822 z"
         style="fill:#3b4652;fill-opacity:1" />
      <path
         inkscape:connector-curvature="0"
         id="path11460"
         d="m -58.198495,60.275424 1.119774,-0.812452 -1.119774,-0.812468 -2.240508,0 0,1.624937 1.066818,0 0,5.250844 -0.601183,0 0,0.27294 1.422776,0 0,-0.27294 -0.548668,0 0,-5.250861 0.900765,0 z"
         style="fill:#f4b459;fill-opacity:1;stroke:#074370;stroke-width:0.14044477;stroke-miterlimit:4;stroke-dasharray:none;stroke-opacity:1" />
      <path
         inkscape:connector-curvature="0"
         id="path10925"
         d="m -60.166094,58.923462 1.879074,0 0.743578,0.53951 -0.743578,0.539528 -1.879074,0 0,-1.079038 z"
         style="fill:#eaeaea;fill-opacity:1" />
      <path
         style="fill:none;stroke:#ffffff;stroke-width:0.04472676;stroke-linecap:round;stroke-linejoin:round;stroke-miterlimit:10;stroke-dasharray:none;stroke-opacity:1"
         inkscape:connector-curvature="0"
         class="st57"
         d="m -62.244887,56.86146 c -0.02996,-0.162173 -0.217145,-0.334333 -0.217145,-0.334333"
         id="path5448-782-1-8"
         sodipodi:nodetypes="cc" />
      <path
         style="fill:none;stroke:#ffffff;stroke-width:0.04472676;stroke-linecap:round;stroke-linejoin:round;stroke-miterlimit:10;stroke-dasharray:none;stroke-opacity:1"
         inkscape:connector-curvature="0"
         class="st57"
         d="m -61.567874,59.633495 c -0.118633,-0.552317 -0.630935,-0.824969 -0.630935,-0.824969"
         id="path5448-782-1-33"
         sodipodi:nodetypes="cc" />
      <path
         style="fill:#cfd1e3;fill-opacity:1;fill-rule:evenodd;stroke:#cfd1e3;stroke-width:0;stroke-miterlimit:4;stroke-dasharray:none;stroke-opacity:1"
         inkscape:connector-curvature="0"
         class="st2"
         d="m -59.372518,59.252073 -0.394062,0 c -0.02296,0 -0.03826,-0.0153 -0.03826,-0.03826 0,-0.02295 0.0153,-0.03826 0.03826,-0.03826 l 0.394062,0 c 0.02295,0 0.03826,0.0153 0.03826,0.03826 0,0.02296 -0.0153,0.03826 -0.03826,0.03826 z"
         id="path9269-3" />
      <path
         style="fill:#cfd1e3;fill-opacity:1;fill-rule:evenodd;stroke:#cfd1e3;stroke-width:0;stroke-miterlimit:4;stroke-dasharray:none;stroke-opacity:1"
         inkscape:connector-curvature="0"
         class="st2"
         d="m -59.001411,59.252073 -0.198944,0 c -0.02295,0 -0.03826,-0.0153 -0.03826,-0.03826 0,-0.02295 0.0153,-0.03826 0.03826,-0.03826 l 0.198944,0 c 0.02295,0 0.03826,0.0153 0.03826,0.03826 0,0.02296 -0.01913,0.03826 -0.03826,0.03826 z"
         id="path9271-3" />
      <path
         style="fill:#cfd1e3;fill-opacity:1;fill-rule:evenodd;stroke:#cfd1e3;stroke-width:0;stroke-miterlimit:4;stroke-dasharray:none;stroke-opacity:1"
         inkscape:connector-curvature="0"
         class="st2"
         d="m -59.100883,59.477798 -0.665697,0 c -0.02296,0 -0.03826,-0.0153 -0.03826,-0.03826 0,-0.02296 0.0153,-0.03826 0.03826,-0.03443 l 0.669523,0 c 0.02296,-0.0038 0.03826,0.0153 0.03826,0.03443 -0.0038,0.02295 -0.01913,0.03826 -0.04209,0.03826 z"
         id="path9273-35" />
      <path
         style="fill:#cfd1e3;fill-opacity:1;fill-rule:evenodd;stroke:#cfd1e3;stroke-width:0;stroke-miterlimit:4;stroke-dasharray:none;stroke-opacity:1"
         inkscape:connector-curvature="0"
         class="st2"
         d="m -58.293223,59.478872 -0.665697,0 c -0.02296,0 -0.03826,-0.0153 -0.03826,-0.03826 0,-0.02295 0.0153,-0.03826 0.03826,-0.03443 l 0.669524,0 c 0.02296,-0.0038 0.03826,0.0153 0.03826,0.03443 -0.0038,0.02296 -0.01913,0.03826 -0.04209,0.03826 z"
         id="path9273-35-5" />
      <path
         style="fill:#cfd1e3;fill-opacity:1;fill-rule:evenodd;stroke:#cfd1e3;stroke-width:0;stroke-miterlimit:4;stroke-dasharray:none;stroke-opacity:1"
         inkscape:connector-curvature="0"
         class="st2"
         d="m -59.097156,59.656211 -0.665697,0 c -0.02296,0 -0.03826,-0.0153 -0.03826,-0.03826 0,-0.02296 0.0153,-0.03826 0.03826,-0.03443 l 0.669524,0 c 0.02295,-0.0038 0.03826,0.0153 0.03826,0.03443 -0.0038,0.02296 -0.01913,0.03826 -0.04209,0.03826 z"
         id="path9273-35-3" />
      <path
         style="fill:#cfd1e3;fill-opacity:1;fill-rule:evenodd;stroke:#cfd1e3;stroke-width:0;stroke-miterlimit:4;stroke-dasharray:none;stroke-opacity:1"
         inkscape:connector-curvature="0"
         class="st2"
         d="m -58.305044,59.6503 -0.665697,0 c -0.02296,0 -0.03826,-0.0153 -0.03826,-0.03826 0,-0.02296 0.0153,-0.03826 0.03826,-0.03443 l 0.669523,0 c 0.02295,-0.0038 0.03826,0.0153 0.03826,0.03443 -0.0038,0.02295 -0.01913,0.03826 -0.04208,0.03826 z"
         id="path9273-35-2" />
    </g>
  </g>
</svg>
