<?xml version="1.0" encoding="UTF-8" standalone="no"?>
<!-- Created with Inkscape (http://www.inkscape.org/) -->

<svg
   xmlns:dc="http://purl.org/dc/elements/1.1/"
   xmlns:cc="http://creativecommons.org/ns#"
   xmlns:rdf="http://www.w3.org/1999/02/22-rdf-syntax-ns#"
   xmlns:svg="http://www.w3.org/2000/svg"
   xmlns="http://www.w3.org/2000/svg"
   xmlns:sodipodi="http://sodipodi.sourceforge.net/DTD/sodipodi-0.dtd"
   xmlns:inkscape="http://www.inkscape.org/namespaces/inkscape"
   width="10mm"
   height="10mm"
   viewBox="0 0 35.43307 35.43307"
   id="svg6558"
   version="1.1"
   inkscape:version="0.91 r13725"
   sodipodi:docname="Bussiness Trip.svg">
  <defs
     id="defs6560" />
  <sodipodi:namedview
     id="base"
     pagecolor="#ffffff"
     bordercolor="#666666"
     borderopacity="1.0"
     inkscape:pageopacity="0.0"
     inkscape:pageshadow="2"
     inkscape:zoom="5.6"
     inkscape:cx="17.844033"
     inkscape:cy="28.832559"
     inkscape:document-units="px"
     inkscape:current-layer="layer1"
     showgrid="false"
     inkscape:window-width="727"
     inkscape:window-height="662"
     inkscape:window-x="2"
     inkscape:window-y="0"
     inkscape:window-maximized="0" />
  <metadata
     id="metadata6563">
    <rdf:RDF>
      <cc:Work
         rdf:about="">
        <dc:format>image/svg+xml</dc:format>
        <dc:type
           rdf:resource="http://purl.org/dc/dcmitype/StillImage" />
        <dc:title></dc:title>
      </cc:Work>
    </rdf:RDF>
  </metadata>
  <g
     inkscape:label="Layer 1"
     inkscape:groupmode="layer"
     id="layer1"
     transform="translate(0,-1016.9291)">
    <g
       id="g4837"
       transform="matrix(0.96795374,0,0,0.96795374,109.66415,948.57251)">
      <path
         sodipodi:nodetypes="ssccssscsssscc"
         style="fill:#ef452e;fill-opacity:1;stroke:#242c88;stroke-width:0.20101863;stroke-linecap:butt;stroke-linejoin:round;stroke-miterlimit:4;stroke-dasharray:none;stroke-opacity:1"
         id="path18870"
         d="m -96.646419,88.801211 c -0.24526,0 -0.44406,0.198813 -0.44406,0.444064 l 0,1.332172 6.216813,0 0,-1.332172 c 0,-0.245251 -0.198805,-0.444064 -0.444058,-0.444064 z m -0.44406,2.220293 0,5.328694 c 0,0.245251 0.1988,0.444064 0.44406,0.444064 l 5.328695,0 c 0.245253,0 0.444058,-0.198813 0.444058,-0.444064 l 0,-5.328694 z"
         inkscape:connector-curvature="0" />
      <path
         style="fill:#2993f9;fill-opacity:1;stroke:#242c88;stroke-width:0.20101863;stroke-linecap:butt;stroke-linejoin:round;stroke-miterlimit:4;stroke-dasharray:none;stroke-opacity:1"
         id="path18872"
         d="m -102.41918,92.131658 a 0.44405809,0.44405809 0 0 0 -0.44406,0.444057 l 0,3.774497 a 0.44405809,0.44405809 0 0 0 0.44406,0.444057 l 0.88812,0 0,-4.662611 z"
         inkscape:connector-curvature="0" />
      <path
         style="fill:#2993f9;fill-opacity:1;stroke:#242c88;stroke-width:0.20101863;stroke-linecap:butt;stroke-linejoin:round;stroke-miterlimit:4;stroke-dasharray:none;stroke-opacity:1"
         id="path18874"
         d="m -101.087,92.131658 0,4.662611 3.552461,0 0,-4.662611 z"
         inkscape:connector-curvature="0" />
      <path
         style="color:#000000;font-style:normal;font-variant:normal;font-weight:normal;font-stretch:normal;font-size:medium;line-height:normal;font-family:sans-serif;text-indent:0;text-align:start;text-decoration:none;text-decoration-line:none;letter-spacing:normal;word-spacing:normal;text-transform:none;direction:ltr;writing-mode:lr-tb;baseline-shift:baseline;text-anchor:start;display:inline;overflow:visible;visibility:visible;fill:#ff5751;fill-opacity:1;fill-rule:evenodd;stroke:#242c88;stroke-width:0.20101863;stroke-linecap:round;stroke-linejoin:round;stroke-miterlimit:4;stroke-dasharray:none;stroke-dashoffset:0;stroke-opacity:1;enable-background:accumulate"
         id="path18876"
         d="m -95.334674,85.026957 c -0.295343,0.01339 -0.275361,0.457382 0.01998,0.44403 l 0.0067,2.886173 0.443037,0 -0.0067,-2.886173 1.772192,0 0.0066,2.886173 0.443037,0 -0.0066,-2.886173 c 0.291346,-0.0042 0.291346,-0.440055 0,-0.44403 l -0.0045,0 -2.211765,0 -0.440417,0 c 0,-1.4e-5 -0.0045,-1.4e-5 -0.0045,0 -0.0067,-3.07e-4 -0.01332,-3.07e-4 -0.01998,0 z"
         inkscape:connector-curvature="0" />
      <path
         style="color:#000000;font-style:normal;font-variant:normal;font-weight:normal;font-stretch:normal;font-size:medium;line-height:normal;font-family:sans-serif;text-indent:0;text-align:start;text-decoration:none;text-decoration-line:none;letter-spacing:normal;word-spacing:normal;text-transform:none;direction:ltr;writing-mode:lr-tb;baseline-shift:baseline;text-anchor:start;display:inline;overflow:visible;visibility:visible;fill:#2993f9;fill-opacity:1;fill-rule:evenodd;stroke:#242c88;stroke-width:0.20101863;stroke-linecap:butt;stroke-linejoin:round;stroke-miterlimit:4;stroke-dasharray:none;stroke-dashoffset:0;stroke-opacity:1;enable-background:accumulate"
         id="path18878"
         d="m -100.19889,90.799095 a 0.22205046,0.22205046 0 0 0 -0.22203,0.222032 l 0,0.66609 0.444061,0 0,-0.444064 1.33218,0 0,0.444064 0.44405,0 0,-0.66609 a 0.22205046,0.22205046 0 0 0 -0.22203,-0.222032 z"
         inkscape:connector-curvature="0" />
      <path
         sodipodi:nodetypes="sssssssss"
         inkscape:connector-curvature="0"
         d="m -95.314248,93.019765 2.66435,0 c 0.183928,0 0.333043,0.149114 0.333043,0.333048 l 0,1.776229 c 0,0.183935 -0.149115,0.333042 -0.333043,0.333042 l -2.66435,0 c -0.183928,0 -0.333043,-0.149107 -0.333043,-0.333042 l 0,-1.776229 c 0,-0.183934 0.149115,-0.333048 0.333043,-0.333048 z"
         id="path4219"
         style="fill:#f07e6f;fill-opacity:1;stroke:#242c88;stroke-width:0.20101863;stroke-linecap:butt;stroke-linejoin:round;stroke-miterlimit:4;stroke-dasharray:none;stroke-opacity:1" />
      <path
         style="opacity:0.98999999;fill:#20a7f9;fill-opacity:1;stroke:#242c88;stroke-width:0.20101863;stroke-linecap:butt;stroke-linejoin:round;stroke-miterlimit:4;stroke-dasharray:none;stroke-dashoffset:0;stroke-opacity:1"
         id="path4230"
         d="m -100.14844,94.835926 1.675341,0 c 0.11564,0 0.20937,0.09376 0.20937,0.209412 l 0,1.116868 c 0,0.115653 -0.0937,0.209412 -0.20937,0.209412 l -1.675341,0 c -0.11563,0 -0.20938,-0.09376 -0.20938,-0.209412 l 0,-1.116868 c 0,-0.115653 0.0937,-0.209412 0.20938,-0.209412 z"
         inkscape:connector-curvature="0"
         sodipodi:nodetypes="sssssssss" />
    </g>
  </g>
</svg>
