<?xml version="1.0" encoding="UTF-8" standalone="no"?>
<!-- Created with Inkscape (http://www.inkscape.org/) -->

<svg
   xmlns:dc="http://purl.org/dc/elements/1.1/"
   xmlns:cc="http://creativecommons.org/ns#"
   xmlns:rdf="http://www.w3.org/1999/02/22-rdf-syntax-ns#"
   xmlns:svg="http://www.w3.org/2000/svg"
   xmlns="http://www.w3.org/2000/svg"
   xmlns:sodipodi="http://sodipodi.sourceforge.net/DTD/sodipodi-0.dtd"
   xmlns:inkscape="http://www.inkscape.org/namespaces/inkscape"
   width="10mm"
   height="10mm"
   viewBox="0 0 35.43307 35.43307"
   id="svg6558"
   version="1.1"
   inkscape:version="0.91 r13725"
   sodipodi:docname="Carreer &amp; Success.svg">
  <defs
     id="defs6560" />
  <sodipodi:namedview
     id="base"
     pagecolor="#ffffff"
     bordercolor="#666666"
     borderopacity="1.0"
     inkscape:pageopacity="0.0"
     inkscape:pageshadow="2"
     inkscape:zoom="5.6"
     inkscape:cx="17.844033"
     inkscape:cy="28.832559"
     inkscape:document-units="px"
     inkscape:current-layer="layer1"
     showgrid="false"
     inkscape:window-width="727"
     inkscape:window-height="662"
     inkscape:window-x="2"
     inkscape:window-y="0"
     inkscape:window-maximized="0" />
  <metadata
     id="metadata6563">
    <rdf:RDF>
      <cc:Work
         rdf:about="">
        <dc:format>image/svg+xml</dc:format>
        <dc:type
           rdf:resource="http://purl.org/dc/dcmitype/StillImage" />
        <dc:title></dc:title>
      </cc:Work>
    </rdf:RDF>
  </metadata>
  <g
     inkscape:label="Layer 1"
     inkscape:groupmode="layer"
     id="layer1"
     transform="translate(0,-1016.9291)">
    <g
       id="g7351"
       transform="matrix(1.1870805,0,0,1.1870805,-257.29126,900.76126)">
      <path
         sodipodi:nodetypes="ccccscccssscsscccccccccccccccccccc"
         style="fill:#54c0eb"
         inkscape:connector-curvature="0"
         id="path7212"
         d="m 232.75236,117.08475 -0.28463,0.54079 -0.0285,0.0569 c -0.11385,0.0569 -0.22771,0.0854 -0.34156,0.11385 -0.11385,0.0285 -0.2277,0.0854 -0.34155,0.0854 -0.0285,0 -0.0569,0.0285 -0.11385,0.0285 -0.14232,0.0285 -0.25617,0.0569 -0.39849,0.0854 -0.14231,0.0285 -0.19869,-0.92748 -0.341,-0.92748 0,0 -0.0285,0 -0.0569,0 -0.0285,0 0.17512,-0.54138 0.11817,-0.54138 -0.14231,0 -0.28463,0.0285 -0.42694,0.0285 -0.14232,0 -0.35259,0.0844 -0.49491,0.0559 -0.0285,0 -0.0479,-0.81882 -0.23103,0.043 -0.006,0.0279 -0.0275,-0.83567 -0.23269,0.0703 -0.0314,0.1388 -0.13228,0.17853 -0.27459,0.15013 -0.62619,-0.11385 -1.30483,0.80801 -1.84562,0.55184 -0.19924,-0.79696 -0.39848,-1.67931 -0.31309,-1.79316 0.19924,-0.22771 0.91081,-1.19545 0.91081,-1.19545 l 0.28463,-0.0854 0.56926,-0.17078 0.0854,-0.0285 0.0285,0 0.0854,-0.0285 0.39848,-0.11385 0.65465,-0.19924 0.68311,0.17077 0.39848,0.11386 0.0854,0.0285 0.0285,0 0.0854,0.0285 0.59773,0.17077 0.48387,0.11386 0.2277,2.64705 z" />
      <path
         sodipodi:nodetypes="ccssccccccccccc"
         style="fill:#ff7058"
         inkscape:connector-curvature="0"
         id="path7214"
         d="m 230.68461,116.74276 -0.18348,-0.56216 c -0.0285,0 0.14197,0.46404 0.085,0.46404 -0.14231,0 -0.28463,-0.10408 -0.42694,-0.10408 -0.14232,0 -0.008,0.12153 -0.15072,0.093 -0.0285,0 -0.0854,0 -0.11386,0 l 0.11214,-0.12358 0.15541,-0.90534 -0.42694,-0.54079 -0.39849,-0.51234 1.8501,0 -0.42695,0.48388 -0.42694,0.54079 0.33207,1.06499 z" />
      <path
         style="fill:#e6e9ee"
         inkscape:connector-curvature="0"
         id="path7216"
         d="m 231.4146,113.55534 c 0,0.85389 -0.51233,0.9962 -1.16698,0.9962 -0.65465,0 -1.16698,-0.11385 -1.16698,-0.9962 0,-0.85389 0.51233,-2.24857 1.16698,-2.24857 0.65465,0 1.16698,1.39468 1.16698,2.24857 z" />
      <path
         sodipodi:nodetypes="cccccccccscccc"
         style="fill:#324a5e"
         inkscape:connector-curvature="0"
         id="path7218"
         d="m 229.58997,116.85925 c -0.2307,-1.12695 -0.4354,0.26512 -0.57771,0.23672 -0.62619,-0.11385 -0.95629,0.58653 -1.49709,0.33036 -0.11385,-0.0569 -0.19924,-0.11385 -0.31309,-0.17077 -0.48387,-0.28463 -0.93928,-0.65465 -1.30929,-1.0816 -0.22771,-0.71157 -0.39849,-1.19544 -0.39849,-1.2239 l 0,0 c 2.02087,-0.5408 2.90323,-1.05313 3.27325,-1.36622 0.19924,-0.17078 0.25616,-0.28463 0.25616,-0.28463 0,0.0285 0,0.0285 0,0.0569 0,0.25617 0.0285,0.5408 0.0569,0.79697 0,0.17077 0.0285,0.31309 0.0569,0.48387 0.11386,1.33776 -0.0404,1.35569 0.18725,2.2665 z" />
      <path
         sodipodi:nodetypes="cssccccccccccccccccccc"
         style="fill:#324a5e"
         inkscape:connector-curvature="0"
         id="path7220"
         d="m 229.32849,116.68251 c -0.0285,0 -0.0776,0.13282 -0.10605,0.13282 -0.0285,0 -0.0285,0 -0.0569,0 -0.14232,0 -0.28463,-0.0285 -0.42695,-0.0569 -0.56926,-1.537 -0.62567,-1.83684 -0.62567,-1.83684 l 0.56926,-0.28463 -0.28463,-0.28463 -0.0569,-0.0569 c 0.11385,-0.25617 0.25617,-0.51233 0.39848,-0.71158 0.14232,-0.19923 0.28463,-0.37001 0.34156,-0.42694 l 0,0 c 0.0285,-0.0285 0.0285,-0.0285 0.0285,-0.0285 l 0,0.0285 c 0,0 0,0.0285 0,0.0569 -0.0285,0.14231 -0.0569,0.31309 -0.0285,0.56926 l 0,0 c 0,0.11385 0,0.25616 0.0285,0.42694 0.0285,0.19924 0.0569,0.42695 0.0854,0.65465 l 0,0 c 0.11385,0.91081 -0.14285,0.72679 0.0849,1.75145 0.0285,0.0285 0.30976,-0.1049 0.33816,-0.0195 z" />
      <path
         sodipodi:nodetypes="cccccccsccccccccccc"
         style="fill:#324a5e"
         inkscape:connector-curvature="0"
         id="path7222"
         d="m 235.00094,114.95003 0,0 c 0,0.0285 -0.17078,0.48387 -0.39849,1.2239 -0.39848,0.42695 -0.82542,0.79697 -1.30929,1.0816 -0.25617,0.14231 -0.51234,0.28463 -0.79697,0.39848 -0.0285,0 -0.0569,0.0285 -0.0569,0.0285 -0.11385,0.0569 -0.22771,0.0854 -0.34156,0.11385 -0.11385,0.0285 -0.2277,0.0854 -0.34155,0.0854 -0.0285,0 -0.0569,0.0285 -0.11385,0.0285 -0.14232,0.0285 -0.25617,0.0569 -0.39849,0.0854 -0.14231,0.0285 -0.21822,-0.0954 -0.36053,-0.0954 0.2277,-0.93928 0.36053,-1.95392 0.50285,-3.29168 0.0285,-0.17078 0.0285,-0.34156 0.0569,-0.51233 0.0285,-0.25617 0.0285,-0.51234 0.0569,-0.7685 l 0,0 c 0,-0.0285 0,-0.0285 0,-0.0569 0,0 0.0569,0.11385 0.25617,0.28463 0.37002,0.34156 1.25237,0.85389 3.24478,1.39469 z" />
      <path
         sodipodi:nodetypes="cccscccccccccccccccccccc"
         style="fill:#324a5e"
         inkscape:connector-curvature="0"
         id="path7224"
         d="m 232.35388,114.92157 c 0,0 -0.41927,1.37763 -0.98853,2.91463 -0.14231,0.0285 -0.0968,-0.14197 -0.23911,-0.14197 0,0 -0.0285,0 -0.0569,0 -0.0285,0 -0.0569,0 -0.11385,0 0.0285,-0.0854 0.0285,-0.17078 0.0569,-0.25616 0.2277,-1.02467 0.14604,-1.74803 0.2599,-2.63038 l 0,0 c 0.0285,-0.25617 0.0569,-0.48387 0.0854,-0.68311 0,-0.14232 0.0285,-0.28463 0.0285,-0.39848 l 0,0 0,0 c 0,-0.2277 0,-0.39848 -0.0569,-0.51233 l 0,0 0,-0.0285 0,-0.0285 c 0,0 0,0 0.0285,0.0285 l 0,0 c 0.0569,0.0854 0.19924,0.22771 0.34155,0.42695 0.14232,0.19924 0.28463,0.45541 0.39848,0.71157 l 0,0 -0.31309,0.34156 0.56926,0.25617 z" />
      <ellipse
         style="fill:#ffffff"
         id="ellipse7226"
         ry="8.8999996"
         rx="7.0999999"
         cy="48.5"
         cx="52.200001"
         transform="matrix(0.2846297,0,0,0.2846297,215.38995,97.24606)" />
      <ellipse
         style="fill:#ffffff"
         id="ellipse7228"
         transform="matrix(0.26940201,0.09185,-0.09185,0.26940201,220.69639,92.532194)"
         ry="2.4000001"
         rx="1.3"
         cy="47.900002"
         cx="59.299999" />
      <ellipse
         style="fill:#ffffff"
         id="ellipse7230"
         transform="matrix(-0.26940201,0.09185,-0.09185,-0.26940201,244.79447,119.66469)"
         ry="2.4000001"
         rx="1.3"
         cy="47.900002"
         cx="45.099998" />
      <path
         sodipodi:nodetypes="ccccccccc"
         style="fill:#324a5e"
         inkscape:connector-curvature="0"
         id="path7232"
         d="m 228.42599,111.42062 c -1.05313,-2.16319 0.39848,-2.87476 0.39848,-2.87476 l -0.68311,0.39848 c 2.15696,-2.00127 3.55787,-0.45541 3.55787,-0.45541 1.42315,1.11006 0.51233,2.78937 0.51233,2.78937 0,0 -0.17077,-1.22391 -0.7685,-1.7647 0,0 -0.74003,0.82542 -2.44781,0.0569 l -0.48387,0.85389 c 0,0.0285 -0.19924,0.56926 -0.0854,0.99621 z" />
      <path
         style="fill:#84dbff"
         inkscape:connector-curvature="0"
         id="path7234"
         d="m 229.16603,113.09994 c 0,0 0.17077,0.9962 1.08159,1.4516 0,0 -0.62619,0.48388 -0.74004,0.85389 0,0 -0.9962,-1.45161 -0.34155,-2.30549 z" />
      <path
         style="fill:#84dbff"
         inkscape:connector-curvature="0"
         id="path7236"
         d="m 231.32921,113.09994 c 0,0 -0.17078,0.9962 -1.08159,1.4516 0,0 0.62618,0.48388 0.74004,0.85389 0,0 0.9962,-1.45161 0.34155,-2.30549 z" />
      <path
         style="fill:#324a5e"
         inkscape:connector-curvature="0"
         id="path7238"
         d="m 232.49619,117.65401 c -0.0285,0 -0.0569,0.0285 -0.0569,0.0285 -0.11385,0.0569 -0.22771,0.0854 -0.34156,0.11385 l 0.28463,-0.28463 0.11385,0.14232 z" />
      <polygon
         style="fill:#ff7058;stroke:#41448d;stroke-width:0.99732852;stroke-miterlimit:4;stroke-dasharray:none;stroke-opacity:1"
         points="70.5,92.8 63.4,77 16.3,97.9 18.7,103.2 60.5,84.7 67.5,100.5 99.6,86.3 102.1,92 111.7,77.7 94.7,75.3 97.2,81 "
         id="polygon25"
         transform="matrix(0.11557148,0,0,0.13592298,223.35956,105.16858)" />
    </g>
  </g>
</svg>
