<?xml version="1.0" encoding="UTF-8" standalone="no"?>
<!-- Created with Inkscape (http://www.inkscape.org/) -->

<svg
   xmlns:dc="http://purl.org/dc/elements/1.1/"
   xmlns:cc="http://creativecommons.org/ns#"
   xmlns:rdf="http://www.w3.org/1999/02/22-rdf-syntax-ns#"
   xmlns:svg="http://www.w3.org/2000/svg"
   xmlns="http://www.w3.org/2000/svg"
   xmlns:sodipodi="http://sodipodi.sourceforge.net/DTD/sodipodi-0.dtd"
   xmlns:inkscape="http://www.inkscape.org/namespaces/inkscape"
   width="10mm"
   height="10mm"
   viewBox="0 0 35.43307 35.43307"
   id="svg6558"
   version="1.1"
   inkscape:version="0.91 r13725"
   sodipodi:docname="CnB.svg">
  <defs
     id="defs6560" />
  <sodipodi:namedview
     id="base"
     pagecolor="#ffffff"
     bordercolor="#666666"
     borderopacity="1.0"
     inkscape:pageopacity="0.0"
     inkscape:pageshadow="2"
     inkscape:zoom="5.6"
     inkscape:cx="17.844033"
     inkscape:cy="28.832559"
     inkscape:document-units="px"
     inkscape:current-layer="layer1"
     showgrid="false"
     inkscape:window-width="727"
     inkscape:window-height="662"
     inkscape:window-x="2"
     inkscape:window-y="0"
     inkscape:window-maximized="0" />
  <metadata
     id="metadata6563">
    <rdf:RDF>
      <cc:Work
         rdf:about="">
        <dc:format>image/svg+xml</dc:format>
        <dc:type
           rdf:resource="http://purl.org/dc/dcmitype/StillImage" />
        <dc:title></dc:title>
      </cc:Work>
    </rdf:RDF>
  </metadata>
  <g
     inkscape:label="Layer 1"
     inkscape:groupmode="layer"
     id="layer1"
     transform="translate(0,-1016.9291)">
    <g
       id="g4861"
       transform="matrix(0.1081616,0,0,0.1081616,21.716659,1005.4296)">
      <path
         style="fill:#fafafa;fill-opacity:1;stroke:#242c88;stroke-width:2;stroke-miterlimit:4;stroke-dasharray:none;stroke-opacity:1"
         inkscape:connector-curvature="0"
         d="m -102.00152,292.00854 0,-41.55267 c 0,-3.35958 2.917525,-6.1887 6.542326,-6.1887 l 33.595781,0 c 2.12184,0 4.06686,0.97251 5.3046,2.56389 l 3.89004,5.03937 c 1.23774,1.59138 3.18276,2.56389 5.30459,2.56389 l 48.09502101,0 c 3.62479999,0 6.54232999,2.7407 6.54232999,6.18869 l 0,55.25622 c 0,3.35958 -2.91753,6.1887 -6.54232999,6.1887 l -92.47681201,0 c -3.27117,0 -6.01188,-2.21025 -6.45393,-5.21619 l -3.713206,-23.87069 c -0.0884,-0.35364 -0.0884,-0.61887 -0.0884,-0.97251 z"
         id="path7302-1" />
      <rect
         ry="3.7604554"
         id="rect4822"
         y="266.59"
         x="-94.663147"
         width="94.509544"
         height="56.847206"
         style="fill:#242c88;fill-opacity:1" />
      <rect
         ry="2.9168158"
         style="fill:#d3d5e7;fill-opacity:1"
         height="55.256218"
         width="91.681114"
         x="-93.248932"
         y="268.18097"
         id="rect7304-7" />
      <path
         style="fill:#fafafa;fill-opacity:1;stroke:#242c88;stroke-width:2;stroke-miterlimit:4;stroke-dasharray:none;stroke-opacity:1"
         inkscape:connector-curvature="0"
         d="m -98.641945,336.65557 -8.575765,-34.30306 c -0.70728,-2.91753 2.03343,-5.56983 5.74665,-5.56983 l 22.898167,0 c 1.41456,0 2.82912,-0.44205 3.89004,-1.14933 l 19.09655,-13.43831 c 1.06092,-0.70728 2.47548,-1.14933 3.89004,-1.14933 l 63.124701,0 c 3.62481,0 6.36552,2.56389 5.83506,5.48142 l -10.34397,50.04003 c -0.44205,2.29866 -2.91753,3.89004 -5.83505,3.89004 l -93.891372,0 c -2.82912,-0.0884 -5.21619,-1.59138 -5.835051,-3.80163 z"
         id="path7306-4" />
      <path
         style="fill:#242c88;fill-opacity:1"
         inkscape:connector-curvature="0"
         d="m -18.092472,318.76042 c -2.000509,8.76412 -14.384608,15.1467 -27.911856,15.1467 -13.527247,0 -25.339772,-6.38258 -26.578182,-15.1467 -1.333673,-9.90729 11.145689,-19.05247 28.102379,-19.05247 16.95669,0 28.673954,9.14518 26.387659,19.05247 z"
         id="path4837-7" />
      <path
         id="path7310-0"
         d="m -20.045511,318.61994 c -1.856609,8.13371 -13.349902,14.05718 -25.904115,14.05718 -12.554213,0 -23.517046,-5.92347 -24.666375,-14.05718 -1.23774,-9.19464 10.343963,-17.68199 26.080934,-17.68199 15.736971,0 26.611395,8.48735 24.489556,17.68199 z"
         inkscape:connector-curvature="0"
         style="fill:#fbebdc" />
      <polygon
         transform="matrix(0.88409948,0,0,0.88409948,-158.14185,179.19745)"
         id="polygon7312-9"
         points="122.7,169.2 123,144.3 133.5,144.3 131.6,169.2 "
         style="fill:#e65336" />
      <polygon
         transform="matrix(0.88409948,0,0,0.88409948,-158.14185,179.19745)"
         id="polygon7314-4"
         points="107.4,154.7 148.1,154.7 147.1,160.7 107.9,160.7 "
         style="fill:#e65336" />
      <line
         id="line5108-5-2-8"
         y2="312.90961"
         y1="335.74948"
         x2="8.0587873"
         x1="2.7337065"
         class="st48"
         style="opacity:0.34120005;fill:#fafafa;fill-opacity:1;stroke:#d3d5e7;stroke-width:2.43661499;stroke-linecap:round;stroke-linejoin:round;stroke-miterlimit:10;stroke-opacity:1" />
      <line
         id="line5108-5-6-99-8"
         y2="303.15073"
         y1="310.05811"
         x2="10.089122"
         x1="8.656352"
         class="st48"
         style="opacity:0.34120005;fill:#fafafa;fill-opacity:1;stroke:#d3d5e7;stroke-width:2.43661499;stroke-linecap:round;stroke-linejoin:round;stroke-miterlimit:10;stroke-dasharray:none;stroke-opacity:1" />
      <rect
         ry="2.1333735"
         y="283.03"
         x="-52.679459"
         height="4.7729707"
         width="65.760933"
         id="rect4824"
         style="opacity:0.16760009;fill:#242c88;fill-opacity:1;stroke:none" />
    </g>
  </g>
</svg>
