<?xml version="1.0" encoding="UTF-8" standalone="no"?>
<!-- Created with Inkscape (http://www.inkscape.org/) -->

<svg
   xmlns:dc="http://purl.org/dc/elements/1.1/"
   xmlns:cc="http://creativecommons.org/ns#"
   xmlns:rdf="http://www.w3.org/1999/02/22-rdf-syntax-ns#"
   xmlns:svg="http://www.w3.org/2000/svg"
   xmlns="http://www.w3.org/2000/svg"
   xmlns:sodipodi="http://sodipodi.sourceforge.net/DTD/sodipodi-0.dtd"
   xmlns:inkscape="http://www.inkscape.org/namespaces/inkscape"
   width="10mm"
   height="10mm"
   viewBox="0 0 35.43307 35.43307"
   id="svg6558"
   version="1.1"
   inkscape:version="0.91 r13725"
   sodipodi:docname="Retire.svg">
  <defs
     id="defs6560" />
  <sodipodi:namedview
     id="base"
     pagecolor="#ffffff"
     bordercolor="#666666"
     borderopacity="1.0"
     inkscape:pageopacity="0.0"
     inkscape:pageshadow="2"
     inkscape:zoom="5.6"
     inkscape:cx="17.844033"
     inkscape:cy="28.832559"
     inkscape:document-units="px"
     inkscape:current-layer="layer1"
     showgrid="false"
     inkscape:window-width="727"
     inkscape:window-height="662"
     inkscape:window-x="2"
     inkscape:window-y="0"
     inkscape:window-maximized="0" />
  <metadata
     id="metadata6563">
    <rdf:RDF>
      <cc:Work
         rdf:about="">
        <dc:format>image/svg+xml</dc:format>
        <dc:type
           rdf:resource="http://purl.org/dc/dcmitype/StillImage" />
        <dc:title></dc:title>
      </cc:Work>
    </rdf:RDF>
  </metadata>
  <g
     inkscape:label="Layer 1"
     inkscape:groupmode="layer"
     id="layer1"
     transform="translate(0,-1016.9291)">
    <g
       id="g6880"
       transform="matrix(1.3592595,0,0,1.3592595,55.86005,952.84745)">
      <path
         id="path11575"
         d="m -27.583284,59.525711 c -0.46491,-0.149161 -0.73469,-0.682409 -0.58402,-1.154454 0.159316,-0.499354 0.670745,-0.761586 1.173255,-0.601721 0.490982,0.156158 0.750058,0.666215 0.591566,1.164059 -0.156296,0.491257 -0.678841,0.753216 -1.180801,0.592116 z"
         inkscape:connector-curvature="0"
         style="fill:#3b4652;fill-opacity:1" />
      <path
         id="path11577"
         d="m -28.725251,61.748718 c 0.01358,-0.0065 0.02703,-0.01441 0.04034,-0.02305 0.0027,-0.02566 0.0078,-0.05146 0.01592,-0.07712 0.04844,-0.152865 0.174822,-0.23465 0.340999,-0.246588 0.0365,-0.0027 0.07341,-0.0051 0.110189,-0.0084 0.126383,-0.0097 0.253588,-0.02415 0.371874,-0.06175 0.206794,-0.06573 0.391908,-0.181134 0.541617,-0.336196 0.01949,-0.02031 0.03842,-0.04117 0.05681,-0.06285 0.03623,-0.04268 0.07328,-0.08768 0.108406,-0.135027 0.08494,-0.114307 0.132832,-0.250019 0.159864,-0.388889 0.02992,-0.153827 -0.0472,-0.314789 0.0082,-0.464636 0.0435,-0.117737 0.159727,-0.211872 0.275955,-0.251666 0.235748,-0.08055 0.503882,0.03321 0.655513,0.219418 0.320552,0.393692 0.548341,0.853525 0.725907,1.326807 0.143536,0.382439 0.244257,0.781757 0.275269,1.18972 0.02991,0.394104 0.0295,0.839666 -0.161374,1.196719 -0.140241,0.26237 -0.367208,0.310536 -0.645907,0.340587 -0.01509,0.03774 -0.01894,0.08398 -0.01962,0.124872 -0.0025,0.145319 -0.0025,0.290913 -0.003,0.436369 -5.62e-4,0.185113 -0.0016,0.370501 -0.0086,0.555614 -0.0062,0.165353 -0.03595,0.382165 -0.129127,0.543539 -0.0612,0.106074 -0.149435,0.188133 -0.276092,0.216538 -0.688308,0.153689 -0.616267,-1.123031 -0.620384,-1.484064 -0.0014,-0.09551 -0.0027,-0.191151 -0.0051,-0.286384 -8.43e-4,-0.03485 -0.0033,-0.07382 -0.01331,-0.107993 -0.173311,-0.01276 -0.299144,-0.03362 -0.387654,-0.0601 -0.05983,-0.0084 -0.119658,-0.01674 -0.175781,-0.02511 -0.101271,-0.01482 -0.156984,-0.124461 -0.111289,-0.216263 0.195132,-0.392182 0.328649,-0.840626 0.412767,-1.217713 0.05036,-0.223811 0.08316,-0.422234 0.101818,-0.568926 -0.01811,-0.02621 -0.02196,-0.05599 -0.04679,-0.03677 -0.200894,0.155061 -0.445974,0.224084 -0.695033,0.251117 -0.216811,0.02347 -0.518427,0.07533 -0.713284,-0.0446 -0.0387,-0.02388 -0.07012,-0.05489 -0.09413,-0.09016 -0.0306,-0.0038 -0.05407,0.02086 -0.07767,0.0623 -0.04844,0.08494 -0.01784,0.185937 0.02895,0.264429 0.04199,0.07012 0.134478,0.124734 0.134478,0.212969 l 0,2.721263 c 0,0.07465 -0.05434,0.141339 -0.128852,0.148338 -0.08494,0.0084 -0.156708,-0.05846 -0.156708,-0.141889 0,0 -0.0033,-1.341489 -2.81e-4,-1.963931 0.0016,-0.34237 -0.0067,-0.680212 -0.118834,-1.011742 -0.07726,-0.228339 0.02045,-0.400554 0.223947,-0.498805 z"
         inkscape:connector-curvature="0"
         style="fill:#3b4652;fill-opacity:1" />
      <path
         id="path11579"
         d="m -30.595596,58.344223 c -0.159315,-0.499353 -0.670744,-0.761585 -1.173254,-0.60172 -0.03705,0.0118 -0.07259,0.0258 -0.107034,0.04158 -0.0011,-0.0038 -0.0018,-0.0077 -0.003,-0.01139 -0.0988,-0.309712 -0.41606,-0.472458 -0.727829,-0.373246 -0.304361,0.09674 -0.465185,0.413177 -0.366934,0.721928 0.08041,0.252215 0.316298,0.406866 0.571669,0.396024 -0.01276,0.126108 -2.8e-4,0.25798 0.04144,0.389164 0.156434,0.491257 0.678841,0.753216 1.180801,0.592116 0.465048,-0.149298 0.734827,-0.682545 0.584157,-1.154455 z"
         inkscape:connector-curvature="0"
         style="fill:#3b4652;fill-opacity:1" />
      <path
         id="path11581"
         d="m -30.037649,61.721685 c -0.01358,-0.0065 -0.02703,-0.01441 -0.04034,-0.02305 -0.0027,-0.02566 -0.0078,-0.05146 -0.01592,-0.07712 -0.04844,-0.152865 -0.174822,-0.23465 -0.340998,-0.246589 -0.0365,-0.0027 -0.07341,-0.0051 -0.11019,-0.0084 -0.126382,-0.0097 -0.253587,-0.02415 -0.371874,-0.06175 -0.206794,-0.06573 -0.391907,-0.181134 -0.541617,-0.336196 -0.01949,-0.02031 -0.03842,-0.04117 -0.05681,-0.06285 -0.03623,-0.04268 -0.07328,-0.08769 -0.108407,-0.135026 -0.08494,-0.114307 -0.132831,-0.25002 -0.159863,-0.38889 -0.02991,-0.153826 0.0472,-0.314788 -0.0082,-0.464635 -0.0435,-0.117738 -0.159727,-0.211873 -0.275956,-0.251667 -0.235748,-0.08055 -0.503881,0.03321 -0.655512,0.219419 -0.320552,0.393692 -0.548342,0.853525 -0.725908,1.326806 -0.143535,0.382439 -0.244256,0.781758 -0.275268,1.189721 -0.02992,0.394103 -0.0295,0.839665 0.161374,1.196718 0.140241,0.26237 0.367208,0.310535 0.645906,0.340587 0.01509,0.03774 0.01894,0.08398 0.01962,0.124873 0.0025,0.145319 0.0025,0.290912 0.003,0.436368 5.62e-4,0.185113 0.0016,0.370501 0.0086,0.555615 0.0062,0.165353 0.03595,0.382165 0.129126,0.543539 0.0612,0.106073 0.149436,0.188132 0.276092,0.216536 0.688309,0.15369 0.616267,-1.12303 0.620384,-1.484063 0.0014,-0.09551 0.0027,-0.191151 0.0051,-0.286383 8.43e-4,-0.03485 0.0033,-0.07383 0.01331,-0.107994 0.173312,-0.01276 0.299145,-0.03362 0.387654,-0.0601 0.05983,-0.0084 0.119659,-0.01674 0.175782,-0.02511 0.10127,-0.01482 0.156983,-0.124462 0.111288,-0.216264 -0.195131,-0.392182 -0.328649,-0.840625 -0.412766,-1.217713 -0.05036,-0.223811 -0.08316,-0.422235 -0.101819,-0.568926 0.01811,-0.02621 0.02196,-0.05599 0.04679,-0.03677 0.200893,0.155061 0.445973,0.224084 0.695032,0.251117 0.216812,0.02347 0.518428,0.07534 0.713284,-0.0446 0.0387,-0.02388 0.07012,-0.05489 0.09414,-0.09016 0.0306,-0.0038 0.05407,0.02086 0.07767,0.0623 0.04844,0.08494 0.01784,0.185936 -0.02895,0.264427 -0.04199,0.07012 -0.134479,0.124736 -0.134479,0.212971 l 0,2.721262 c 0,0.07465 0.05434,0.141339 0.128853,0.148338 0.08494,0.0084 0.156708,-0.05846 0.156708,-0.141889 0,0 0.0033,-1.341489 2.81e-4,-1.963931 -0.0016,-0.34237 0.0067,-0.680212 0.118835,-1.011742 0.07726,-0.228339 -0.02045,-0.400553 -0.223948,-0.498805 z"
         inkscape:connector-curvature="0"
         style="fill:#3b4652;fill-opacity:1" />
      <path
         style="fill:none;stroke:#ffffff;stroke-width:0.04472676;stroke-linecap:round;stroke-linejoin:round;stroke-miterlimit:10;stroke-dasharray:none;stroke-opacity:1"
         inkscape:connector-curvature="0"
         class="st57"
         d="m -26.539808,58.304193 c -0.04179,-0.159535 -0.241101,-0.317491 -0.241101,-0.317491"
         id="path5448-782-1-8-8"
         sodipodi:nodetypes="cc" />
      <path
         style="fill:none;stroke:#ffffff;stroke-width:0.04472676;stroke-linecap:round;stroke-linejoin:round;stroke-miterlimit:10;stroke-dasharray:none;stroke-opacity:1"
         inkscape:connector-curvature="0"
         class="st57"
         d="m -30.819799,58.172707 c -0.05933,-0.153878 -0.275018,-0.28861 -0.275018,-0.28861"
         id="path5448-782-1-8-0"
         sodipodi:nodetypes="cc" />
    </g>
  </g>
</svg>
