<?xml version="1.0" encoding="UTF-8" standalone="no"?>
<!-- Created with Inkscape (http://www.inkscape.org/) -->

<svg
   xmlns:dc="http://purl.org/dc/elements/1.1/"
   xmlns:cc="http://creativecommons.org/ns#"
   xmlns:rdf="http://www.w3.org/1999/02/22-rdf-syntax-ns#"
   xmlns:svg="http://www.w3.org/2000/svg"
   xmlns="http://www.w3.org/2000/svg"
   xmlns:sodipodi="http://sodipodi.sourceforge.net/DTD/sodipodi-0.dtd"
   xmlns:inkscape="http://www.inkscape.org/namespaces/inkscape"
   width="10mm"
   height="10mm"
   viewBox="0 0 35.43307 35.43307"
   id="svg6558"
   version="1.1"
   inkscape:version="0.91 r13725"
   sodipodi:docname="Survey.svg">
  <defs
     id="defs6560" />
  <sodipodi:namedview
     id="base"
     pagecolor="#ffffff"
     bordercolor="#666666"
     borderopacity="1.0"
     inkscape:pageopacity="0.0"
     inkscape:pageshadow="2"
     inkscape:zoom="5.6"
     inkscape:cx="17.844033"
     inkscape:cy="28.832559"
     inkscape:document-units="px"
     inkscape:current-layer="layer1"
     showgrid="false"
     inkscape:window-width="727"
     inkscape:window-height="662"
     inkscape:window-x="2"
     inkscape:window-y="0"
     inkscape:window-maximized="0" />
  <metadata
     id="metadata6563">
    <rdf:RDF>
      <cc:Work
         rdf:about="">
        <dc:format>image/svg+xml</dc:format>
        <dc:type
           rdf:resource="http://purl.org/dc/dcmitype/StillImage" />
        <dc:title></dc:title>
      </cc:Work>
    </rdf:RDF>
  </metadata>
  <g
     inkscape:label="Layer 1"
     inkscape:groupmode="layer"
     id="layer1"
     transform="translate(0,-1016.9291)">
    <g
       id="g6861"
       transform="matrix(1.189071,0,0,1.189071,88.387446,1000.87)">
      <path
         id="path8503"
         d="m -62.638343,34.852639 c 0.02665,-0.02774 0.03747,-0.05795 0.03747,-0.09645 1.41e-4,-0.507643 1.41e-4,-0.781021 0,-0.969049 -4.12e-4,-0.494834 -0.0861,-1.11187 -0.224333,-1.390317 -0.134257,-0.271666 -0.521274,-0.301394 -0.790748,-0.405922 -0.09035,0.360439 -0.233649,0.927539 -0.400717,1.26099 l -0.149532,-0.819517 0.03719,-0.147067 -0.132956,-0.08809 -0.132956,0.08809 0.03719,0.147067 -0.149533,0.819517 c -0.167136,-0.333451 -0.310436,-0.900551 -0.400717,-1.26099 -0.269542,0.104528 -0.656559,0.134325 -0.790748,0.405922 -0.13823,0.278447 -0.224333,0.895414 -0.224333,1.390317 0,0.188028 -1.4e-4,0.461475 0,0.969049 0,0.0385 0.01089,0.0687 0.03747,0.09645 0.02658,0.02788 0.06233,0.04199 0.10083,0.04199 l 3.045654,0 c 0.03843,0 0.07418,-0.01418 0.100761,-0.04199 z"
         inkscape:connector-curvature="0"
         style="fill:#324a5e;fill-opacity:1;stroke:#242c88;stroke-width:0;stroke-miterlimit:4;stroke-dasharray:none;stroke-opacity:1" />
      <path
         id="path8505"
         d="m -64.261965,29.683528 c -0.367975,6.55e-4 -0.736018,0.229539 -0.818353,0.606692 -0.05877,0.2692 0.104803,0.838767 0.248581,1.088238 0.14008,0.242964 0.335849,0.4275 0.569772,0.427774 0.233922,-3.75e-4 0.429692,-0.18481 0.569771,-0.427774 0.143779,-0.249471 0.307354,-0.819038 0.248582,-1.088238 -0.08227,-0.377084 -0.450379,-0.606007 -0.818353,-0.606692 z"
         inkscape:connector-curvature="0"
         style="fill:#324a5e;fill-opacity:1;stroke:#242c88;stroke-width:0;stroke-miterlimit:4;stroke-dasharray:none;stroke-opacity:1" />
      <path
         id="path8507"
         d="m -61.637851,32.396827 c -0.138231,0.278447 -0.224334,0.895414 -0.224334,1.390317 0,0.188028 -9.3e-5,0.461475 0,0.969049 0,0.0385 0.01089,0.0687 0.03747,0.09645 0.02658,0.02788 0.0624,0.04199 0.10083,0.04199 l 3.045654,0 c 0.0385,0 0.07425,-0.01418 0.10083,-0.04199 0.02658,-0.02774 0.03747,-0.05795 0.03747,-0.09645 9.4e-5,-0.507643 9.4e-5,-0.781021 0,-0.969049 -3.74e-4,-0.494834 -0.0861,-1.11187 -0.224332,-1.390317 -0.134258,-0.271666 -0.521275,-0.301394 -0.790748,-0.405922 -0.09035,0.360439 -0.233649,0.927539 -0.400717,1.26099 l -0.149533,-0.819517 0.03719,-0.147067 -0.132956,-0.08809 -0.133024,0.08809 0.03719,0.147067 -0.149532,0.819517 c -0.167136,-0.333451 -0.310436,-0.900551 -0.400716,-1.26099 -0.269543,0.104528 -0.656492,0.134256 -0.790748,0.405922 z"
         inkscape:connector-curvature="0"
         style="fill:#324a5e;fill-opacity:1;stroke:#242c88;stroke-width:0;stroke-miterlimit:4;stroke-dasharray:none;stroke-opacity:1" />
      <path
         id="path8509"
         d="m -60.201025,31.8063 c 0.233923,-3.74e-4 0.429692,-0.184809 0.569772,-0.427773 0.143779,-0.249472 0.307353,-0.819038 0.248581,-1.088238 -0.08234,-0.377153 -0.450378,-0.606007 -0.818353,-0.606693 -0.367974,6.56e-4 -0.736086,0.22954 -0.818353,0.606693 -0.05877,0.2692 0.104803,0.838766 0.248582,1.088238 0.140148,0.242964 0.335917,0.427431 0.569771,0.427773 z"
         inkscape:connector-curvature="0"
         style="fill:#324a5e;fill-opacity:1;stroke:#242c88;stroke-width:0;stroke-miterlimit:4;stroke-dasharray:none;stroke-opacity:1" />
      <path
         id="path8511"
         d="m -54.703394,32.396827 c -0.134258,-0.271666 -0.521275,-0.301394 -0.790748,-0.405922 -0.09035,0.360439 -0.233649,0.927539 -0.400717,1.26099 l -0.149533,-0.819517 0.0372,-0.147067 -0.132956,-0.08809 -0.133024,0.08809 0.03719,0.147067 -0.149533,0.819517 c -0.167136,-0.333451 -0.310436,-0.900551 -0.400717,-1.26099 -0.269542,0.104528 -0.656559,0.134325 -0.790679,0.405922 -0.138231,0.278447 -0.224334,0.895414 -0.224334,1.390317 0,0.188028 -9.3e-5,0.461475 0,0.969049 0,0.0385 0.01089,0.0687 0.03747,0.09645 0.02658,0.02788 0.06233,0.04199 0.10083,0.04199 l 3.045655,0 c 0.0385,0 0.07425,-0.01418 0.10083,-0.04199 0.02665,-0.02774 0.03747,-0.05795 0.03747,-0.09645 9.4e-5,-0.507643 9.4e-5,-0.781021 0,-0.969049 -5.61e-4,-0.494903 -0.08617,-1.11187 -0.224401,-1.390317 z"
         inkscape:connector-curvature="0"
         style="fill:#324a5e;fill-opacity:1;stroke:#242c88;stroke-width:0;stroke-miterlimit:4;stroke-dasharray:none;stroke-opacity:1" />
      <path
         id="path8513"
         d="m -56.140153,29.683528 c -0.367975,6.55e-4 -0.736018,0.229539 -0.818353,0.606692 -0.05877,0.2692 0.104803,0.838767 0.248582,1.088238 0.140079,0.242964 0.335848,0.4275 0.569771,0.427774 0.233923,-3.75e-4 0.429692,-0.18481 0.569772,-0.427774 0.143778,-0.249471 0.307353,-0.819038 0.248581,-1.088238 -0.08233,-0.377084 -0.450378,-0.606007 -0.818353,-0.606692 z"
         inkscape:connector-curvature="0"
         style="fill:#324a5e;fill-opacity:1;stroke:#242c88;stroke-width:0;stroke-miterlimit:4;stroke-dasharray:none;stroke-opacity:1" />
      <path
         id="path8602"
         d="m -63.616571,28.709478 c 0.09384,0.169465 0.167342,0.590869 0.185562,0.934116 0.0038,0.07144 0.04857,0.134325 0.114804,0.161245 0.02254,0.0092 0.0461,0.01363 0.06953,0.01363 0.04555,0 0.09049,-0.01692 0.125216,-0.04891 0.02541,-0.0235 0.590252,-0.552853 0.653545,-1.264691 0.370098,-0.153094 0.679233,-0.380783 0.907675,-0.655874 0.251733,0.145628 0.539564,0.252213 0.852877,0.308724 l 0.330711,1.02515 c 0.02459,0.07624 0.09555,0.127955 0.17563,0.127955 0.08014,0 0.151039,-0.05172 0.17563,-0.127955 l 0.330712,-1.02515 c 0.313175,-0.05651 0.600459,-0.163575 0.852123,-0.309203 0.228442,0.275364 0.538057,0.503122 0.90836,0.656353 0.06329,0.71177 0.628132,1.241195 0.653545,1.264691 0.03473,0.03206 0.07966,0.04891 0.125216,0.04891 0.02343,0 0.04699,-0.0045 0.06952,-0.01363 0.06624,-0.02692 0.110969,-0.0898 0.114736,-0.161313 0.01534,-0.290504 0.08302,-0.751499 0.18522,-0.934116 1.280377,-0.0413 2.306965,-0.935623 2.306965,-2.028929 0,-1.11961 -1.076455,-2.030437 -2.399644,-2.030437 -0.503944,0 -0.971858,0.132408 -1.358396,0.357906 -0.434418,-0.522987 -1.152763,-0.865481 -1.963992,-0.865481 -0.811503,0 -1.529711,0.342973 -1.964198,0.866166 -0.386537,-0.225703 -0.854246,-0.358591 -1.358396,-0.358591 -1.323119,0 -2.399643,0.910827 -2.399643,2.030437 6.8e-5,1.093306 1.026452,1.987487 2.306691,2.028997 z"
         style="fill:#242c88;fill-opacity:1;stroke:#242c88;stroke-width:0;stroke-miterlimit:4;stroke-dasharray:none;stroke-opacity:1"
         inkscape:connector-curvature="0" />
      <path
         id="path8600"
         d="m -54.848064,26.680549 c 0,0.916032 -0.910825,1.661297 -2.030435,1.661297 -0.04891,0 -0.0959,0.01945 -0.13049,0.05404 -0.156589,0.156588 -0.240362,0.496958 -0.284543,0.78383 -0.137409,-0.203852 -0.277215,-0.488738 -0.277215,-0.803557 0,-0.07788 -0.04884,-0.147341 -0.122132,-0.173644 -0.738758,-0.265706 -1.216056,-0.863083 -1.216056,-1.521903 0,-0.916032 0.910826,-1.661297 2.030436,-1.661297 1.11961,0 2.030435,0.745197 2.030435,1.661229 z"
         style="fill:#ffc408;fill-opacity:1;stroke:#242c88;stroke-width:0;stroke-miterlimit:4;stroke-dasharray:none;stroke-opacity:1"
         inkscape:connector-curvature="0" />
      <path
         id="path8598"
         d="m -60.201025,24.511677 c 0.685603,0 1.292021,0.279954 1.659858,0.706975 -0.453734,0.369618 -0.736908,0.888153 -0.736908,1.461897 0,0.30475 0.08014,0.597787 0.226389,0.862192 -0.236458,0.132545 -0.509904,0.22632 -0.809175,0.267761 -0.07014,0.0097 -0.12864,0.0587 -0.150354,0.126175 l -0.18981,0.588403 -0.18981,-0.588335 c -0.02171,-0.06747 -0.08014,-0.116516 -0.150354,-0.126174 -0.979461,-0.135628 -1.690272,-0.824313 -1.690272,-1.637597 0,-0.916032 0.910827,-1.661297 2.030436,-1.661297 z"
         style="fill:#83d689;fill-opacity:1;stroke:#242c88;stroke-width:0;stroke-miterlimit:4;stroke-dasharray:none;stroke-opacity:1"
         inkscape:connector-curvature="0" />
      <path
         id="path8515"
         d="m -63.52355,25.019252 c 0.426609,0 0.822805,0.108228 1.149886,0.292901 -0.145354,0.261526 -0.227004,0.553194 -0.227004,0.860753 0,0.573264 0.277899,1.094813 0.734442,1.46587 -0.209058,0.242074 -0.497232,0.439282 -0.843013,0.563675 -0.07329,0.0263 -0.122133,0.09583 -0.122133,0.173644 0,0.312902 -0.139942,0.597856 -0.277351,0.802324 -0.04425,-0.286598 -0.127955,-0.626282 -0.284337,-0.782596 -0.03459,-0.03459 -0.08158,-0.05404 -0.13049,-0.05404 -1.11961,0 -2.030436,-0.745266 -2.030436,-1.661297 0,-0.916033 0.910826,-1.661229 2.030436,-1.661229 z"
         style="fill:#70d5f7;fill-opacity:1;stroke:#242c88;stroke-width:0;stroke-miterlimit:4;stroke-dasharray:none;stroke-opacity:1"
         inkscape:connector-curvature="0" />
      <polygon
         transform="matrix(0.06849862,0,0,0.06849862,-68.968848,20.7672)"
         id="polygon8517"
         points="70.566,95.76 75.221,95.76 79.403,89.234 83.505,95.76 88.424,95.76 81.875,85.905 87.898,76.897 83.374,76.897 79.56,82.92 75.878,76.897 71.091,76.897 77.141,85.879 "
         style="fill:#ffffff;stroke:#242c88;stroke-width:0;stroke-miterlimit:4;stroke-dasharray:none;stroke-opacity:1" />
      <polygon
         transform="matrix(0.06849862,0,0,0.06849862,-68.968848,20.7672)"
         id="polygon8519"
         points="169.378,80.384 178.663,80.384 168.589,92.483 168.589,95.76 184.422,95.76 184.422,92.273 174.086,92.273 184.16,80.173 184.16,76.897 169.378,76.897 "
         style="fill:#ffffff;stroke:#242c88;stroke-width:0;stroke-miterlimit:4;stroke-dasharray:none;stroke-opacity:1" />
      <polygon
         transform="matrix(0.06849862,0,0,0.06849862,-68.968848,20.7672)"
         id="polygon8521"
         points="128.04,76.936 123.647,69.486 118.992,69.486 125.909,81.006 125.909,88.349 130.038,88.349 130.038,81.111 137.008,69.486 132.406,69.486 "
         style="fill:#ffffff;stroke:#242c88;stroke-width:0;stroke-miterlimit:4;stroke-dasharray:none;stroke-opacity:1" />
      <path
         sodipodi:nodetypes="cc"
         id="path5448-782"
         d="m -62.547535,25.452063 c -0.2111,-0.273175 -0.783972,-0.300215 -0.783972,-0.300215"
         class="st57"
         inkscape:connector-curvature="0"
         style="fill:none;stroke:#ffffff;stroke-width:0.09362985;stroke-linecap:round;stroke-linejoin:round;stroke-miterlimit:10;stroke-dasharray:none" />
      <path
         sodipodi:nodetypes="cc"
         id="path5448-782-5"
         d="m -58.752933,25.243332 c -0.214938,-0.417363 -0.726879,-0.461936 -0.726879,-0.461936"
         class="st57"
         inkscape:connector-curvature="0"
         style="fill:none;stroke:#ffffff;stroke-width:0.09362985;stroke-linecap:round;stroke-linejoin:round;stroke-miterlimit:10;stroke-dasharray:none" />
      <path
         sodipodi:nodetypes="cc"
         id="path5448-782-5-4"
         d="m -55.092272,27.134555 c 0.277681,-0.42352 0.03437,-0.860556 0.03437,-0.860556"
         class="st57"
         inkscape:connector-curvature="0"
         style="fill:none;stroke:#ffffff;stroke-width:0.09362985;stroke-linecap:round;stroke-linejoin:round;stroke-miterlimit:10;stroke-dasharray:none" />
      <path
         sodipodi:nodetypes="cc"
         id="path5448-782-5-4-8"
         d="m -55.10637,26.15839 c -0.01909,-0.130926 -0.120288,-0.246109 -0.120288,-0.246109"
         class="st57"
         inkscape:connector-curvature="0"
         style="fill:none;stroke:#ffffff;stroke-width:0.09362985;stroke-linecap:round;stroke-linejoin:round;stroke-miterlimit:10;stroke-dasharray:none" />
    </g>
  </g>
</svg>
