<?xml version="1.0" encoding="UTF-8" standalone="no"?>
<!-- Created with Inkscape (http://www.inkscape.org/) -->

<svg
   xmlns:dc="http://purl.org/dc/elements/1.1/"
   xmlns:cc="http://creativecommons.org/ns#"
   xmlns:rdf="http://www.w3.org/1999/02/22-rdf-syntax-ns#"
   xmlns:svg="http://www.w3.org/2000/svg"
   xmlns="http://www.w3.org/2000/svg"
   xmlns:sodipodi="http://sodipodi.sourceforge.net/DTD/sodipodi-0.dtd"
   xmlns:inkscape="http://www.inkscape.org/namespaces/inkscape"
   width="10mm"
   height="10mm"
   viewBox="0 0 35.43307 35.43307"
   id="svg6558"
   version="1.1"
   inkscape:version="0.91 r13725"
   sodipodi:docname="Talent.svg">
  <defs
     id="defs6560" />
  <sodipodi:namedview
     id="base"
     pagecolor="#ffffff"
     bordercolor="#666666"
     borderopacity="1.0"
     inkscape:pageopacity="0.0"
     inkscape:pageshadow="2"
     inkscape:zoom="5.6"
     inkscape:cx="17.844033"
     inkscape:cy="28.832559"
     inkscape:document-units="px"
     inkscape:current-layer="layer1"
     showgrid="false"
     inkscape:window-width="727"
     inkscape:window-height="662"
     inkscape:window-x="2"
     inkscape:window-y="0"
     inkscape:window-maximized="0" />
  <metadata
     id="metadata6563">
    <rdf:RDF>
      <cc:Work
         rdf:about="">
        <dc:format>image/svg+xml</dc:format>
        <dc:type
           rdf:resource="http://purl.org/dc/dcmitype/StillImage" />
        <dc:title></dc:title>
      </cc:Work>
    </rdf:RDF>
  </metadata>
  <g
     inkscape:label="Layer 1"
     inkscape:groupmode="layer"
     id="layer1"
     transform="translate(0,-1016.9291)">
    <g
       id="g7759"
       transform="matrix(1.1227687,0,0,1.1227687,-236.80494,905.11363)">
      <g
         transform="matrix(1.1242169,0,0,1.1242169,-28.199811,-14.509592)"
         id="g7714">
        <g
           id="g7477"
           transform="matrix(0.11630852,0,0,0.11630852,215.95834,24.891748)">
          <g
             id="g7551"
             style="fill:#324a5e;fill-opacity:1;fill-rule:evenodd;stroke:#242c88;stroke-width:0.02222222;stroke-miterlimit:4;stroke-dasharray:none;stroke-opacity:1"
             transform="matrix(1.9535583,0,0,1.9535583,38.879736,664.06667)">
            <circle
               id="circle7553"
               cy="48.700001"
               cx="10.2"
               r="4.9000001"
               style="fill:#324a5e;fill-opacity:1" />
            <path
               id="path7555"
               d="m 20,64.5 c -0.4,-5 -4.6,-9 -9.7,-9 -5.1,0 -9.3,4 -9.7,9 l 19.4,0 z"
               inkscape:connector-curvature="0"
               style="fill:#324a5e;fill-opacity:1" />
          </g>
          <g
             transform="matrix(1.9535583,0,0,1.9535583,70.078331,663.47775)"
             id="g7557"
             style="fill:#324a5e;fill-opacity:1;fill-rule:evenodd;stroke:#242c88;stroke-width:0.02222222;stroke-miterlimit:4;stroke-dasharray:none;stroke-opacity:1">
            <circle
               id="circle7559"
               cy="48.700001"
               cx="31.299999"
               r="4.9000001"
               style="fill:#324a5e;fill-opacity:1" />
            <path
               id="path7561"
               d="m 41,64.5 c -0.4,-5 -4.6,-9 -9.7,-9 -5.1,0 -9.3,4 -9.7,9 l 19.4,0 z"
               inkscape:connector-curvature="0"
               style="fill:#324a5e;fill-opacity:1" />
          </g>
        </g>
        <g
           id="g7693"
           transform="matrix(0.93982739,0,0,0.93982739,25.146692,3.7474485)">
          <g
             id="g7569"
             transform="matrix(0.10247793,0,0,0.10247793,161.84856,121.25682)">
            <g
               style="fill:#d3d5e7;fill-opacity:1"
               transform="matrix(-1,0,0,1,575.53457,-73.588163)"
               id="g7595">
              <path
                 id="path7597"
                 d="m 105.22,113.5 c -2.12,0 -4.24,-0.81 -5.85,-2.42 L 77.23,88.94 C 74,85.71 74,80.47 77.23,77.23 80.46,74 85.7,74 88.94,77.23 l 22.14,22.14 c 3.23,3.23 3.23,8.47 0,11.71 -1.62,1.61 -3.74,2.42 -5.86,2.42 z"
                 class="st9"
                 inkscape:connector-curvature="0"
                 style="fill:#d3d5e7;fill-opacity:1" />
            </g>
            <path
               id="path7599"
               d="m 475.45028,37.49184 c -1.62,1.62 -3.73,2.42 -5.85,2.42 -2.12,0 -4.24,-0.81 -5.85,-2.42 -3.23,-3.23 -3.23,-8.47 0,-11.71 l 3,-3 11.71,11.71 -3.01,3 z"
               class="st3"
               inkscape:connector-curvature="0"
               style="fill:#ff7974;fill-opacity:1" />
            <g
               transform="matrix(-1,0,0,1,574.82028,-73.588163)"
               id="g7601">
              <path
                 id="path7603"
                 d="m 105.22,113.5 c -2.12,0 -4.24,-0.81 -5.85,-2.42 L 77.23,88.94 C 74,85.71 74,80.47 77.23,77.23 80.46,74 85.7,74 88.94,77.23 l 22.14,22.14 c 3.23,3.23 3.23,8.47 0,11.71 -1.62,1.61 -3.74,2.42 -5.86,2.42 z"
                 class="st53"
                 inkscape:connector-curvature="0"
                 style="fill:none;stroke:#242c88;stroke-width:1.84800005;stroke-linecap:round;stroke-linejoin:round;stroke-miterlimit:10" />
              <path
                 id="path7605"
                 d="m 90.24,84.38 17.6,17.6 c 0.79,0.79 1.23,1.85 1.23,2.97 0,1.12 -0.44,2.17 -1.23,2.97"
                 class="st53"
                 inkscape:connector-curvature="0"
                 style="fill:none;stroke:#242c88;stroke-width:1.84800005;stroke-linecap:round;stroke-linejoin:round;stroke-miterlimit:10" />
            </g>
            <path
               id="path7607"
               d="m 485.88028,3.6418363 c 3.23,-3.23000004 8.47,-3.23000004 11.71,0 3.23,3.23 3.23,8.4700027 0,11.7100037 l -8.22,8.22 c -4.35,-3.43 -8.28,-7.36 -11.71,-11.710001 l 8.22,-8.2200027 z"
               class="st15"
               inkscape:connector-curvature="0"
               style="opacity:0.4;fill:#242c88" />
            <circle
               transform="matrix(-1,0,0,1,101.5119,-89.54138)"
               id="circle7609"
               r="42.130001"
               cy="73.083221"
               cx="-416.17838"
               class="st7"
               style="fill:#589fff" />
            <path
               id="path7611"
               d="m 555.27028,-16.458163 c 0,-20.75 -16.82,-37.58 -37.58,-37.58"
               class="st54"
               inkscape:connector-curvature="0"
               style="opacity:0.4;fill:none;stroke:#ffffff;stroke-width:7;stroke-linecap:round;stroke-linejoin:round;stroke-miterlimit:10" />
            <path
               id="path7613"
               d="m 480.11028,-16.458163 c 0,20.7499993 16.82,37.580003 37.58,37.580003"
               class="st55"
               inkscape:connector-curvature="0"
               style="opacity:0.2;fill:none;stroke:#242c88;stroke-width:7;stroke-linecap:round;stroke-linejoin:round;stroke-miterlimit:10" />
            <circle
               transform="matrix(-1,0,0,1,101.5119,-89.54138)"
               id="circle7615"
               r="42.130001"
               cy="73.083221"
               cx="-416.17838"
               class="st53"
               style="fill:none;stroke:#242c88;stroke-width:1.84800005;stroke-linecap:round;stroke-linejoin:round;stroke-miterlimit:10" />
            <circle
               transform="matrix(-1,0,0,1,101.5119,-89.54138)"
               id="circle7617"
               r="33.02"
               cy="73.083221"
               cx="-416.17838"
               class="st1"
               style="fill:#ffffff" />
            <circle
               transform="matrix(-1,0,0,1,101.5119,-89.54138)"
               id="circle7619"
               r="33.02"
               cy="73.083221"
               cx="-416.17838"
               class="st6"
               style="fill:#caeafb" />
            <path
               id="path7621"
               d="m 499.88028,-44.258163 c -3.3,5.14 -5.22,11.25 -5.22,17.81 0,18.2400003 14.78,33.0199993 33.02,33.0199993 6.56,0 12.67,-1.92 17.81,-5.22 -5.87,9.1500027 -16.13,15.2200037 -27.81,15.2200037 -18.24,0 -33.02,-14.7800037 -33.02,-33.020003 0,-11.69 6.07,-21.94 15.22,-27.81 z"
               class="st56"
               inkscape:connector-curvature="0"
               style="opacity:0.07000002;fill:#242c88" />
            <circle
               transform="matrix(-1,0,0,1,101.5119,-89.54138)"
               id="circle7657"
               r="33.02"
               cy="73.083221"
               cx="-416.17838"
               class="st53"
               style="fill:none;stroke:#242c88;stroke-width:1.84800005;stroke-linecap:round;stroke-linejoin:round;stroke-miterlimit:10" />
            <path
               id="path7659"
               d="m 538.69028,-32.108163 c -4.78,-6.39 -12.4,-10.53 -21,-10.53"
               class="st57"
               inkscape:connector-curvature="0"
               style="fill:none;stroke:#ffffff;stroke-width:4;stroke-linecap:round;stroke-linejoin:round;stroke-miterlimit:10" />
            <path
               id="path7661"
               d="m 543.88028,-16.458163 c 0,-3.62 -0.73,-7.06 -2.06,-10.19"
               class="st57"
               inkscape:connector-curvature="0"
               style="fill:none;stroke:#ffffff;stroke-width:4;stroke-linecap:round;stroke-linejoin:round;stroke-miterlimit:10" />
            <line
               id="line7663"
               y2="22.781839"
               y1="34.491837"
               x2="466.74026"
               x1="478.45029"
               class="st53"
               style="fill:none;stroke:#242c88;stroke-width:1.84800005;stroke-linecap:round;stroke-linejoin:round;stroke-miterlimit:10" />
          </g>
        </g>
        <g
           transform="matrix(0.5391311,0,0,0.5391311,254.12162,54.063702)"
           id="g7369">
          <g
             id="g7397"
             transform="matrix(0.28228419,0,0,0.28228419,-51.706631,83.242737)">
            <path
               d="m 14.766874,127.05091 -1,1.89999 -0.1,0.20001 c -0.4,0.19999 -0.8,0.29999 -1.2,0.39999 -0.4,0.10001 -0.8,0.3 -1.2,0.3 -0.1,0 -0.2,0.1 -0.4,0.1 -0.5,0.1 -0.9,0.20001 -1.4,0.3 -0.5,0.1 -1,0.2 -1.5,0.2 0,0 -0.1,0 -0.2,0 -0.1,0 -0.2,0 -0.4,0 -0.5,0 -1,0.1 -1.5,0.1 -0.5,0 -1,0 -1.5,-0.1 -0.1,0 -0.3,0 -0.4,0 -0.1,0 -0.1,0 -0.2,0 -0.5,0 -1,-0.1 -1.5,-0.2 -2.2,-0.4 -4.2,-1.09999 -6.1,-2 -0.7,-2.8 -1.4,-5.9 -1.1,-6.3 0.7,-0.8 3.2,-4.2 3.2,-4.2 l 1,-0.29999 2,-0.60001 0.3,-0.1 0.1,0 0.3,-0.1 1.4,-0.4 2.3,-0.69999 2.4,0.59999 1.4,0.40001 0.3,0.1 0.1,0 0.3,0.1 2.1,0.6 1.7,0.4 0.8,9.30001 z"
               id="path7399"
               inkscape:connector-curvature="0"
               style="fill:#54c0eb" />
            <path
               d="m 7.666874,129.6509 0.2,0.9 c -0.1,0 -0.2,0 -0.4,0 -0.5,0 -1,0.1 -1.5,0.1 -0.5,0 -1,0 -1.5,-0.1 -0.1,0 -0.3,0 -0.4,0 l 0.2,-0.9 1.4,-7.8 -1.5,-1.89999 -1.4,-1.80001 6.5,0 -1.5,1.70001 -1.5,1.9 1.4,7.9 z"
               id="path7401"
               inkscape:connector-curvature="0"
               style="fill:#ff7058" />
            <path
               d="m 10.066874,114.6509 c 0,3 -1.8,3.5 -4.1,3.5 -2.3,0 -4.1,-0.4 -4.1,-3.5 0,-3 1.8,-7.9 4.1,-7.9 2.3,0 4.1,4.9 4.1,7.9 z"
               id="path7403"
               inkscape:connector-curvature="0"
               style="fill:#e6e9ee" />
            <path
               d="m 3.966874,130.4509 c -0.5,0 -1,-0.1 -1.5,-0.2 -2.2,-0.4 -4.2,-1.1 -6.1,-2 -0.4,-0.2 -0.7,-0.4 -1.1,-0.6 -1.7,-1 -3.3,-2.3 -4.6,-3.8 -0.8,-2.5 -1.4,-4.2 -1.4,-4.29999 0,0 0,0 0,0 7.1,-1.90001 10.2,-3.70001 11.5,-4.8 0.7,-0.60001 0.9,-1 0.9,-1 0,0.1 0,0.1 0,0.2 0,0.9 0.1,1.9 0.2,2.8 0,0.6 0.1,1.1 0.2,1.7 0.4,4.7 1.1,8.8 1.9,11.99999 z"
               id="path7405"
               inkscape:connector-curvature="0"
               style="fill:#324a5e" />
            <path
               d="m 4.466874,130.5509 c -0.1,0 -0.3,0 -0.4,0 -0.1,0 -0.1,0 -0.2,0 -0.5,0 -1,-0.1 -1.5,-0.2 -2,-5.4 -3.9,-10.89999 -3.9,-10.89999 l 2,-1 -1,-1 -0.2,-0.20001 c 0.4,-0.9 0.9,-1.79999 1.4,-2.5 0.5,-0.69999 1,-1.29999 1.2,-1.5 0,0 0,0 0,0 0.1,-0.1 0.1,-0.1 0.1,-0.1 0,0 0,0.1 0,0.1 0,0 0,0.1 0,0.20001 -0.1,0.5 -0.2,1.1 -0.1,2 0,0 0,0 0,0 0,0.39999 0,0.89999 0.1,1.5 0.1,0.69999 0.2,1.5 0.3,2.29999 l 0,0 c 0.4,3.2 1.2,7.00001 2,10.6 0.1,0.1 0.1,0.4 0.2,0.7 z"
               id="path7407"
               inkscape:connector-curvature="0"
               style="fill:#324a5e" />
            <path
               d="m 22.666874,119.55091 c 0,0 0,0 0,0 0,0.1 -0.6,1.7 -1.4,4.29999 -1.4,1.5 -2.9,2.8 -4.6,3.8 -0.9,0.5 -1.8,1 -2.8,1.4 -0.1,0 -0.2,0.1 -0.2,0.1 -0.4,0.2 -0.8,0.3 -1.2,0.4 -0.4,0.1 -0.8,0.3 -1.2,0.3 -0.1,0 -0.2,0.1 -0.4,0.1 -0.5,0.1 -0.9,0.2 -1.4,0.3 -0.5,0.1 -1,0.2 -1.5,0.2 0.8,-3.3 1.5,-7.4 2,-12.1 0.1,-0.6 0.1,-1.2 0.2,-1.79999 0.1,-0.90001 0.1,-1.80001 0.2,-2.70001 l 0,0 c 0,-0.1 0,-0.1 0,-0.2 0,0 0.2,0.4 0.9,1 1.3,1.2 4.4,3 11.4,4.9 z"
               id="path7409"
               inkscape:connector-curvature="0"
               style="fill:#324a5e" />
            <path
               d="m 13.366874,119.45091 c 0,0 -1.9,5.49999 -3.9,10.89999 -0.5,0.1 -1,0.2 -1.5,0.2 0,0 -0.1,0 -0.2,0 -0.1,0 -0.2,0 -0.4,0 0.1,-0.3 0.1,-0.6 0.2,-0.9 0.8,-3.59999 1.6,-7.5 2,-10.59999 0,0 0,0 0,0 0.1,-0.90001 0.2,-1.70001 0.3,-2.40001 0,-0.5 0.1,-1 0.1,-1.4 0,0 0,0 0,0 l 0,0 c 0,-0.79999 0,-1.4 -0.2,-1.79999 l 0,0 c 0,0 0,-0.10001 0,-0.10001 0,0 0,-0.1 0,-0.1 0,0 0,0 0.1,0.1 0,0 0,0 0,0 0.2,0.3 0.7,0.8 1.2,1.5 0.5,0.70001 1,1.60001 1.4,2.5 l 0,0 -1.1,1.20001 2,0.9 z"
               id="path7411"
               inkscape:connector-curvature="0"
               style="fill:#324a5e" />
            <ellipse
               transform="translate(-46.233126,57.350905)"
               cx="52.200001"
               cy="48.5"
               rx="7.0999999"
               ry="8.8999996"
               id="ellipse7413"
               style="fill:#ffffff" />
            <ellipse
               cx="59.299999"
               cy="47.900002"
               rx="1.3"
               ry="2.4000001"
               transform="matrix(0.9465,0.3227,-0.3227,0.9465,-27.589826,40.789505)"
               id="ellipse7415"
               style="fill:#ffffff" />
            <ellipse
               cx="45.099998"
               cy="47.900002"
               rx="1.3"
               ry="2.4000001"
               transform="matrix(-0.9465,0.3227,-0.3227,-0.9465,57.074874,136.1151)"
               id="ellipse7417"
               style="fill:#ffffff" />
            <path
               d="m -0.433126,107.1509 c -3.7,-7.599995 1.4,-10.099995 1.4,-10.099995 l -2.4,1.4 c 7.5781428,-7.031143 12.5,-1.6 12.5,-1.6 5,3.899995 1.8,9.799995 1.8,9.799995 0,0 -0.6,-4.3 -2.7,-6.2 0,0 -2.6,2.9 -8.6,0.2 l -1.7,3 c 0,0.1 -0.7,2 -0.3,3.5 z"
               id="path7419"
               inkscape:connector-curvature="0"
               style="fill:#324a5e"
               sodipodi:nodetypes="ccccccccc" />
            <path
               d="m 2.166874,113.05091 c 0,0 0.6,3.5 3.8,5.09999 0,0 -2.2,1.70001 -2.6,3 0,0 -3.5,-5.09999 -1.2,-8.09999 z"
               id="path7421"
               inkscape:connector-curvature="0"
               style="fill:#84dbff" />
            <path
               d="m 9.766874,113.05091 c 0,0 -0.6,3.5 -3.8,5.09999 0,0 2.2,1.70001 2.6,3 0,0 3.5,-5.09999 1.2,-8.09999 z"
               id="path7423"
               inkscape:connector-curvature="0"
               style="fill:#84dbff" />
            <path
               d="m 13.866874,129.0509 c -0.1,0 -0.2,0.1 -0.2,0.1 -0.4,0.2 -0.8,0.3 -1.2,0.4 l 1,-1 0.4,0.5 z"
               id="path7425"
               inkscape:connector-curvature="0"
               style="fill:#324a5e" />
          </g>
        </g>
      </g>
    </g>
  </g>
</svg>
