<?xml version="1.0" standalone="no"?>
<!DOCTYPE svg PUBLIC "-//W3C//DTD SVG 1.1//EN" "http://www.w3.org/Graphics/SVG/1.1/DTD/svg11.dtd" >
<svg xmlns="http://www.w3.org/2000/svg">
<metadata>Generated by IcoMoon</metadata>
<defs>
<font id="icomoon" horiz-adv-x="1024">
<font-face units-per-em="1024" ascent="960" descent="-64" />
<missing-glyph horiz-adv-x="1024" />
<glyph unicode="&#x20;" horiz-adv-x="512" d="" />
<glyph unicode="&#xe900;" glyph-name="Application-Management" d="M839.682 740.956h-681.37c-41.636 0-75.7-34.068-75.7-75.708v-454.247c0-41.639 34.064-75.707 75.7-75.707h189.267v-75.707h302.835v75.707h189.267c41.646 0 75.333 34.068 75.333 75.707l0.341 454.247c0 41.64-34.064 75.708-75.711 75.708zM839.682 211h-681.37v454.247h681.37v-454.247zM763.983 551.688h-416.403v-75.71h416.403v75.71zM763.983 400.271h-416.403v-75.707h416.403v75.707zM309.735 551.688h-75.711v-75.71h75.711v75.71zM309.735 400.271h-75.711v-75.707h75.711v75.707z" />
<glyph unicode="&#xe901;" glyph-name="claim" d="M472.609 809.492c-58.66 0-107.34-48.68-107.34-107.34s48.68-105.235 107.34-105.235c58.66 0 105.235 46.575 105.235 105.235s-46.575 107.34-105.235 107.34zM742.011 731.618c-71.476 0-128.387-56.911-128.387-128.387s56.911-130.492 128.387-130.492c71.476 0 130.492 59.015 130.492 130.492s-59.015 128.387-130.492 128.387zM447.352 470.634c-64.799-2.612-141.248-33.667-178.9-96.817l-88.398-63.141-21.047 27.361c0 0-2.577 3.937-4.209 4.209-1.74 0.29-6.314-4.209-6.314-4.209l-35.78-25.256-67.351-54.722c0 0-5.692-4.409-6.314-8.419-0.703-4.623 4.209-12.628 4.209-12.628 32.137-41.396 61.907-81.020 101.026-107.34l86.293-56.827c0 0 29.425-21.28 33.675-21.047 2.658 0.149 8.419 4.209 8.419 4.209l21.047 21.047c0 0 8.419 5.136 8.419 8.419 0.135 5.705-12.628 18.942-12.628 18.942l-4.209 4.209 14.733 14.733c0 0 10.439 8.694 8.419 16.838-1.387 5.528-6.314 8.419-6.314 8.419l-2.105 4.209 16.838 23.152 23.152 25.256c0 0 6.336 9.287 10.524 12.628 3.512 2.786 23.152 2.105 23.152 2.105l65.246 6.314c0 0 299.858 26.77 317.811 39.989 12.72 5.993 142.674 109.112 191.528 149.434 0 0 8.879 7.845 14.733 12.628 1.393 1.139 3.304 1.39 4.209 2.105 2.362 1.862-4.781 7.341-12.628 12.628-7.852 5.288-19.32 9.501-33.675 4.209-28.718-10.589-131.778-78.823-195.738-90.502-41.935-7.658-162.548-4.065-195.738 2.105-33.182 6.165-14.733 25.256-14.733 25.256s104.549-19.344 143.12-10.524c19.285 4.411 31.261 16.912 37.885 29.466 6.604 12.554 9.221 17.069 4.209 23.152-2.968 3.601-10.524 4.209-10.524 4.209-40.265 8.85-148.564 27.86-183.109 37.885-17.275 5.012-37.332 7.185-58.932 6.314z" />
<glyph unicode="&#xe902;" glyph-name="CnB" d="M125.142 817.311c-27.827 0-51.015-23.004-51.015-48.797v-319.396c0-2.697-0.681-3.975 0-6.672v-28.838c-26.221-2.129-45.067-23.153-39.925-44.361l66.541-261.727c4.751-16.971 22.641-28.121 44.361-28.831h720.859c22.398 0 40.967 11.179 44.361 28.831l79.849 383.722c4.073 22.393-18.751 42.139-46.579 42.139h-31.052v157.484c0 26.467-23.187 46.575-51.015 46.575h-368.193c-16.289 0-30.422 7.751-39.925 19.966l-31.052 39.925c-9.502 12.215-23.635 19.959-39.925 19.959h-257.291zM142.886 642.090h667.627c15.993 0 28.834-12.84 28.834-28.838v-79.849h-379.283c-10.86 0-20.69-3.478-28.834-8.872l-148.608-102.029c-8.145-5.394-17.975-8.872-28.834-8.872h-139.736v199.623c0 15.998 12.841 28.838 28.834 28.838zM515.515 380.363c120.812 0 204.822-64.717 188.532-135.303-14.253-62.445-103.244-106.465-199.623-106.465s-179.709 44.020-188.532 106.465c-9.502 70.587 78.81 135.303 199.623 135.303zM477.809 336.002v-70.977h-106.465l4.436-39.925h99.811v-57.669h59.887l4.436 57.669h102.029l6.654 39.925h-106.465l6.654 70.977h-70.977z" />
<glyph unicode="&#xe903;" glyph-name="document" d="M426.667 789.333h-256c-46.933 0-84.907-38.4-84.907-85.333l-0.427-512c0-46.933 38.4-85.333 85.333-85.333h682.667c46.933 0 85.333 38.4 85.333 85.333v426.667c0 46.933-38.4 85.333-85.333 85.333h-341.333l-85.333 85.333z" />
<glyph unicode="&#xe904;" glyph-name="event" d="M725.333 448h-213.333v-213.333h213.333v213.333zM682.667 917.333v-85.333h-341.333v85.333h-85.333v-85.333h-42.667c-47.36 0-84.907-38.4-84.907-85.333l-0.427-597.333c0-46.933 37.973-85.333 85.333-85.333h597.333c46.933 0 85.333 38.4 85.333 85.333v597.333c0 46.933-38.4 85.333-85.333 85.333h-42.667v85.333h-85.333zM810.667 149.333h-597.333v469.333h597.333v-469.333z" />
<glyph unicode="&#xe905;" glyph-name="file" d="M256 874.667c-46.933 0-84.907-38.4-84.907-85.333l-0.427-682.667c0-46.933 37.973-85.333 84.907-85.333h512.427c46.933 0 85.333 38.4 85.333 85.333v512l-256 256h-341.333zM554.667 576v234.667l234.667-234.667h-234.667z" />
<glyph unicode="&#xe906;" glyph-name="Home" d="M130.369 397.881h331.508v414.398h-331.508v-414.398zM130.369 66.365h331.508v248.637h-331.508v-248.637zM544.757 66.365h331.518v414.396h-331.518v-414.396zM544.757 812.279v-248.637h331.518v248.637h-331.518z" />
<glyph unicode="&#xe907;" glyph-name="job" d="M426.667 874.667c-47.36 0-85.333-37.973-85.333-85.333v-85.333h-170.667c-47.36 0-85.333-37.973-85.333-85.333v-469.333c0-47.36 37.973-85.333 85.333-85.333h510.667v261.333c-1.439 43.368-5.508 48.746 16 48l241.333 1.333v244c0 47.36-37.973 85.333-85.333 85.333h-170.667v85.333c0 47.36-37.973 85.333-85.333 85.333h-170.667zM426.667 789.333h170.667v-85.333h-170.667v85.333zM733.333 357.333c-21.706 0-38.667-16.961-38.667-38.667v-316c0-21.706 16.961-40 38.667-40h237.333c21.706 0 38.667 18.294 38.667 40v237.333l-117.333 117.333h-158.667zM872 328l108-108h-108v108z" />
<glyph unicode="&#xe908;" glyph-name="Module-Management" d="M556.544 437.728h281.396v-60.304h-281.396zM556.544 538.229h281.396v-60.3h-281.396zM556.544 337.228h281.396v-60.302h-281.396zM878.145 759.331h-723.613c-44.219 0-80.398-36.18-80.398-80.399v-522.607c0-44.221 36.178-80.401 80.398-80.401h723.613c44.218 0 80.398 36.18 80.398 80.401v522.607c0 44.22-36.18 80.399-80.398 80.399zM878.145 156.324h-361.806v522.607h361.806v-522.607z" />
<glyph unicode="&#xe909;" glyph-name="news" d="M597.333 874.667h-341.333c-46.933 0-84.907-38.4-84.907-85.333l-0.427-682.667c0-46.933 37.973-85.333 84.907-85.333h512.427c46.933 0 85.333 38.4 85.333 85.333v512l-256 256zM682.667 192h-341.333v85.333h341.333v-85.333zM682.667 362.667h-341.333v85.333h341.333v-85.333zM554.667 576v234.667l234.667-234.667h-234.667z" />
<glyph unicode="&#xe90a;" glyph-name="Notification" d="M494.646-16c48.433 0 88.058 39.625 88.058 88.057h-176.119c0-48.432 39.186-88.057 88.061-88.057zM758.824 248.177v220.149c0 135.169-72.209 248.326-198.133 278.265v29.939c0 36.546-29.5 66.046-66.044 66.046-36.546 0-66.045-29.5-66.045-66.046v-29.939c-126.363-29.939-198.132-142.657-198.132-278.265v-220.149l-88.061-88.059v-44.029h704.472v44.029l-88.056 88.059z" />
<glyph unicode="&#xe90b;" glyph-name="OM" d="M400.533 767.769c-9.617 0-16.006-8.678-16.006-18.292v-105.181c0-9.614 6.388-16.006 16.006-16.006h86.888v-139.479h-329.261c-9.617 0-18.292-8.678-18.292-18.292v-192.069h-86.888c-9.617 0-18.292-6.391-18.292-16.006v-105.181c0-9.622 8.675-16.006 18.292-16.006h208.075c9.617 0 18.292 6.384 18.292 16.006v105.181c0 9.614-8.675 16.006-18.292 16.006h-86.888v176.063h313.256v-176.063h-86.888c-9.617 0-16.006-6.391-16.006-16.006v-105.181c0-9.622 6.388-16.006 16.006-16.006h210.361c9.617 0 16.006 6.384 16.006 16.006v105.181c0 9.614-6.388 16.006-16.006 16.006h-86.888v176.063h313.256v-176.063h-86.888c-9.617 0-18.292-6.391-18.292-16.006v-105.181c0-9.622 8.675-16.006 18.292-16.006h208.075c9.617 0 18.292 6.384 18.292 16.006v105.181c0 9.614-8.675 16.006-18.292 16.006h-86.888v192.069c0 9.614-8.675 18.292-18.292 18.292h-329.261v139.479h86.888c9.617 0 16.006 6.391 16.006 16.006v105.181c0 9.614-6.388 18.292-16.006 18.292h-210.361z" />
<glyph unicode="&#xe90c;" glyph-name="people" d="M335.341 796c-70.827 0-128-57.173-128-128s57.173-128 128-128c70.827 0 128 57.173 128 128s-57.173 128-128 128zM676.674 796c-70.827 0-128-57.173-128-128s57.173-128 128-128c70.827 0 128 57.173 128 128s-57.173 128-128 128zM310.007 454.667c-99.413 0-273.333-49.92-273.333-149.333v-106.667h357.333v106.667c0 99.413 15.413 149.333-84 149.333zM676.674 454.667c-12.373 0-26.4-1.387-41.333-2.667 49.493-35.84 84-83.52 84-146.667v-106.667h256v106.667c0 99.413-199.253 149.333-298.667 149.333zM443.341 374.667c-20.171 0-36-17.162-36-37.333v-293.333c0-20.171 15.829-36 36-36h220c20.171 0 37.333 15.829 37.333 36v220l-110.667 110.667h-146.667zM572.674 346.667l100-100h-100v100zM480.674 190.667h146.667v-36h-146.667v36zM480.674 117.333h146.667v-36h-146.667v36z" />
<glyph unicode="&#xe90d;" glyph-name="Self-Sevice" d="M503.316 506.291c89.562 0 161.31 72.293 161.31 161.853 0 89.557-71.748 161.851-161.31 161.851-89.55 0-161.853-72.295-161.853-161.851 0-89.56 72.303-161.853 161.853-161.853zM503.316 398.389c-125.707 0-377.653-63.122-377.653-188.83v-134.876h755.319v134.876c0 125.708-251.958 188.83-377.665 188.83z" />
<glyph unicode="&#xe90e;" glyph-name="task" d="M810.667 832h-178.347c-17.92 49.493-64.853 85.333-120.32 85.333s-102.4-35.84-120.32-85.333h-178.347c-46.933 0-85.333-38.4-85.333-85.333v-597.333c0-46.933 38.4-85.333 85.333-85.333h597.333c46.933 0 85.333 38.4 85.333 85.333v597.333c0 46.933-38.4 85.333-85.333 85.333zM512 832c23.467 0 42.667-19.2 42.667-42.667s-19.2-42.667-42.667-42.667-42.667 19.2-42.667 42.667 19.2 42.667 42.667 42.667zM597.333 234.667h-298.667v85.333h298.667v-85.333zM725.333 405.333h-426.667v85.333h426.667v-85.333zM725.333 576h-426.667v85.333h426.667v-85.333z" />
<glyph unicode="&#xe90f;" glyph-name="Configuring1" d="M829.013 406.187c1.707 13.653 2.987 27.307 2.987 41.813s-1.28 28.16-2.987 41.813l90.027 70.4c8.107 6.4 10.24 17.92 5.12 27.307l-85.333 147.627c-5.12 9.387-16.64 12.8-26.027 9.387l-106.24-42.667c-22.187 17.067-46.080 31.147-72.107 41.813l-16.213 113.067c-1.28 10.24-10.24 17.92-20.907 17.92h-170.667c-10.667 0-19.627-7.68-20.907-17.92l-16.213-113.067c-26.027-10.667-49.92-25.173-72.107-41.813l-106.24 42.667c-9.813 3.84-20.907 0-26.027-9.387l-85.333-147.627c-5.547-9.387-2.987-20.907 5.12-27.307l90.027-70.4c-1.707-13.653-2.987-27.733-2.987-41.813s1.28-28.16 2.987-41.813l-90.027-70.4c-8.107-6.4-10.24-17.92-5.12-27.307l85.333-147.627c5.12-9.387 16.64-12.8 26.027-9.387l106.24 42.667c22.187-17.067 46.080-31.147 72.107-41.813l16.213-113.067c1.28-10.24 10.24-17.92 20.907-17.92h170.667c10.667 0 19.627 7.68 20.907 17.92l16.213 113.067c26.027 10.667 49.92 25.173 72.107 41.813l106.24-42.667c9.813-3.84 20.907 0 26.027 9.387l85.333 147.627c5.12 9.387 2.987 20.907-5.12 27.307l-90.027 70.4zM512 298.667c-82.347 0-149.333 66.987-149.333 149.333s66.987 149.333 149.333 149.333 149.333-66.987 149.333-149.333-66.987-149.333-149.333-149.333z" />
<glyph unicode="&#xe910;" glyph-name="Monitoring" d="M896 874.667h-768c-46.933 0-85.333-38.4-85.333-85.333v-512c0-46.933 38.4-85.333 85.333-85.333h298.667l-85.333-128v-42.667h341.333v42.667l-85.333 128h298.667c46.933 0 85.333 38.4 85.333 85.333v512c0 46.933-38.4 85.333-85.333 85.333zM896 362.667h-768v426.667h768v-426.667z" />
<glyph unicode="&#xe911;" glyph-name="Processing" d="M512 789.333v128l-170.667-170.667 170.667-170.667v128c141.227 0 256-114.773 256-256 0-43.093-10.667-84.053-29.867-119.467l62.293-62.293c33.28 52.48 52.907 114.773 52.907 181.76 0 188.587-152.747 341.333-341.333 341.333zM512 192c-141.227 0-256 114.773-256 256 0 43.093 10.667 84.053 29.867 119.467l-62.293 62.293c-33.28-52.48-52.907-114.773-52.907-181.76 0-188.587 152.747-341.333 341.333-341.333v-128l170.667 170.667-170.667 170.667v-128z" />
<glyph unicode="&#xe912;" glyph-name="Reporting" d="M810.667 832h-597.333c-46.933 0-85.333-38.4-85.333-85.333v-597.333c0-46.933 38.4-85.333 85.333-85.333h597.333c46.933 0 85.333 38.4 85.333 85.333v597.333c0 46.933-38.4 85.333-85.333 85.333zM384 234.667h-85.333v298.667h85.333v-298.667zM554.667 234.667h-85.333v426.667h85.333v-426.667zM725.333 234.667h-85.333v170.667h85.333v-170.667z" />
<glyph unicode="&#xe913;" glyph-name="Tracking1" d="M512 618.667c-94.293 0-170.667-76.373-170.667-170.667s76.373-170.667 170.667-170.667 170.667 76.373 170.667 170.667-76.373 170.667-170.667 170.667zM893.44 490.667c-19.627 177.92-160.853 319.147-338.773 338.773v87.893h-85.333v-87.893c-177.92-19.627-319.147-160.853-338.773-338.773h-87.893v-85.333h87.893c19.627-177.92 160.853-319.147 338.773-338.773v-87.893h85.333v87.893c177.92 19.627 319.147 160.853 338.773 338.773h87.893v85.333h-87.893zM512 149.333c-165.12 0-298.667 133.547-298.667 298.667s133.547 298.667 298.667 298.667 298.667-133.547 298.667-298.667-133.547-298.667-298.667-298.667z" />
<glyph unicode="&#xe914;" glyph-name="Tracking2" d="M512 874.667c-165.12 0-298.667-133.547-298.667-298.667 0-224 298.667-554.667 298.667-554.667s298.667 330.667 298.667 554.667c0 165.12-133.547 298.667-298.667 298.667zM512 469.333c-58.88 0-106.667 47.787-106.667 106.667s47.787 106.667 106.667 106.667 106.667-47.787 106.667-106.667-47.787-106.667-106.667-106.667z" />
<glyph unicode="&#xe915;" glyph-name="Tracking3" d="M768 618.667c0 141.227-114.773 256-256 256s-256-114.773-256-256c0-192 256-469.333 256-469.333s256 277.333 256 469.333zM426.667 618.667c0 46.933 38.4 85.333 85.333 85.333s85.333-38.4 85.333-85.333-37.973-85.333-85.333-85.333c-46.933 0-85.333 38.4-85.333 85.333zM213.333 106.667v-85.333h597.333v85.333h-597.333z" />
</font>
</defs>
</svg>
