<?xml version="1.0" encoding="utf-8"?>
<!-- Generated by IcoMoon.io -->
<!DOCTYPE svg PUBLIC "-//W3C//DTD SVG 1.1//EN" "http://www.w3.org/Graphics/SVG/1.1/DTD/svg11.dtd">
<svg version="1.1" xmlns="http://www.w3.org/2000/svg" xmlns:xlink="http://www.w3.org/1999/xlink" width="752" height="80" viewBox="0 0 752 80">
<svg id="icon-cart" width="32" height="32" viewBox="0 0 32 32" x="0" y="0">
<path fill="#ffa814" d="M23.875 25.249c0.866-0.241 1.159-1.208 0.572-1.891l-0.311-0.362-6.874-0.064c-6.632-0.062-6.894-0.074-7.454-0.334-0.794-0.369-1.357-0.871-1.775-1.58l-0.352-0.599-0.129-12.844-0.842-0.752h-5.776l-0.397 0.334c-0.535 0.45-0.565 1.267-0.064 1.738 0.317 0.299 0.428 0.315 2.481 0.377l2.149 0.064 0.064 5.67c0.063 5.504 0.073 5.691 0.354 6.379 0.378 0.927 0.659 1.338 1.479 2.167 0.79 0.799 2.151 1.516 3.193 1.684 1.015 0.163 13.097 0.174 13.68 0.012z"></path>
<path fill="#fe660d" d="M25.31 21.111c0.228-0.098 0.566-0.344 0.75-0.548s1.543-2.661 3.020-5.461c2.966-5.625 3.060-5.88 2.536-6.904-0.293-0.574-0.557-0.835-1.149-1.135-0.369-0.187-1.418-0.209-10.025-0.209-9.178 0-9.634 0.011-10.091 0.244-0.591 0.301-0.862 0.594-1.118 1.206-0.168 0.401-0.198 1.294-0.195 5.795 0.003 4.886 0.022 5.362 0.24 5.836 0.261 0.569 0.53 0.847 1.111 1.15 0.337 0.175 1.296 0.202 7.446 0.202 5.71 0.001 7.139-0.033 7.475-0.177z"></path>
<path fill="#fe660d" d="M13.192 31.489c0.765-0.537 1.188-1.343 1.177-2.243-0.009-0.8-0.159-1.16-0.742-1.781-0.573-0.611-1.072-0.834-1.885-0.844-2.305-0.028-3.54 2.664-2.017 4.398 0.897 1.021 2.394 1.224 3.468 0.47zM20.864 31.754c2.731-1.141 1.934-5.149-1.021-5.13-1.73 0.011-3.021 1.686-2.562 3.324 0.435 1.554 2.135 2.411 3.583 1.806z"></path>
</svg>
<svg id="icon-bed" width="32" height="32" viewBox="0 0 32 32" x="48" y="0">
<path fill="#c7caca" d="M28.811 20.958c0.678-0.152 1.183-0.74 1.183-1.444v-0.148c0-0.819-0.684-1.484-1.528-1.484h-4.163c-0.844 0-1.528 0.664-1.528 1.484v0.148c0 0.704 0.506 1.292 1.183 1.444h-22.189v2.929h28.796v-2.929h-1.756z"></path>
<path fill="#2b3237" d="M30.937 9.395h-12.307c-0.513 0-0.929 0.416-0.929 0.929 0 0.007 0.001 0.013 0.001 0.020s-0.001 0.013-0.001 0.020v3.534h0.89v-2.646c0.013 0.001 0.026 0.002 0.039 0.002h11.379v12.149h-27.965v-8.412c0-0.552-0.448-0.999-0.999-0.999s-0.999 0.447-0.999 0.999v15.952c0 0.552 0.448 0.999 0.999 0.999s0.999-0.448 0.999-0.999v-5.517h27.965v5.588c0 0.513 0.416 0.929 0.929 0.929s0.929-0.416 0.929-0.929v-20.689c0-0.513-0.416-0.929-0.929-0.929z"></path>
<path fill="#e6a123" d="M17.465 13.896c-0.581 0-1.051 0.47-1.051 1.051s0.47 1.050 1.051 1.050h1.236c0.581 0 1.051-0.47 1.051-1.050s-0.47-1.051-1.051-1.051h-1.236z"></path>
<path fill="#d43d21" d="M4.469 14.364h1.427v1.427c0 0.496 0.403 0.899 0.899 0.899h0.601c0.496 0 0.899-0.403 0.899-0.899v-1.427h1.427c0.496 0 0.899-0.403 0.899-0.899v-0.602c0-0.496-0.403-0.899-0.899-0.899h-1.427v-1.427c0-0.496-0.403-0.899-0.899-0.899h-0.601c-0.496 0-0.899 0.403-0.899 0.899v1.427h-1.427c-0.496 0-0.899 0.403-0.899 0.899v0.602c0 0.496 0.403 0.899 0.899 0.899z"></path>
</svg>
<svg id="icon-eyeglases" width="32" height="32" viewBox="0 0 32 32" x="96" y="0">
<path fill="#eff2fa" d="M18.986 15.891c0.061-0.132 0.376-0.596 1.888-1.053 1.705-0.515 3.967-0.74 5.69-0.74 1.193 0 2.128 0.108 2.442 0.302 0.834 0.514 1.199 3.586 0.056 6.257-0.972 2.275-6.11 2.503-7.463 2.058-0.653-0.216-1.53-1.335-2.132-2.722-0.699-1.608-0.888-3.218-0.482-4.101z"></path>
<path fill="#c7caca" d="M27.968 21.755c1.142-2.671 0.778-5.743-0.056-6.257-0.314-0.194-1.249-0.302-2.442-0.302-1.723 0-3.985 0.225-5.69 0.74-0.376 0.114-0.678 0.228-0.921 0.337 0.033-0.139 0.075-0.267 0.128-0.383 0.061-0.132 0.376-0.596 1.888-1.053 1.705-0.515 3.967-0.74 5.69-0.74 1.193 0 2.128 0.108 2.442 0.302 0.834 0.514 1.199 3.586 0.056 6.257-0.212 0.497-0.63 0.891-1.157 1.206 0.019-0.037 0.045-0.070 0.061-0.108z"></path>
<path fill="#eff2fa" d="M12.558 20.002c-0.603 1.387-1.48 2.506-2.132 2.722-1.353 0.446-6.49 0.217-7.463-2.058-1.142-2.671-0.778-5.743 0.057-6.257 0.314-0.194 1.249-0.302 2.442-0.302 1.723 0 3.985 0.225 5.69 0.74 1.512 0.457 1.827 0.921 1.888 1.053 0.406 0.883 0.217 2.493-0.482 4.101z"></path>
<path fill="#2b3237" d="M31.438 13.544h-1.752c-0.036-0.026-0.069-0.059-0.107-0.082-1.199-0.739-6.093-0.566-9.030 0.321-0.265 0.080-0.51 0.164-0.735 0.252-0.513 0.201-1.037 0.375-1.582 0.454-0.688 0.1-1.436 0.156-2.222 0.156s-1.535-0.056-2.222-0.156c-0.545-0.079-1.069-0.254-1.582-0.454-0.225-0.088-0.47-0.172-0.735-0.252-2.936-0.887-7.83-1.060-9.029-0.322-0.038 0.023-0.071 0.056-0.107 0.082h-1.752c-0.304 0-0.551 0.247-0.551 0.551v1.232c0 0.263 0.132 0.509 0.35 0.655l0.51 0.34c0.159 0.106 0.247 0.284 0.241 0.475-0.042 1.353 0.223 2.902 0.817 4.294 0.959 2.243 4.29 2.919 6.677 2.919 0.917 0 1.695-0.1 2.145-0.249 1.163-0.384 2.208-1.971 2.798-3.329 0.505-1.163 0.766-2.297 0.78-3.277 0.002-0.19 0.094-0.363 0.254-0.465 0.38-0.242 0.868-0.39 1.407-0.39s1.027 0.148 1.407 0.39c0.16 0.102 0.252 0.275 0.254 0.465 0.013 0.98 0.274 2.114 0.78 3.277 0.59 1.357 1.635 2.944 2.798 3.329 0.45 0.149 1.227 0.249 2.145 0.249 2.387 0 5.718-0.676 6.677-2.919 0.595-1.391 0.859-2.941 0.817-4.294-0.006-0.191 0.082-0.369 0.241-0.475l0.509-0.34c0.219-0.146 0.35-0.392 0.35-0.655v-1.232c0-0.304-0.247-0.551-0.551-0.551zM12.558 19.992c-0.603 1.387-1.48 2.506-2.132 2.722-1.353 0.446-6.49 0.217-7.463-2.058-1.142-2.671-0.778-5.743 0.057-6.257 0.314-0.194 1.249-0.302 2.442-0.302 1.723 0 3.985 0.225 5.69 0.74 1.512 0.457 1.827 0.921 1.888 1.053 0.406 0.883 0.217 2.493-0.482 4.101zM29.057 20.657c-0.972 2.275-6.11 2.503-7.463 2.058-0.653-0.216-1.53-1.335-2.132-2.722-0.7-1.608-0.888-3.218-0.482-4.101 0.061-0.132 0.376-0.596 1.888-1.053 2.885-0.871 7.364-0.913 8.133-0.438 0.834 0.514 1.198 3.586 0.056 6.256z"></path>
<path fill="#c7caca" d="M4.059 21.755c-1.142-2.671-0.778-5.743 0.056-6.257 0.314-0.194 1.249-0.302 2.442-0.302 1.723 0 3.985 0.225 5.69 0.74 0.376 0.114 0.678 0.228 0.921 0.337-0.033-0.139-0.075-0.267-0.128-0.383-0.061-0.132-0.376-0.596-1.888-1.053-1.705-0.515-3.967-0.74-5.69-0.74-1.193 0-2.128 0.108-2.442 0.302-0.834 0.514-1.199 3.586-0.056 6.257 0.212 0.497 0.63 0.891 1.157 1.206-0.019-0.037-0.045-0.070-0.061-0.108z"></path>
<path fill="#ccc" opacity="0.416" d="M10.5 20.441c0 0.761-0.617 1.377-1.377 1.377s-1.377-0.617-1.377-1.377c0-0.761 0.617-1.377 1.377-1.377s1.377 0.617 1.377 1.377z"></path>
<path fill="#ccc" opacity="0.416" d="M7.741 18.372c0 0.379-0.307 0.686-0.686 0.686s-0.686-0.307-0.686-0.686c0-0.379 0.307-0.686 0.686-0.686s0.686 0.307 0.686 0.686z"></path>
<path fill="#ccc" opacity="0.416" d="M26.754 20.441c0 0.761-0.617 1.377-1.377 1.377s-1.377-0.617-1.377-1.377c0-0.761 0.617-1.377 1.377-1.377s1.377 0.617 1.377 1.377z"></path>
<path fill="#ccc" opacity="0.416" d="M23.994 18.372c0 0.379-0.307 0.686-0.686 0.686s-0.686-0.307-0.686-0.686c0-0.379 0.307-0.686 0.686-0.686s0.686 0.307 0.686 0.686z"></path>
<path fill="#d43d21" opacity="0.416" d="M1.449 14.986c0 0.224-0.182 0.406-0.406 0.406s-0.406-0.182-0.406-0.406c0-0.224 0.182-0.406 0.406-0.406s0.406 0.182 0.406 0.406z"></path>
<path fill="#d43d21" opacity="0.416" d="M31.336 14.986c0 0.224-0.182 0.406-0.406 0.406s-0.406-0.182-0.406-0.406c0-0.224 0.182-0.406 0.406-0.406s0.406 0.182 0.406 0.406z"></path>
</svg>
<svg id="icon-plane" width="32" height="32" viewBox="0 0 32 32" x="144" y="0">
<path fill="#2b3237" d="M5.763 21.345l4.982 4.958c0.271 0.271 0.765 4.193 0.493 4.465l-0.987 0.987c-0.271 0.271-0.715 0.271-0.987 0l-4.465-4.465c-1.603-1.603-3.231-3.207-3.996-3.996l-0.493-0.493c-0.271-0.271-0.271-0.715 0-0.987l0.987-0.987c0.271-0.271 4.193 0.247 4.464 0.518z"></path>
<path fill="#e0dcd3" d="M18.565 8.642l4.884 4.884c0.543 0.543 5.92 15.564 5.377 16.107l-1.949 1.949c-0.543 0.543-1.406 0.543-1.949 0l-10.779-13.69-13.665-10.73c-0.543-0.543-0.543-1.406 0-1.949l1.949-1.949c0.543-0.543 15.589 4.835 16.131 5.377z"></path>
<path fill="#e4e7e7" d="M31.095 0.995c1.357 1.357 0.148 4.736-1.455 6.364l-17.636 17.611c-1.628 1.628-7.449 5.278-8.806 3.922s2.294-7.178 3.922-8.806l17.611-17.636c1.628-1.628 5.007-2.812 6.364-1.455z"></path>
<path fill="#e0dcd3" d="M8.329 21.271l17.611-17.611c1.381-1.381 4.021-2.442 5.599-1.924-0.099-0.296-0.247-0.543-0.444-0.765-1.357-1.357-4.736-0.148-6.364 1.48l-17.611 17.611c-1.628 1.628-5.254 7.449-3.922 8.806 0.197 0.197 0.518 0.296 0.913 0.296 0.025-2.121 2.837-6.512 4.218-7.893z"></path>
<path fill="#c7caca" d="M8.723 13.624l2.787 2.171 7.128-7.128-0.074-0.074c-0.148-0.148-1.529-0.715-3.404-1.431 0 0-6.438 6.463-6.438 6.463z"></path>
<path fill="#d43d21" d="M16.32 20.654l8.584 10.927c0.493 0.493 1.283 0.518 1.825 0.099l-9.472-11.963-0.937 0.937zM12.374 14.833l-12.037-9.422c-0.37 0.543-0.321 1.283 0.148 1.751l10.952 8.584 0.937-0.913z"></path>
<path fill="#d43d21" d="M11.437 15.745l0.937-0.913-2.713-2.121-0.937 0.913 2.713 2.121z"></path>
</svg>
<svg id="icon-stetoscope" width="32" height="32" viewBox="0 0 32 32" x="192" y="0">
<path fill="#2b3237" d="M19.202 18.231c-0.662 1.745-0.493 3.701-0.329 5.592 0.187 2.147 0.363 4.175-0.771 5.454-0.896 1.011-2.578 1.544-5.143 1.631-2.541 0.086-4.307-0.477-5.246-1.671-1.695-2.156-0.584-6.142 0.152-8.779 0.238-0.854 0.431-1.544 0.516-2.083-0.116 0.006-0.232 0.010-0.35 0.010-0.245 0-0.483-0.014-0.716-0.037-0.091 0.482-0.275 1.143-0.466 1.828-0.793 2.842-1.991 7.138 0.035 9.714 1.087 1.383 2.964 2.082 5.586 2.082 0.171 0 0.346-0.003 0.524-0.009 2.869-0.096 4.798-0.746 5.897-1.985 1.435-1.618 1.23-3.971 1.033-6.245-0.264-3.036-0.515-5.934 2.535-7.663-0.22-0.273-0.401-0.578-0.534-0.907-1.331 0.759-2.23 1.775-2.722 3.069z"></path>
<path fill="#d43d21" d="M8.381 18.373c3.065-0.151 5.105-2.206 5.323-3.222-1.318 1.030-3.018 1.597-5.067 1.688-0.065 0.015-0.133 0.022-0.203 0.022-0.035 0-0.070 0-0.104 0-2.483 0-4.49-0.655-5.968-1.95-0.005-0.005-0.010-0.010-0.016-0.014-0.008 0.025-0.012 0.053-0.012 0.083 0 0.9 1.941 3.059 4.98 3.364 0.232 0.023 0.471 0.037 0.716 0.037 0.119 0 0.235-0.004 0.35-0.010z"></path>
<path fill="#2b3237" d="M1.296 9.118c-0.007-0.146-0.012-0.292-0.012-0.441 0-2.348 0.907-4.811 2.617-5.753-0.265-0.179-0.449-0.478-0.484-0.825-0.673 0.385-1.27 0.969-1.757 1.729-0.836 1.309-1.297 3.031-1.297 4.847 0 0.225 0.008 0.447 0.022 0.667 0.147-0.129 0.33-0.219 0.534-0.248 0.129-0.018 0.257-0.009 0.376 0.020z"></path>
<path fill="#2b3237" d="M15.45 9.087c0.204 0.028 0.386 0.118 0.534 0.248 0.015-0.221 0.022-0.443 0.022-0.667 0-1.817-0.461-3.538-1.297-4.847-0.486-0.762-1.083-1.344-1.757-1.73-0.035 0.346-0.22 0.645-0.484 0.825 1.71 0.941 2.617 3.405 2.617 5.753 0 0.148-0.005 0.295-0.012 0.441 0.121-0.030 0.247-0.039 0.376-0.020z"></path>
<path fill="#e0dcd3" d="M8.331 16.862c0.034 0 0.069 0 0.104 0 0.069 0 0.137-0.009 0.203-0.022 2.049-0.091 3.749-0.658 5.067-1.688 0.102-0.080 0.203-0.162 0.301-0.248 1.304-1.142 2.115-2.724 2.347-4.574 0.049-0.39-0.102-0.76-0.369-0.994-0.147-0.129-0.33-0.22-0.534-0.248-0.129-0.018-0.257-0.009-0.376 0.020-0.412 0.102-0.742 0.463-0.8 0.932-0.37 2.95-2.677 4.627-6.324 4.599-0.003 0-0.005 0-0.008 0-0.006 0-0.013 0.001-0.018 0.001-3.358-0.124-5.474-1.778-5.826-4.591-0.058-0.469-0.389-0.83-0.801-0.932-0.121-0.030-0.247-0.039-0.376-0.020-0.204 0.028-0.386 0.118-0.534 0.248-0.267 0.235-0.418 0.604-0.369 0.995 0.231 1.843 1.037 3.419 2.331 4.559 0.005 0.005 0.010 0.010 0.016 0.014 1.476 1.294 3.484 1.95 5.968 1.95z"></path>
<path fill="#e6a123" d="M3.826 2.925c0.165 0.113 0.363 0.178 0.575 0.178 0.588 0 1.597-0.503 1.597-1.123s-1.010-1.123-1.597-1.123c-0.588 0-1.065 0.503-1.065 1.123 0 0.041 0.002 0.081 0.006 0.121 0.035 0.346 0.22 0.645 0.484 0.825z"></path>
<path fill="#e6a123" d="M13.026 2.091c0.004-0.040 0.006-0.080 0.006-0.121 0-0.621-0.477-1.123-1.065-1.123s-1.597 0.503-1.597 1.123c0 0.621 1.010 1.123 1.597 1.123 0.212 0 0.408-0.066 0.575-0.178 0.265-0.179 0.449-0.478 0.484-0.825z"></path>
<path fill="#d43d21" d="M25.293 10.154c-2.008 0-3.636 1.628-3.636 3.636 0 0.484 0.095 0.947 0.267 1.37 0.134 0.33 0.315 0.634 0.534 0.907 0.666 0.829 1.688 1.36 2.835 1.36 2.008 0 3.636-1.628 3.636-3.636s-1.628-3.636-3.636-3.636zM25.293 16.771c-1.646 0-2.98-1.334-2.98-2.98s1.334-2.98 2.98-2.98c1.646 0 2.98 1.334 2.98 2.98s-1.334 2.98-2.98 2.98z"></path>
<path fill="#f7f1e6" d="M25.293 10.81c-1.646 0-2.98 1.334-2.98 2.98s1.334 2.98 2.98 2.98c1.646 0 2.98-1.334 2.98-2.98s-1.334-2.98-2.98-2.98zM25.293 15.202c-0.78 0-1.412-0.632-1.412-1.412s0.632-1.412 1.412-1.412c0.78 0 1.412 0.632 1.412 1.412s-0.632 1.412-1.412 1.412z"></path>
<path fill="#2b3237" d="M26.767 13.791c0 0.814-0.659 1.473-1.473 1.473s-1.473-0.659-1.473-1.473c0-0.814 0.659-1.473 1.473-1.473s1.473 0.659 1.473 1.473z"></path>
</svg>
<svg id="icon-wheelchair" width="32" height="32" viewBox="0 0 32 32" x="240" y="0">
<path fill="#d43d21" d="M3.562 27.93h-3.56v2.617h3.561c-0.223-0.385-0.351-0.832-0.351-1.309s0.128-0.924 0.351-1.309z"></path>
<path fill="#d43d21" d="M4.557 26.951c0.376-0.21 0.81-0.329 1.271-0.329 0.492 0 0.953 0.136 1.346 0.373v-4.875h-2.617v4.832z"></path>
<path fill="#c7caca" d="M7.175 12.291c0-1.082 0.881-1.963 1.963-1.963h10.433l-0.287 2.252c0.376-0.045 0.758-0.068 1.146-0.068 0.505 0 1.002 0.039 1.487 0.114l1.053-8.253h4.188v-2.617h-6.493l-0.759 5.955h-10.767c-2.526 0-4.581 2.055-4.581 4.581v4.004h2.617v-4.004z"></path>
<path fill="#2b3237" d="M20.43 12.511c-0.388 0-0.771 0.025-1.147 0.069-2.648 0.314-4.97 1.702-6.52 3.715h-10.733v5.824h8.729c0.004-0.547 0.053-1.084 0.144-1.606-0.091 0.522-0.141 1.059-0.144 1.606-0 0.022-0.002 0.043-0.002 0.065 0 5.333 4.339 9.672 9.672 9.672s9.672-4.339 9.672-9.672c0-4.828-3.556-8.84-8.186-9.557-0.485-0.075-0.981-0.115-1.486-0.115zM20.43 15.13c3.89 0 7.055 3.163 7.055 7.053s-3.165 7.055-7.055 7.055c-3.89-0-7.055-3.165-7.055-7.055s3.165-7.053 7.055-7.053z"></path>
<path fill="#2b3237" d="M5.828 26.467c-0.489 0-0.947 0.128-1.346 0.35-0.438 0.244-0.802 0.603-1.053 1.037-0.236 0.408-0.373 0.88-0.373 1.385s0.137 0.979 0.373 1.386c0.479 0.828 1.373 1.385 2.399 1.385 1.53 0 2.771-1.241 2.771-2.771 0-1.009-0.54-1.891-1.346-2.376-0.417-0.25-0.904-0.395-1.426-0.395z"></path>
<path fill="#c7caca" d="M20.43 14.9c-4.017 0-7.285 3.267-7.285 7.284s3.268 7.285 7.285 7.285c4.017 0 7.285-3.268 7.285-7.285s-3.268-7.284-7.285-7.284zM20.43 17.601c2.527 0 4.582 2.056 4.582 4.582s-2.056 4.582-4.582 4.582c-2.527-0-4.582-2.056-4.582-4.582s2.056-4.582 4.582-4.582z"></path>
</svg>
<svg id="icon-graph" width="32" height="32" viewBox="0 0 32 32" x="288" y="0">
<path fill="#14a085" d="M17.067 3.733h5.333v24h-5.333v-24z"></path>
<path fill="#f29c1f" d="M9.067 20.267h5.333v7.467h-5.333v-7.467z"></path>
<path fill="#e57e25" d="M1.067 15.467h5.333v12.267h-5.333v-12.267z"></path>
<path fill="#71c285" d="M25.067 8h5.333v19.733h-5.333v-19.733z"></path>
<path fill="#556080" d="M31.467 28.267h-30.933c-0.294 0-0.533-0.238-0.533-0.533s0.239-0.533 0.533-0.533h30.933c0.294 0 0.533 0.238 0.533 0.533s-0.239 0.533-0.533 0.533z"></path>
</svg>
<svg id="icon-finances" width="32" height="32" viewBox="0 0 32 32" x="336" y="0">
<path fill="#00d2ff" d="M27.017 8.474l-11.017 9.181-10.342-9.928c-2.476 2.577-4.003 6.072-4.003 9.928 0 7.922 6.422 14.345 14.345 14.345s14.345-6.422 14.345-14.345c0-3.494-1.252-6.693-3.328-9.181z"></path>
<path fill="#9be6d2" d="M5.655 7.724l10.345 9.931v-14.345c-4.066 0-7.735 1.695-10.345 4.413z"></path>
<path fill="#c3e678" d="M28.551 5.164l0.001-0.003c-2.631-3.154-6.59-5.161-11.018-5.161v14.345l11.017-9.181z"></path>
<path fill="#18bdf6" d="M19.31 29.793c-7.922 0-14.345-6.422-14.345-14.345 0-2.445 0.613-4.747 1.692-6.761l-1-0.96c-2.476 2.577-4.003 6.072-4.003 9.928 0 7.922 6.422 14.345 14.345 14.345 3.653 0 6.985-1.368 9.518-3.616-1.878 0.903-3.984 1.409-6.207 1.409z"></path>
<path fill="#78d2be" d="M9.778 4.732c-1.549 0.748-2.945 1.764-4.123 2.992l1.003 0.963c0.802-1.497 1.862-2.835 3.12-3.955z"></path>
</svg>
<svg id="icon-id-card" width="32" height="32" viewBox="0 0 32 32" x="384" y="0">
<path fill="#c3e678" d="M16.552 0h-1.103c-0.305 0-0.552 0.247-0.552 0.552v6.621h2.207v-6.621c0-0.305-0.247-0.552-0.552-0.552z"></path>
<path fill="#a5d76e" d="M14.897 5.517h2.207v1.655h-2.207v-1.655z"></path>
<path fill="#eff2fa" d="M29.793 32h-27.586c-0.609 0-1.103-0.494-1.103-1.103v-17.655c0-0.609 0.494-1.103 1.103-1.103h27.586c0.609 0 1.103 0.494 1.103 1.103v17.655c0 0.609-0.494 1.103-1.103 1.103z"></path>
<path fill="#c3e678" d="M13.241 30.345h-9.931c-0.305 0-0.552-0.247-0.552-0.552v-14.345c0-0.305 0.247-0.552 0.552-0.552h9.931c0.305 0 0.552 0.247 0.552 0.552v14.345c-0 0.305-0.247 0.552-0.552 0.552z"></path>
<path fill="#694b4b" d="M8.276 16.292c-5.137 0-4.567 6.247-4.544 10.774 0.001 0.171 0.090 0.325 0.237 0.413 0.569 0.343 2.133 1.145 4.307 1.145s3.738-0.802 4.307-1.145c0.146-0.088 0.236-0.242 0.237-0.413 0.023-4.527 0.593-10.774-4.544-10.774z"></path>
<path fill="#5a4146" d="M7.945 16.305c-4.778 0.268-4.236 6.335-4.213 10.761 0.001 0.171 0.090 0.325 0.237 0.413 0.569 0.343 2.133 1.145 4.307 1.145l1.298-9.087z"></path>
<path fill="#694b4b" d="M8.276 16.292c-2.921 0-3.124 3.529-3.124 3.529 1.684-0.284 2.718 0.426 4.422-0.284l-1.298 9.087c2.175 0 3.738-0.802 4.307-1.145 0.146-0.088 0.236-0.242 0.237-0.413 0.023-4.527 0.593-10.774-4.544-10.774z"></path>
<path fill="#785550" d="M12.82 27.066c0.020-3.89 0.44-9.046-2.701-10.421-0.055 0.285-0.154 1.079 0.104 1.595 0.649 1.298 1.298 1.298 1.947 2.272 0.649 3.57-1.24 7.359-1.868 7.875v0c1.112-0.264 1.909-0.683 2.28-0.907 0.146-0.088 0.236-0.242 0.237-0.413z"></path>
<path fill="#e6af78" d="M13.194 28.051l-2.896-1.207c-0.242-0.101-0.399-0.337-0.399-0.599v-0.784h-3.245v0.784c0 0.262-0.158 0.498-0.399 0.599l-2.896 1.207c-0.363 0.151-0.599 0.506-0.599 0.899v0.844c0 0.305 0.247 0.552 0.552 0.552h9.931c0.305 0 0.552-0.247 0.552-0.552v-0.844c-0-0.393-0.236-0.748-0.599-0.899z"></path>
<path fill="#707487" d="M13.194 28.051l-2.8-1.167-2.118 0.914-2.118-0.914-2.8 1.167c-0.363 0.151-0.599 0.506-0.599 0.899v0.844c0 0.305 0.247 0.552 0.552 0.552h9.931c0.305 0 0.552-0.247 0.552-0.552v-0.844c-0-0.393-0.236-0.748-0.599-0.899z"></path>
<path fill="#d29b6e" d="M9.899 25.46h-3.245v0.784c0 0.262-0.158 0.498-0.399 0.599l-0.452 0.189c3.461 0.883 4.097-1.572 4.097-1.572z"></path>
<path fill="#5b5d6e" d="M4.34 29.306l-1.303-1.036c-0.175 0.178-0.279 0.42-0.279 0.679v0.844c0 0.305 0.247 0.552 0.552 0.552h1.396v-0.281c0-0.295-0.135-0.574-0.365-0.758z"></path>
<path fill="#5b5d6e" d="M13.793 29.793v-0.844c0-0.258-0.103-0.497-0.275-0.675l-1.307 1.032c-0.231 0.185-0.365 0.465-0.365 0.76v0.279h1.396c0.305 0 0.552-0.247 0.552-0.552z"></path>
<path fill="#5b5d6e" d="M8.325 29.793h-0.097c-0.152 0-0.276-0.123-0.276-0.276v-1.718h0.649v1.718c0 0.152-0.124 0.276-0.276 0.276z"></path>
<path fill="#5b5d6e" d="M8.276 27.798l-1.857-1.393c-0.119-0.089-0.289-0.060-0.372 0.064l-0.367 0.551 1.139 1.594c0.087 0.121 0.257 0.145 0.373 0.052l1.084-0.867z"></path>
<path fill="#5b5d6e" d="M8.276 27.798l1.857-1.393c0.119-0.089 0.289-0.060 0.372 0.064l0.367 0.551-1.139 1.594c-0.087 0.121-0.257 0.145-0.373 0.052l-1.084-0.867z"></path>
<path fill="#f0c087" d="M9.899 19.213c-1.623 1.623-4.807 0.325-4.807 2.921l0.202 1.913c0.039 0.428 0.287 0.809 0.662 1.017l1.848 1.027c0.294 0.163 0.652 0.163 0.946 0l1.848-1.027c0.376-0.209 0.623-0.59 0.662-1.017l0.233-2.271c0.017-0.161 0.020-0.324 0.015-0.486-0.121-0.826-1.283-1.427-1.608-2.076z"></path>
<path fill="#e6af78" d="M5.091 22.134l0.202 1.913c0.039 0.428 0.287 0.809 0.662 1.017l1.848 1.027c0.204 0.113 0.438 0.143 0.661 0.099v0c0 0-0.932-0.282-1.486-1.783-0.17-0.46-0.406-2.894-0.203-3.191 0.401-0.588 2.637-0.649 3.298-1.74-0.033-0.041-0.063-0.081-0.090-0.122-0.002-0.003-0.005-0.007-0.007-0.010-0.029-0.043-0.055-0.086-0.076-0.13-1.623 1.623-4.807 0.325-4.807 2.921z"></path>
<path fill="#c3e678" d="M25.379 17.103h-8.828c-0.305 0-0.552-0.247-0.552-0.552v0c0-0.305 0.247-0.552 0.552-0.552h8.828c0.305 0 0.552 0.247 0.552 0.552v0c0 0.305-0.247 0.552-0.552 0.552z"></path>
<path fill="#c3e678" d="M28.138 19.31h-11.586c-0.305 0-0.552-0.247-0.552-0.552v0c0-0.305 0.247-0.552 0.552-0.552h11.586c0.305 0 0.552 0.247 0.552 0.552v0c-0 0.305-0.247 0.552-0.552 0.552z"></path>
<path fill="#959cb3" d="M17.655 24.276h-1.103c-0.305 0-0.552-0.247-0.552-0.552v0c0-0.305 0.247-0.552 0.552-0.552h1.103c0.305 0 0.552 0.247 0.552 0.552v0c-0 0.305-0.247 0.552-0.552 0.552z"></path>
<path fill="#c7cfe2" d="M26.483 24.276h-6.621c-0.305 0-0.552-0.247-0.552-0.552v0c0-0.305 0.247-0.552 0.552-0.552h6.621c0.305 0 0.552 0.247 0.552 0.552v0c0 0.305-0.247 0.552-0.552 0.552z"></path>
<path fill="#959cb3" d="M17.655 26.483h-1.103c-0.305 0-0.552-0.247-0.552-0.552v0c0-0.305 0.247-0.552 0.552-0.552h1.103c0.305 0 0.552 0.247 0.552 0.552v0c-0 0.305-0.247 0.552-0.552 0.552z"></path>
<path fill="#c7cfe2" d="M28.138 26.483h-8.276c-0.305 0-0.552-0.247-0.552-0.552v0c0-0.305 0.247-0.552 0.552-0.552h8.276c0.305 0 0.552 0.247 0.552 0.552v0c-0 0.305-0.247 0.552-0.552 0.552z"></path>
<path fill="#959cb3" d="M17.655 28.69h-1.103c-0.305 0-0.552-0.247-0.552-0.552v0c0-0.305 0.247-0.552 0.552-0.552h1.103c0.305 0 0.552 0.247 0.552 0.552v0c-0 0.305-0.247 0.552-0.552 0.552z"></path>
<path fill="#c7cfe2" d="M24.276 28.69h-4.414c-0.305 0-0.552-0.247-0.552-0.552v0c0-0.305 0.247-0.552 0.552-0.552h4.414c0.305 0 0.552 0.247 0.552 0.552v0c-0 0.305-0.247 0.552-0.552 0.552z"></path>
<path fill="#c7cfe2" d="M17.655 13.793h-3.31c-0.305 0-0.552-0.247-0.552-0.552v-6.069c0-0.305 0.247-0.552 0.552-0.552h3.31c0.305 0 0.552 0.247 0.552 0.552v6.069c-0 0.305-0.247 0.552-0.552 0.552z"></path>
<path fill="#959cb3" d="M17.103 12.69h-2.207c-0.305 0-0.552-0.247-0.552-0.552v0c0-0.305 0.247-0.552 0.552-0.552h2.207c0.305 0 0.552 0.247 0.552 0.552v0c0 0.305-0.247 0.552-0.552 0.552z"></path>
</svg>
<svg id="icon-agreement" width="32" height="32" viewBox="0 0 32 32" x="432" y="0">
<path fill="#32bea6" d="M32 16c0-8.835-7.165-16-16-16s-16 7.165-16 16 7.165 16 16 16 16-7.165 16-16z"></path>
<path fill="#efb533" d="M19.334 9.403c1.838-1.838 1.838-4.824 0-6.662s-4.824-1.838-6.662 0-1.838 4.824 0 6.662c1.838 1.844 4.817 1.844 6.662 0z"></path>
<path fill="#e5aa17" d="M19.334 9.403c1.838-1.838 1.838-4.824 0-6.662l-6.668 6.662c1.844 1.844 4.824 1.844 6.668 0z"></path>
<path fill="#f4de7f" d="M18.889 8.964c1.593-1.593 1.593-4.179 0-5.778-1.593-1.593-4.179-1.593-5.778 0-1.593 1.593-1.593 4.179 0 5.778 1.593 1.593 4.185 1.593 5.778 0z"></path>
<path fill="#f2d55a" d="M18.889 8.964c1.593-1.593 1.593-4.179 0-5.778l-5.778 5.778c1.593 1.593 4.185 1.593 5.778 0z"></path>
<path fill="#e5aa17" d="M17.567 4.663c0 0.303-0.342 0.516-0.361 0.49-0.252-0.297-0.69-0.516-1.129-0.516-0.445 0-0.722 0.2-0.722 0.503 0 0.348 0.368 0.439 0.883 0.555 0.613 0.135 1.419 0.38 1.419 1.258 0 0.677-0.464 1.141-1.251 1.264v0.258c0 0.31-0.123 0.451-0.387 0.451h-0.032c-0.277 0-0.38-0.142-0.38-0.451v-0.245c-0.806-0.084-1.27-0.451-1.27-0.825 0-0.29 0.322-0.497 0.348-0.464 0.252 0.31 0.748 0.561 1.27 0.561 0.471 0 0.748-0.2 0.748-0.503 0-0.368-0.413-0.464-0.903-0.58-0.587-0.129-1.361-0.361-1.361-1.245 0-0.638 0.451-1.103 1.174-1.232v-0.258c0-0.31 0.116-0.451 0.38-0.451h0.039c0.271 0 0.381 0.142 0.381 0.451v0.226c0.748 0.077 1.154 0.413 1.154 0.755z"></path>
<path fill="#f2d55a" d="M16.703 6.984c0-0.368-0.413-0.464-0.903-0.58-0.039-0.006-0.071-0.013-0.11-0.026l-0.767 0.767c0.271 0.2 0.645 0.342 1.032 0.342 0.477 0 0.748-0.2 0.748-0.503z"></path>
<path fill="#f2d55a" d="M18.889 3.186l-1.341 1.341c0.013 0.045 0.019 0.090 0.019 0.135 0 0.303-0.342 0.516-0.361 0.49-0.045-0.052-0.090-0.097-0.142-0.142l-0.709 0.709c0.593 0.142 1.303 0.406 1.303 1.225 0 0.677-0.464 1.141-1.251 1.264v0.258c0 0.31-0.123 0.451-0.387 0.451h-0.032c-0.277 0-0.38-0.142-0.38-0.451v-0.245c-0.613-0.065-1.025-0.297-1.193-0.567l-1.309 1.309c1.593 1.593 4.179 1.593 5.778 0 1.599-1.599 1.599-4.185 0.006-5.778z"></path>
<path fill="#efb533" d="M14.691 6.926c-0.026-0.026-0.348 0.181-0.348 0.464 0 0.090 0.026 0.181 0.077 0.264l0.509-0.509c-0.097-0.071-0.174-0.142-0.239-0.219z"></path>
<path fill="#efb533" d="M16.239 5.688c-0.516-0.116-0.883-0.206-0.883-0.555 0-0.303 0.271-0.503 0.722-0.503 0.368 0 0.729 0.155 0.987 0.374l0.477-0.477c-0.090-0.29-0.484-0.555-1.129-0.619v-0.226c0-0.316-0.11-0.451-0.381-0.451h-0.039c-0.264 0-0.38 0.148-0.38 0.451v0.245c-0.722 0.135-1.174 0.593-1.174 1.232 0 0.825 0.684 1.083 1.251 1.219l0.664-0.664c-0.039-0.006-0.077-0.019-0.116-0.026z"></path>
<path fill="#e5aa17" d="M17.206 5.146c0.019 0.026 0.361-0.187 0.361-0.49 0-0.045-0.006-0.090-0.019-0.135l-0.477 0.477c0.045 0.058 0.090 0.103 0.135 0.148z"></path>
<path fill="#fbbf96" d="M19.908 14.304l-1.928-1.322c0 0-0.245-0.297-1.2-0.368-1.503-0.11-4.489-0.8-4.489-0.8-1.838 0.548-1.677 2.18-1.677 2.18l4.811 0.922c0 0 2.218-0.174 2.767 0.174 1.341 0.838 2.006-0.542 2.006-0.542l-0.29-0.245z"></path>
<path fill="#fdd6b2" d="M18.909 13.614l1.283 0.825c0 0-0.29 0.271-0.535 0.239-0.271-0.039-0.845-0.671-0.748-1.064z"></path>
<path fill="#edac80" d="M19.715 14.852l-2.309-0.613-2.173-0.271 1.541-0.084c0 0 0.632-0.045 1.103 0.206 0.374 0.2 1.838 0.761 1.838 0.761z"></path>
<path fill="#fdd6b2" d="M17.561 13.349c-0.039-0.006-0.064-0.052-0.058-0.090l0.084-0.374c0.013-0.039 0.052-0.065 0.090-0.058v0c0.039 0.006 0.064 0.052 0.058 0.090l-0.084 0.374c-0.006 0.045-0.052 0.071-0.090 0.058v0z"></path>
<path fill="#fdd6b2" d="M17.322 13.104c-0.039-0.013-0.064-0.052-0.058-0.090l0.039-0.2c0.006-0.039 0.052-0.065 0.090-0.058v0c0.039 0.013 0.064 0.052 0.058 0.090l-0.039 0.2c-0.006 0.039-0.052 0.065-0.090 0.058v0z"></path>
<path fill="#fbbf96" d="M20.16 23.345c0.561-0.348 2.070-1.87 1.722-2.431v0c-0.348-0.561-1.083-0.729-1.645-0.387l-4.334 2.644c-0.561 0.348-0.838 0.884-0.49 1.445v0c0.348 0.561 0.793 0.567 1.548 0.239l3.199-1.509z"></path>
<path fill="#edac80" d="M18.399 21.92l-3.141 2.238c-0.019-0.555 0.232-0.722 0.555-0.922l3.444-2.257c-0.077 0.116-0.729 0.858-0.858 0.942z"></path>
<path fill="#f1a977" d="M15.065 15.877l1.077-0.909-0.232-1.812 5.727-1.954 5.449 5.811c0 0-1.464 2.302-2.934 3.663s-4.063 2.709-4.063 2.709l-5.024-7.507z"></path>
<path fill="#f1a977" d="M21.398 20.063c0.561-0.348 0.729-1.083 0.387-1.645v0c-0.348-0.561-1.083-0.729-1.645-0.387l-6.133 3.805c-0.561 0.348-0.735 1.083-0.387 1.645v0c0.348 0.561 1.083 0.729 1.645 0.387l6.133-3.805z"></path>
<path fill="#edac80" d="M16.193 20.779l-2.747 2.096c-0.006-0.471 0.181-0.8 0.503-1l2.47-1.593c-0.077 0.116-0.103 0.413-0.226 0.497z"></path>
<path fill="#f1a977" d="M16.013 17.754c0.484-0.342 2.115-1.264 1.773-1.741l0.316-1.574c-0.342-0.477-3.728 1.864-3.998 2.057l-6.139 4.192c-0.69 0.49-0.8 1.161-0.458 1.645v0c0.342 0.477 1.013 0.593 1.49 0.252l7.017-4.83z"></path>
<path fill="#f1a977" d="M19.998 23.255c0.522-0.232 0.677-0.993 0.413-1.425v0c-0.271-0.439-0.871-0.555-1.341-0.264l-6.526 3.947c-0.471 0.29-0.632 0.877-0.368 1.316v0c0.271 0.439 0.851 0.509 1.232 0.31l6.623-3.895z"></path>
<path fill="#edac80" d="M18.567 21.894l-3.057 2.038c-0.361 0.213-2.921 1.612-2.651 1.445l6.623-4.121c-0.071 0.097-0.813 0.567-0.916 0.638z"></path>
<path fill="#f1a977" d="M17.206 19.966c0.632-0.31 0.793-1.251 0.439-1.78v0c-0.348-0.529-1.096-0.645-1.664-0.264l-7.848 5.159c-0.567 0.381-0.742 1.109-0.387 1.638v0c0.348 0.522 1.071 0.587 1.528 0.322l7.971-5.108z"></path>
<path fill="#edac80" d="M15.387 18.347l-3.669 2.657c-0.432 0.284-3.528 2.115-3.199 1.902l7.965-5.385c-0.084 0.123-0.974 0.735-1.096 0.825z"></path>
<path fill="#f1a977" d="M18.438 21.63c0.593-0.303 0.735-1.206 0.393-1.703v0c-0.342-0.497-1.051-0.6-1.586-0.226l-7.403 5.037c-0.535 0.368-0.69 1.071-0.348 1.567v0c0.342 0.497 1.025 0.548 1.464 0.284l7.513-4.979z"></path>
<path fill="#edac80" d="M16.677 20.121l-3.457 2.586c-0.406 0.271-3.321 2.070-3.018 1.857l7.507-5.25c-0.077 0.116-0.916 0.716-1.032 0.806z"></path>
<path fill="#fbbf96" d="M11.995 23.345c-0.561-0.348-2.070-1.87-1.722-2.431v0c0.348-0.561 1.083-0.729 1.645-0.387l4.327 2.644c0.561 0.348 0.838 0.884 0.49 1.445v0c-0.348 0.561-0.793 0.567-1.548 0.239l-3.192-1.509z"></path>
<path fill="#edac80" d="M13.756 21.92l3.141 2.238c0.019-0.555-0.232-0.722-0.555-0.922l-3.444-2.257c0.077 0.116 0.729 0.858 0.858 0.942z"></path>
<path fill="#fbbf96" d="M17.090 15.877l-1.077-0.909 0.232-1.812-5.727-1.96-5.449 5.811c0 0 1.464 2.302 2.934 3.663s4.063 2.709 4.063 2.709l5.024-7.5z"></path>
<path fill="#fbbf96" d="M10.757 20.063c-0.561-0.348-0.729-1.083-0.387-1.645v0c0.348-0.561 1.083-0.729 1.645-0.387l6.133 3.805c0.561 0.348 0.735 1.083 0.387 1.645v0c-0.348 0.561-1.083 0.729-1.645 0.387l-6.133-3.805z"></path>
<path fill="#edac80" d="M15.961 20.779l2.747 2.096c0.006-0.471-0.181-0.8-0.503-1l-2.47-1.593c0.084 0.116 0.103 0.413 0.226 0.497z"></path>
<path fill="#fbbf96" d="M16.142 17.754c-0.477-0.342-2.115-1.264-1.773-1.741l-0.316-1.574c0.342-0.477 3.728 1.864 3.998 2.057l6.139 4.192c0.69 0.49 0.8 1.161 0.458 1.645v0c-0.342 0.477-1.012 0.593-1.49 0.252l-7.017-4.83z"></path>
<path fill="#fdd6b2" d="M23.081 22.088l0.432 0.303c0.303 0.219 0.742 0.129 0.974-0.2s0.174-0.767-0.129-0.98l-0.426-0.303c0 0-0.226 0.090-0.503 0.49-0.342 0.49-0.31 0.535-0.348 0.69z"></path>
<path fill="#fdd6b2" d="M19.805 19.863c-0.032-0.026-0.045-0.071-0.019-0.11l0.78-1.096c0.026-0.032 0.071-0.045 0.11-0.019v0c0.032 0.026 0.045 0.071 0.019 0.11l-0.78 1.096c-0.026 0.039-0.077 0.045-0.11 0.019v0z"></path>
<path fill="#fdd6b2" d="M19.695 19.36c-0.032-0.019-0.039-0.064-0.013-0.097l0.387-0.542c0.019-0.032 0.064-0.039 0.097-0.019v0c0.032 0.026 0.039 0.064 0.013 0.097l-0.387 0.542c-0.019 0.032-0.064 0.039-0.097 0.019v0z"></path>
<path fill="#fbbf96" d="M12.156 23.255c-0.522-0.232-0.677-0.993-0.413-1.425v0c0.271-0.439 0.871-0.555 1.341-0.264l6.526 3.947c0.471 0.29 0.632 0.877 0.368 1.316v0c-0.271 0.439-0.851 0.509-1.232 0.31l-6.617-3.895z"></path>
<path fill="#edac80" d="M13.588 21.894l3.057 2.038c0.361 0.213 2.921 1.612 2.651 1.445l-6.623-4.121c0.071 0.097 0.813 0.567 0.916 0.638z"></path>
<path fill="#fdd6b2" d="M18.573 26.725l0.393 0.239c0.277 0.168 0.651 0.064 0.832-0.232s0.11-0.677-0.168-0.845l-0.387-0.239c0 0-0.187 0.097-0.406 0.451-0.277 0.451-0.245 0.484-0.264 0.626z"></path>
<path fill="#fdd6b2" d="M15.742 25.125c-0.032-0.019-0.039-0.058-0.019-0.090l0.626-0.987c0.019-0.032 0.064-0.039 0.090-0.019v0c0.032 0.019 0.039 0.064 0.019 0.090l-0.626 0.987c-0.019 0.026-0.058 0.039-0.090 0.019v0z"></path>
<path fill="#fdd6b2" d="M15.626 24.687c-0.026-0.019-0.039-0.052-0.019-0.084l0.31-0.484c0.019-0.026 0.052-0.039 0.084-0.019v0c0.026 0.019 0.039 0.052 0.019 0.084l-0.31 0.49c-0.019 0.026-0.058 0.032-0.084 0.013v0z"></path>
<path fill="#fbbf96" d="M14.949 19.966c-0.632-0.31-0.793-1.251-0.439-1.78v0c0.348-0.529 1.096-0.645 1.664-0.264l7.855 5.166c0.567 0.381 0.742 1.109 0.387 1.638v0c-0.348 0.522-1.071 0.587-1.528 0.322l-7.971-5.108z"></path>
<path fill="#edac80" d="M16.774 18.347l3.669 2.657c0.432 0.284 3.528 2.115 3.199 1.902l-7.965-5.385c0.077 0.123 0.967 0.735 1.096 0.825z"></path>
<path fill="#fdd6b2" d="M22.688 24.532l0.471 0.31c0.335 0.219 0.8 0.11 1.038-0.245s0.161-0.825-0.168-1.051l-0.471-0.31c0 0-0.239 0.11-0.522 0.542-0.355 0.535-0.316 0.58-0.348 0.755z"></path>
<path fill="#fdd6b2" d="M19.276 22.423c-0.039-0.026-0.045-0.077-0.019-0.116l0.819-1.187c0.026-0.039 0.077-0.045 0.116-0.019v0c0.039 0.026 0.045 0.077 0.019 0.116l-0.819 1.187c-0.026 0.039-0.077 0.052-0.116 0.019v0z"></path>
<path fill="#fdd6b2" d="M19.154 21.888c-0.032-0.026-0.039-0.071-0.019-0.103l0.406-0.587c0.026-0.032 0.071-0.039 0.103-0.019v0c0.032 0.026 0.039 0.071 0.019 0.103l-0.406 0.587c-0.026 0.032-0.071 0.039-0.103 0.019v0z"></path>
<path fill="#fbbf96" d="M13.717 21.63c-0.593-0.303-0.735-1.206-0.393-1.703v0c0.342-0.497 1.051-0.6 1.586-0.226l7.403 5.037c0.535 0.368 0.69 1.071 0.348 1.567v0c-0.342 0.497-1.025 0.548-1.464 0.284l-7.513-4.979z"></path>
<path fill="#edac80" d="M15.478 20.121l3.45 2.586c0.413 0.271 3.328 2.070 3.018 1.857l-7.507-5.25c0.084 0.116 0.922 0.716 1.038 0.806z"></path>
<path fill="#fdd6b2" d="M21.017 26.099l0.445 0.303c0.316 0.219 0.755 0.116 0.993-0.219 0.232-0.335 0.168-0.787-0.148-1l-0.445-0.303c0 0-0.226 0.097-0.503 0.503-0.342 0.509-0.31 0.555-0.342 0.716z"></path>
<path fill="#fdd6b2" d="M17.799 24.042c-0.039-0.026-0.045-0.077-0.019-0.11l0.8-1.116c0.026-0.039 0.077-0.045 0.11-0.019v0c0.039 0.026 0.045 0.077 0.019 0.11l-0.8 1.116c-0.026 0.039-0.071 0.045-0.11 0.019v0z"></path>
<path fill="#fdd6b2" d="M17.69 23.526c-0.032-0.019-0.039-0.064-0.013-0.097l0.393-0.555c0.019-0.032 0.064-0.039 0.097-0.019v0c0.032 0.026 0.039 0.064 0.019 0.097l-0.393 0.555c-0.026 0.039-0.071 0.045-0.103 0.019v0z"></path>
<path fill="#f5b78c" d="M16.787 17.554c-0.264-0.084-0.426-0.335-0.361-0.606 0.039-0.168-0.219-0.252-0.258-0.077-0.097 0.419 0.123 0.819 0.535 0.942 0.168 0.052 0.252-0.206 0.084-0.258v0z"></path>
<path fill="#f5b78c" d="M15.561 19.805c-0.439-0.181-0.638-0.626-0.49-1.077 0.052-0.161-0.206-0.219-0.264-0.052-0.187 0.561 0.090 1.148 0.632 1.367 0.161 0.064 0.284-0.174 0.123-0.239v0z"></path>
<path fill="#f5b78c" d="M14.085 21.327c-0.316-0.123-0.477-0.445-0.374-0.774 0.052-0.161-0.2-0.264-0.252-0.097-0.148 0.464 0.071 0.942 0.529 1.122 0.161 0.058 0.258-0.193 0.097-0.252v0z"></path>
<path fill="#f5b78c" d="M12.518 23.023c-0.232-0.097-0.361-0.335-0.277-0.58 0.058-0.161-0.181-0.284-0.239-0.123-0.129 0.374 0.019 0.78 0.393 0.942 0.161 0.064 0.284-0.174 0.123-0.239v0z"></path>
<path fill="#ebf3f6" d="M6.513 18.799l-5.269-4.102c-0.49-0.38-0.413-1.296 0.168-2.044l3.657-4.695c0.58-0.748 1.451-1.045 1.941-0.664l5.269 4.102c0.484 0.387-5.275 7.784-5.765 7.403z"></path>
<path fill="#f1a977" d="M12.247 14.304l1.928-1.322c0 0 0.245-0.297 1.2-0.368 1.503-0.11 4.489-0.8 4.489-0.8 1.838 0.548 1.677 2.18 1.677 2.18l-4.811 0.922c0 0-2.218-0.174-2.767 0.174-1.341 0.838-2.006-0.542-2.006-0.542l0.29-0.245z"></path>
<path fill="#fdd6b2" d="M13.246 13.614l-1.283 0.825c0 0 0.29 0.271 0.535 0.239 0.271-0.039 0.845-0.671 0.748-1.064z"></path>
<path fill="#edac80" d="M12.447 14.852l2.309-0.613 2.173-0.271-1.541-0.084c0 0-0.632-0.045-1.103 0.206-0.374 0.2-1.838 0.761-1.838 0.761z"></path>
<path fill="#fdd6b2" d="M14.594 13.349c0.039-0.006 0.065-0.052 0.058-0.090l-0.084-0.374c-0.013-0.039-0.052-0.065-0.090-0.058v0c-0.039 0.006-0.065 0.052-0.058 0.090l0.084 0.374c0.006 0.045 0.052 0.071 0.090 0.058v0z"></path>
<path fill="#fdd6b2" d="M14.833 13.104c0.039-0.013 0.065-0.052 0.058-0.090l-0.039-0.2c-0.006-0.039-0.052-0.065-0.090-0.058v0c-0.039 0.013-0.065 0.052-0.058 0.090l0.039 0.2c0.006 0.039 0.052 0.065 0.090 0.058v0z"></path>
<path fill="#ebf3f6" d="M26.131 18.799l5.269-4.102c0.49-0.38 0.413-1.296-0.168-2.044l-3.657-4.695c-0.58-0.748-1.451-1.045-1.941-0.664l-5.269 4.102c-0.484 0.387 5.275 7.784 5.765 7.403z"></path>
<path fill="#337180" d="M11.757 10.596l-7.042-5.927c-2.509 2.496-4.185 5.817-4.605 9.525l5.346 4.495c0.535 0.413 6.836-7.681 6.301-8.094z"></path>
<path fill="#337180" d="M26.867 18.522l5.030-4.256c-0.4-3.715-2.070-7.049-4.572-9.557l-6.759 5.714c-0.529 0.419 5.772 8.513 6.301 8.1z"></path>
</svg>
<svg id="icon-genders" width="32" height="32" viewBox="0 0 32 32" x="480" y="0">
<path fill="#d8143a" d="M20.228 13.565c0-2.745-1.1-5.238-2.882-7.063-1.073 0.216-2.059 0.672-2.902 1.308 1.745 1.316 2.875 3.406 2.875 5.755s-1.13 4.439-2.875 5.755c-0.843 0.636-1.83 1.091-2.903 1.308-0.461 0.093-0.939 0.143-1.427 0.143-3.973 0-7.205-3.232-7.205-7.205s3.232-7.205 7.205-7.205c0.489 0 0.966 0.049 1.427 0.143 0.833-0.853 1.814-1.559 2.903-2.077-1.313-0.625-2.781-0.975-4.33-0.975-5.577-0-10.114 4.537-10.114 10.114 0 5.083 3.769 9.302 8.659 10.009l0 1.891h-1.793c-0.803 0-1.455 0.651-1.455 1.455s0.651 1.455 1.455 1.455h1.793v1.793c0 0.803 0.651 1.455 1.455 1.454s1.455-0.651 1.455-1.455v-1.793h1.793c0.803 0 1.455-0.651 1.455-1.455s-0.651-1.455-1.455-1.455h-1.793l-0-1.891c1.015-0.147 1.981-0.445 2.875-0.87 1.088-0.518 2.070-1.224 2.902-2.077 1.782-1.824 2.882-4.317 2.882-7.062z"></path>
<path fill="#5a2479" d="M31.983 1.626c-0.004-0.026-0.007-0.052-0.012-0.077s-0.012-0.049-0.018-0.073c-0.006-0.022-0.010-0.044-0.017-0.065-0.007-0.024-0.016-0.048-0.025-0.071-0.008-0.021-0.014-0.042-0.023-0.063-0.009-0.022-0.020-0.044-0.031-0.066-0.010-0.021-0.019-0.042-0.030-0.062-0.012-0.022-0.025-0.043-0.038-0.064-0.012-0.019-0.023-0.039-0.035-0.058-0.017-0.025-0.035-0.048-0.053-0.072-0.011-0.014-0.020-0.029-0.031-0.042-0.030-0.037-0.063-0.073-0.097-0.107s-0.071-0.067-0.108-0.097c-0.012-0.010-0.026-0.019-0.038-0.029-0.025-0.019-0.050-0.039-0.076-0.056-0.017-0.011-0.035-0.021-0.053-0.032-0.023-0.014-0.046-0.028-0.069-0.041-0.018-0.010-0.037-0.018-0.056-0.027-0.024-0.012-0.048-0.024-0.073-0.034-0.018-0.007-0.036-0.013-0.055-0.020-0.026-0.010-0.053-0.020-0.080-0.028-0.017-0.005-0.035-0.009-0.053-0.014-0.028-0.007-0.057-0.015-0.085-0.021-0.019-0.004-0.038-0.006-0.057-0.009-0.028-0.004-0.056-0.009-0.084-0.012s-0.057-0.003-0.086-0.004c-0.019-0.001-0.037-0.003-0.056-0.003h-4.592c-0.803 0-1.455 0.651-1.455 1.455s0.651 1.455 1.455 1.455h1.081l-2.191 2.192c-1.692-1.273-3.794-2.029-6.069-2.029-1.549 0-3.016 0.35-4.33 0.975-1.088 0.518-2.070 1.224-2.903 2.077-1.782 1.824-2.882 4.317-2.882 7.063s1.1 5.238 2.882 7.063c1.072-0.216 2.059-0.672 2.903-1.308-1.745-1.316-2.875-3.406-2.875-5.755s1.13-4.439 2.875-5.755c0.843-0.636 1.83-1.091 2.902-1.308 0.462-0.093 0.939-0.143 1.427-0.143 3.973 0 7.205 3.232 7.205 7.205s-3.232 7.205-7.205 7.205c-0.489 0-0.966-0.049-1.427-0.143-0.833 0.853-1.814 1.559-2.902 2.077 1.313 0.625 2.781 0.975 4.33 0.975 5.577 0 10.114-4.537 10.114-10.114 0-2.255-0.742-4.339-1.994-6.023l2.197-2.197v1.081c0 0.803 0.651 1.455 1.455 1.455s1.455-0.651 1.455-1.454v-4.592c0-0.048-0.003-0.096-0.007-0.143-0.002-0.021-0.006-0.043-0.009-0.064z"></path>
<path fill="#ff3f62" d="M10.114 6.36c0.489 0 0.966 0.049 1.427 0.143 0.833-0.853 1.814-1.559 2.903-2.077-1.313-0.625-2.781-0.975-4.33-0.975-5.571 0-10.105 4.528-10.114 10.098h2.909c0.009-3.965 3.237-7.189 7.204-7.189z"></path>
<path fill="#ff3f62" d="M14.444 7.81c1.741 1.313 2.87 3.396 2.875 5.738h2.909c-0.004-2.739-1.103-5.226-2.882-7.046-1.072 0.216-2.059 0.672-2.902 1.308z"></path>
<path fill="#8034ad" d="M29.091 5.345v1.081c0 0.803 0.651 1.455 1.455 1.455s1.454-0.651 1.454-1.454v-4.592c0-0.048-0.003-0.096-0.007-0.143-0.002-0.021-0.006-0.042-0.009-0.063-0.004-0.026-0.007-0.052-0.012-0.077s-0.012-0.049-0.018-0.073c-0.006-0.022-0.010-0.044-0.017-0.065-0.007-0.024-0.016-0.048-0.025-0.071-0.008-0.021-0.014-0.042-0.023-0.063-0.009-0.022-0.020-0.044-0.031-0.066-0.010-0.021-0.019-0.042-0.030-0.062-0.012-0.022-0.025-0.043-0.038-0.064-0.012-0.019-0.023-0.039-0.035-0.058-0.017-0.025-0.035-0.048-0.053-0.072-0.011-0.014-0.020-0.029-0.031-0.042-0.030-0.037-0.063-0.073-0.097-0.107s-0.071-0.067-0.108-0.097c-0.012-0.010-0.026-0.019-0.038-0.029-0.025-0.019-0.050-0.039-0.076-0.056-0.017-0.011-0.035-0.021-0.053-0.032-0.023-0.014-0.046-0.028-0.069-0.041-0.018-0.010-0.037-0.018-0.056-0.027-0.024-0.012-0.048-0.024-0.073-0.034-0.018-0.007-0.036-0.013-0.055-0.020-0.026-0.010-0.053-0.020-0.080-0.028-0.017-0.005-0.035-0.009-0.053-0.014-0.028-0.007-0.057-0.015-0.085-0.021-0.019-0.004-0.038-0.006-0.057-0.009-0.028-0.004-0.056-0.009-0.084-0.012s-0.057-0.003-0.086-0.004c-0.019-0.001-0.037-0.003-0.056-0.003h-4.592c-0.803 0-1.455 0.651-1.455 1.455s0.651 1.455 1.455 1.455h1.081l-2.191 2.191c-1.692-1.273-3.794-2.028-6.069-2.028-1.549 0-3.016 0.35-4.33 0.975-1.088 0.518-2.070 1.224-2.903 2.077-1.782 1.824-2.882 4.317-2.882 7.063h2.909c0-2.349 1.13-4.439 2.875-5.755 0.843-0.636 1.83-1.091 2.903-1.308 0.462-0.093 0.939-0.143 1.427-0.143 3.973 0 7.205 3.232 7.205 7.205h2.909c0-2.255-0.742-4.339-1.994-6.023l2.197-2.197z"></path>
</svg>
<svg id="icon-briefcase" width="32" height="32" viewBox="0 0 32 32" x="528" y="0">
<path fill="#7e5c62" d="M20.736 6.75c-0.415 0-0.75-0.224-0.75-0.5v-2c0-0.276 0.335-0.5 0.75-0.5s0.75 0.224 0.75 0.5v2c0 0.276-0.335 0.5-0.75 0.5z"></path>
<path fill="#7e5c62" d="M11.236 6.75c-0.415 0-0.75-0.224-0.75-0.5v-2c0-0.276 0.335-0.5 0.75-0.5s0.75 0.224 0.75 0.5v2c0 0.276-0.335 0.5-0.75 0.5z"></path>
<path fill="#996459" d="M30.5 18.75h-29c-0.276 0-0.5 0.224-0.5 0.5v8.5c0 1.378 1.122 2.5 2.5 2.5h25c1.378 0 2.5-1.122 2.5-2.5v-8.5c0-0.276-0.224-0.5-0.5-0.5z"></path>
<path fill="#ba7958" d="M29.5 6.25h-27c-1.378 0-2.5 1.122-2.5 2.5v8.7c0 1.005 0.604 1.912 1.539 2.311 4.116 1.753 8.47 2.736 12.961 2.921h3c0.007 0 0.014-0 0.020-0 4.471-0.184 8.825-1.167 12.941-2.92 0.935-0.398 1.539-1.305 1.539-2.311v-8.7c0-1.378-1.122-2.5-2.5-2.5z"></path>
<path fill="#7e5c62" d="M22 17.25c0-1.103-0.897-2-2-2h-8c-1.103 0-2 0.897-2 2v4.965c1.482 0.244 2.982 0.405 4.5 0.467h3c0.007 0 0.014-0 0.020-0 1.509-0.062 3.002-0.223 4.48-0.466v-4.965z"></path>
<path fill="#ffcd00" d="M16.5 24.25h-1c-0.552 0-1-0.448-1-1v-2c0-0.552 0.448-1 1-1h1c0.552 0 1 0.448 1 1v2c0 0.552-0.448 1-1 1z"></path>
<path fill="#996459" d="M21.5 4.484c-0.096 0-0.193-0.014-0.289-0.043-1.502-0.452-3.304-0.691-5.212-0.691s-3.71 0.239-5.212 0.691c-0.529 0.16-1.086-0.141-1.246-0.669s0.14-1.087 0.669-1.246c1.687-0.508 3.689-0.776 5.788-0.776s4.102 0.269 5.788 0.776c0.529 0.159 0.828 0.717 0.669 1.246-0.13 0.433-0.527 0.712-0.957 0.712z"></path>
<path fill="#ffe671" d="M16.986 20.25h-2c-0.276 0-0.5 0.224-0.5 0.5v1c0 0.552 0.448 1 1 1h1c0.552 0 1-0.448 1-1v-1c0-0.276-0.224-0.5-0.5-0.5z"></path>
</svg>
<svg id="icon-wedding-rings" width="32" height="32" viewBox="0 0 32 32" x="576" y="0">
<path fill="#f4bd22" d="M11.958 25.527c-6.031 0-10.918-4.887-10.918-10.918s4.887-10.918 10.918-10.918 10.918 4.887 10.918 10.918-4.887 10.918-10.918 10.918zM11.958 6.031c-4.731 0-8.578 3.847-8.578 8.578s3.847 8.578 8.578 8.578 8.578-3.847 8.578-8.578-3.847-8.578-8.578-8.578z"></path>
<path fill="#ffee76" d="M12.166 23.708c4.731 0 8.578-3.847 8.578-8.578 0-1.196-0.26-2.34-0.676-3.379 0.312 0.884 0.52 1.872 0.52 2.859 0 4.731-3.847 8.578-8.578 8.578-3.535 0-6.551-2.132-7.851-5.199 1.092 3.327 4.263 5.719 8.006 5.719z"></path>
<path fill="#ffee76" d="M1.248 15.129c0-6.031 4.887-10.918 10.918-10.918 4.523 0 8.37 2.755 10.034 6.655-1.56-4.159-5.563-7.175-10.242-7.175-6.031 0-10.918 4.887-10.918 10.918 0 1.508 0.312 2.963 0.884 4.263-0.416-1.144-0.676-2.444-0.676-3.743z"></path>
<path fill="#f8991e" d="M11.958 3.691c-0.052 0-0.104 0-0.104 0v2.34c0 0 0.052 0 0.104 0 4.731 0 8.578 3.847 8.578 8.578s-3.847 8.578-8.578 8.578c-0.052 0-0.104 0-0.104 0v2.34c0 0 0.052 0 0.104 0 6.031 0 10.918-4.887 10.918-10.918s-4.887-10.918-10.918-10.918z"></path>
<path fill="#f8991e" d="M12.322 28.803c-4.263-4.263-4.263-11.178 0-15.441s11.178-4.263 15.441 0 4.263 11.178 0 15.441c-4.211 4.263-11.178 4.263-15.441 0zM26.099 15.025c-3.327-3.327-8.786-3.327-12.114 0s-3.327 8.786 0 12.114 8.786 3.327 12.114 0c3.379-3.379 3.379-8.786 0-12.114z"></path>
<path fill="#ffee76" d="M13.777 27.607c3.327 3.327 8.786 3.327 12.114 0 0.832-0.832 1.456-1.82 1.872-2.859-0.416 0.832-0.936 1.664-1.664 2.392-3.327 3.327-8.786 3.327-12.114 0-2.496-2.496-3.119-6.135-1.872-9.254-1.508 3.171-0.988 7.123 1.664 9.722z"></path>
<path fill="#ffee76" d="M12.114 13.829c4.263-4.263 11.178-4.263 15.441 0 3.171 3.171 4.003 7.851 2.392 11.802 1.872-4.055 1.144-8.994-2.184-12.322-4.263-4.263-11.178-4.263-15.441 0-1.092 1.092-1.872 2.34-2.392 3.639 0.52-1.092 1.248-2.184 2.184-3.119z"></path>
<path fill="#ef683f" d="M14.401 0l1.508 1.768-3.951 3.431-3.951-3.431 1.508-1.768z"></path>
<path fill="#e84621" d="M15.909 1.768l-3.951 3.483-3.951-3.483z"></path>
<path fill="#ef683f" d="M14.401 0l-0.104 1.664-2.34 3.535-2.184-3.587-0.26-1.612z"></path>
<path fill="#ea1f0a" d="M14.401 0l-0.104 1.664-2.34-1.456-2.184 1.404-0.26-1.612z"></path>
<path fill="#aa2011" d="M14.297 1.768l-2.34 3.483-2.184-3.483z"></path>
<path fill="#eda785" d="M8.786 1.768l3.171 3.483-3.951-3.483 1.508-1.768z"></path>
<path fill="#aa2011" d="M15.129 1.768l-3.171 3.483 3.951-3.483-1.508-1.768z"></path>
</svg>
<svg id="icon-sunbed" width="32" height="32" viewBox="0 0 32 32" x="624" y="0">
<path fill="#f4e6ce" d="M27.8 14.867v0c-0.622-0.622-1.641-0.622-2.263 0l-8.6 8.6h-14.784c-0.88 0-1.6 0.72-1.6 1.6s0.72 1.6 1.6 1.6h14.933c0.625 0 1.203-0.178 1.663-0.486l9.051-9.051c0.622-0.622 0.622-1.64-0.001-2.262z"></path>
<path fill="none" stroke="#7f6e5d" stroke-width="1.0667" stroke-miterlimit="10" stroke-linecap="round" stroke-linejoin="miter" d="M0.533 28.267h18.667l12.267-12.267"></path>
<path fill="none" stroke="#7f6e5d" stroke-width="1.0667" stroke-miterlimit="10" stroke-linecap="round" stroke-linejoin="miter" d="M31.467 30.4l-6.933-6.933"></path>
<path fill="#cb8252" stroke="#7f6e5d" stroke-width="1.0667" stroke-miterlimit="10" stroke-linecap="round" stroke-linejoin="miter" d="M30.674 29.867h-30.14v-1.6h28.8l1.416 1.416c0.068 0.068 0.020 0.184-0.076 0.184z"></path>
<path fill="#f29c1f" stroke="#f0c419" stroke-width="1.0667" stroke-miterlimit="10" stroke-linecap="round" stroke-linejoin="round" d="M12.8 6.933c0 2.062-1.671 3.733-3.733 3.733s-3.733-1.671-3.733-3.733c0-2.062 1.671-3.733 3.733-3.733s3.733 1.671 3.733 3.733z"></path>
<path fill="none" stroke="#f0c419" stroke-width="1.0667" stroke-miterlimit="10" stroke-linecap="round" stroke-linejoin="round" d="M9.067 3.2v-1.6"></path>
<path fill="none" stroke="#f0c419" stroke-width="1.0667" stroke-miterlimit="10" stroke-linecap="round" stroke-linejoin="round" d="M9.067 12.267v-1.6"></path>
<path fill="none" stroke="#f0c419" stroke-width="1.0667" stroke-miterlimit="10" stroke-linecap="round" stroke-linejoin="round" d="M12.8 6.933h1.6"></path>
<path fill="none" stroke="#f0c419" stroke-width="1.0667" stroke-miterlimit="10" stroke-linecap="round" stroke-linejoin="round" d="M3.733 6.933h1.6"></path>
<path fill="none" stroke="#f0c419" stroke-width="1.0667" stroke-miterlimit="10" stroke-linecap="round" stroke-linejoin="round" d="M6.427 4.293l-1.131-1.131"></path>
<path fill="none" stroke="#f0c419" stroke-width="1.0667" stroke-miterlimit="10" stroke-linecap="round" stroke-linejoin="round" d="M12.838 10.705l-1.131-1.131"></path>
<path fill="none" stroke="#f0c419" stroke-width="1.0667" stroke-miterlimit="10" stroke-linecap="round" stroke-linejoin="round" d="M11.707 4.293l1.131-1.131"></path>
<path fill="none" stroke="#f0c419" stroke-width="1.0667" stroke-miterlimit="10" stroke-linecap="round" stroke-linejoin="round" d="M5.295 10.705l1.131-1.131"></path>
<path fill="#81ccb8" stroke="#81ccb8" stroke-width="1.0667" stroke-miterlimit="10" stroke-linecap="butt" stroke-linejoin="round" d="M20.782 4.221c-0.795-0.459-1.815-0.221-2.257 0.545 1.841-3.189 5.785-4.050 8.973-2.209s4.414 5.687 2.573 8.876c0.442-0.765 0.138-1.768-0.657-2.227s-1.797-0.211-2.239 0.555c0.442-0.765 0.156-1.757-0.639-2.217s-1.797-0.21-2.239 0.555c0.442-0.765 0.156-1.757-0.639-2.217s-1.797-0.21-2.239 0.555c0.442-0.765 0.156-1.757-0.639-2.215z"></path>
<path fill="#546a79" d="M16.937 23.467l0.395-0.395 7.535-14.83c0.133-0.262 0.029-0.584-0.234-0.717-0.263-0.132-0.584-0.028-0.717 0.234l-7.858 15.467c-0.039 0.078-0.052 0.16-0.052 0.242h0.931z"></path>
</svg>
<svg id="icon-baby" width="32" height="32" viewBox="0 0 32 32" x="672" y="0">
<path fill="#fdc794" d="M16.216 31.17c6.205 0.086 9.666-2.417 11.591-5.070 1.988-2.74 2.628-6.225 2.012-9.558-2.231-12.053-13.603-11.951-13.603-11.951s-11.372-0.102-13.602 11.951c-0.617 3.332 0.024 6.817 2.012 9.558 1.924 2.652 5.385 5.155 11.59 5.069z"></path>
<path fill="#df4d60" d="M15.465 24.47v0c-0.166-0.332-0.105-0.733 0.157-0.996 0.479-0.483 1.303-1.272 2.198-1.943-0.679-0.333-1.473-0.465-2.313-0.292-1.458 0.3-2.609 1.523-2.812 2.999-0.309 2.236 1.444 4.145 3.63 4.097 1.411-0.030 2.665-0.956 3.225-2.252 0.338-0.783 0.339-1.517 0.176-2.186-0.463 0.386-1.041 0.806-1.761 1.261-0.876 0.552-2.038 0.237-2.5-0.688z"></path>
<path fill="#f9a671" d="M2.482 17.447c-0.25-0.237-0.543-0.379-0.86-0.379-0.896 0-1.622 1.092-1.622 2.441s0.726 2.441 1.622 2.441c0.379 0 0.723-0.204 0.999-0.532-0.25-1.298-0.294-2.64-0.138-3.971z"></path>
<path fill="#f9a671" d="M31.902 15.335c-0.311-1.311-1.269-2.206-2.14-1.998-0.271 0.065-0.495 0.237-0.676 0.472 0.297 0.836 0.548 1.74 0.733 2.735 0.086 0.462 0.144 0.926 0.181 1.391 0.287 0.157 0.591 0.222 0.887 0.151 0.871-0.208 1.326-1.439 1.015-2.751z"></path>
<path fill="#fff" d="M14.345 14.267c0 2.285-1.482 4.138-3.31 4.138s-3.31-1.853-3.31-4.138c0-2.285 1.482-4.138 3.31-4.138s3.31 1.853 3.31 4.138z"></path>
<path fill="#7f5b53" d="M12.69 14.267c0 1.371-0.741 2.483-1.655 2.483s-1.655-1.112-1.655-2.483c0-1.371 0.741-2.483 1.655-2.483s1.655 1.112 1.655 2.483z"></path>
<path fill="#fff" d="M24.276 14.267c0 2.285-1.482 4.138-3.31 4.138s-3.31-1.853-3.31-4.138c0-2.285 1.482-4.138 3.31-4.138s3.31 1.853 3.31 4.138z"></path>
<path fill="#7f5b53" d="M22.621 14.267c0 1.371-0.741 2.483-1.655 2.483s-1.655-1.112-1.655-2.483c0-1.371 0.741-2.483 1.655-2.483s1.655 1.112 1.655 2.483z"></path>
<path fill="#5e5f62" d="M16.002 5.148c-0.305 0-0.552-0.247-0.552-0.552 0-2.113 1.695-3.769 3.86-3.769 0.305 0 0.552 0.247 0.552 0.552s-0.247 0.552-0.552 0.552c-1.546 0-2.756 1.171-2.756 2.665 0 0.305-0.247 0.552-0.552 0.552z"></path>
<path fill="#fb7b76" d="M18.743 20.91c-1.041 0.637-2.017 1.599-2.619 2.253-0.372 0.404-0.418 1.010-0.113 1.467v0c0.338 0.507 1.007 0.676 1.548 0.393 1.526-0.799 2.374-1.203 3.011-1.874 1.143-1.204-0.41-3.106-1.827-2.24z"></path>
<path fill="#fb7b76" d="M17.002 25.714c-0.566 0-1.116-0.276-1.45-0.777-0.449-0.673-0.38-1.555 0.166-2.147 0.651-0.707 1.654-1.689 2.737-2.35 0.872-0.533 1.939-0.338 2.594 0.472 0.652 0.806 0.62 1.882-0.079 2.618-0.636 0.671-1.418 1.078-2.716 1.754l-0.439 0.229c-0.259 0.136-0.537 0.201-0.812 0.201zM19.488 21.244c-0.145 0-0.298 0.040-0.457 0.137v0c-0.973 0.595-1.897 1.501-2.5 2.156-0.2 0.217-0.224 0.54-0.059 0.787 0.182 0.273 0.54 0.364 0.833 0.211l0.442-0.231c1.235-0.643 1.916-0.998 2.425-1.534 0.384-0.405 0.252-0.881 0.022-1.165-0.157-0.194-0.409-0.362-0.704-0.362zM18.743 20.91v0z"></path>
</svg>
<svg id="icon-ambulance" width="32" height="32" viewBox="0 0 32 32" x="720" y="0">
<path fill="#2b3237" d="M10.289 8.676c0.006-0.293 0.075-0.571 0.195-0.819-0.021-0.001-0.043-0.003-0.064-0.003h-3.108c-0.497 0-0.912 0.353-1.008 0.822 0.006 0 0.010 0 0.010 0l3.975 0z"></path>
<path fill="#d43d21" d="M10.288 8.721c0-0.015 0.001-0.030 0.001-0.045h-3.975c0 0-0.004-0-0.010-0-0.147-0.006-2.014-0.053-2.838 1.247-0.859 1.353-1.088 2.428-2.375 4.413-0.967 1.453-1.062 2.127-1.062 2.996s-0.029 1.473-0.029 3.052 0.986 2.21 2.391 2.21c0.243 0 0.706 0 1.306 0 0.042-1.649 1.39-2.973 3.049-2.973s3.007 1.324 3.049 2.973c0.169 0 0.334 0 0.493 0v-13.872zM9.144 16.339c0 0-5.032-0.016-5.487-0.018s-0.999-0.532-0.586-1.443c0.555-1.124 1.2-2.344 1.478-2.782 0.489-0.771 1.623-0.71 1.623-0.71h2.991l-0.019 4.953z"></path>
<path fill="#1b2327" d="M6.747 19.596c-1.672 0-3.031 1.334-3.073 2.996-0.001 0.026-0.002 0.052-0.002 0.079 0 1.698 1.377 3.075 3.075 3.075s3.075-1.377 3.075-3.075c0-0.026-0.001-0.053-0.002-0.079-0.042-1.662-1.401-2.996-3.073-2.996zM8.381 22.671c0 0.903-0.732 1.634-1.635 1.634s-1.635-0.732-1.635-1.634 0.732-1.634 1.635-1.634c0.903 0 1.635 0.732 1.635 1.634z"></path>
<path fill="#2b3237" d="M8.42 22.671c0 0.924-0.749 1.674-1.674 1.674s-1.674-0.749-1.674-1.674c0-0.924 0.749-1.674 1.674-1.674s1.674 0.749 1.674 1.674z"></path>
<path fill="#fff" d="M4.549 12.096c-0.278 0.438-0.923 1.658-1.478 2.782-0.414 0.911 0.131 1.442 0.586 1.443s5.487 0.018 5.487 0.018l0.019-4.953h-2.991c0 0-1.134-0.061-1.623 0.71z"></path>
<path fill="#e74424" d="M30.002 6.722h-17.715c-0.794 0-1.48 0.463-1.802 1.134-0.12 0.249-0.274 0.713-0.274 0.865v13.872l11.114 0.009c0-0.003-0-0.006-0-0.009 0-1.685 1.366-3.051 3.051-3.051s3.051 1.366 3.051 3.051c0 0.005-0 0.009-0 0.014l2.577 0.002c1.104 0 1.998-0.895 1.998-1.998v-11.89c0-1.104-0.895-1.998-1.998-1.998zM23.719 14.118c0 0.423-0.343 0.765-0.765 0.765h-1.215v1.215c0 0.423-0.343 0.765-0.765 0.765h-0.512c-0.423 0-0.765-0.343-0.765-0.765v-1.215h-1.215c-0.422 0-0.765-0.343-0.765-0.765v-0.512c0-0.423 0.343-0.765 0.765-0.765h1.215v-1.215c0-0.423 0.343-0.765 0.765-0.765h0.512c0.423 0 0.765 0.343 0.765 0.765v1.215h1.215c0.423 0 0.765 0.343 0.765 0.765v0.512h0z"></path>
<path fill="#1b2327" d="M24.375 19.518c-1.698 0-3.075 1.377-3.075 3.075 0 0.003 0 0.006 0 0.009 0.005 1.694 1.379 3.066 3.075 3.066 1.694 0 3.067-1.369 3.075-3.061 0-0.005 0-0.009 0-0.014 0-1.698-1.377-3.075-3.075-3.075zM24.375 24.227c-0.903 0-1.634-0.732-1.634-1.634s0.732-1.634 1.634-1.634 1.634 0.732 1.634 1.634-0.732 1.634-1.634 1.634z"></path>
<path fill="#2b3237" d="M26.048 22.593c0 0.924-0.749 1.674-1.674 1.674s-1.674-0.749-1.674-1.674c0-0.924 0.749-1.674 1.674-1.674s1.674 0.749 1.674 1.674z"></path>
<path fill="#e74424" d="M9.388 6.96c0-0.39-0.402-0.706-0.897-0.706s-0.897 0.316-0.897 0.706v0.893h1.794v-0.893z"></path>
<path fill="#f7f1e6" d="M22.954 12.841h-1.215v-1.215c0-0.423-0.343-0.765-0.765-0.765h-0.512c-0.423 0-0.765 0.343-0.765 0.765v1.215h-1.215c-0.422 0-0.765 0.343-0.765 0.765v0.512c0 0.423 0.343 0.765 0.765 0.765h1.215v1.215c0 0.423 0.343 0.765 0.765 0.765h0.512c0.423 0 0.765-0.343 0.765-0.765v-1.215h1.215c0.423 0 0.765-0.343 0.765-0.765v-0.512c0-0.422-0.342-0.765-0.765-0.765z"></path>
</svg>
<svg id="icon-hospital" width="32" height="32" viewBox="0 0 32 32" x="0" y="48">
<path fill="#f7f1e6" d="M26.979 3.364h-7.018v3.71c0 0.383-0.31 0.694-0.693 0.694h-6.69c-0.383 0-0.693-0.31-0.693-0.694v-3.71h-6.864c-1.318 0-2.387 1.069-2.387 2.387v23.818c0 1.318 1.069 2.387 2.387 2.387h8.953v-5.576c0-0.252 0.204-0.456 0.456-0.456h3.281c0.252 0 0.456 0.204 0.456 0.456v5.576h8.813c1.318 0 2.387-1.069 2.387-2.387v-23.818c0-1.318-1.069-2.387-2.387-2.387zM11.726 24.015c0 0.252-0.204 0.456-0.456 0.456h-3.281c-0.252 0-0.456-0.204-0.456-0.456v-3.281c0-0.252 0.204-0.456 0.456-0.456h3.281c0.252 0 0.456 0.204 0.456 0.456v3.281zM11.726 18.419c0 0.252-0.204 0.456-0.456 0.456h-3.281c-0.252 0-0.456-0.204-0.456-0.456v-3.281c0-0.252 0.204-0.456 0.456-0.456h3.281c0.252 0 0.456 0.204 0.456 0.456v3.281zM11.726 12.773c0 0.252-0.204 0.456-0.456 0.456h-3.281c-0.252 0-0.456-0.204-0.456-0.456v-3.281c0-0.252 0.204-0.456 0.456-0.456h3.281c0.252 0 0.456 0.204 0.456 0.456v3.281zM18.166 24.015c0 0.252-0.204 0.456-0.456 0.456h-3.281c-0.252 0-0.456-0.204-0.456-0.456v-3.281c0-0.252 0.204-0.456 0.456-0.456h3.281c0.252 0 0.456 0.204 0.456 0.456v3.281zM18.166 18.419c0 0.252-0.204 0.456-0.456 0.456h-3.281c-0.252 0-0.456-0.204-0.456-0.456v-3.281c0-0.252 0.204-0.456 0.456-0.456h3.281c0.252 0 0.456 0.204 0.456 0.456v3.281zM18.166 12.773c0 0.252-0.204 0.456-0.456 0.456h-3.281c-0.252 0-0.456-0.204-0.456-0.456v-3.281c0-0.252 0.204-0.456 0.456-0.456h3.281c0.252 0 0.456 0.204 0.456 0.456v3.281zM24.606 24.015c0 0.252-0.204 0.456-0.456 0.456h-3.281c-0.252 0-0.456-0.204-0.456-0.456v-3.281c0-0.252 0.204-0.456 0.456-0.456h3.281c0.252 0 0.456 0.204 0.456 0.456v3.281zM24.606 18.419c0 0.252-0.204 0.456-0.456 0.456h-3.281c-0.252 0-0.456-0.204-0.456-0.456v-3.281c0-0.252 0.204-0.456 0.456-0.456h3.281c0.252 0 0.456 0.204 0.456 0.456v3.281zM24.606 12.773c0 0.252-0.204 0.456-0.456 0.456h-3.281c-0.252 0-0.456-0.204-0.456-0.456v-3.281c0-0.252 0.204-0.456 0.456-0.456h3.281c0.252 0 0.456 0.204 0.456 0.456v3.281z"></path>
<path fill="#81b6b2" d="M11.271 9.036h-3.281c-0.252 0-0.456 0.204-0.456 0.456v3.281c0 0.252 0.204 0.456 0.456 0.456h3.281c0.252 0 0.456-0.204 0.456-0.456v-3.281c0-0.252-0.204-0.456-0.456-0.456z"></path>
<path fill="#81b6b2" d="M17.71 9.036h-3.281c-0.252 0-0.456 0.204-0.456 0.456v3.281c0 0.252 0.204 0.456 0.456 0.456h3.281c0.252 0 0.456-0.204 0.456-0.456v-3.281c0-0.252-0.204-0.456-0.456-0.456z"></path>
<path fill="#81b6b2" d="M24.15 9.036h-3.281c-0.252 0-0.456 0.204-0.456 0.456v3.281c0 0.252 0.204 0.456 0.456 0.456h3.281c0.252 0 0.456-0.204 0.456-0.456v-3.281c0-0.252-0.204-0.456-0.456-0.456z"></path>
<path fill="#81b6b2" d="M11.271 14.682h-3.281c-0.252 0-0.456 0.204-0.456 0.456v3.281c0 0.252 0.204 0.456 0.456 0.456h3.281c0.252 0 0.456-0.204 0.456-0.456v-3.281c0-0.252-0.204-0.456-0.456-0.456z"></path>
<path fill="#81b6b2" d="M17.71 14.682h-3.281c-0.252 0-0.456 0.204-0.456 0.456v3.281c0 0.252 0.204 0.456 0.456 0.456h3.281c0.252 0 0.456-0.204 0.456-0.456v-3.281c0-0.252-0.204-0.456-0.456-0.456z"></path>
<path fill="#81b6b2" d="M24.15 14.682h-3.281c-0.252 0-0.456 0.204-0.456 0.456v3.281c0 0.252 0.204 0.456 0.456 0.456h3.281c0.252 0 0.456-0.204 0.456-0.456v-3.281c0-0.252-0.204-0.456-0.456-0.456z"></path>
<path fill="#81b6b2" d="M11.271 20.278h-3.281c-0.252 0-0.456 0.204-0.456 0.456v3.281c0 0.252 0.204 0.456 0.456 0.456h3.281c0.252 0 0.456-0.204 0.456-0.456v-3.281c0-0.252-0.204-0.456-0.456-0.456z"></path>
<path fill="#81b6b2" d="M17.71 20.278h-3.281c-0.252 0-0.456 0.204-0.456 0.456v3.281c0 0.252 0.204 0.456 0.456 0.456h3.281c0.252 0 0.456-0.204 0.456-0.456v-3.281c0-0.252-0.204-0.456-0.456-0.456z"></path>
<path fill="#81b6b2" d="M24.15 20.278h-3.281c-0.252 0-0.456 0.204-0.456 0.456v3.281c0 0.252 0.204 0.456 0.456 0.456h3.281c0.252 0 0.456-0.204 0.456-0.456v-3.281c0-0.252-0.204-0.456-0.456-0.456z"></path>
<path fill="#81b6b2" d="M17.71 25.924h-3.281c-0.252 0-0.456 0.204-0.456 0.456v5.621h4.193v-5.621c0-0.252-0.204-0.456-0.456-0.456z"></path>
<path fill="#e0dcd3" d="M12.578 7.768h6.69c0.383 0 0.693-0.31 0.693-0.694v-6.38c0-0.383-0.31-0.694-0.693-0.694h-6.69c-0.383 0-0.693 0.311-0.693 0.694v6.38c0 0.383 0.31 0.693 0.693 0.693zM14.081 1.439h1.028c0.131 0 0.238 0.106 0.238 0.238v1.612h1.159v-1.612c0-0.131 0.106-0.238 0.237-0.238h1.022c0.131 0 0.238 0.106 0.238 0.238v4.414c0 0.131-0.106 0.237-0.238 0.237h-1.022c-0.131 0-0.237-0.106-0.237-0.237v-1.539h-1.159v1.539c0 0.131-0.106 0.237-0.238 0.237h-1.028c-0.131 0-0.238-0.106-0.238-0.237v-4.414c0-0.131 0.106-0.238 0.238-0.238z"></path>
<path fill="#e74424" d="M13.844 6.091c0 0.131 0.106 0.237 0.238 0.237h1.028c0.131 0 0.238-0.106 0.238-0.237v-1.539h1.159v1.539c0 0.131 0.106 0.237 0.237 0.237h1.022c0.131 0 0.238-0.106 0.238-0.237v-4.414c0-0.131-0.106-0.238-0.238-0.238h-1.022c-0.131 0-0.237 0.106-0.237 0.238v1.612h-1.159v-1.612c0-0.131-0.106-0.238-0.238-0.238h-1.028c-0.131 0-0.238 0.106-0.238 0.238v4.414z"></path>
</svg>
<svg id="icon-nurse" width="32" height="32" viewBox="0 0 32 32" x="48" y="48">
<path fill="#f7f1e6" d="M14.201 23.435c0.016 0.013 0.032 0.026 0.048 0.039l-0.641-1.482c-0.211 0.154-0.393 0.285-0.522 0.377 0.648 0.302 1.053 0.782 1.114 1.066z"></path>
<path fill="#f7f1e6" d="M11.875 22.053c0.042-0.508 0.095-1.063 0.13-1.422-0.084 0.025-0.169 0.050-0.254 0.077 0.011 0.133 0.039 0.299 0.060 0.508 0.024 0.236 0.052 0.515 0.064 0.837z"></path>
<path fill="#f7f1e6" d="M23.637 22.212c-0.404-0.224-0.788-0.423-1.157-0.602 0.178 0.639 0.256 1.316 0.245 1.791-0 0.006-0 0.013-0 0.019 0.858 0.255 1.484 1.048 1.484 1.989 0 1.146-0.929 2.075-2.075 2.075s-2.075-0.929-2.075-2.075 0.929-2.075 2.075-2.075c0.004 0 0.007 0 0.011 0 0.010-0.634-0.057-1.413-0.288-2.014-0.618-0.274-1.188-0.485-1.722-0.648 0.038 0.387 0.094 0.976 0.135 1.493 0.068 0.86-0.683 0.559-1.041 0.328-0.051-0.033-0.168-0.116-0.328-0.231l-2.692 5.743-0.978-2.263c-0.024 0.038-0.052 0.072-0.085 0.101 0.006 0.091 0.009 0.183 0.009 0.276 0 0.752-0.191 1.466-0.537 2.008-0.201 0.315-0.449 0.556-0.728 0.716 0.002 0.017 0.003 0.033 0.003 0.050 0 0.257-0.198 0.465-0.441 0.465s-0.661-0.208-0.661-0.465c0-0.257 0.418-0.465 0.661-0.465 0.088 0 0.169 0.027 0.237 0.074 0.708-0.39 1.085-1.41 1.085-2.383 0-0.061-0.002-0.122-0.005-0.183-0.171-0.042-0.307-0.192-0.332-0.386-0.153-1.222-1.109-1.916-2.619-1.905-0.001 0-0.002 0-0.003 0-0.003 0-0.005-0-0.008-0-1.391 0.051-2.267 0.736-2.413 1.902-0.024 0.194-0.161 0.344-0.332 0.386-0.003 0.060-0.005 0.121-0.005 0.182 0 0.973 0.376 1.993 1.084 2.383 0.069-0.046 0.15-0.074 0.238-0.074 0.244 0 0.662 0.208 0.662 0.465s-0.418 0.465-0.662 0.465c-0.243 0-0.441-0.208-0.441-0.465 0-0.017 0.001-0.034 0.003-0.051-0.279-0.16-0.526-0.401-0.728-0.716-0.347-0.542-0.537-1.255-0.537-2.008 0-0.093 0.003-0.185 0.009-0.276-0.111-0.097-0.173-0.25-0.153-0.412 0.096-0.763 0.43-1.416 0.966-1.889-0.003-0.011-0.005-0.022-0.005-0.034 0-0.346 0.695-1.144 1.804-1.356-0.010-0.332-0.038-0.618-0.064-0.875-0.014-0.135-0.026-0.261-0.034-0.379-0.841 0.304-1.771 0.728-2.834 1.317-1.453 0.805-3.41 1.257-3.41 3.409 0 1.198 0 3.040 0 4.437 0 1.112 1.135 1.943 2.735 1.943 2.489 0 6.101 0 8.312 0s5.823 0 8.312 0c1.599 0 2.735-0.83 2.735-1.943 0-1.397 0-3.239 0-4.437 0-2.152-1.957-2.603-3.41-3.408z"></path>
<path fill="#fff" d="M16.069 20.184c-0.001 0-0.002 0-0.004 0s-0.003 0.002-0.004 0.003c-0.094 0.069-1.542 1.141-2.452 1.804l0.641 1.482c0.026 0.021 0.051 0.042 0.076 0.064 0.54 0.473 0.876 1.128 0.972 1.894 0.014 0.113-0.013 0.222-0.068 0.311l0.978 2.263 2.692-5.743c-0.808-0.581-2.719-1.996-2.827-2.076-0.002-0.001-0.003-0.002-0.005-0.003z"></path>
<path fill="#dec8ae" d="M16.061 20.179l0.006 0.004 0.006-0.004 2.459-1.476 0.008 0.008v-1.23c-0.762 0.45-1.598 0.712-2.473 0.712s-1.711-0.262-2.473-0.712v1.23l0.008-0.007 2.459 1.476z"></path>
<path fill="#dec8ae" d="M16.067 20.182c0 0-0.001 0.001-0.002 0.001 0.001 0 0.002-0 0.004-0-0.001-0.001-0.002-0.001-0.002-0.001z"></path>
<path fill="#f3dbbd" d="M18.54 17.48c1.811-1.070 3.201-3.205 3.694-5.414-0.111-0.242-0.235-0.638-0.38-1.196-0.026 0.156-0.041 0.292-0.037 0.396 0.025 0.74-0.574 1.55-0.582-0.021-0.006-1.357-2.289-4.539-2.432-4.624-0.741 0.599-2.669 1.715-4.135 2.050-0.248 0.057-0.668 0.024-0.37-0.227 0.256-0.216 0.385-0.5 0.477-0.787 0.106-0.328-1.279 0.853-2.298 1.387-0.259 0.136-0.798 0.368-0.396-0.111 0.244-0.29 0.265-0.496 0.281-0.723-1.448 0.792-1.423 1.871-1.421 3.105 0.002 1.077-0.582 1.402-0.651 0.452-0.081 0.378-0.181 0.618-0.286 0.723 0.567 2.056 1.893 3.99 3.589 4.992 0.762 0.45 1.598 0.712 2.473 0.712s1.711-0.262 2.473-0.712z"></path>
<path fill="#2b3237" d="M21.442 20.651c0.176 0.167 0.311 0.401 0.415 0.669 0.231 0.601 0.298 1.38 0.288 2.014 0.201 0.001 0.396 0.031 0.58 0.086 0-0.006 0-0.013 0-0.019 0.011-0.475-0.067-1.152-0.245-1.791-0.193-0.693-0.505-1.342-0.95-1.637-0.854-0.566-1.851-0.544-2.342-0.621l0.576 0.571c0.974 0.155 1.18 0.254 1.679 0.729z"></path>
<path fill="#664b3a" d="M10.291 11.766c0.069 0.95 0.653 0.625 0.651-0.452-0.002-1.233-0.027-2.313 1.421-3.105-0.016 0.227-0.037 0.433-0.281 0.723-0.403 0.48 0.137 0.247 0.396 0.111 1.018-0.534 2.404-1.715 2.298-1.387-0.093 0.287-0.221 0.571-0.477 0.787-0.297 0.251 0.122 0.284 0.37 0.227 1.466-0.335 3.394-1.451 4.135-2.050 0.143 0.085 2.426 3.267 2.432 4.624 0.007 1.571 0.607 0.761 0.582 0.021-0.003-0.103 0.012-0.239 0.037-0.396 0.145 0.558 0.269 0.954 0.38 1.196 0.273 0.595 0.463 0.247 0.676-0.982 0.128-0.737 0.105-2.614-0.588-4.313-0.373-0.915-0.918-1.802-1.636-2.538-0.018 0.062-0.036 0.12-0.051 0.172-0.219 0.735-0.828 1.302-1.849 1.302h-5.154c-1.021 0-1.63-0.567-1.849-1.302-0.042-0.14-0.094-0.317-0.152-0.511-0.673 0.559-1.202 1.248-1.575 2.028-0.788 1.644-0.772 3.899-0.709 4.787 0.102 1.447 0.396 2.040 0.658 1.78 0.105-0.104 0.205-0.345 0.286-0.723z"></path>
<path fill="#f7f1e6" d="M13.632 5.707h5.154c1.021 0 1.63-0.567 1.849-1.302 0.016-0.053 0.033-0.111 0.051-0.172 0.239-0.803 0.682-2.299 0.682-2.299 0.294-0.876-0.194-1.933-1.215-1.933h-7.888c-1.021 0-1.509 1.057-1.215 1.933 0 0 0.337 1.137 0.581 1.96 0.058 0.194 0.11 0.371 0.152 0.511 0.219 0.735 0.828 1.302 1.849 1.302zM15.138 2.364h0.582v-0.582c0-0.203 0.164-0.367 0.367-0.367h0.245c0.203 0 0.367 0.164 0.367 0.367v0.582h0.582c0.203 0 0.367 0.164 0.367 0.366v0.245c0 0.202-0.164 0.366-0.367 0.366h-0.582v0.582c0 0.203-0.164 0.367-0.367 0.367h-0.245c-0.202 0-0.367-0.164-0.367-0.367v-0.582h-0.582c-0.202 0-0.366-0.164-0.366-0.366v-0.245c-0-0.202 0.164-0.366 0.366-0.366z"></path>
<path fill="#e74424" d="M14.772 2.976c0 0.202 0.164 0.366 0.366 0.366h0.582v0.582c0 0.203 0.164 0.367 0.367 0.367h0.245c0.203 0 0.367-0.164 0.367-0.367v-0.582h0.582c0.203 0 0.367-0.164 0.367-0.366v-0.245c0-0.202-0.164-0.366-0.367-0.366h-0.582v-0.582c0-0.203-0.164-0.367-0.367-0.367h-0.245c-0.202 0-0.367 0.164-0.367 0.367v0.582h-0.582c-0.202 0-0.366 0.164-0.366 0.366v0.245z"></path>
<path fill="#e0dcd3" d="M22.134 23.315c-1.156 0-2.094 0.937-2.094 2.094s0.937 2.094 2.094 2.094c1.156 0 2.094-0.937 2.094-2.094 0-0.949-0.632-1.75-1.498-2.007-0.186-0.055-0.382-0.085-0.585-0.086-0.004 0-0.007-0-0.011-0zM23.849 25.409c0 0.948-0.768 1.716-1.716 1.716s-1.716-0.768-1.716-1.716 0.768-1.716 1.716-1.716c0.948 0 1.716 0.768 1.716 1.716z"></path>
<path fill="#2b3237" d="M20.42 25.409c0 0.946 0.767 1.713 1.713 1.713s1.713-0.767 1.713-1.713-0.767-1.713-1.713-1.713c-0.946 0-1.713 0.767-1.713 1.713zM22.945 25.409c0 0.448-0.363 0.811-0.811 0.811s-0.812-0.363-0.812-0.811c0-0.448 0.363-0.811 0.812-0.811s0.811 0.363 0.811 0.811z"></path>
<path fill="#1b2327" d="M22.945 25.409c0 0.448-0.363 0.812-0.812 0.812s-0.812-0.363-0.812-0.812c0-0.448 0.363-0.812 0.812-0.812s0.812 0.363 0.812 0.812z"></path>
<path fill="#2b3237" d="M8.905 25.942c-0.085-0.012-0.16-0.049-0.221-0.103-0.006 0.091-0.009 0.183-0.009 0.276 0 0.753 0.191 1.466 0.537 2.008 0.201 0.315 0.449 0.556 0.728 0.716 0.015-0.143 0.091-0.267 0.201-0.341-0.708-0.39-1.084-1.41-1.084-2.383 0-0.061 0.002-0.122 0.005-0.182-0.050 0.012-0.102 0.016-0.156 0.009z"></path>
<path fill="#2b3237" d="M14.768 25.937c0.003 0.060 0.005 0.121 0.005 0.183 0 0.973-0.376 1.993-1.085 2.383 0.11 0.074 0.186 0.198 0.201 0.341 0.279-0.16 0.526-0.401 0.728-0.716 0.347-0.542 0.537-1.255 0.537-2.008 0-0.093-0.003-0.185-0.009-0.276-0.061 0.054-0.136 0.091-0.221 0.102-0.054 0.007-0.106 0.004-0.156-0.009z"></path>
<path fill="#e6a123" d="M9.94 28.839c-0.002 0.017-0.003 0.034-0.003 0.051 0 0.257 0.198 0.465 0.441 0.465s0.662-0.208 0.662-0.465c0-0.257-0.418-0.465-0.662-0.465-0.088 0-0.169 0.027-0.238 0.074-0.11 0.074-0.186 0.198-0.201 0.341z"></path>
<path fill="#e6a123" d="M13.688 28.502c-0.069-0.046-0.15-0.074-0.237-0.074-0.243 0-0.661 0.208-0.661 0.465s0.418 0.465 0.661 0.465c0.243 0 0.441-0.208 0.441-0.465 0-0.017-0.001-0.034-0.003-0.050-0.015-0.143-0.091-0.267-0.201-0.341z"></path>
<path fill="#e0dcd3" d="M11.871 22.096c0.53 0.12 0.426 0.054 1.215 0.272 0.13-0.092 0.311-0.223 0.522-0.377 0.91-0.663 2.359-1.735 2.452-1.804 0.002-0.001 0.003-0.002 0.004-0.003s0.002-0.001 0.002-0.001l-0.006-0.004-2.467-1.484-1.552 1.553c0 0-0.015 0.15-0.038 0.382-0.035 0.359-0.088 0.915-0.13 1.422-0.001 0.015-0.002 0.029-0.004 0.044z"></path>
<path fill="#e0dcd3" d="M16.074 20.179l-0.006 0.004c0 0 0.001 0.001 0.002 0.001s0.003 0.002 0.005 0.003c0.108 0.080 2.019 1.495 2.827 2.076 0.16 0.115 0.277 0.198 0.328 0.231 0.358 0.231 1.109 0.532 1.041-0.328-0.041-0.517-0.097-1.106-0.135-1.493-0.025-0.256-0.042-0.424-0.042-0.424l-0.904-0.896-0.648-0.655-2.467 1.482z"></path>
<path fill="#2b3237" d="M11.296 22.149c0.175-0.033 0.36-0.053 0.554-0.053 0.007 0 0.014 0 0.020 0 0.001-0.014 0.002-0.029 0.004-0.044-0.013-0.322-0.041-0.601-0.064-0.837-0.021-0.209-0.049-0.375-0.060-0.508-0.012-0.136-0.006-0.237 0.043-0.311 0.063-0.096 0.025-0.151 0.25-0.149 0.409-0.405 0.627-0.611 0.627-0.611-0.145 0.042-0.389 0.025-0.52 0.023-0.249-0.001-0.558-0.005-0.801 0.361-0.158 0.239-0.175 0.519-0.151 0.874 0.008 0.118 0.021 0.244 0.034 0.379 0.026 0.257 0.054 0.543 0.064 0.875z"></path>
<path fill="#c3bfb8" d="M11.975 22.726c0.014 0 0.029 0 0.043 0 0.029 0 0.057 0.003 0.084 0.009 0.849 0.038 1.553 0.273 2.099 0.7-0.061-0.284-0.466-0.764-1.114-1.066-0.294-0.119-0.813-0.274-1.215-0.272-0.007-0-0.014-0-0.020-0-0.195 0-0.379 0.020-0.555 0.053-1.109 0.212-1.804 1.009-1.804 1.356 0 0.012 0.002 0.024 0.005 0.034 0.002-0.002 0.004-0.004 0.006-0.006 0.612-0.536 1.443-0.808 2.472-0.808z"></path>
<path fill="#e0dcd3" d="M15.298 25.431c-0.096-0.766-0.432-1.421-0.972-1.894-0.025-0.022-0.051-0.043-0.076-0.064-0.016-0.013-0.032-0.026-0.048-0.039-0.546-0.427-1.25-0.662-2.099-0.7-0.027-0.006-0.055-0.009-0.084-0.009-0.014-0-0.029-0-0.043-0-1.029 0-1.86 0.272-2.472 0.808-0.002 0.002-0.004 0.004-0.006 0.006-0.536 0.473-0.87 1.126-0.966 1.889-0.020 0.162 0.042 0.314 0.153 0.412 0.061 0.054 0.137 0.091 0.221 0.103 0.054 0.007 0.106 0.004 0.156-0.009 0.171-0.042 0.307-0.192 0.332-0.386 0.146-1.165 1.022-1.85 2.413-1.902 0.003 0 0.005 0 0.008 0 0.001 0 0.002 0 0.003 0 1.511-0.011 2.466 0.683 2.619 1.905 0.024 0.194 0.161 0.344 0.332 0.386 0.050 0.012 0.102 0.016 0.156 0.009 0.085-0.012 0.16-0.049 0.221-0.102 0.033-0.029 0.062-0.063 0.085-0.101 0.055-0.089 0.082-0.198 0.068-0.311z"></path>
</svg>
<svg id="icon-get-money" width="32" height="32" viewBox="0 0 32 32" x="96" y="48">
<path fill="#fac176" d="M31.804 19.624c-0.691-0.963-1.265-1.191-3.666 0.072l-4.786 2.925c-0.546 0.291-1.423 0.441-2.394 0.515 0.001 0.013 0.008 0.024 0.008 0.036 0 0.305-0.247 0.552-0.552 0.552h-9.379c-1.655 0-1.655 0.831-1.655 1.103 0 0.305-0.247 0.552-0.552 0.552s-0.552-0.247-0.552-0.552c0-1.382 1.031-2.207 2.759-2.207h7.854c0.295-0.308 0.343-0.782-0.145-1.511-0.775-1.158-2.113-1.815-3.506-1.815h-2.152c-1.255 0-2.492-0.373-3.494-1.128-2.338-1.762-6.834-1.615-6.834-1.615v13.241h7.724c1.102 0 2.202-0.083 3.292-0.249l7.191-1.093c0.245 0 0.484-0.029 0.714-0.081 0.004-0.001 0.008-0.001 0.011-0.002 0.583-0.082 1.114-0.376 1.539-0.783l8.384-6.529c0.427-0.354 0.514-0.982 0.19-1.433z"></path>
<path fill="#2c91d0" d="M16.952 23.178c-0.202-0.004-0.392-0.006-0.556-0.006 0 0 0.23 0.015 0.556 0.006z"></path>
<path fill="#e2ac69" d="M8.276 24.828c0 0.305 0.247 0.552 0.552 0.552s0.552-0.247 0.552-0.552c0-0.273 0-1.103 1.655-1.103h9.379c0.305 0 0.552-0.247 0.552-0.552 0-0.013-0.007-0.024-0.007-0.036-1.373 0.105-2.929 0.060-4.007 0.042-0.326 0.010-0.556-0.006-0.556-0.006 0.163 0 0.354 0.003 0.556 0.006 0.598-0.017 1.517-0.119 1.938-0.557h-7.854c-1.727 0-2.759 0.825-2.759 2.207z"></path>
<path fill="#e4af18" d="M27.034 4.966c0 2.438-1.976 4.414-4.414 4.414s-4.414-1.976-4.414-4.414 1.976-4.414 4.414-4.414 4.414 1.976 4.414 4.414z"></path>
<path fill="#e4af18" d="M12.031 19.202c0.347 0.060 0.7 0.094 1.055 0.094h2.152c0.35 0 0.696 0.041 1.030 0.121 1.473-0.716 2.491-2.221 2.491-3.969 0-2.438-1.976-4.414-4.414-4.414s-4.414 1.976-4.414 4.414c0 1.588 0.841 2.976 2.1 3.753z"></path>
<path fill="#fcc62d" d="M16.552 15.448c0 1.219-0.988 2.207-2.207 2.207s-2.207-0.988-2.207-2.207 0.988-2.207 2.207-2.207 2.207 0.988 2.207 2.207z"></path>
<path fill="#fcc62d" d="M24.828 4.966c0 1.219-0.988 2.207-2.207 2.207s-2.207-0.988-2.207-2.207 0.988-2.207 2.207-2.207 2.207 0.988 2.207 2.207z"></path>
<path fill="#556180" d="M0 14.881h2.759v16.567h-2.759v-16.567z"></path>
</svg>
<svg id="icon-stethoscope" width="32" height="32" viewBox="0 0 32 32" x="144" y="48">
<path fill="#2b3237" d="M20.867 17.873c-0.681 1.794-0.507 3.805-0.338 5.75 0.192 2.208 0.373 4.293-0.793 5.608-0.921 1.039-2.651 1.588-5.288 1.677-2.613 0.088-4.428-0.49-5.394-1.718-1.743-2.217-0.6-6.315 0.156-9.027 0.245-0.878 0.443-1.588 0.531-2.142-0.119 0.006-0.239 0.010-0.36 0.010-0.252-0-0.497-0.014-0.736-0.038-0.094 0.496-0.283 1.175-0.479 1.88-0.815 2.922-2.047 7.339 0.036 9.988 1.118 1.422 3.048 2.141 5.744 2.141 0.176 0 0.356-0.003 0.539-0.009 2.95-0.099 4.933-0.767 6.063-2.041 1.475-1.664 1.265-4.083 1.062-6.421-0.271-3.122-0.529-6.101 2.606-7.879-0.226-0.281-0.412-0.594-0.549-0.933-1.369 0.78-2.293 1.825-2.799 3.156z"></path>
<path fill="#c3bfb8" d="M9.741 18.020c3.151-0.155 5.249-2.268 5.473-3.313-1.355 1.059-3.103 1.642-5.21 1.736-0.067 0.015-0.137 0.023-0.209 0.023-0.036 0-0.072 0-0.107 0-2.553 0-4.617-0.674-6.136-2.005-0.005-0.005-0.010-0.010-0.016-0.014-0.008 0.026-0.012 0.054-0.012 0.085 0 0.925 1.996 3.145 5.12 3.459 0.239 0.024 0.484 0.038 0.736 0.038 0.122 0 0.242-0.004 0.36-0.010z"></path>
<path fill="#2b3237" d="M2.456 8.503c-0.007-0.15-0.012-0.3-0.012-0.453 0-2.414 0.933-4.947 2.691-5.915-0.272-0.184-0.462-0.491-0.498-0.848-0.692 0.396-1.306 0.996-1.807 1.778-0.86 1.346-1.334 3.116-1.334 4.984 0 0.231 0.008 0.46 0.023 0.686 0.151-0.133 0.339-0.225 0.549-0.255 0.133-0.018 0.264-0.009 0.387 0.021z"></path>
<path fill="#2b3237" d="M17.009 8.472c0.21 0.029 0.397 0.121 0.549 0.255 0.015-0.227 0.023-0.455 0.023-0.686 0-1.868-0.474-3.638-1.334-4.984-0.5-0.783-1.114-1.382-1.807-1.779-0.036 0.356-0.226 0.663-0.498 0.848 1.758 0.968 2.691 3.501 2.691 5.915 0 0.152-0.005 0.303-0.012 0.453 0.124-0.031 0.254-0.040 0.387-0.021z"></path>
<path fill="#e0dcd3" d="M9.689 16.466c0.035 0 0.071 0 0.107-0 0.071-0 0.141-0.009 0.209-0.023 2.107-0.094 3.855-0.677 5.21-1.736 0.105-0.082 0.209-0.167 0.309-0.255 1.341-1.174 2.175-2.801 2.413-4.703 0.050-0.401-0.105-0.781-0.379-1.022-0.151-0.133-0.339-0.226-0.549-0.255-0.133-0.018-0.264-0.009-0.387 0.021-0.424 0.105-0.763 0.476-0.823 0.958-0.38 3.033-2.752 4.757-6.502 4.729-0.003-0-0.005-0-0.008-0-0.006 0-0.013 0.001-0.019 0.001-3.453-0.127-5.628-1.828-5.99-4.72-0.060-0.482-0.4-0.853-0.824-0.958-0.124-0.031-0.254-0.040-0.387-0.021-0.21 0.029-0.397 0.121-0.549 0.255-0.274 0.242-0.43 0.621-0.379 1.023 0.237 1.895 1.066 3.515 2.397 4.688 0.005 0.005 0.010 0.010 0.016 0.014 1.518 1.33 3.582 2.005 6.136 2.005z"></path>
<path fill="#e6a123" d="M5.057 2.136c0.17 0.116 0.373 0.183 0.591 0.183 0.605 0 1.642-0.517 1.642-1.155s-1.038-1.155-1.642-1.155c-0.605 0-1.095 0.517-1.095 1.155 0 0.042 0.002 0.083 0.006 0.124 0.036 0.356 0.226 0.663 0.498 0.848z"></path>
<path fill="#e6a123" d="M14.517 1.278c0.004-0.041 0.006-0.082 0.006-0.124 0-0.638-0.49-1.155-1.095-1.155s-1.642 0.517-1.642 1.155c0 0.638 1.038 1.155 1.642 1.155 0.218 0 0.42-0.068 0.591-0.183 0.272-0.184 0.462-0.491 0.498-0.848z"></path>
<path fill="#e0dcd3" d="M27.13 9.569c-2.065 0-3.739 1.674-3.739 3.739 0 0.498 0.098 0.974 0.275 1.409 0.138 0.339 0.324 0.652 0.549 0.933 0.685 0.852 1.736 1.398 2.915 1.398 2.065 0 3.739-1.674 3.739-3.739s-1.674-3.739-3.739-3.739zM27.13 16.372c-1.692 0-3.064-1.372-3.064-3.064s1.372-3.064 3.064-3.064 3.064 1.372 3.064 3.064c0 1.692-1.372 3.064-3.064 3.064z"></path>
<path fill="#f7f1e6" d="M27.13 10.243c-1.692 0-3.064 1.372-3.064 3.064s1.372 3.064 3.064 3.064 3.064-1.372 3.064-3.064-1.372-3.064-3.064-3.064zM27.13 14.759c-0.802 0-1.452-0.65-1.452-1.452s0.65-1.452 1.452-1.452c0.802 0 1.452 0.65 1.452 1.452s-0.65 1.452-1.452 1.452z"></path>
<path fill="#2b3237" d="M28.645 13.308c0 0.837-0.678 1.515-1.515 1.515s-1.515-0.678-1.515-1.515c0-0.837 0.678-1.515 1.515-1.515s1.515 0.678 1.515 1.515z"></path>
</svg>
<svg id="icon-bed2" width="32" height="32" viewBox="0 0 32 32" x="192" y="48">
<path fill="#f7f1e6" d="M28.417 15.805c0.662-0.153 1.155-0.744 1.155-1.452v-0.149c0-0.824-0.668-1.492-1.492-1.492h-4.065c-0.824 0-1.492 0.668-1.492 1.492v0.149c0 0.708 0.494 1.299 1.155 1.452h-21.669v2.945h28.121v-2.945h-1.715z"></path>
<path fill="#2b3237" d="M31.066 4.664h-12.376c-0.516 0-0.934 0.418-0.934 0.934 0 0.007 0.001 0.013 0.001 0.020s-0.001 0.013-0.001 0.020v3.554h0.895v-2.661c0.013 0.001 0.026 0.002 0.039 0.002h11.442v12.217h-28.121v-8.459c0-0.555-0.45-1.005-1.005-1.005s-1.005 0.45-1.005 1.005v16.041c0 0.555 0.45 1.005 1.005 1.005s1.005-0.45 1.005-1.005v-5.548h28.121v5.619c0 0.516 0.418 0.934 0.934 0.934s0.934-0.418 0.934-0.934v-20.804c0-0.516-0.418-0.934-0.934-0.934z"></path>
<path fill="#e6a123" d="M17.514 9.191c-0.584 0-1.057 0.473-1.057 1.057s0.473 1.056 1.057 1.056h1.243c0.584 0 1.057-0.473 1.057-1.056s-0.473-1.057-1.057-1.057h-1.243z"></path>
<path fill="#d43d21" d="M7.792 9.661h1.435v1.435c0 0.499 0.405 0.904 0.904 0.904h0.604c0.499 0 0.904-0.405 0.904-0.904v-1.435h1.435c0.499 0 0.904-0.405 0.904-0.904v-0.605c0-0.499-0.405-0.904-0.904-0.904h-1.435v-1.435c0-0.499-0.405-0.904-0.904-0.904h-0.604c-0.499 0-0.904 0.405-0.904 0.904v1.435h-1.435c-0.499 0-0.904 0.405-0.904 0.904v0.605c0 0.499 0.405 0.904 0.904 0.904z"></path>
</svg>
<svg id="icon-suitcase" width="32" height="32" viewBox="0 0 32 32" x="240" y="48">
<path fill="#948677" d="M21.101 18.759h-2.342v-3.31h-5.517v3.31h-2.342c-4.828 0-8.915-3.142-10.348-7.49v16.529c0 0.858 0.584 1.606 1.416 1.814l5.203 1.301c5.797 1.449 11.862 1.449 17.658 0l5.203-1.301c0.833-0.208 1.417-0.956 1.417-1.814v-16.53c-1.432 4.348-5.52 7.49-10.348 7.49z"></path>
<path fill="#977956" d="M19.862 3.004v1.41h2.207v-1.165c0-1.795-1.454-3.249-3.249-3.249h-5.64c-1.795 0-3.249 1.454-3.249 3.249v1.165h2.207v-1.41c0-0.614 0.623-1.031 1.191-0.797 1.71 0.707 3.631 0.707 5.342 0 0.568-0.234 1.191 0.183 1.191 0.797z"></path>
<path fill="#8d5538" d="M0 6.069v1.79c0 6.020 4.88 10.899 10.899 10.899h10.201c6.020 0 10.899-4.879 10.899-10.899v-1.79h-32z"></path>
<path fill="#ffd16c" d="M8.828 4.414h4.414v1.655h-4.414v-1.655z"></path>
<path fill="#ffd16c" d="M18.759 4.414h4.414v1.655h-4.414v-1.655z"></path>
<path fill="#72422d" d="M9.167 16.931c-0.036 0-0.074-0.004-0.111-0.012-0.188-0.038-0.373-0.082-0.556-0.131-0.294-0.079-0.469-0.382-0.39-0.676s0.383-0.467 0.676-0.39c0.162 0.044 0.324 0.082 0.49 0.116 0.298 0.061 0.491 0.353 0.43 0.651-0.054 0.261-0.284 0.441-0.54 0.441zM6.659 15.999c-0.091 0-0.184-0.023-0.269-0.071-0.167-0.093-0.33-0.191-0.49-0.295-0.256-0.165-0.33-0.506-0.164-0.762 0.164-0.257 0.506-0.33 0.762-0.164 0.141 0.090 0.285 0.177 0.431 0.259 0.266 0.149 0.361 0.485 0.212 0.75-0.1 0.181-0.288 0.282-0.482 0.282zM4.552 14.35c-0.147 0-0.294-0.058-0.402-0.174-0.13-0.14-0.257-0.282-0.378-0.429-0.194-0.234-0.162-0.583 0.073-0.777 0.234-0.195 0.582-0.162 0.777 0.073 0.106 0.129 0.218 0.255 0.333 0.377 0.209 0.222 0.197 0.572-0.025 0.78-0.107 0.099-0.243 0.148-0.378 0.148zM3.042 12.143c-0.206 0-0.403-0.115-0.498-0.313-0.082-0.172-0.159-0.346-0.231-0.524-0.114-0.282 0.022-0.604 0.305-0.718s0.604 0.022 0.718 0.305c0.063 0.156 0.13 0.309 0.203 0.46 0.132 0.275 0.016 0.604-0.259 0.736-0.077 0.037-0.159 0.054-0.238 0.054zM2.275 9.58c-0.271 0-0.507-0.199-0.546-0.475-0.026-0.189-0.046-0.38-0.060-0.571-0.022-0.304 0.206-0.568 0.51-0.59 0.302-0.025 0.568 0.206 0.59 0.51 0.012 0.167 0.029 0.333 0.052 0.498 0.042 0.302-0.168 0.581-0.47 0.623-0.026 0.003-0.052 0.005-0.077 0.005z"></path>
<path fill="#72422d" d="M11.586 17.103h-0.276c-0.305 0-0.552-0.247-0.552-0.552s0.247-0.552 0.552-0.552h0.276c0.305 0 0.552 0.247 0.552 0.552s-0.247 0.552-0.552 0.552z"></path>
<path fill="#72422d" d="M20.69 17.103h-0.276c-0.305 0-0.552-0.247-0.552-0.552s0.247-0.552 0.552-0.552h0.276c0.305 0 0.552 0.247 0.552 0.552s-0.247 0.552-0.552 0.552z"></path>
<path fill="#72422d" d="M22.828 16.931c-0.257 0-0.488-0.18-0.54-0.442-0.060-0.299 0.133-0.59 0.431-0.65 0.164-0.033 0.327-0.071 0.487-0.115 0.292-0.081 0.597 0.093 0.678 0.387 0.081 0.294-0.093 0.597-0.387 0.678-0.184 0.050-0.37 0.094-0.558 0.132-0.038 0.008-0.074 0.011-0.11 0.011zM25.337 16.001c-0.194 0-0.381-0.102-0.482-0.282-0.15-0.265-0.055-0.602 0.212-0.75 0.147-0.082 0.291-0.169 0.432-0.26 0.258-0.166 0.598-0.090 0.762 0.166s0.090 0.598-0.166 0.762c-0.161 0.104-0.323 0.201-0.49 0.294-0.085 0.048-0.178 0.071-0.269 0.071zM27.444 14.353c-0.135 0-0.271-0.050-0.378-0.15-0.222-0.209-0.233-0.558-0.025-0.78 0.115-0.122 0.226-0.248 0.334-0.378 0.194-0.233 0.542-0.266 0.777-0.071s0.266 0.542 0.071 0.777c-0.122 0.147-0.247 0.289-0.377 0.427-0.108 0.116-0.254 0.175-0.402 0.175zM28.956 12.147c-0.080 0-0.161-0.017-0.238-0.054-0.275-0.131-0.391-0.461-0.26-0.736 0.072-0.151 0.14-0.305 0.203-0.46 0.115-0.283 0.438-0.418 0.719-0.304 0.282 0.115 0.419 0.436 0.304 0.719-0.072 0.176-0.148 0.35-0.23 0.521-0.094 0.198-0.292 0.314-0.498 0.314zM29.724 9.585c-0.024 0-0.049-0.002-0.074-0.005-0.302-0.041-0.514-0.318-0.473-0.621 0.022-0.165 0.040-0.332 0.052-0.5 0.022-0.304 0.292-0.529 0.59-0.51 0.304 0.022 0.532 0.286 0.51 0.59-0.013 0.191-0.034 0.38-0.058 0.568-0.038 0.278-0.275 0.478-0.547 0.478z"></path>
<path fill="#ffd16c" d="M13.241 8.828h5.517v2.207h-5.517v-2.207z"></path>
<path fill="#7a6d61" d="M15.448 18.759v13.233c0.368 0.006 0.735 0.006 1.103 0v-13.233h-1.103z"></path>
<path fill="#7a6d61" d="M29.241 29.258c-0.305 0-0.552-0.247-0.552-0.552v-0.552c0-0.305 0.247-0.552 0.552-0.552s0.552 0.247 0.552 0.552v0.552c0 0.305-0.247 0.552-0.552 0.552zM29.241 26.499c-0.305 0-0.552-0.247-0.552-0.552v-0.552c0-0.305 0.247-0.552 0.552-0.552s0.552 0.247 0.552 0.552v0.552c0 0.305-0.247 0.552-0.552 0.552zM29.241 23.741c-0.305 0-0.552-0.247-0.552-0.552v-0.552c0-0.305 0.247-0.552 0.552-0.552s0.552 0.247 0.552 0.552v0.552c0 0.305-0.247 0.552-0.552 0.552zM29.241 20.982c-0.305 0-0.552-0.247-0.552-0.552v-0.552c0-0.305 0.247-0.552 0.552-0.552s0.552 0.247 0.552 0.552v0.552c0 0.305-0.247 0.552-0.552 0.552zM29.241 18.223c-0.305 0-0.552-0.247-0.552-0.552v-0.552c0-0.305 0.247-0.552 0.552-0.552s0.552 0.247 0.552 0.552v0.552c0 0.305-0.247 0.552-0.552 0.552z"></path>
<path fill="#7a6d61" d="M2.759 28.883c-0.305 0-0.552-0.247-0.552-0.552v-0.552c0-0.305 0.247-0.552 0.552-0.552s0.552 0.247 0.552 0.552v0.552c0 0.305-0.247 0.552-0.552 0.552zM2.759 26.124c-0.305 0-0.552-0.247-0.552-0.552v-0.552c0-0.305 0.247-0.552 0.552-0.552s0.552 0.247 0.552 0.552v0.552c0 0.305-0.247 0.552-0.552 0.552zM2.759 23.366c-0.305 0-0.552-0.247-0.552-0.552v-0.552c0-0.305 0.247-0.552 0.552-0.552s0.552 0.247 0.552 0.552v0.552c0 0.305-0.247 0.552-0.552 0.552zM2.759 20.607c-0.305 0-0.552-0.247-0.552-0.552v-0.552c0-0.305 0.247-0.552 0.552-0.552s0.552 0.247 0.552 0.552v0.552c0 0.305-0.247 0.552-0.552 0.552zM2.759 17.848c-0.305 0-0.552-0.247-0.552-0.552v-0.552c0-0.305 0.247-0.552 0.552-0.552s0.552 0.247 0.552 0.552v0.552c0 0.305-0.247 0.552-0.552 0.552z"></path>
<path fill="#b19046" d="M14.322 16.552h3.31v4.184h-3.31v-4.184z"></path>
<path fill="#e4c05c" d="M13.241 15.448v6.069h5.517v-6.069h-5.517zM17.103 18.445c0 0.173-0.14 0.313-0.313 0.313h-0.238v1.103c0 0.305-0.247 0.552-0.552 0.552s-0.552-0.247-0.552-0.552v-1.103h-0.238c-0.173 0-0.313-0.14-0.313-0.313v-1.028c0-0.173 0.14-0.313 0.313-0.313h1.58c0.173 0 0.313 0.14 0.313 0.313v1.028z"></path>
</svg>
<svg id="icon-notes" width="32" height="32" viewBox="0 0 32 32" x="288" y="48">
<path fill="#56b46f" d="M0 9.143h32v18.286h-32v-18.286z"></path>
<path fill="#74be86" d="M29.714 9.143h-28.571v-2.286z"></path>
<path fill="#4d8157" d="M23.429 18.286c0 4.103-3.326 7.429-7.429 7.429s-7.429-3.326-7.429-7.429c0-4.103 3.326-7.429 7.429-7.429s7.429 3.326 7.429 7.429z"></path>
<path fill="#eaead7" d="M12.054 24.571c-2.089-1.315-3.482-3.635-3.482-6.286s1.393-4.971 3.482-6.286h-5.782c0.009 0.094 0.014 0.189 0.014 0.286 0 1.736-1.407 3.143-3.143 3.143-0.097 0-0.191-0.006-0.286-0.014v5.743c0.094-0.009 0.189-0.014 0.286-0.014 1.735 0 3.143 1.407 3.143 3.143 0 0.097-0.006 0.191-0.014 0.286h5.782z"></path>
<path fill="#eaead7" d="M28.857 15.429c-1.736 0-3.143-1.407-3.143-3.143 0-0.097 0.006-0.191 0.014-0.286h-5.782c2.089 1.315 3.482 3.635 3.482 6.286s-1.393 4.971-3.482 6.286h5.782c-0.009-0.094-0.014-0.189-0.014-0.286 0-1.736 1.407-3.143 3.143-3.143 0.097 0 0.191 0.006 0.286 0.014v-5.743c-0.094 0.009-0.189 0.014-0.286 0.014z"></path>
<path fill="#eaead7" d="M3.143 13.714c-0.788 0-1.429-0.641-1.429-1.429s0.641-1.429 1.429-1.429c0.788 0 1.429 0.641 1.429 1.429s-0.641 1.429-1.429 1.429z"></path>
<path fill="#eaead7" d="M28.857 13.714c-0.788 0-1.429-0.641-1.429-1.429s0.641-1.429 1.429-1.429c0.788 0 1.429 0.641 1.429 1.429s-0.641 1.429-1.429 1.429z"></path>
<path fill="#eaead7" d="M3.143 25.714c-0.788 0-1.429-0.641-1.429-1.429s0.641-1.429 1.429-1.429c0.788 0 1.429 0.641 1.429 1.429s-0.641 1.429-1.429 1.429z"></path>
<path fill="#eaead7" d="M28.857 25.714c-0.788 0-1.429-0.641-1.429-1.429s0.641-1.429 1.429-1.429c0.788 0 1.429 0.641 1.429 1.429s-0.641 1.429-1.429 1.429z"></path>
<path fill="#83c38e" d="M2.857 4.571v2.423l26.857 2.149h1.714z"></path>
<path fill="#eaead7" d="M19.182 20.014c0.406-0.126 0.704-0.501 0.704-0.946v-0.497c0-0.381-0.219-0.71-0.536-0.877-0.219-1.871-1.456-2.628-3.444-2.628-0.094 0-0.186 0.003-0.277 0.011-0.676 0.054-1.359-0.073-1.921-0.452-0.234-0.158-0.43-0.325-0.569-0.501-0.063-0.080-0.19-0.029-0.178 0.073 0.020 0.174 0.049 0.377 0.094 0.599 0.164 0.826 0.066 0.705-0.254 1.485-0.177 0.431-0.29 0.909-0.343 1.415-0.314 0.168-0.533 0.495-0.533 0.875v0.497c0 0.446 0.299 0.821 0.704 0.946 0.269 1.007 0.822 1.812 1.783 2.226v0.57c0 0.146-0.083 0.278-0.213 0.343l-1.921 0.946c-0.166 0.090-0.303 0.214-0.426 0.351 1.184 0.798 2.611 1.264 4.146 1.264 1.478 0 2.853-0.437 4.010-1.182-0.142-0.173-0.321-0.317-0.529-0.421l-1.874-0.958c-0.128-0.065-0.209-0.197-0.209-0.34v-0.574c0.962-0.414 1.514-1.219 1.783-2.226z"></path>
</svg>
<svg id="icon-money" width="32" height="32" viewBox="0 0 32 32" x="336" y="48">
<path fill="#73d14f" d="M31 7.5h-30c-0.551 0-1 0.449-1 1v15c0 0.552 0.449 1 1 1h30c0.551 0 1-0.448 1-1v-15c0-0.551-0.449-1-1-1z"></path>
<path fill="#feb" d="M29.5 13c-1.654 0-3-1.346-3-3 0-0.276-0.224-0.5-0.5-0.5h-20c-0.276 0-0.5 0.224-0.5 0.5 0 1.654-1.346 3-3 3-0.276 0-0.5 0.224-0.5 0.5v5c0 0.276 0.224 0.5 0.5 0.5 1.654 0 3 1.346 3 3 0 0.276 0.224 0.5 0.5 0.5h20c0.276 0 0.5-0.224 0.5-0.5 0-1.654 1.346-3 3-3 0.276 0 0.5-0.224 0.5-0.5v-5c0-0.276-0.224-0.5-0.5-0.5z"></path>
<path fill="#859a55" d="M21.5 16c0 3.59-2.462 6.5-5.5 6.5s-5.5-2.91-5.5-6.5c0-3.59 2.462-6.5 5.5-6.5s5.5 2.91 5.5 6.5z"></path>
<path fill="#73d14f" d="M20.275 18.882c-0.168-0.541-0.627-0.94-1.186-1.033l-2.089-0.348c-0.552 0 0 0.052 0-0.5h-2c0 0.552 0.552 0.5 0 0.5l-2.089 0.348c-0.559 0.093-1.017 0.493-1.185 1.033l-0.252 0.807c0.992 1.697 2.648 2.811 4.526 2.811s3.534-1.114 4.526-2.811l-0.252-0.807z"></path>
<path fill="#859a55" d="M4 9.5h-1.5c-0.276 0-0.5 0.224-0.5 0.5v1.5c0 0.276 0.224 0.5 0.5 0.5 1.103 0 2-0.897 2-2 0-0.276-0.224-0.5-0.5-0.5z"></path>
<path fill="#859a55" d="M2.5 20c-0.276 0-0.5 0.224-0.5 0.5v1.5c0 0.276 0.224 0.5 0.5 0.5h1.5c0.276 0 0.5-0.224 0.5-0.5 0-1.103-0.897-2-2-2z"></path>
<path fill="#859a55" d="M29.5 20c-1.103 0-2 0.897-2 2 0 0.276 0.224 0.5 0.5 0.5h1.5c0.276 0 0.5-0.224 0.5-0.5v-1.5c0-0.276-0.224-0.5-0.5-0.5z"></path>
<path fill="#859a55" d="M29.5 9.5h-1.5c-0.276 0-0.5 0.224-0.5 0.5 0 1.103 0.897 2 2 2 0.276 0 0.5-0.224 0.5-0.5v-1.5c0-0.276-0.224-0.5-0.5-0.5z"></path>
<path fill="#73d14f" d="M8.5 16c0 0.828-0.672 1.5-1.5 1.5s-1.5-0.672-1.5-1.5c0-0.828 0.672-1.5 1.5-1.5s1.5 0.672 1.5 1.5z"></path>
<path fill="#73d14f" d="M26.5 16c0 0.828-0.672 1.5-1.5 1.5s-1.5-0.672-1.5-1.5c0-0.828 0.672-1.5 1.5-1.5s1.5 0.672 1.5 1.5z"></path>
<path fill="#feb" d="M16 12c-1.378 0-2.5 1.122-2.5 2.5v0.5c0 1.378 1.122 2.5 2.5 2.5s2.5-1.122 2.5-2.5v-0.5c0-1.378-1.122-2.5-2.5-2.5z"></path>
<path fill="#feb" d="M17.5 17.73c0 0.185-0.104 0.352-0.265 0.444-0.364 0.207-0.786 0.326-1.235 0.326s-0.872-0.119-1.237-0.327c-0.161-0.092-0.265-0.259-0.264-0.444l0.002-2.729 2 0.5 1 0.5 0 1.73z"></path>
</svg>
<svg id="icon-boss" width="32" height="32" viewBox="0 0 32 32" x="384" y="48">
<path fill="#e4eaf6" d="M24.828 23.172h-8.267v-4.396c0-0.305-0.247-0.552-0.552-0.552s-0.552 0.247-0.552 0.552v4.396h-8.285c-1.521 0-2.759 1.238-2.759 2.759v3.31c0 0.305 0.247 0.552 0.552 0.552s0.552-0.247 0.552-0.552v-3.31c0-0.913 0.742-1.655 1.655-1.655h8.285v4.965c0 0.305 0.247 0.552 0.552 0.552s0.552-0.247 0.552-0.552v-4.965h8.267c0.913 0 1.655 0.742 1.655 1.655v3.31c0 0.305 0.247 0.552 0.552 0.552s0.552-0.247 0.552-0.552v-3.31c-0-1.521-1.238-2.759-2.759-2.759z"></path>
<path fill="#e6af78" d="M18.933 13.364v-2.281h-5.867v2.281l2.933 2.607z"></path>
<path fill="#707487" d="M23.469 14.431l-4.033-0.949c-0.061-0.014-0.117-0.039-0.169-0.068l-3.267 1.905-3.139-1.998c-0.081 0.076-0.182 0.133-0.297 0.16l-4.033 0.949c-0.589 0.139-1.005 0.664-1.005 1.269v2.553c0 0.36 0.292 0.652 0.652 0.652h15.644c0.36 0 0.652-0.292 0.652-0.652v-2.553c-0-0.605-0.416-1.131-1.005-1.269z"></path>
<path fill="#d29b6e" d="M13.067 11.082v2.407c3.695 1.331 5.867-2.001 5.867-2.001v-0.406l-5.867 0z"></path>
<path fill="#f0c087" d="M11.763 3.586l0.284 6.248c0.027 0.584 0.313 1.125 0.78 1.476l1.348 1.011c0.338 0.254 0.75 0.391 1.173 0.391h1.304c0.423 0 0.835-0.137 1.173-0.391l1.348-1.011c0.467-0.351 0.754-0.892 0.78-1.476l0.284-6.248h-8.474z"></path>
<path fill="#e6af78" d="M15.022 4.89c1.304 0 3.259-0.326 3.723-1.304h-6.982l0.284 6.248c0.027 0.584 0.313 1.125 0.78 1.476l1.348 1.011c0.338 0.254 0.75 0.391 1.173 0.391h0.652c-0.652 0-1.956-1.304-1.956-2.933 0-0.797 0-2.933 0-3.911 0-0.326 0.326-0.978 0.978-0.978z"></path>
<path fill="#5b5d6e" d="M22.081 16.789l2.112-1.897c0.177 0.224 0.281 0.506 0.281 0.808v2.553c0 0.36-0.292 0.652-0.652 0.652h-2.281v-0.903c0-0.463 0.197-0.903 0.541-1.212z"></path>
<path fill="#5b5d6e" d="M9.919 16.789l-2.112-1.897c-0.177 0.224-0.281 0.506-0.281 0.808v2.553c0 0.36 0.292 0.652 0.652 0.652h2.281v-0.903c0-0.463-0.197-0.903-0.541-1.212z"></path>
<path fill="#5b5d6e" d="M16.815 18.905h-1.63l0.204-2.933h1.222z"></path>
<path fill="#515262" d="M16.815 15.319h-1.63v0.361c0 0.341 0.276 0.617 0.617 0.617h0.396c0.341 0 0.617-0.276 0.617-0.617v-0.361z"></path>
<path fill="#5b5d6e" d="M13.021 12.638l2.979 2.681c0 0-0.834 0.421-1.864 1.27-0.212 0.175-0.534 0.104-0.648-0.146l-1.4-3.079 0.443-0.664c0.11-0.165 0.341-0.194 0.489-0.062z"></path>
<path fill="#5b5d6e" d="M18.979 12.638l-2.979 2.681c0 0 0.834 0.421 1.864 1.27 0.212 0.175 0.534 0.104 0.648-0.146l1.4-3.079-0.443-0.664c-0.11-0.165-0.342-0.194-0.489-0.062z"></path>
<path fill="#785550" d="M17.976 1.427l0.306 2.159c1.395 0.279 1.596 2.468 1.625 3.093 0.005 0.113 0.041 0.223 0.103 0.319l0.532 0.825c0 0-0.182-1.365 0.652-2.281-0-0 0.286-5.419-3.217-4.115z"></path>
<path fill="#f0c087" d="M20.868 7.684l-0.368 1.472c-0.044 0.174-0.2 0.297-0.38 0.297v0c-0.198 0-0.364-0.147-0.389-0.343l-0.188-1.506c-0.050-0.403 0.264-0.758 0.669-0.758h0.001c0.439 0 0.761 0.413 0.654 0.838z"></path>
<path fill="#694b4b" d="M12.075 0.843l0.482 0.329c-2.18 1.609-1.772 4.369-1.772 4.369 0.652 0.652 0.652 2.281 0.652 2.281l0.652-0.652c0 0-0.252-1.883 0.978-2.607 1.141-0.672 2.139-0.326 3.157-0.326 2.73 0 3.494-1.029 3.361-2.281-0.069-0.648-1.060-1.998-3.585-1.956-1.019 0.017-2.933 0.326-3.925 0.842z"></path>
<path fill="#5a4146" d="M11.885 3.953c0 0-0.346-1.365 0.672-2.781-2.18 1.609-1.772 4.369-1.772 4.369 0.652 0.652 0.652 2.281 0.652 2.281l0.652-0.652c0 0-0.252-1.883 0.978-2.607 1.141-0.672 2.139-0.326 3.157-0.326 0.444 0 0.831-0.030 1.175-0.081-2.102 0.071-3.341-1.522-5.514-0.204z"></path>
<path fill="#e6af78" d="M11.132 7.684l0.368 1.472c0.044 0.174 0.2 0.297 0.38 0.297v0c0.198 0 0.364-0.147 0.389-0.343l0.188-1.506c0.050-0.403-0.264-0.758-0.669-0.758h-0.001c-0.439 0-0.761 0.413-0.654 0.838z"></path>
<path fill="#5b5d6e" d="M20.054 18.253h-1.915c-0.281 0-0.509 0.228-0.509 0.509v0.143h2.933v-0.143c0-0.281-0.228-0.509-0.509-0.509z"></path>
<path fill="#ffd782" d="M18.207 32h-4.414c-0.305 0-0.552-0.247-0.552-0.552v-2.207c0-0.305 0.247-0.552 0.552-0.552h4.414c0.305 0 0.552 0.247 0.552 0.552v2.207c-0 0.305-0.247 0.552-0.552 0.552z"></path>
<path fill="#ffc36e" d="M17.103 30.896h-2.207c-0.305 0-0.552-0.247-0.552-0.552v0c0-0.305 0.247-0.552 0.552-0.552h2.207c0.305 0 0.552 0.247 0.552 0.552v0c0 0.305-0.247 0.552-0.552 0.552z"></path>
<path fill="#c3e678" d="M29.241 32h-4.414c-0.305 0-0.552-0.247-0.552-0.552v-2.207c0-0.305 0.247-0.552 0.552-0.552h4.414c0.305 0 0.552 0.247 0.552 0.552v2.207c0 0.305-0.247 0.552-0.552 0.552z"></path>
<path fill="#a5d76e" d="M28.138 30.896h-2.207c-0.305 0-0.552-0.247-0.552-0.552v0c0-0.305 0.247-0.552 0.552-0.552h2.207c0.305 0 0.552 0.247 0.552 0.552v0c0 0.305-0.247 0.552-0.552 0.552z"></path>
<path fill="#ff6464" d="M7.172 32h-4.414c-0.305 0-0.552-0.247-0.552-0.552v-2.207c0-0.305 0.247-0.552 0.552-0.552h4.414c0.305 0 0.552 0.247 0.552 0.552v2.207c-0 0.305-0.247 0.552-0.552 0.552z"></path>
<path fill="#d2555a" d="M6.069 30.896h-2.207c-0.305 0-0.552-0.247-0.552-0.552v0c0-0.305 0.247-0.552 0.552-0.552h2.207c0.305 0 0.552 0.247 0.552 0.552v0c-0 0.305-0.247 0.552-0.552 0.552z"></path>
</svg>
</svg>
