<?xml version="1.0" encoding="UTF-8" standalone="no"?>
<!-- Created with Inkscape (http://www.inkscape.org/) -->

<svg
   xmlns:dc="http://purl.org/dc/elements/1.1/"
   xmlns:cc="http://creativecommons.org/ns#"
   xmlns:rdf="http://www.w3.org/1999/02/22-rdf-syntax-ns#"
   xmlns:svg="http://www.w3.org/2000/svg"
   xmlns="http://www.w3.org/2000/svg"
   xmlns:sodipodi="http://sodipodi.sourceforge.net/DTD/sodipodi-0.dtd"
   xmlns:inkscape="http://www.inkscape.org/namespaces/inkscape"
   width="10mm"
   height="10mm"
   viewBox="0 0 35.43307 35.43307"
   id="svg6558"
   version="1.1"
   inkscape:version="0.91 r13725"
   sodipodi:docname="Assestment.svg">
  <defs
     id="defs6560" />
  <sodipodi:namedview
     id="base"
     pagecolor="#ffffff"
     bordercolor="#666666"
     borderopacity="1.0"
     inkscape:pageopacity="0.0"
     inkscape:pageshadow="2"
     inkscape:zoom="22.4"
     inkscape:cx="32.079714"
     inkscape:cy="5.4056215"
     inkscape:document-units="px"
     inkscape:current-layer="g6529"
     showgrid="false"
     inkscape:window-width="1920"
     inkscape:window-height="1053"
     inkscape:window-x="-9"
     inkscape:window-y="-9"
     inkscape:window-maximized="1" />
  <metadata
     id="metadata6563">
    <rdf:RDF>
      <cc:Work
         rdf:about="">
        <dc:format>image/svg+xml</dc:format>
        <dc:type
           rdf:resource="http://purl.org/dc/dcmitype/StillImage" />
        <dc:title />
      </cc:Work>
    </rdf:RDF>
  </metadata>
  <g
     inkscape:label="Layer 1"
     inkscape:groupmode="layer"
     id="layer1"
     transform="translate(0,-1016.9291)">
    <g
       id="g6228"
       transform="translate(-75.356006,953.2204)">
      <g
         transform="matrix(1.0585611,0,0,1.0585611,157.54515,87.933899)"
         id="g6529">
        <path
           id="path4145"
           d="m -58.600394,1.047417 -6.138188,0 c -0.281336,0 -0.511519,-0.23018431 -0.511519,-0.51151954 l 0,-11.25343746 c 0,-0.281336 0.230183,-0.511519 0.511519,-0.511519 l 8.184318,0 c 0.281336,0 0.51152,0.230183 0.51152,0.511519 l 0,9.2073827 -2.55765,2.5575743 z"
           class="st1"
           inkscape:connector-curvature="0"
           style="fill:#fafafa;stroke:#242c88;stroke-width:0.1872597;stroke-miterlimit:4;stroke-dasharray:none;stroke-opacity:1" />
        <path
           id="path4147"
           d="m -58.600344,-0.9986368 0,2.0460538 2.5576,-2.5575743 -2.046079,0 c -0.282513,0 -0.511521,0.2290083 -0.511521,0.5115205 z"
           class="st2"
           inkscape:connector-curvature="0"
           style="fill:#bdbdbd;stroke:#242c88;stroke-width:0.1872597;stroke-linecap:round;stroke-linejoin:round;stroke-miterlimit:10;stroke-dasharray:none;stroke-opacity:1" />
        <line
           style="opacity:0.2;fill:none;stroke:#242c88;stroke-width:0.23912516;stroke-linecap:round;stroke-linejoin:round;stroke-miterlimit:10"
           class="st34"
           x1="-64.240219"
           x2="-60.575951"
           y1="-1.6310951"
           y2="-1.6310951"
           id="line4745-4" />
        <g
           id="g5469"
           transform="matrix(-0.09362985,0,0,0.09362985,-57.482341,-11.576199)">
          <path
             style="fill:#d3d5e7;fill-opacity:1"
             inkscape:connector-curvature="0"
             class="st9"
             d="m 105.22,113.5 c -2.12,0 -4.24,-0.81 -5.85,-2.42 L 77.23,88.94 C 74,85.71 74,80.47 77.23,77.23 80.46,74 85.7,74 88.94,77.23 l 22.14,22.14 c 3.23,3.23 3.23,8.47 0,11.71 -1.62,1.61 -3.74,2.42 -5.86,2.42 z"
             id="path5420-1" />
          <path
             id="path5422"
             d="m 99.37,111.08 c 1.62,1.62 3.73,2.42 5.85,2.42 2.12,0 4.24,-0.81 5.85,-2.42 3.23,-3.23 3.23,-8.47 0,-11.71 l -3,-3 -11.71,11.71 3.01,3 z"
             class="st3"
             inkscape:connector-curvature="0"
             style="fill:#ff7974;fill-opacity:1" />
          <g
             id="g5424">
            <path
               id="path5426"
               d="m 105.22,113.5 c -2.12,0 -4.24,-0.81 -5.85,-2.42 L 77.23,88.94 C 74,85.71 74,80.47 77.23,77.23 80.46,74 85.7,74 88.94,77.23 l 22.14,22.14 c 3.23,3.23 3.23,8.47 0,11.71 -1.62,1.61 -3.74,2.42 -5.86,2.42 z"
               class="st53"
               inkscape:connector-curvature="0"
               style="fill:none;stroke:#242c88;stroke-width:1.84800005;stroke-linecap:round;stroke-linejoin:round;stroke-miterlimit:10" />
            <path
               id="path5428"
               d="m 90.24,84.38 17.6,17.6 c 0.79,0.79 1.23,1.85 1.23,2.97 0,1.12 -0.44,2.17 -1.23,2.97"
               class="st53"
               inkscape:connector-curvature="0"
               style="fill:none;stroke:#242c88;stroke-width:1.84800005;stroke-linecap:round;stroke-linejoin:round;stroke-miterlimit:10" />
          </g>
          <path
             id="path5430"
             d="M 88.94,77.23 C 85.71,74 80.47,74 77.23,77.23 74,80.46 74,85.7 77.23,88.94 l 8.22,8.22 C 89.8,93.73 93.73,89.8 97.16,85.45 l -8.22,-8.22 z"
             class="st15"
             inkscape:connector-curvature="0"
             style="opacity:0.4;fill:#242c88" />
          <circle
             id="circle5432"
             r="42.130001"
             cy="57.130001"
             cx="57.130001"
             class="st7"
             style="fill:#589fff" />
          <path
             id="path5434"
             d="m 19.55,57.13 c 0,-20.75 16.82,-37.58 37.58,-37.58"
             class="st54"
             inkscape:connector-curvature="0"
             style="opacity:0.4;fill:none;stroke:#ffffff;stroke-width:7;stroke-linecap:round;stroke-linejoin:round;stroke-miterlimit:10" />
          <path
             id="path5436"
             d="m 94.71,57.13 c 0,20.75 -16.82,37.58 -37.58,37.58"
             class="st55"
             inkscape:connector-curvature="0"
             style="opacity:0.2;fill:none;stroke:#242c88;stroke-width:7;stroke-linecap:round;stroke-linejoin:round;stroke-miterlimit:10" />
          <path
             style="color:#000000;font-style:normal;font-variant:normal;font-weight:normal;font-stretch:normal;font-size:medium;line-height:normal;font-family:sans-serif;text-indent:0;text-align:start;text-decoration:none;text-decoration-line:none;text-decoration-style:solid;text-decoration-color:#000000;letter-spacing:normal;word-spacing:normal;text-transform:none;direction:ltr;block-progression:tb;writing-mode:lr-tb;baseline-shift:baseline;text-anchor:start;white-space:normal;clip-rule:nonzero;display:inline;overflow:visible;visibility:visible;opacity:1;isolation:auto;mix-blend-mode:normal;color-interpolation:sRGB;color-interpolation-filters:linearRGB;solid-color:#000000;solid-opacity:1;fill:#242c88;fill-opacity:1;fill-rule:nonzero;stroke:none;stroke-width:1.84800005;stroke-linecap:round;stroke-linejoin:round;stroke-miterlimit:10;stroke-dasharray:none;stroke-dashoffset:0;stroke-opacity:1;color-rendering:auto;image-rendering:auto;shape-rendering:auto;text-rendering:auto;enable-background:accumulate"
             d="m 57.130859,14.076172 c -23.767123,0 -43.054687,19.287564 -43.054687,43.054687 0,23.767124 19.287564,43.052731 43.054687,43.052731 23.767124,0 43.052731,-19.285607 43.052731,-43.052731 0,-23.767123 -19.285607,-43.054687 -43.052731,-43.054687 z m 0,1.847656 c 22.768391,0 41.205079,18.438641 41.205079,41.207031 0,22.768391 -18.436688,41.205079 -41.205079,41.205079 -22.76839,0 -41.207031,-18.436688 -41.207031,-41.205079 0,-22.76839 18.438641,-41.207031 41.207031,-41.207031 z"
             id="circle5438"
             inkscape:connector-curvature="0" />
          <path
             style="color:#000000;font-style:normal;font-variant:normal;font-weight:normal;font-stretch:normal;font-size:medium;line-height:normal;font-family:sans-serif;text-indent:0;text-align:start;text-decoration:none;text-decoration-line:none;text-decoration-style:solid;text-decoration-color:#000000;letter-spacing:normal;word-spacing:normal;text-transform:none;direction:ltr;block-progression:tb;writing-mode:lr-tb;baseline-shift:baseline;text-anchor:start;white-space:normal;clip-rule:nonzero;display:inline;overflow:visible;visibility:visible;opacity:1;isolation:auto;mix-blend-mode:normal;color-interpolation:sRGB;color-interpolation-filters:linearRGB;solid-color:#000000;solid-opacity:1;fill-opacity:1;fill-rule:nonzero;stroke:none;stroke-width:1;stroke-linecap:butt;stroke-linejoin:miter;stroke-miterlimit:4;stroke-dasharray:none;stroke-dashoffset:0;stroke-opacity:1;color-rendering:auto;image-rendering:auto;shape-rendering:auto;text-rendering:auto;enable-background:accumulate"
             d="m 57.130859,23.609375 c -18.506662,0 -33.521484,15.014822 -33.521484,33.521484 0,18.506663 15.014822,33.519532 33.521484,33.519532 18.506663,0 33.519532,-15.012869 33.519532,-33.519532 0,-18.506662 -15.012869,-33.521484 -33.519532,-33.521484 z m 0,1 c 17.966223,0 32.519532,14.555262 32.519532,32.521484 0,17.966223 -14.553309,32.519532 -32.519532,32.519532 -17.966222,0 -32.521484,-14.553309 -32.521484,-32.519532 0,-17.966222 14.555262,-32.521484 32.521484,-32.521484 z"
             id="circle5440"
             inkscape:connector-curvature="0" />
          <path
             style="color:#000000;font-style:normal;font-variant:normal;font-weight:normal;font-stretch:normal;font-size:medium;line-height:normal;font-family:sans-serif;text-indent:0;text-align:start;text-decoration:none;text-decoration-line:none;text-decoration-style:solid;text-decoration-color:#000000;letter-spacing:normal;word-spacing:normal;text-transform:none;direction:ltr;block-progression:tb;writing-mode:lr-tb;baseline-shift:baseline;text-anchor:start;white-space:normal;clip-rule:nonzero;display:inline;overflow:visible;visibility:visible;opacity:1;isolation:auto;mix-blend-mode:normal;color-interpolation:sRGB;color-interpolation-filters:linearRGB;solid-color:#000000;solid-opacity:1;fill-opacity:1;fill-rule:nonzero;stroke:none;stroke-width:1;stroke-linecap:butt;stroke-linejoin:miter;stroke-miterlimit:4;stroke-dasharray:none;stroke-dashoffset:0;stroke-opacity:1;color-rendering:auto;image-rendering:auto;shape-rendering:auto;text-rendering:auto;enable-background:accumulate"
             d="m 57.130859,23.609375 c -18.506662,0 -33.521484,15.014822 -33.521484,33.521484 0,18.506663 15.014822,33.519532 33.521484,33.519532 18.506663,0 33.519532,-15.012869 33.519532,-33.519532 0,-18.506662 -15.012869,-33.521484 -33.519532,-33.521484 z m 0,1 c 17.966223,0 32.519532,14.555262 32.519532,32.521484 0,17.966223 -14.553309,32.519532 -32.519532,32.519532 -17.966222,0 -32.521484,-14.553309 -32.521484,-32.519532 0,-17.966222 14.555262,-32.521484 32.521484,-32.521484 z"
             id="circle5442"
             inkscape:connector-curvature="0" />
          <path
             id="path5444"
             d="m 74.94,29.33 c 3.3,5.14 5.22,11.25 5.22,17.81 0,18.24 -14.78,33.02 -33.02,33.02 -6.56,0 -12.67,-1.92 -17.81,-5.22 5.87,9.15 16.13,15.22 27.81,15.22 18.24,0 33.02,-14.78 33.02,-33.02 0,-11.69 -6.07,-21.94 -15.22,-27.81 z"
             class="st56"
             inkscape:connector-curvature="0"
             style="opacity:0.07000002;fill:#242c88" />
          <circle
             id="circle5446"
             r="33.02"
             cy="57.130001"
             cx="57.130001"
             class="st53"
             style="fill:none;stroke:#242c88;stroke-width:1.84800005;stroke-linecap:round;stroke-linejoin:round;stroke-miterlimit:10" />
          <path
             id="path5448"
             d="m 36.13,41.48 c 4.78,-6.39 12.4,-10.53 21,-10.53"
             class="st57"
             inkscape:connector-curvature="0"
             style="fill:none;stroke:#ffffff;stroke-width:4;stroke-linecap:round;stroke-linejoin:round;stroke-miterlimit:10" />
          <path
             id="path5450"
             d="m 30.94,57.13 c 0,-3.62 0.73,-7.06 2.06,-10.19"
             class="st57"
             inkscape:connector-curvature="0"
             style="fill:none;stroke:#ffffff;stroke-width:4;stroke-linecap:round;stroke-linejoin:round;stroke-miterlimit:10" />
          <line
             id="line5452"
             y2="96.370003"
             y1="108.08"
             x2="108.08"
             x1="96.370003"
             class="st53"
             style="fill:none;stroke:#242c88;stroke-width:1.84800005;stroke-linecap:round;stroke-linejoin:round;stroke-miterlimit:10" />
        </g>
        <path
           style="fill:#54c0eb;fill-opacity:1;stroke:none"
           inkscape:connector-curvature="0"
           class="st6"
           d="m -62.844342,-7.8660483 c -0.155719,0.00105 -0.314665,0.027305 -0.44602,0.1146975 -0.166776,0.1080985 -0.261338,0.3053007 -0.271629,0.5006304 -0.0026,0.1167845 -0.0038,0.2334436 -0.0051,0.3500848 -0.05379,0.00678 -0.06938,0.063333 -0.07114,0.1094542 -0.02169,0.1957229 0.07059,0.3865762 0.20118,0.5269554 0.03399,0.1287158 0.09158,0.2529729 0.18181,0.3521185 -0.260784,0.1594993 -0.479531,0.2644762 -0.753478,0.3974193 -0.09822,0.043678 -0.181134,0.1174615 -0.241149,0.2062984 -0.107028,0.1574658 -0.173678,0.3400262 -0.207279,0.5268131 -0.01191,0.066578 -0.02722,0.1342802 -0.02031,0.2023565 0.01612,0.059551 0.0783,0.087909 0.131551,0.1070283 0.16271,0.050456 0.332196,0.072821 0.500328,0.097113 0.206067,0.033369 0.344878,0.051543 0.553226,0.063457 0.149245,0.00715 0.298631,0.012396 0.448054,0.012574 l 0,-3.5669996 z"
           id="path4157" />
        <path
           style="fill:#324a5e;fill-opacity:1;stroke:none"
           inkscape:connector-curvature="0"
           class="st7"
           d="m -62.844325,-7.8660483 c 0.155718,0.00105 0.314665,0.027305 0.44602,0.1146975 0.166777,0.1080985 0.261338,0.3053007 0.271629,0.5006304 0.0026,0.1167845 0.0038,0.2334436 0.0051,0.3500848 0.05379,0.00678 0.06938,0.063333 0.07114,0.1094542 0.02169,0.1957229 -0.07059,0.3865762 -0.20118,0.5269554 -0.03399,0.1287158 -0.09158,0.2529729 -0.18181,0.3521185 0.260784,0.1594993 0.479532,0.2644762 0.753461,0.3974193 0.09822,0.043678 0.181132,0.1174615 0.241148,0.2062984 0.107028,0.1574658 0.173678,0.3400262 0.207279,0.5268131 0.01191,0.066578 0.02722,0.1342802 0.02031,0.2023565 -0.01612,0.059551 -0.0783,0.087909 -0.131552,0.1070283 -0.16271,0.050456 -0.332197,0.072821 -0.500328,0.097113 -0.206066,0.033369 -0.344877,0.051543 -0.553227,0.063457 -0.149225,0.00717 -0.298613,0.012413 -0.448035,0.012591 l 0,-3.5670173 z"
           id="path4159" />
        <line
           style="opacity:0.2;fill:none;stroke:#242c88;stroke-width:0.23912516;stroke-linecap:round;stroke-linejoin:round;stroke-miterlimit:10"
           class="st34"
           x1="-64.227875"
           x2="-60.563606"
           y1="-1.16106"
           y2="-1.16106"
           id="line4745-4-1" />
        <line
           style="opacity:0.2;fill:none;stroke:#242c88;stroke-width:0.23912516;stroke-linecap:round;stroke-linejoin:round;stroke-miterlimit:10"
           class="st34"
           x1="-64.234795"
           x2="-60.57053"
           y1="-0.70200861"
           y2="-0.70200861"
           id="line4745-4-7" />
        <path
           id="path5450-0"
           d="m -56.301544,-10.710691 c -0.08998,-0.25371 -0.19481,-0.259691 -0.307024,-0.300258"
           class="st57"
           inkscape:connector-curvature="0"
           style="fill:none;stroke:#f0eded;stroke-width:0.16523033;stroke-linecap:round;stroke-linejoin:round;stroke-miterlimit:10;stroke-opacity:1"
           sodipodi:nodetypes="cc" />
        <path
           id="path5450-0-8"
           d="m -56.300426,-10.006668 -0.0071,-0.429382"
           class="st57"
           inkscape:connector-curvature="0"
           style="fill:none;stroke:#f0eded;stroke-width:0.16523033;stroke-linecap:round;stroke-linejoin:round;stroke-miterlimit:10;stroke-opacity:1"
           sodipodi:nodetypes="cc" />
      </g>
    </g>
  </g>
</svg>
