<?xml version="1.0" encoding="UTF-8" standalone="no"?>
<!-- Created with Inkscape (http://www.inkscape.org/) -->

<svg
   xmlns:dc="http://purl.org/dc/elements/1.1/"
   xmlns:cc="http://creativecommons.org/ns#"
   xmlns:rdf="http://www.w3.org/1999/02/22-rdf-syntax-ns#"
   xmlns:svg="http://www.w3.org/2000/svg"
   xmlns="http://www.w3.org/2000/svg"
   xmlns:sodipodi="http://sodipodi.sourceforge.net/DTD/sodipodi-0.dtd"
   xmlns:inkscape="http://www.inkscape.org/namespaces/inkscape"
   width="10mm"
   height="10mm"
   viewBox="0 0 35.43307 35.43307"
   id="svg6558"
   version="1.1"
   inkscape:version="0.91 r13725"
   sodipodi:docname="Awward.svg">
  <defs
     id="defs6560" />
  <sodipodi:namedview
     id="base"
     pagecolor="#ffffff"
     bordercolor="#666666"
     borderopacity="1.0"
     inkscape:pageopacity="0.0"
     inkscape:pageshadow="2"
     inkscape:zoom="5.6"
     inkscape:cx="17.844033"
     inkscape:cy="28.832559"
     inkscape:document-units="px"
     inkscape:current-layer="layer1"
     showgrid="false"
     inkscape:window-width="727"
     inkscape:window-height="662"
     inkscape:window-x="2"
     inkscape:window-y="0"
     inkscape:window-maximized="0" />
  <metadata
     id="metadata6563">
    <rdf:RDF>
      <cc:Work
         rdf:about="">
        <dc:format>image/svg+xml</dc:format>
        <dc:type
           rdf:resource="http://purl.org/dc/dcmitype/StillImage" />
        <dc:title></dc:title>
      </cc:Work>
    </rdf:RDF>
  </metadata>
  <g
     inkscape:label="Layer 1"
     inkscape:groupmode="layer"
     id="layer1"
     transform="translate(0,-1016.9291)">
    <g
       id="g7621"
       transform="matrix(0.0957447,0,0,0.0957447,-10.73478,1027.4871)">
      <path
         id="path5820"
         d="m 271.68774,72.582664 -24.73165,0 -0.0914,-0.152287 -28.90435,-43.798153 c 5.84788,-3.685378 12.244,-6.609322 19.03606,-8.619517 l 22.2341,33.686196 12.36583,18.731474 0.0914,0.152287 z"
         inkscape:connector-curvature="0"
         style="fill:#ff5751;fill-opacity:1;stroke:#232c89;stroke-width:2;stroke-miterlimit:4;stroke-dasharray:none;stroke-opacity:0.8627451" />
      <g
         style="stroke:#242c88;stroke-width:3.28324366;stroke-miterlimit:4;stroke-dasharray:none;stroke-opacity:1"
         transform="matrix(0.30457685,0,0,0.30457685,180.86292,15.809539)"
         id="g5822">
        <path
           id="path5824"
           d="m 299.3,212.2 -86.5,0 c -9.4,0 -17,-7.6 -17,-17 0,-9.4 7.6,-17 17,-17 l 86.5,0 c 9.4,0 17,7.6 17,17 -0.1,9.4 -7.7,17 -17,17 z m -86.6,-26.1 c -5,0 -9.1,4.1 -9.1,9.1 0,5 4.1,9.1 9.1,9.1 l 86.5,0 c 5,0 9.1,-4.1 9.1,-9.1 0,-5 -4.1,-9.1 -9.1,-9.1 l -86.5,0 z"
           inkscape:connector-curvature="0"
           style="fill:#ffd05b;stroke:#242c88;stroke-width:3.28324366;stroke-miterlimit:4;stroke-dasharray:none;stroke-opacity:1" />
      </g>
      <path
         id="path5826"
         d="m 259.99198,85.039855 -2.31478,0 c -1.24876,0 -2.25387,-1.005106 -2.25387,-2.253866 l 0,-4.538198 c 0,-1.888373 1.52289,-3.41126 3.41126,-3.41126 l 0,0 c 1.88838,0 3.41127,1.522887 3.41127,3.41126 l 0,4.538198 c 0,1.24876 -1.00511,2.253866 -2.25388,2.253866 z"
         inkscape:connector-curvature="0"
         style="fill:#f9b54c;stroke:#242c88;stroke-width:1;stroke-miterlimit:4;stroke-dasharray:none;stroke-opacity:1" />
      <circle
         id="circle5828"
         r="36.031441"
         cy="118.33014"
         cx="258.83459"
         style="fill:#ffd05b;stroke:#242c88;stroke-width:2;stroke-miterlimit:4;stroke-dasharray:none;stroke-opacity:1" />
      <circle
         id="circle5830"
         r="28.447477"
         cy="118.33014"
         cx="258.83459"
         style="fill:#f9b54c" />
      <circle
         id="circle5832"
         r="23.14784"
         cy="118.33014"
         cx="258.83459"
         style="fill:#ffd05b" />
      <polygon
         transform="matrix(0.30457685,0,0,0.30457685,180.86292,15.809539)"
         id="polygon5834"
         points="256,280.2 273.3,315.2 311.9,320.8 283.9,348 290.5,386.5 256,368.3 221.5,386.5 228.1,348 200.1,320.8 238.7,315.2 "
         style="fill:#f9b54c" />
      <path
         id="path5836"
         d="m 300.25705,28.997718 -28.66069,43.432659 -0.12183,0.152287 -24.73164,0 0.12183,-0.152287 12.36582,-18.731474 22.11229,-33.472998 c 6.73114,2.04066 13.09679,5.025515 18.91422,8.771813 z"
         inkscape:connector-curvature="0"
         style="fill:#ff7974;fill-opacity:1;stroke:#232c89;stroke-width:2;stroke-miterlimit:4;stroke-dasharray:none;stroke-opacity:0.8627451" />
      <path
         sodipodi:nodetypes="cc"
         style="fill:none;stroke:#ffffff;stroke-width:2.43661499;stroke-linecap:round;stroke-linejoin:round;stroke-miterlimit:10;stroke-dasharray:none"
         inkscape:connector-curvature="0"
         class="st57"
         d="m 279.97222,142.87563 c 4.06037,-2.51175 8.35814,-8.9776 8.90099,-11.603"
         id="path5448-7" />
      <path
         sodipodi:nodetypes="cc"
         style="fill:none;stroke:#ffffff;stroke-width:2.43661499;stroke-linecap:round;stroke-linejoin:round;stroke-miterlimit:10;stroke-dasharray:none"
         inkscape:connector-curvature="0"
         class="st57"
         d="m 275.1173,146.86592 2.40201,-1.49831"
         id="path5448-7-6" />
      <line
         style="opacity:0.2;fill:none;stroke:#ffffff;stroke-width:2.43661499;stroke-linecap:round;stroke-linejoin:round;stroke-miterlimit:10"
         class="st48"
         x1="269.58249"
         x2="282.7243"
         y1="70.557076"
         y2="51.132641"
         id="line5108-5" />
      <line
         style="opacity:0.2;fill:none;stroke:#ffffff;stroke-width:2.43661499;stroke-linecap:round;stroke-linejoin:round;stroke-miterlimit:10;stroke-dasharray:none"
         class="st48"
         x1="284.30225"
         x2="288.11075"
         y1="48.683529"
         y2="42.74551"
         id="line5108-5-6" />
      <line
         style="opacity:0.2;fill:none;stroke:#ffffff;stroke-width:2.43661499;stroke-linecap:round;stroke-linejoin:round;stroke-miterlimit:10;stroke-dasharray:none"
         class="st48"
         x1="286.99939"
         x2="290.80789"
         y1="79.523857"
         y2="73.585838"
         id="line5108-5-6-4" />
    </g>
  </g>
</svg>
