<?xml version="1.0" encoding="UTF-8" standalone="no"?>
<!-- Created with Inkscape (http://www.inkscape.org/) -->

<svg
   xmlns:dc="http://purl.org/dc/elements/1.1/"
   xmlns:cc="http://creativecommons.org/ns#"
   xmlns:rdf="http://www.w3.org/1999/02/22-rdf-syntax-ns#"
   xmlns:svg="http://www.w3.org/2000/svg"
   xmlns="http://www.w3.org/2000/svg"
   xmlns:sodipodi="http://sodipodi.sourceforge.net/DTD/sodipodi-0.dtd"
   xmlns:inkscape="http://www.inkscape.org/namespaces/inkscape"
   width="10mm"
   height="10mm"
   viewBox="0 0 35.43307 35.43307"
   id="svg6558"
   version="1.1"
   inkscape:version="0.91 r13725"
   sodipodi:docname="Claim.svg">
  <defs
     id="defs6560" />
  <sodipodi:namedview
     id="base"
     pagecolor="#ffffff"
     bordercolor="#666666"
     borderopacity="1.0"
     inkscape:pageopacity="0.0"
     inkscape:pageshadow="2"
     inkscape:zoom="31.678384"
     inkscape:cx="21.317315"
     inkscape:cy="14.288456"
     inkscape:document-units="px"
     inkscape:current-layer="g6979"
     showgrid="false"
     inkscape:window-width="1920"
     inkscape:window-height="1053"
     inkscape:window-x="-9"
     inkscape:window-y="-9"
     inkscape:window-maximized="1" />
  <metadata
     id="metadata6563">
    <rdf:RDF>
      <cc:Work
         rdf:about="">
        <dc:format>image/svg+xml</dc:format>
        <dc:type
           rdf:resource="http://purl.org/dc/dcmitype/StillImage" />
        <dc:title />
      </cc:Work>
    </rdf:RDF>
  </metadata>
  <g
     inkscape:label="Layer 1"
     inkscape:groupmode="layer"
     id="layer1"
     transform="translate(0,-1016.9291)">
    <g
       transform="matrix(0.57683915,0,0,0.57683915,-1715.6371,698.46963)"
       style="fill:#23cd3f;fill-opacity:1"
       id="g4230">
      <g
         id="g6979"
         transform="matrix(0.78473865,0,0,0.78473865,907.89176,235.5626)">
        <g
           id="g12"
           style="fill-rule:evenodd;stroke:#242c88;stroke-width:0;stroke-miterlimit:4;stroke-dasharray:none;stroke-opacity:1"
           transform="matrix(1.6374806e-4,0,0,1.6374806e-4,2652.1127,423.1231)">
          <path
             sodipodi:nodetypes="cssssccscssscccsccccccc"
             style="fill:#fed298;stroke:#242c88;stroke-width:0;stroke-miterlimit:4;stroke-dasharray:none;stroke-opacity:1"
             inkscape:connector-curvature="0"
             class="fil1"
             d="m 115014,137624 c 6920,2008 28559.23,5842.3 36624.92,7615 0,0 1525.77,234.16 2120.21,955.64 1003.84,1218.38 656.22,1763.29 -670.03,4277.91 -1326.25,2514.63 -4016.1,5426.95 -7879.1,6310.45 -7726,1767 -28394,-2289 -28394,-2289 0,0 -3768,3705 2879,4940 6648,1236 30785.49,2066.99 39186,533 12811.7,-2339.5 33405,-15827 39157,-17948 2876,-1060 5167.5,-266 6740,793 1572.5,1059 2899.01,2009.94 2426,2383 -942.96,743.7 -3635.43,3000.47 -3635.43,3000.47 -9786.14,8076.91 -35852.89,28886.06 -38400.57,30086.53 -3596,2648 -63417,7801 -63417,7801 l -13371.426,1166.23 c 0,0 -3650.362,74.44 -4353.574,635.77 -838.697,669.48 -2177.845,2289.23 -2177.845,2289.23 L 77018,195381 73872,199942 41901,173660 67406,155549 c 10056,-16866 33769,-21939 47610,-17923 z"
             id="path14" />
          <path
             sodipodi:nodetypes="ccsccssccsc"
             style="fill:#ffffff;stroke:#242c88;stroke-width:0;stroke-miterlimit:4;stroke-dasharray:none;stroke-opacity:1"
             inkscape:connector-curvature="0"
             class="fil3"
             d="m 143965.59,146400.95 -177.18,1090.13 c 0,0 -218.85,1222.97 88.05,1355.36 805.04,347.29 4199.03,501.23 4199.03,501.23 l 1723.77,73.8 1723.76,73.79 c 441.78,18.91 554.3,-696.25 711.23,-1142.75 156.93,-446.5 475.75,-1338.19 75.98,-1639.25 l -2492.02,-465.59 c 0,0 -3222.66,-526.41 -5409.57,-642.41 -437.6,-23.21 -443.05,795.69 -443.05,795.69 z"
             id="path18" />
          <path
             sodipodi:nodetypes="scccssccs"
             style="fill:#ffffff;stroke:#242c88;stroke-width:0;stroke-miterlimit:4;stroke-dasharray:none;stroke-opacity:1"
             inkscape:connector-curvature="0"
             class="fil3"
             d="m 201377.33,147681.9 c -27.35,235.26 201.17,538.1 201.17,538.1 l 488.5,516 4269,-3050 c 141.5,-304.5 -104.62,-549.64 -401.74,-671.76 -297.13,-122.13 -531.66,-282.1 -676.52,-152.5 -239.47,214.25 -549.62,437.06 -549.62,437.06 l -3144.02,2093.72 c 0,0 -164.93,101.56 -186.77,289.38 z"
             id="path20-4" />
        </g>
        <path
           style="fill:#ff5751;fill-opacity:1;fill-rule:evenodd;stroke:#242c88;stroke-width:0;stroke-miterlimit:4;stroke-dasharray:none;stroke-opacity:1"
           inkscape:connector-curvature="0"
           class="fil3"
           d="m 2659.5684,449.82816 4.7209,6.15043 c 0,0 0.1175,0.1572 0.1627,0.33851 0.066,0.26711 -0.2974,0.53732 -0.2974,0.53732 l -0.6592,0.65313 -5.4854,-6.86164 1.1791,-0.8476 c 0,0 0.17,-0.12006 0.2271,-0.11054 0.054,0.009 0.1522,0.14039 0.1522,0.14039 z"
           id="path22"
           sodipodi:nodetypes="ccsccccsc" />
        <path
           sodipodi:nodetypes="scccsccscscs"
           id="path24-0"
           d="m 2655.4807,452.81285 c 0.02,-0.13152 0.2016,-0.27909 0.2016,-0.27909 l 2.2285,-1.81459 5.7659,6.86578 c 0,0 0.4137,0.39563 0.4094,0.58277 0,0.10765 -0.2426,0.31469 -0.2426,0.31469 l -0.7348,0.63318 c 0,0 -0.1702,0.13604 -0.2574,0.14092 -0.1394,0.008 -1.1146,-0.65426 -1.1146,-0.65426 l -2.8228,-1.89927 c -1.2831,-0.8633 -2.2356,-2.16382 -3.2897,-3.5216 0,0 -0.1666,-0.21689 -0.1435,-0.36853 z"
           class="fil4"
           inkscape:connector-curvature="0"
           style="fill:#fa9800;fill-opacity:1;fill-rule:evenodd;stroke:#242c88;stroke-width:0;stroke-miterlimit:4;stroke-dasharray:none;stroke-opacity:1" />
        <rect
           transform="matrix(0.64512838,0.76407419,-0.76407419,0.64512838,0,0)"
           ry="0.53305978"
           y="-1739.6195"
           x="2059.5005"
           height="1.0661196"
           width="6.2283831"
           id="rect5453"
           style="opacity:0.98999999;fill:#f2b960;fill-opacity:1;fill-rule:evenodd;stroke:none;stroke-width:0;stroke-miterlimit:4;stroke-dasharray:none" />
        <rect
           transform="matrix(0.62468068,0.78088031,-0.78088031,0.62468068,0,0)"
           ry="0.39792305"
           y="-1795.2892"
           x="2015.8918"
           height="0.7958461"
           width="4.6494179"
           id="rect5453-7"
           style="opacity:0.98999999;fill:#f07e7a;fill-opacity:1;fill-rule:evenodd;stroke:none;stroke-width:0;stroke-miterlimit:4;stroke-dasharray:none" />
        <path
           inkscape:connector-curvature="0"
           id="circle5470"
           d="m 2669.4672,445.7597 c -2.1791,0.0115 -4.8305,0.99054 -6.1169,3.14817 l -1.7531,1.24473 a 6.5347698,6.5347698 0 0 0 3.3646,0.94202 6.5347698,6.5347698 0 0 0 6.3627,-5.07259 c -0.059,-0.0165 -0.1218,-0.0329 -0.1785,-0.0494 l 3e-4,2.9e-4 c -0.4958,-0.14385 -1.0689,-0.21647 -1.6791,-0.21325 z"
           style="fill:#ffd9a5;fill-opacity:1;fill-rule:evenodd;stroke:none;stroke-width:0;stroke-miterlimit:4;stroke-dasharray:none" />
        <path
           inkscape:connector-curvature="0"
           id="rect5488"
           d="m 2667.3081,451.50964 c -1.0163,0 -1.8344,0.8181 -1.8344,1.83438 0,0.18123 -0.074,0.39606 -0.025,0.56117 l 0.3666,-0.32505 2.9025,-0.29505 c 0,0 9.7955,-0.84384 10.3843,-1.27744 0.06,-0.0441 0.2126,-0.1624 0.3774,-0.29026 -0.2539,-0.13252 -0.5428,-0.20775 -0.8502,-0.20775 z"
           style="opacity:0.98999999;fill:#ffd9a5;fill-opacity:1;fill-rule:evenodd;stroke:none;stroke-width:0;stroke-miterlimit:4;stroke-dasharray:none"
           sodipodi:nodetypes="sscccccss" />
        <g
           transform="matrix(3.1996606e-4,0,0,3.1996606e-4,2665.0817,415.62574)"
           style="fill-rule:evenodd;stroke-width:0;stroke-miterlimit:4;stroke-dasharray:none"
           id="g5874">
          <circle
             class="cls-5"
             cx="42571.074"
             cy="79704.57"
             r="13267.048"
             id="circle21-8"
             style="fill:#fdc100;fill-opacity:1;stroke:#242c88;stroke-width:0;stroke-miterlimit:4;stroke-dasharray:none;stroke-opacity:1" />
          <circle
             class="cls-6"
             cx="42690.496"
             cy="79770.906"
             r="10613.637"
             id="circle23-7"
             style="fill:#fa9800;fill-opacity:1;stroke:#242c88;stroke-width:0;stroke-miterlimit:4;stroke-dasharray:none;stroke-opacity:1" />
          <path
             inkscape:connector-curvature="0"
             class="cls-7"
             d="M 38843.055,84772.596"
             id="path25-9"
             style="stroke:#0000ff;stroke-width:0;stroke-miterlimit:4;stroke-dasharray:none;stroke-opacity:1" />
          <path
             sodipodi:nodetypes="cscccsssccc"
             inkscape:connector-curvature="0"
             id="path5591"
             d="m 42709.034,69854.42 c -2613.405,0 -5099.382,939.317 -6947.338,2787.273 -1847.956,1847.956 -2886.131,4354.32 -2886.135,6967.725 4.48,2370.077 863.046,4659.139 2418.308,6447.562 89.7,5.669 179.461,10.287 269.26,13.86 1560.262,0 3105.237,-316.565 4546.725,-931.578 1441.487,-615.008 2751.25,-1516.439 3854.511,-2652.818 1103.257,-1136.373 1978.409,-2485.448 2575.485,-3970.187 597.073,-1484.743 904.377,-3076.073 904.368,-4683.141 -2.903,-1033.487 49.983,-1676.73 -204.002,-2676.564 -1346.471,-663.672 -3030.038,-1297.777 -4531.182,-1302.132 z"
             style="opacity:0.98999999;fill:#f7ae3b;fill-opacity:1;stroke:none;stroke-width:0;stroke-miterlimit:4;stroke-dasharray:none" />
        </g>
        <g
           style="fill-rule:evenodd;stroke-width:0;stroke-miterlimit:4;stroke-dasharray:none"
           id="g5880"
           transform="matrix(0,2.6259479e-4,-2.6259479e-4,0,2690.7517,426.66917)">
          <circle
             style="fill:#fdc100;fill-opacity:1;stroke:#242c88;stroke-width:0;stroke-miterlimit:4;stroke-dasharray:none;stroke-opacity:1"
             id="circle5882"
             r="13267.048"
             cy="79704.57"
             cx="42571.074"
             class="cls-5" />
          <circle
             style="fill:#fa9800;fill-opacity:1;stroke:#242c88;stroke-width:0;stroke-miterlimit:4;stroke-dasharray:none;stroke-opacity:1"
             id="circle5884"
             r="10613.637"
             cy="79770.906"
             cx="42690.496"
             class="cls-6" />
          <path
             style="stroke:#0000ff;stroke-width:0;stroke-miterlimit:4;stroke-dasharray:none;stroke-opacity:1"
             id="path5886"
             d="M 38843.055,84772.596"
             class="cls-7"
             inkscape:connector-curvature="0" />
          <path
             style="opacity:0.98999999;fill:#f7ae3b;fill-opacity:1;stroke:none;stroke-width:0;stroke-miterlimit:4;stroke-dasharray:none"
             d="m 42709.034,69854.42 c -2613.405,0 -5099.382,939.317 -6947.338,2787.273 -1847.956,1847.956 -2886.131,4354.32 -2886.135,6967.725 4.48,2370.077 863.046,4659.139 2418.308,6447.562 89.7,5.669 179.461,10.287 269.26,13.86 1560.262,0 3105.237,-316.565 4546.725,-931.578 1441.487,-615.008 2751.25,-1516.439 3854.511,-2652.818 1103.257,-1136.373 1978.409,-2485.448 2575.485,-3970.187 597.073,-1484.743 904.377,-3076.073 904.368,-4683.141 -2.903,-1033.487 49.983,-1676.73 -204.002,-2676.564 -1346.471,-663.672 -3030.038,-1297.777 -4531.182,-1302.132 z"
             id="path5888"
             inkscape:connector-curvature="0"
             sodipodi:nodetypes="cscccsssccc" />
        </g>
      </g>
    </g>
  </g>
</svg>
