<?xml version="1.0" encoding="UTF-8" standalone="no"?>
<!-- Created with Inkscape (http://www.inkscape.org/) -->

<svg
   xmlns:dc="http://purl.org/dc/elements/1.1/"
   xmlns:cc="http://creativecommons.org/ns#"
   xmlns:rdf="http://www.w3.org/1999/02/22-rdf-syntax-ns#"
   xmlns:svg="http://www.w3.org/2000/svg"
   xmlns="http://www.w3.org/2000/svg"
   xmlns:sodipodi="http://sodipodi.sourceforge.net/DTD/sodipodi-0.dtd"
   xmlns:inkscape="http://www.inkscape.org/namespaces/inkscape"
   width="10mm"
   height="10mm"
   viewBox="0 0 35.43307 35.43307"
   id="svg6558"
   version="1.1"
   inkscape:version="0.91 r13725"
   sodipodi:docname="Industrial.svg">
  <defs
     id="defs6560" />
  <sodipodi:namedview
     id="base"
     pagecolor="#ffffff"
     bordercolor="#666666"
     borderopacity="1.0"
     inkscape:pageopacity="0.0"
     inkscape:pageshadow="2"
     inkscape:zoom="5.6"
     inkscape:cx="17.844033"
     inkscape:cy="28.832559"
     inkscape:document-units="px"
     inkscape:current-layer="layer1"
     showgrid="false"
     inkscape:window-width="727"
     inkscape:window-height="662"
     inkscape:window-x="2"
     inkscape:window-y="0"
     inkscape:window-maximized="0" />
  <metadata
     id="metadata6563">
    <rdf:RDF>
      <cc:Work
         rdf:about="">
        <dc:format>image/svg+xml</dc:format>
        <dc:type
           rdf:resource="http://purl.org/dc/dcmitype/StillImage" />
        <dc:title></dc:title>
      </cc:Work>
    </rdf:RDF>
  </metadata>
  <g
     inkscape:label="Layer 1"
     inkscape:groupmode="layer"
     id="layer1"
     transform="translate(0,-1016.9291)">
    <g
       style="fill-rule:evenodd;stroke:#242c88;stroke-width:0.02222222;stroke-miterlimit:4;stroke-dasharray:none;stroke-opacity:1"
       id="g10629"
       transform="matrix(0.24191227,0,0,0.24191227,9.799746,1028.8003)">
      <g
         id="g10633"
         style="fill:#bc8d66;fill-opacity:1;stroke:#074370;stroke-width:0.72257954;stroke-miterlimit:4;stroke-dasharray:none;stroke-opacity:1">
        <g
           id="g10635"
           style="fill:#bc8d66;fill-opacity:1;stroke:#074370;stroke-width:0.72257954;stroke-miterlimit:4;stroke-dasharray:none;stroke-opacity:1">
          <path
             style="fill:#bc8d66;fill-opacity:1;stroke:#074370;stroke-width:0.72257954;stroke-miterlimit:4;stroke-dasharray:none;stroke-opacity:1"
             inkscape:connector-curvature="0"
             class="st0"
             d="m 43,37.8 c -0.4,-0.4 -1,-0.7 -1.7,-0.7 l -19.9,0 c -1.3,0 -2.4,1.1 -2.4,2.4 0,0.7 0.3,1.3 0.7,1.7 0.4,0.4 1,0.7 1.7,0.7 l 2.5,0 0,13.8 14.9,0 0,-13.7 2.5,0 c 1.3,0 2.4,-1.1 2.4,-2.4 0,-0.7 -0.2,-1.3 -0.7,-1.8 z m -6.7,15.5 -9.9,0 0,-11.5 9.9,0 0,11.5 z"
             id="path10637" />
        </g>
      </g>
      <g
         id="g10639"
         style="fill:#3b4652;fill-opacity:1">
        <path
           style="fill:#3b4652;fill-opacity:1"
           inkscape:connector-curvature="0"
           class="st0"
           d="m 15.2,24.3 c 0,2.2 -1.6,3.9 -3.8,3.9 -2.2,0 -3.9,-1.6 -3.9,-3.8 0,-2.1 1.7,-3.9 3.8,-3.9 2.2,0 3.9,1.7 3.9,3.8 z"
           id="path10641" />
        <path
           sodipodi:nodetypes="cc"
           id="path5448-782-1-3"
           d="m 14.755209,24.429768 c 0.08453,-0.844273 -0.593438,-1.963359 -0.593438,-1.963359"
           class="st57"
           inkscape:connector-curvature="0"
           style="fill:none;stroke:#ffffff;stroke-width:0.23011638;stroke-linecap:round;stroke-linejoin:round;stroke-miterlimit:10;stroke-dasharray:none;stroke-opacity:1" />
      </g>
      <g
         id="g10643"
         style="fill:#f4b459;fill-opacity:1;stroke:#074370;stroke-width:0.72257954;stroke-miterlimit:4;stroke-dasharray:none;stroke-opacity:1">
        <path
           style="fill:#f4b459;fill-opacity:1;stroke:#074370;stroke-width:0.72257954;stroke-miterlimit:4;stroke-dasharray:none;stroke-opacity:1"
           inkscape:connector-curvature="0"
           class="st0"
           d="m 13.6,54.2 c 1,0 1.9,0 2.9,-0.1 0.9,0 1.7,-0.1 2.5,-0.1 1,0 1.8,-0.8 1.8,-1.8 0,-1 -0.8,-1.7 -1.8,-1.7 -0.9,0 -1.8,0 -2.7,0.1 -2,0.1 -4,0.2 -5.7,-0.2 C 9.3,50.1 8,49.2 7.2,48 6.4,46.9 6.2,45.6 6,44 6,43.8 5.9,43.5 5.9,43.3 L 4.7,35.5 c -0.1,-1 -1.1,-1.6 -2,-1.5 -1,0.1 -1.6,1.1 -1.5,2 l 1.2,7.8 c 0,0.2 0.1,0.5 0.1,0.7 0.3,1.8 0.5,3.7 1.8,5.5 1.4,1.9 3.4,3.3 5.6,3.8 1.2,0.3 2.4,0.4 3.7,0.4 z"
           id="path10645" />
      </g>
      <g
         id="g10647">
        <path
           style="fill:#3b4652;fill-opacity:1"
           inkscape:connector-curvature="0"
           class="st0"
           d="m 23.9,32.6 -2.3,0 c -0.6,0 -1.4,0 -2.1,0 -0.3,0 -0.6,-0.1 -0.9,-0.2 -1.1,-0.7 -2.2,-1.3 -3.5,-2.1 -0.8,-0.5 -1.9,-1.1 -4,-0.9 0,0 -0.1,0 -0.1,0 -2.1,0.2 -3.5,2 -3.4,4.2 0,0.1 0,0.3 0,0.4 0.2,3.3 0.5,6.6 0.6,9.9 0,1.3 0.3,2.3 0.9,3.1 0.8,1.1 2.2,1.6 4.1,1.6 1.5,0 3,0 4.4,0 0.6,0 1.2,0 1.9,0 0.4,0 1.3,0 1.8,0 0.1,0 0.1,0 0.2,0 0.2,0 0.4,-0.2 0.4,-0.4 l 0,-4.8 C 21.9,43.2 21.7,43 21.5,43 19.2,42.9 15.8,42.7 15.8,42.7 L 15.5,37 c 0,-0.3 -0.1,-0.6 -0.1,-0.9 0,-0.4 -0.1,-0.8 -0.1,-1.2 0.1,0.1 0.2,0.1 0.4,0.2 0.6,0.3 1.2,0.7 1.8,1 0.4,0.2 0.8,0.3 1.2,0.3 0.7,0 1.5,0 2.5,0 0.6,0 1.2,0 1.8,0 0.3,0 0.6,0 0.9,0 1.1,0 2,-0.8 2,-1.9 0.1,-1.1 -0.8,-1.9 -2,-1.9 z"
           id="path10649" />
        <path
           sodipodi:nodetypes="cc"
           id="path5448-782-1-7-0"
           d="m 25.468612,34.748396 c 0.286697,-1.382756 -1.117199,-1.72012 -1.117199,-1.72012"
           class="st57"
           inkscape:connector-curvature="0"
           style="fill:none;stroke:#ffffff;stroke-width:0.23011638;stroke-linecap:round;stroke-linejoin:round;stroke-miterlimit:10;stroke-dasharray:none;stroke-opacity:1" />
      </g>
      <g
         id="g10651">
        <g
           id="g10653"
           style="fill:#3b4652;fill-opacity:1">
          <path
             style="fill:#3b4652;fill-opacity:1"
             inkscape:connector-curvature="0"
             class="st0"
             d="m 47.1,24 c 0,2.3 1.7,4.1 4,4.1 2.3,0 4.1,-1.7 4.1,-4 0,-2.3 -1.8,-4.1 -4,-4.1 -2.2,0 -4.1,1.8 -4.1,4 z"
             id="path10655" />
        </g>
        <g
           id="g10657"
           style="fill:#f4b459;fill-opacity:1;stroke:#074370;stroke-width:0.72257954;stroke-miterlimit:4;stroke-dasharray:none;stroke-opacity:1">
          <path
             style="fill:#f4b459;fill-opacity:1;stroke:#074370;stroke-width:0.72257954;stroke-miterlimit:4;stroke-dasharray:none;stroke-opacity:1"
             inkscape:connector-curvature="0"
             class="st0"
             d="m 49.7,54.8 c -1,0 -2,-0.1 -3,-0.1 -0.9,0 -1.8,-0.1 -2.6,-0.1 -1,0 -1.9,-0.8 -1.9,-1.9 0,-1.1 0.8,-1.9 1.9,-1.9 0.9,0 1.9,0 2.8,0.1 2.1,0.1 4.2,0.2 6,-0.2 1.4,-0.3 2.8,-1.2 3.7,-2.5 0.8,-1.2 1,-2.5 1.3,-4.2 0,-0.3 0.1,-0.5 0.1,-0.8 L 59.2,35 c 0.2,-1 1.1,-1.7 2.1,-1.6 1,0.2 1.7,1.1 1.6,2.1 l -1.2,8.2 c 0,0.2 -0.1,0.5 -0.1,0.7 -0.3,1.9 -0.6,3.9 -1.9,5.8 -1.5,2 -3.5,3.5 -5.9,4 -1.4,0.5 -2.7,0.6 -4.1,0.6 z"
             id="path10659" />
        </g>
        <g
           id="g10661"
           style="fill:#3b4652;fill-opacity:1">
          <path
             style="fill:#3b4652;fill-opacity:1"
             inkscape:connector-curvature="0"
             class="st0"
             d="m 47.3,43.4 c 0,0 -3.6,0.2 -6,0.3 -0.2,0 -0.4,0.2 -0.4,0.5 l 0,5 c 0,0.2 0.2,0.4 0.4,0.4 0.6,0 1.6,0 2.1,0 2.2,0 4.3,0 6.6,0 3.4,0 5.2,-1.5 5.2,-4.9 0.1,-3.6 0.4,-7.3 0.6,-10.9 0.1,-2.3 -1.4,-4.2 -3.6,-4.4 0,0 -0.1,0 -0.1,0 -0.7,-0.1 -1.4,0.1 -2,0.4 -1.1,0.5 -1.9,1.6 -2.1,3 -0.2,1.2 -0.3,2.3 -0.4,3.6 0,0.3 0,0.7 -0.1,1 l -0.2,6 z"
             id="path10663" />
        </g>
        <path
           sodipodi:nodetypes="cc"
           id="path5448-782-1-9"
           d="m 54.629857,22.931211 c -0.154163,-0.83437 -1.117199,-1.72012 -1.117199,-1.72012"
           class="st57"
           inkscape:connector-curvature="0"
           style="fill:none;stroke:#ffffff;stroke-width:0.23011638;stroke-linecap:round;stroke-linejoin:round;stroke-miterlimit:10;stroke-dasharray:none;stroke-opacity:1" />
        <path
           sodipodi:nodetypes="cc"
           id="path5448-782-1-7"
           d="m 55.232007,32.608615 c -0.154163,-0.83437 -1.117199,-1.72012 -1.117199,-1.72012"
           class="st57"
           inkscape:connector-curvature="0"
           style="fill:none;stroke:#ffffff;stroke-width:0.23011638;stroke-linecap:round;stroke-linejoin:round;stroke-miterlimit:10;stroke-dasharray:none;stroke-opacity:1" />
        <path
           sodipodi:nodetypes="cc"
           id="path5448-782-1-7-2"
           d="m 62.145975,35.941943 c 0.277156,-1.356928 -0.804924,-1.774648 -0.804924,-1.774648"
           class="st57"
           inkscape:connector-curvature="0"
           style="fill:none;stroke:#ffffff;stroke-width:0.23011638;stroke-linecap:round;stroke-linejoin:round;stroke-miterlimit:10;stroke-dasharray:none;stroke-opacity:1" />
      </g>
      <g
         id="g10665"
         transform="translate(0.96343936,0)">
        <path
           style="fill:#eaeaea;fill-opacity:1;stroke:#074370;stroke-width:0.96343935;stroke-miterlimit:4;stroke-dasharray:none;stroke-opacity:1"
           d="m 36.323643,4.9153801 0,0 c -0.7,0 -1.3,0 -2,0 -0.6,0 -1.2,0 -1.7,0 l -0.3,0 c -0.6,0 -1.3,0 -1.9,0 -0.6,0 -1.3,0 -1.9,0 l -0.3,0 c -0.6,0 -1.1,0 -1.7,0 -0.6,0 -1.3,0 -1.9,0 l -0.1,0 c -2.5,0 -5.1,2 -5.2,5.0999999 l 0,13.1 c 0,0.6 0.5,1.2 1.2,1.2 0.3,0 0.6,-0.1 0.8,-0.3 l 0.9,-0.9 c 0.8,-0.8 1.8,-1.8 2.5,-2.5 l 0,0 c 0.8,0 1.7,0 2.5,0 0.4,0 0.7,0.1 1,0.1 0.3,0 0.6,0 0.9,0 0.4,0 0.8,0 1.2,0 0.4,0 0.8,0 1.2,0 0.3,0 0.6,0 0.9,0 0.3,0 0.6,0 1,-0.1 0.8,0 1.7,0 2.5,0 l 0,0 c 0.6,0.6 1.6,1.6 2.5,2.5 l 0.9,0.9 c 0.2,0.2 0.5,0.3 0.8,0.3 0.6,0 1.2,-0.5 1.2,-1.2 l 0,-13 c 0.1,-3.1999999 -2.6,-5.1999999 -5,-5.1999999 z"
           id="path11235"
           inkscape:connector-curvature="0" />
      </g>
      <path
         id="path9269-9"
         d="m 31.571057,10.854213 -4.961713,0 c -0.289032,0 -0.48172,-0.19269 -0.48172,-0.48172 0,-0.28903 0.192688,-0.4817196 0.48172,-0.4817196 l 4.961713,0 c 0.289032,0 0.481719,0.1926896 0.481719,0.4817196 0,0.28903 -0.192687,0.48172 -0.481719,0.48172 z"
         class="st2"
         inkscape:connector-curvature="0"
         style="fill:#074370;fill-rule:evenodd;stroke:#242c88;stroke-width:0;stroke-miterlimit:4;stroke-dasharray:none;stroke-opacity:1" />
      <path
         id="path9271-7"
         d="m 36.570619,10.923031 -2.504942,0 c -0.289032,0 -0.48172,-0.19269 -0.48172,-0.48172 0,-0.28903 0.192688,-0.4817204 0.48172,-0.4817204 l 2.504942,0 c 0.289032,0 0.48172,0.1926904 0.48172,0.4817204 0,0.28903 -0.24086,0.48172 -0.48172,0.48172 z"
         class="st2"
         inkscape:connector-curvature="0"
         style="fill:#074370;fill-rule:evenodd;stroke:#242c88;stroke-width:0;stroke-miterlimit:4;stroke-dasharray:none;stroke-opacity:1" />
      <path
         id="path9273-3"
         d="m 34.943094,13.48327 -8.381922,0 c -0.289032,0 -0.48172,-0.19268 -0.48172,-0.48171 0,-0.28904 0.192688,-0.48172 0.48172,-0.43355 l 8.430094,0 c 0.289032,-0.0482 0.48172,0.19269 0.48172,0.43355 -0.04817,0.28903 -0.24086,0.48171 -0.529892,0.48171 z"
         class="st2"
         inkscape:connector-curvature="0"
         style="fill:#074370;fill-rule:evenodd;stroke:#242c88;stroke-width:0;stroke-miterlimit:4;stroke-dasharray:none;stroke-opacity:1" />
      <path
         id="path9273-3-2"
         d="m 35.149552,15.582191 -8.381922,0 c -0.289032,0 -0.48172,-0.19268 -0.48172,-0.48171 0,-0.28904 0.192688,-0.48172 0.48172,-0.43355 l 8.430094,0 c 0.289032,-0.0482 0.48172,0.19269 0.48172,0.43355 -0.04817,0.28903 -0.24086,0.48171 -0.529892,0.48171 z"
         class="st2"
         inkscape:connector-curvature="0"
         style="fill:#074370;fill-rule:evenodd;stroke:#242c88;stroke-width:0;stroke-miterlimit:4;stroke-dasharray:none;stroke-opacity:1" />
      <path
         sodipodi:nodetypes="cc"
         id="path5448-782-1-7-1"
         d="m 42.906002,39.4364 c -0.06292,-1.184121 -1.223645,-1.659294 -1.223645,-1.659294"
         class="st57"
         inkscape:connector-curvature="0"
         style="fill:none;stroke:#ffffff;stroke-width:0.23011638;stroke-linecap:round;stroke-linejoin:round;stroke-miterlimit:10;stroke-dasharray:none;stroke-opacity:1" />
      <path
         sodipodi:nodetypes="cc"
         id="path5448-782-1-7-9"
         d="M 40.9511,8.9862775 C 40.517368,6.6035228 38.085222,6.1368105 38.085222,6.1368105"
         class="st57"
         inkscape:connector-curvature="0"
         style="fill:none;stroke:#ffffff;stroke-width:0.23011638;stroke-linecap:round;stroke-linejoin:round;stroke-miterlimit:10;stroke-dasharray:none;stroke-opacity:1" />
    </g>
  </g>
</svg>
