<?xml version="1.0" encoding="UTF-8" standalone="no"?>
<!-- Created with Inkscape (http://www.inkscape.org/) -->

<svg
   xmlns:dc="http://purl.org/dc/elements/1.1/"
   xmlns:cc="http://creativecommons.org/ns#"
   xmlns:rdf="http://www.w3.org/1999/02/22-rdf-syntax-ns#"
   xmlns:svg="http://www.w3.org/2000/svg"
   xmlns="http://www.w3.org/2000/svg"
   xmlns:sodipodi="http://sodipodi.sourceforge.net/DTD/sodipodi-0.dtd"
   xmlns:inkscape="http://www.inkscape.org/namespaces/inkscape"
   width="10mm"
   height="10mm"
   viewBox="0 0 35.43307 35.43307"
   id="svg6558"
   version="1.1"
   inkscape:version="0.91 r13725"
   sodipodi:docname="Job.svg">
  <defs
     id="defs6560" />
  <sodipodi:namedview
     id="base"
     pagecolor="#ffffff"
     bordercolor="#666666"
     borderopacity="1.0"
     inkscape:pageopacity="0.0"
     inkscape:pageshadow="2"
     inkscape:zoom="31.678384"
     inkscape:cx="26.618493"
     inkscape:cy="5.9332118"
     inkscape:document-units="px"
     inkscape:current-layer="g9083"
     showgrid="false"
     inkscape:window-width="1920"
     inkscape:window-height="1053"
     inkscape:window-x="-9"
     inkscape:window-y="-9"
     inkscape:window-maximized="1" />
  <metadata
     id="metadata6563">
    <rdf:RDF>
      <cc:Work
         rdf:about="">
        <dc:format>image/svg+xml</dc:format>
        <dc:type
           rdf:resource="http://purl.org/dc/dcmitype/StillImage" />
        <dc:title />
      </cc:Work>
    </rdf:RDF>
  </metadata>
  <g
     inkscape:label="Layer 1"
     inkscape:groupmode="layer"
     id="layer1"
     transform="translate(0,-1016.9291)">
    <g
       id="g6518"
       transform="translate(-282.19196,952.77641)">
      <g
         transform="matrix(0.14332704,0,0,0.14332704,289.32542,73.515332)"
         id="g8866">
        <path
           inkscape:connector-curvature="0"
           d="m 79,32 c -0.553,0 -1,-0.448 -1,-1 l 0,-3 c 0,-4.654 -1.232,-7 -5.5,-7 l -16,0 C 51.883,21 50,23.738 50,28 l 0,3 c 0,0.552 -0.447,1 -1,1 -0.553,0 -1,-0.448 -1,-1 l 0,-3 c 0,-5.383 2.779,-9 8.5,-9 l 16,0 c 5.396,0 7.5,3.243 7.5,9 l 0,3 c 0,0.552 -0.447,1 -1,1 z"
           style="fill:#263740"
           id="path8868" />
        <path
           inkscape:connector-curvature="0"
           d="m 72,22 -16,0 c -1.104,0 -2,-0.896 -2,-2 0,-1.104 0.896,-2 2,-2 l 16,0 c 1.104,0 2,0.896 2,2 0,1.104 -0.896,2 -2,2 z"
           style="fill:#242424"
           id="path8870" />
      </g>
      <path
         inkscape:connector-curvature="0"
         d="m 304.94807,86.844747 c 0,0.236489 -0.19349,0.429981 -0.42998,0.429981 l -11.89615,0 c -0.23649,0 -0.42998,-0.193492 -0.42998,-0.429981 l 0,-8.456296 c 0,-0.236489 0.19349,-0.429981 0.42998,-0.429981 l 11.89615,0 c 0.23649,0 0.42998,0.193492 0.42998,0.429981 l 0,8.456296 z"
         style="fill:#99602e"
         id="path8872" />
      <path
         inkscape:connector-curvature="0"
         d="m 304.51809,77.95847 -0.42998,0 c 0.23648,0 0.42998,0.193492 0.42998,0.429981 l 0,8.456296 c 0,0.236489 -0.1935,0.429981 -0.42998,0.429981 l 0.42998,0 c 0.23649,0 0.42998,-0.193492 0.42998,-0.429981 l 0,-8.456296 c 0,-0.236489 -0.19349,-0.429981 -0.42998,-0.429981 z"
         style="fill:#8c582a"
         id="path8874" />
      <path
         inkscape:connector-curvature="0"
         d="m 304.94807,81.864419 0,-3.475968 c 0,-0.01161 -0.003,-0.0225 -0.003,-0.03397 -0.0763,-0.06722 -0.17457,-0.109359 -0.28336,-0.109359 l -11.89614,0 c -0.23649,0 -0.42998,0.193492 -0.42998,0.429981 l 0,2.886894 c 0.30313,0.786865 1.05288,1.412918 1.86325,1.412918 l 4.44314,0 0.14332,0 4.44314,0 c 0.70317,0 1.36018,-0.47169 1.71993,-1.110498 z"
         style="fill:#8c582a"
         id="path8876" />
      <path
         inkscape:connector-curvature="0"
         d="m 304.51809,77.95847 -11.89615,0 c -0.23649,0 -0.42998,0.193492 -0.42998,0.429981 l 0,2.886894 c 0.30314,0.786865 1.05288,1.412918 1.86325,1.412918 l 4.44314,0 0.14333,0 4.44314,0 c 0.81037,0 1.55997,-0.626053 1.86325,-1.412918 l 0,-2.886894 c 0,-0.236489 -0.19349,-0.429981 -0.42998,-0.429981 z"
         style="fill:#b37036"
         id="path8878" />
      <circle
         cx="298.57001"
         cy="80.323364"
         r="0.57330817"
         style="fill:#263740"
         id="circle8880" />
      <rect
         ry="0.14023152"
         y="82.223938"
         x="295.32175"
         height="0.33145633"
         width="6.4965439"
         id="rect9233"
         style="fill:#cc874b;fill-opacity:1;stroke:none" />
      <g
         transform="translate(-7.6013985,-0.53033013)"
         id="g9235">
        <g
           id="g9013"
           transform="translate(78.250005,-29.812502)">
          <g
             id="g9075"
             transform="matrix(0.36972512,0,0,0.36972512,218.02282,77.536314)">
            <path
               style="opacity:0.2;fill:#242c88"
               inkscape:connector-curvature="0"
               class="st16"
               d="m 31.968799,114.65891 10.398299,0 0,-20.425232 -11.141034,0 0,19.682502 c 0,0.40849 0.334231,0.74273 0.742735,0.74273 z"
               id="path9077" />
            <g
               id="g9079"
               transform="matrix(0.28579185,0,0,0.28579185,17.247728,89.080146)">
              <path
                 style="color:#000000;font-style:normal;font-variant:normal;font-weight:normal;font-stretch:normal;font-size:medium;line-height:normal;font-family:sans-serif;text-indent:0;text-align:start;text-decoration:none;text-decoration-line:none;text-decoration-style:solid;text-decoration-color:#000000;letter-spacing:normal;word-spacing:normal;text-transform:none;direction:ltr;block-progression:tb;writing-mode:lr-tb;baseline-shift:baseline;text-anchor:start;white-space:normal;clip-rule:nonzero;display:inline;overflow:visible;visibility:visible;opacity:1;isolation:auto;mix-blend-mode:normal;color-interpolation:sRGB;color-interpolation-filters:linearRGB;solid-color:#000000;solid-opacity:1;fill:#242c88;fill-opacity:1;fill-rule:nonzero;stroke:none;stroke-width:2;stroke-linecap:round;stroke-linejoin:round;stroke-miterlimit:10;stroke-dasharray:none;stroke-dashoffset:0;stroke-opacity:1;color-rendering:auto;image-rendering:auto;shape-rendering:auto;text-rendering:auto;enable-background:accumulate"
                 d="m 54,9 a 1.0001,1.0001 0 0 0 -1,1 l 0,78 a 1.0001,1.0001 0 0 0 1,1 l 64,0 a 1.0001,1.0001 0 0 0 1,-1 l 0,-78 A 1.0001,1.0001 0 0 0 118,9 L 54,9 Z m 1,2 62,0 0,76 -62,0 0,-76 z"
                 id="rect9081"
                 inkscape:connector-curvature="0" />
              <g
                 id="g9083">
                <rect
                   style="fill:#ffffff"
                   class="st1"
                   height="78"
                   width="64"
                   x="54"
                   y="10"
                   id="rect9085" />
                <path
                   style="fill:#83d689"
                   inkscape:connector-curvature="0"
                   class="st14"
                   d="m 98,21.25 0,9.75 9.75,0 c 0,-5.38 -4.37,-9.75 -9.75,-9.75 z"
                   id="path9087" />
                <path
                   style="fill:#589fff"
                   inkscape:connector-curvature="0"
                   class="st7"
                   d="M 98,30.75 98,21 c -5.38,0 -9.75,4.37 -9.75,9.75 0,5.38 4.37,9.75 9.75,9.75 2.86,0 5.42,-1.24 7.21,-3.2 L 98,30.75 Z"
                   id="path9089" />
                <circle
                   style="fill:none;stroke:#242c88;stroke-width:0;stroke-linecap:round;stroke-linejoin:round;stroke-miterlimit:10;stroke-dasharray:none"
                   class="st2"
                   cx="98"
                   cy="31"
                   r="10"
                   id="circle9091" />
                <rect
                   style="fill:#589fff"
                   class="st7"
                   height="6"
                   width="6"
                   x="70"
                   y="71"
                   id="rect9093" />
                <rect
                   style="fill:#83d689;stroke-width:0;stroke-miterlimit:10;stroke-dasharray:none"
                   class="st14"
                   height="12"
                   width="6"
                   x="79"
                   y="65"
                   id="rect9095" />
                <rect
                   style="fill:#589fff;stroke-width:0;stroke-miterlimit:10;stroke-dasharray:none"
                   class="st7"
                   height="9"
                   width="6"
                   x="88"
                   y="68"
                   id="rect9097" />
                <rect
                   style="fill:#83d689"
                   class="st14"
                   height="15"
                   width="6"
                   x="97"
                   y="62"
                   id="rect9099" />
                <rect
                   style="fill:none;stroke:#242c88;stroke-width:0;stroke-linecap:round;stroke-linejoin:round;stroke-miterlimit:10;stroke-dasharray:none"
                   class="st2"
                   height="6"
                   width="6"
                   x="70"
                   y="71"
                   id="rect9101" />
                <rect
                   style="fill:none;stroke:#242c88;stroke-width:0;stroke-linecap:round;stroke-linejoin:round;stroke-miterlimit:10;stroke-dasharray:none"
                   class="st2"
                   height="12"
                   width="6"
                   x="79"
                   y="65"
                   id="rect9103" />
                <rect
                   style="fill:none;stroke:#242c88;stroke-width:0;stroke-linecap:round;stroke-linejoin:round;stroke-miterlimit:10;stroke-dasharray:none"
                   class="st2"
                   height="9"
                   width="6"
                   x="88"
                   y="68"
                   id="rect9105" />
                <rect
                   style="fill:none;stroke:#242c88;stroke-width:0;stroke-linecap:round;stroke-linejoin:round;stroke-miterlimit:10;stroke-dasharray:none"
                   class="st2"
                   height="15"
                   width="6"
                   x="97"
                   y="62"
                   id="rect9107" />
                <path
                   style="color:#000000;font-style:normal;font-variant:normal;font-weight:normal;font-stretch:normal;font-size:medium;line-height:normal;font-family:sans-serif;text-indent:0;text-align:start;text-decoration:none;text-decoration-line:none;text-decoration-style:solid;text-decoration-color:#000000;letter-spacing:normal;word-spacing:normal;text-transform:none;direction:ltr;block-progression:tb;writing-mode:lr-tb;baseline-shift:baseline;text-anchor:start;white-space:normal;clip-rule:nonzero;display:inline;overflow:visible;visibility:visible;opacity:1;isolation:auto;mix-blend-mode:normal;color-interpolation:sRGB;color-interpolation-filters:linearRGB;solid-color:#000000;solid-opacity:1;fill:#242c88;fill-opacity:1;fill-rule:nonzero;stroke:none;stroke-width:1.05049551;stroke-linecap:round;stroke-linejoin:round;stroke-miterlimit:10;stroke-dasharray:none;stroke-dashoffset:0;stroke-opacity:1;color-rendering:auto;image-rendering:auto;shape-rendering:auto;text-rendering:auto;enable-background:accumulate"
                   d="M 65.992188,63.466797 A 0.52530028,0.52530028 0 0 0 65.474609,64 l 0,13 A 0.52530028,0.52530028 0 0 0 66,77.525391 l 40,0 a 0.525391,0.525391 0 0 0 0,-1.050782 l -39.474609,0 0,-12.474609 a 0.52530028,0.52530028 0 0 0 -0.533203,-0.533203 z"
                   id="polyline9109"
                   inkscape:connector-curvature="0" />
                <path
                   style="color:#000000;font-style:normal;font-variant:normal;font-weight:normal;font-stretch:normal;font-size:medium;line-height:normal;font-family:sans-serif;text-indent:0;text-align:start;text-decoration:none;text-decoration-line:none;text-decoration-style:solid;text-decoration-color:#000000;letter-spacing:normal;word-spacing:normal;text-transform:none;direction:ltr;block-progression:tb;writing-mode:lr-tb;baseline-shift:baseline;text-anchor:start;white-space:normal;clip-rule:nonzero;display:inline;overflow:visible;visibility:visible;opacity:0.2;isolation:auto;mix-blend-mode:normal;color-interpolation:sRGB;color-interpolation-filters:linearRGB;solid-color:#000000;solid-opacity:1;fill:#242c88;fill-opacity:1;fill-rule:nonzero;stroke:none;stroke-width:2;stroke-linecap:round;stroke-linejoin:round;stroke-miterlimit:10;stroke-dasharray:none;stroke-dashoffset:0;stroke-opacity:1;color-rendering:auto;image-rendering:auto;shape-rendering:auto;text-rendering:auto;enable-background:accumulate"
                   d="m 65,54 a 1.0001,1.0001 0 1 0 0,2 l 41,0 a 1.0001,1.0001 0 1 0 0,-2 l -41,0 z"
                   id="line9111"
                   inkscape:connector-curvature="0" />
                <path
                   style="color:#000000;font-style:normal;font-variant:normal;font-weight:normal;font-stretch:normal;font-size:medium;line-height:normal;font-family:sans-serif;text-indent:0;text-align:start;text-decoration:none;text-decoration-line:none;text-decoration-style:solid;text-decoration-color:#000000;letter-spacing:normal;word-spacing:normal;text-transform:none;direction:ltr;block-progression:tb;writing-mode:lr-tb;baseline-shift:baseline;text-anchor:start;white-space:normal;clip-rule:nonzero;display:inline;overflow:visible;visibility:visible;opacity:0.2;isolation:auto;mix-blend-mode:normal;color-interpolation:sRGB;color-interpolation-filters:linearRGB;solid-color:#000000;solid-opacity:1;fill:#242c88;fill-opacity:1;fill-rule:nonzero;stroke:none;stroke-width:2;stroke-linecap:round;stroke-linejoin:round;stroke-miterlimit:10;stroke-dasharray:none;stroke-dashoffset:0;stroke-opacity:1;color-rendering:auto;image-rendering:auto;shape-rendering:auto;text-rendering:auto;enable-background:accumulate"
                   d="m 65,49 a 1.0001,1.0001 0 1 0 0,2 l 41,0 a 1.0001,1.0001 0 1 0 0,-2 l -41,0 z"
                   id="line9113"
                   inkscape:connector-curvature="0" />
                <path
                   style="color:#000000;font-style:normal;font-variant:normal;font-weight:normal;font-stretch:normal;font-size:medium;line-height:normal;font-family:sans-serif;text-indent:0;text-align:start;text-decoration:none;text-decoration-line:none;text-decoration-style:solid;text-decoration-color:#000000;letter-spacing:normal;word-spacing:normal;text-transform:none;direction:ltr;block-progression:tb;writing-mode:lr-tb;baseline-shift:baseline;text-anchor:start;white-space:normal;clip-rule:nonzero;display:inline;overflow:visible;visibility:visible;opacity:0.2;isolation:auto;mix-blend-mode:normal;color-interpolation:sRGB;color-interpolation-filters:linearRGB;solid-color:#000000;solid-opacity:1;fill:#242c88;fill-opacity:1;fill-rule:nonzero;stroke:none;stroke-width:2;stroke-linecap:round;stroke-linejoin:round;stroke-miterlimit:10;stroke-dasharray:none;stroke-dashoffset:0;stroke-opacity:1;color-rendering:auto;image-rendering:auto;shape-rendering:auto;text-rendering:auto;enable-background:accumulate"
                   d="m 65,26 a 1.0001,1.0001 0 1 0 0,2 l 14,0 a 1.0001,1.0001 0 1 0 0,-2 l -14,0 z"
                   id="line9115"
                   inkscape:connector-curvature="0" />
                <path
                   style="color:#000000;font-style:normal;font-variant:normal;font-weight:normal;font-stretch:normal;font-size:medium;line-height:normal;font-family:sans-serif;text-indent:0;text-align:start;text-decoration:none;text-decoration-line:none;text-decoration-style:solid;text-decoration-color:#000000;letter-spacing:normal;word-spacing:normal;text-transform:none;direction:ltr;block-progression:tb;writing-mode:lr-tb;baseline-shift:baseline;text-anchor:start;white-space:normal;clip-rule:nonzero;display:inline;overflow:visible;visibility:visible;opacity:0.2;isolation:auto;mix-blend-mode:normal;color-interpolation:sRGB;color-interpolation-filters:linearRGB;solid-color:#000000;solid-opacity:1;fill:#242c88;fill-opacity:1;fill-rule:nonzero;stroke:none;stroke-width:2;stroke-linecap:round;stroke-linejoin:round;stroke-miterlimit:10;stroke-dasharray:none;stroke-dashoffset:0;stroke-opacity:1;color-rendering:auto;image-rendering:auto;shape-rendering:auto;text-rendering:auto;enable-background:accumulate"
                   d="m 65,22 a 1.0001,1.0001 0 1 0 0,2 l 14,0 a 1.0001,1.0001 0 1 0 0,-2 l -14,0 z"
                   id="line9117"
                   inkscape:connector-curvature="0" />
                <path
                   style="color:#000000;font-style:normal;font-variant:normal;font-weight:normal;font-stretch:normal;font-size:medium;line-height:normal;font-family:sans-serif;text-indent:0;text-align:start;text-decoration:none;text-decoration-line:none;text-decoration-style:solid;text-decoration-color:#000000;letter-spacing:normal;word-spacing:normal;text-transform:none;direction:ltr;block-progression:tb;writing-mode:lr-tb;baseline-shift:baseline;text-anchor:start;white-space:normal;clip-rule:nonzero;display:inline;overflow:visible;visibility:visible;opacity:0.2;isolation:auto;mix-blend-mode:normal;color-interpolation:sRGB;color-interpolation-filters:linearRGB;solid-color:#000000;solid-opacity:1;fill:#242c88;fill-opacity:1;fill-rule:nonzero;stroke:none;stroke-width:2;stroke-linecap:round;stroke-linejoin:round;stroke-miterlimit:10;stroke-dasharray:none;stroke-dashoffset:0;stroke-opacity:1;color-rendering:auto;image-rendering:auto;shape-rendering:auto;text-rendering:auto;enable-background:accumulate"
                   d="m 65,34 a 1.0001,1.0001 0 1 0 0,2 l 14,0 a 1.0001,1.0001 0 1 0 0,-2 l -14,0 z"
                   id="line9119"
                   inkscape:connector-curvature="0" />
                <path
                   style="color:#000000;font-style:normal;font-variant:normal;font-weight:normal;font-stretch:normal;font-size:medium;line-height:normal;font-family:sans-serif;text-indent:0;text-align:start;text-decoration:none;text-decoration-line:none;text-decoration-style:solid;text-decoration-color:#000000;letter-spacing:normal;word-spacing:normal;text-transform:none;direction:ltr;block-progression:tb;writing-mode:lr-tb;baseline-shift:baseline;text-anchor:start;white-space:normal;clip-rule:nonzero;display:inline;overflow:visible;visibility:visible;opacity:0.2;isolation:auto;mix-blend-mode:normal;color-interpolation:sRGB;color-interpolation-filters:linearRGB;solid-color:#000000;solid-opacity:1;fill:#242c88;fill-opacity:1;fill-rule:nonzero;stroke:none;stroke-width:2;stroke-linecap:round;stroke-linejoin:round;stroke-miterlimit:10;stroke-dasharray:none;stroke-dashoffset:0;stroke-opacity:1;color-rendering:auto;image-rendering:auto;shape-rendering:auto;text-rendering:auto;enable-background:accumulate"
                   d="m 65,38 a 1.0001,1.0001 0 1 0 0,2 l 7,0 a 1.0001,1.0001 0 1 0 0,-2 l -7,0 z"
                   id="line9121"
                   inkscape:connector-curvature="0" />
                <path
                   style="color:#000000;font-style:normal;font-variant:normal;font-weight:normal;font-stretch:normal;font-size:medium;line-height:normal;font-family:sans-serif;text-indent:0;text-align:start;text-decoration:none;text-decoration-line:none;text-decoration-style:solid;text-decoration-color:#000000;letter-spacing:normal;word-spacing:normal;text-transform:none;direction:ltr;block-progression:tb;writing-mode:lr-tb;baseline-shift:baseline;text-anchor:start;white-space:normal;clip-rule:nonzero;display:inline;overflow:visible;visibility:visible;opacity:0.2;isolation:auto;mix-blend-mode:normal;color-interpolation:sRGB;color-interpolation-filters:linearRGB;solid-color:#000000;solid-opacity:1;fill:#242c88;fill-opacity:1;fill-rule:nonzero;stroke:none;stroke-width:2;stroke-linecap:round;stroke-linejoin:round;stroke-miterlimit:10;stroke-dasharray:none;stroke-dashoffset:0;stroke-opacity:1;color-rendering:auto;image-rendering:auto;shape-rendering:auto;text-rendering:auto;enable-background:accumulate"
                   d="m 65,30 a 1.0001,1.0001 0 1 0 0,2 l 14,0 a 1.0001,1.0001 0 1 0 0,-2 l -14,0 z"
                   id="line9123"
                   inkscape:connector-curvature="0" />
              </g>
            </g>
          </g>
        </g>
      </g>
    </g>
  </g>
</svg>
