<?xml version="1.0" encoding="UTF-8" standalone="no"?>
<!-- Created with Inkscape (http://www.inkscape.org/) -->

<svg
   xmlns:dc="http://purl.org/dc/elements/1.1/"
   xmlns:cc="http://creativecommons.org/ns#"
   xmlns:rdf="http://www.w3.org/1999/02/22-rdf-syntax-ns#"
   xmlns:svg="http://www.w3.org/2000/svg"
   xmlns="http://www.w3.org/2000/svg"
   xmlns:sodipodi="http://sodipodi.sourceforge.net/DTD/sodipodi-0.dtd"
   xmlns:inkscape="http://www.inkscape.org/namespaces/inkscape"
   width="10mm"
   height="10mm"
   viewBox="0 0 35.43307 35.43307"
   id="svg6558"
   version="1.1"
   inkscape:version="0.91 r13725"
   sodipodi:docname="OM.svg">
  <defs
     id="defs6560" />
  <sodipodi:namedview
     id="base"
     pagecolor="#ffffff"
     bordercolor="#666666"
     borderopacity="1.0"
     inkscape:pageopacity="0.0"
     inkscape:pageshadow="2"
     inkscape:zoom="44.8"
     inkscape:cx="13.846976"
     inkscape:cy="12.128998"
     inkscape:document-units="px"
     inkscape:current-layer="g4730"
     showgrid="false"
     inkscape:window-width="1920"
     inkscape:window-height="1053"
     inkscape:window-x="-9"
     inkscape:window-y="-9"
     inkscape:window-maximized="1" />
  <metadata
     id="metadata6563">
    <rdf:RDF>
      <cc:Work
         rdf:about="">
        <dc:format>image/svg+xml</dc:format>
        <dc:type
           rdf:resource="http://purl.org/dc/dcmitype/StillImage" />
        <dc:title />
      </cc:Work>
    </rdf:RDF>
  </metadata>
  <g
     inkscape:label="Layer 1"
     inkscape:groupmode="layer"
     id="layer1"
     transform="translate(0,-1016.9291)">
    <g
       id="g6408"
       inkscape:export-filename="/Users/divisihct_hcit/Desktop/icon/one-one/OM"
       inkscape:export-xdpi="90"
       inkscape:export-ydpi="90"
       transform="translate(-246.39357,955.39536)">
      <g
         transform="matrix(0.6692036,0,0,0.6692036,262.85945,21.181308)"
         id="g4730">
        <path
           style="fill:#242c88;fill-opacity:1;stroke:none"
           inkscape:connector-curvature="0"
           d="m -6.6107915,91.696528 13.5142229,0 0,4.267649 0.7112749,0 0,-4.623286 c 0,-0.196414 -0.1592245,-0.355638 -0.3556379,-0.355638 l -14.2254973,0 c -0.1964132,0 -0.3556375,0.159224 -0.3556375,0.355638 l 0,4.623286 0.7112749,0 0,-4.267649 z"
           id="shape" />
        <rect
           style="fill:#242c88;fill-opacity:1;stroke:none"
           height="8.5352983"
           id="rect6466"
           width="0.71127492"
           x="-0.20931737"
           y="87.428879" />
        <path
           style="fill:#f44336;stroke:#242c88;stroke-width:0;stroke-miterlimit:4;stroke-dasharray:none;stroke-opacity:1"
           inkscape:connector-curvature="0"
           d="m -2.3117262,85.629642 0,2.133824 c 0,0.196413 0.159224,0.355637 0.355637,0.355637 l 4.267649,0 c 0.196413,0 0.355638,-0.159224 0.355638,-0.355637 l 0,-2.133824 c 0,-0.196414 -0.159225,-0.355638 -0.355638,-0.355638 l -4.267649,0 c -0.196413,0 -0.355637,0.159224 -0.355637,0.355638 z"
           id="path6468-0" />
        <path
           style="color:#000000;font-style:normal;font-variant:normal;font-weight:normal;font-stretch:normal;font-size:medium;line-height:normal;font-family:sans-serif;text-indent:0;text-align:start;text-decoration:none;text-decoration-line:none;text-decoration-style:solid;text-decoration-color:#000000;letter-spacing:normal;word-spacing:normal;text-transform:none;direction:ltr;block-progression:tb;writing-mode:lr-tb;baseline-shift:baseline;text-anchor:start;white-space:normal;clip-rule:nonzero;display:inline;overflow:visible;visibility:visible;opacity:1;isolation:auto;mix-blend-mode:normal;color-interpolation:sRGB;color-interpolation-filters:linearRGB;solid-color:#000000;solid-opacity:1;fill:#242c88;fill-opacity:1;fill-rule:nonzero;stroke:none;stroke-width:0.41232991;stroke-linecap:butt;stroke-linejoin:miter;stroke-miterlimit:4;stroke-dasharray:none;stroke-dashoffset:0;stroke-opacity:1;color-rendering:auto;image-rendering:auto;shape-rendering:auto;text-rendering:auto;enable-background:accumulate"
           d="m -1.9882812,85.089844 c -0.3078325,0 -0.5605469,0.252713 -0.5605469,0.560547 l 0,2.134765 c 0,0.307833 0.2527144,0.560547 0.5605469,0.560547 l 4.2675781,0 c 0.3078328,0 0.5625,-0.252714 0.5625,-0.560547 l 0,-2.134765 c 0,-0.307834 -0.2546672,-0.560547 -0.5625,-0.560547 l -4.2675781,0 z m 0,0.412109 4.2675781,0 c 0.084994,0 0.1503906,0.06344 0.1503906,0.148438 l 0,2.134765 c 0,0.08499 -0.065397,0.148438 -0.1503906,0.148438 l -4.2675781,0 c -0.084993,0 -0.1484375,-0.06345 -0.1484376,-0.148438 l 0,-2.134765 c 0,-0.08499 0.063445,-0.148438 0.1484376,-0.148438 z"
           id="path6468"
           inkscape:connector-curvature="0" />
        <path
           style="fill:#ffc107;stroke:#242c88;stroke-width:0;stroke-miterlimit:4;stroke-dasharray:none;stroke-opacity:1"
           inkscape:connector-curvature="0"
           d="m -2.4117923,95.602852 0,2.13382 c 0,0.19641 0.159224,0.35564 0.355637,0.35564 l 4.26765,0 c 0.196413,0 0.355638,-0.15923 0.355638,-0.35564 l 0,-2.13382 c 0,-0.196415 -0.159225,-0.35564 -0.355638,-0.35564 l -4.26765,0 c -0.196413,0 -0.355637,0.159225 -0.355637,0.35564 z"
           id="path6470-7" />
        <path
           style="color:#000000;font-style:normal;font-variant:normal;font-weight:normal;font-stretch:normal;font-size:medium;line-height:normal;font-family:sans-serif;text-indent:0;text-align:start;text-decoration:none;text-decoration-line:none;text-decoration-style:solid;text-decoration-color:#000000;letter-spacing:normal;word-spacing:normal;text-transform:none;direction:ltr;block-progression:tb;writing-mode:lr-tb;baseline-shift:baseline;text-anchor:start;white-space:normal;clip-rule:nonzero;display:inline;overflow:visible;visibility:visible;opacity:1;isolation:auto;mix-blend-mode:normal;color-interpolation:sRGB;color-interpolation-filters:linearRGB;solid-color:#000000;solid-opacity:1;fill:#242c88;fill-opacity:1;fill-rule:nonzero;stroke:none;stroke-width:0.41232991;stroke-linecap:butt;stroke-linejoin:miter;stroke-miterlimit:4;stroke-dasharray:none;stroke-dashoffset:0;stroke-opacity:1;color-rendering:auto;image-rendering:auto;shape-rendering:auto;text-rendering:auto;enable-background:accumulate"
           d="m -1.9882812,95.046875 c -0.3078332,0 -0.5605469,0.254667 -0.5605469,0.5625 l 0,2.132813 c 0,0.307832 0.2527137,0.5625 0.5605469,0.5625 l 4.2675781,0 c 0.3078335,0 0.5625,-0.254668 0.5625,-0.5625 l 0,-2.132813 c 0,-0.307833 -0.2546665,-0.5625 -0.5625,-0.5625 l -4.2675781,0 z m 0,0.412109 4.2675781,0 c 0.084993,0 0.1503906,0.0654 0.1503906,0.150391 l 0,2.132813 c 0,0.08499 -0.065397,0.15039 -0.1503906,0.15039 l -4.2675781,0 c -0.084992,0 -0.1484376,-0.0654 -0.1484376,-0.15039 l 0,-2.132813 c 0,-0.08499 0.063446,-0.150391 0.1484376,-0.150391 z"
           id="path6470"
           inkscape:connector-curvature="0" />
        <path
           style="fill:#2196f3;stroke:#242c88;stroke-width:0;stroke-miterlimit:4;stroke-dasharray:none;stroke-opacity:1"
           inkscape:connector-curvature="0"
           d="m -9.4830968,95.636206 0,2.133824 c 0,0.19641 0.159224,0.35564 0.355637,0.35564 l 4.267649,0 c 0.196414,0 0.355638,-0.15923 0.355638,-0.35564 l 0,-2.133824 c 0,-0.196413 -0.159224,-0.355638 -0.355638,-0.355638 l -4.267649,0 c -0.196413,0 -0.355637,0.159225 -0.355637,0.355638 z"
           id="path6472-8" />
        <path
           style="color:#000000;font-style:normal;font-variant:normal;font-weight:normal;font-stretch:normal;font-size:medium;line-height:normal;font-family:sans-serif;text-indent:0;text-align:start;text-decoration:none;text-decoration-line:none;text-decoration-style:solid;text-decoration-color:#000000;letter-spacing:normal;word-spacing:normal;text-transform:none;direction:ltr;block-progression:tb;writing-mode:lr-tb;baseline-shift:baseline;text-anchor:start;white-space:normal;clip-rule:nonzero;display:inline;overflow:visible;visibility:visible;opacity:1;isolation:auto;mix-blend-mode:normal;color-interpolation:sRGB;color-interpolation-filters:linearRGB;solid-color:#000000;solid-opacity:1;fill:#242c88;fill-opacity:1;fill-rule:nonzero;stroke:none;stroke-width:0.41232991;stroke-linecap:butt;stroke-linejoin:miter;stroke-miterlimit:4;stroke-dasharray:none;stroke-dashoffset:0;stroke-opacity:1;color-rendering:auto;image-rendering:auto;shape-rendering:auto;text-rendering:auto;enable-background:accumulate"
           d="m -9.0996094,95.046875 c -0.3078334,0 -0.5625,0.254667 -0.5625,0.5625 l 0,2.132813 c 0,0.307832 0.2546666,0.5625 0.5625,0.5625 l 4.2675782,0 c 0.3078335,0 0.5605468,-0.254668 0.5605468,-0.5625 l 0,-2.132813 c 0,-0.307833 -0.2527133,-0.5625 -0.5605468,-0.5625 l -4.2675782,0 z m 0,0.412109 4.2675782,0 c 0.084993,0 0.1484374,0.0654 0.1484374,0.150391 l 0,2.132813 c 0,0.08499 -0.063444,0.15039 -0.1484374,0.15039 l -4.2675782,0 c -0.084993,0 -0.1503906,-0.0654 -0.1503906,-0.15039 l 0,-2.132813 c 0,-0.08499 0.065398,-0.150391 0.1503906,-0.150391 z"
           id="path6472"
           inkscape:connector-curvature="0" />
        <path
           style="fill:#4caf50;stroke:#242c88;stroke-width:0;stroke-miterlimit:4;stroke-dasharray:none;stroke-opacity:1"
           inkscape:connector-curvature="0"
           d="m 4.7929342,95.636207 0,2.13382 c 0,0.19642 0.159224,0.35564 0.355637,0.35564 l 4.2676494,0 c 0.196413,0 0.355638,-0.15922 0.355638,-0.35564 l 0,-2.13382 c 0,-0.19641 -0.159225,-0.35564 -0.355638,-0.35564 l -4.2676494,0 c -0.196413,0 -0.355637,0.15923 -0.355637,0.35564 z"
           id="path6474-7" />
        <path
           style="color:#000000;font-style:normal;font-variant:normal;font-weight:normal;font-stretch:normal;font-size:medium;line-height:normal;font-family:sans-serif;text-indent:0;text-align:start;text-decoration:none;text-decoration-line:none;text-decoration-style:solid;text-decoration-color:#000000;letter-spacing:normal;word-spacing:normal;text-transform:none;direction:ltr;block-progression:tb;writing-mode:lr-tb;baseline-shift:baseline;text-anchor:start;white-space:normal;clip-rule:nonzero;display:inline;overflow:visible;visibility:visible;opacity:1;isolation:auto;mix-blend-mode:normal;color-interpolation:sRGB;color-interpolation-filters:linearRGB;solid-color:#000000;solid-opacity:1;fill:#242c88;fill-opacity:1;fill-rule:nonzero;stroke:none;stroke-width:0.41232991;stroke-linecap:butt;stroke-linejoin:miter;stroke-miterlimit:4;stroke-dasharray:none;stroke-dashoffset:0;stroke-opacity:1;color-rendering:auto;image-rendering:auto;shape-rendering:auto;text-rendering:auto;enable-background:accumulate"
           d="m 5.125,95.046875 c -0.3078332,0 -0.5625,0.254667 -0.5625,0.5625 l 0,2.132813 c 0,0.307832 0.2546668,0.5625 0.5625,0.5625 l 4.2675781,0 c 0.3078336,0 0.5625,-0.254668 0.5625,-0.5625 l 0,-2.132813 c 0,-0.307833 -0.2546664,-0.5625 -0.5625,-0.5625 l -4.2675781,0 z m 0,0.412109 4.2675781,0 c 0.084993,0 0.1503906,0.0654 0.1503907,0.150391 l 0,2.132813 c 0,0.08499 -0.065397,0.15039 -0.1503907,0.15039 l -4.2675781,0 c -0.084992,0 -0.1484375,-0.0654 -0.1484375,-0.15039 l 0,-2.132813 c 0,-0.08499 0.063446,-0.150391 0.1484375,-0.150391 z"
           id="path6474"
           inkscape:connector-curvature="0" />
        <path
           style="fill:#4cabf7;fill-opacity:1;stroke:none"
           d="m -9.1641143,95.555807 c -0.021864,0.269178 0.00745,1.256528 0.00745,1.256528 l -0.00497,0.180637 1.3220355,-1.424832 -0.6069413,-0.01367 c 0,0 -0.4819167,-0.0043 -0.5822761,-0.0019 z"
           id="path6593"
           inkscape:connector-curvature="0"
           sodipodi:nodetypes="cccccsc" />
        <path
           sodipodi:nodetypes="cccccsc"
           inkscape:connector-curvature="0"
           id="path6595"
           d="m -2.0514234,95.555807 c -0.021862,0.269178 0.00742,1.256528 0.00742,1.256528 l -0.00495,0.180637 1.32203521,-1.424832 -0.60694141,-0.01367 c 0,0 -0.4819163,-0.0043 -0.5822758,-0.0019 z"
           style="fill:#f1d37a;fill-opacity:1;stroke:none" />
        <path
           style="fill:#89d08b;fill-opacity:1;stroke:none"
           d="m 5.0612675,95.555807 c -0.021862,0.269178 0.00742,1.256528 0.00742,1.256528 l -0.00495,0.180637 1.3220353,-1.424832 -0.6069414,-0.01367 c 0,0 -0.4819164,-0.0043 -0.5822758,-0.0019 z"
           id="path6597"
           inkscape:connector-curvature="0"
           sodipodi:nodetypes="cccccsc" />
        <path
           style="fill:#fe7366;fill-opacity:1;stroke:none"
           d="m -2.0514234,85.608348 c -0.021862,0.269178 0.00742,1.256528 0.00742,1.256528 l -0.00495,0.180637 1.32203521,-1.424832 -0.60694141,-0.01367 c 0,0 -0.4819163,-0.0043 -0.5822758,-0.0019 z"
           id="path6599"
           inkscape:connector-curvature="0"
           sodipodi:nodetypes="cccccsc" />
      </g>
    </g>
  </g>
</svg>
