<?xml version="1.0" encoding="UTF-8" standalone="no"?>
<!-- Created with Inkscape (http://www.inkscape.org/) -->

<svg
   xmlns:dc="http://purl.org/dc/elements/1.1/"
   xmlns:cc="http://creativecommons.org/ns#"
   xmlns:rdf="http://www.w3.org/1999/02/22-rdf-syntax-ns#"
   xmlns:svg="http://www.w3.org/2000/svg"
   xmlns="http://www.w3.org/2000/svg"
   xmlns:sodipodi="http://sodipodi.sourceforge.net/DTD/sodipodi-0.dtd"
   xmlns:inkscape="http://www.inkscape.org/namespaces/inkscape"
   width="10mm"
   height="10mm"
   viewBox="0 0 35.43307 35.43307"
   id="svg6558"
   version="1.1"
   inkscape:version="0.91 r13725"
   sodipodi:docname="Payroll.svg">
  <defs
     id="defs6560" />
  <sodipodi:namedview
     id="base"
     pagecolor="#ffffff"
     bordercolor="#666666"
     borderopacity="1.0"
     inkscape:pageopacity="0.0"
     inkscape:pageshadow="2"
     inkscape:zoom="5.6"
     inkscape:cx="17.844033"
     inkscape:cy="28.832559"
     inkscape:document-units="px"
     inkscape:current-layer="layer1"
     showgrid="false"
     inkscape:window-width="727"
     inkscape:window-height="662"
     inkscape:window-x="2"
     inkscape:window-y="0"
     inkscape:window-maximized="0" />
  <metadata
     id="metadata6563">
    <rdf:RDF>
      <cc:Work
         rdf:about="">
        <dc:format>image/svg+xml</dc:format>
        <dc:type
           rdf:resource="http://purl.org/dc/dcmitype/StillImage" />
        <dc:title></dc:title>
      </cc:Work>
    </rdf:RDF>
  </metadata>
  <g
     inkscape:label="Layer 1"
     inkscape:groupmode="layer"
     id="layer1"
     transform="translate(0,-1016.9291)">
    <g
       id="g6821"
       transform="matrix(1.4333574,0,0,1.4333574,83.009626,1020.0423)">
      <path
         id="path7136"
         d="m -50.148147,9.1071541 6.387708,0 c 0.383539,0 0.694316,0.3109147 0.694316,0.6943159 l 0,0.833179 c 0,0.38354 -0.310777,0.694316 -0.694316,0.694316 l -6.387708,0 c -0.383539,0 -0.694316,-0.310776 -0.694316,-0.694316 l 0,-0.833179 c 0,-0.3834012 0.310777,-0.6943159 0.694316,-0.6943159 z"
         inkscape:connector-curvature="0"
         style="fill:#bc8d66;fill-opacity:1;stroke:#252c87;stroke-width:0.1872597;stroke-miterlimit:4;stroke-dasharray:none;stroke-opacity:1" />
      <path
         id="path7138"
         d="m -43.760439,9.1071541 -6.387708,0 c -0.383539,0 -0.694316,0.3109147 -0.694316,0.6943159 l 0,0.277727 c 0,-0.3834014 0.310777,-0.6943171 0.694316,-0.6943171 l 6.387708,0 c 0.383539,0 0.694316,0.3109157 0.694316,0.6943171 l 0,-0.277727 c 0,-0.3834012 -0.310777,-0.6943159 -0.694316,-0.6943159 z"
         inkscape:connector-curvature="0"
         style="fill:#242c88;fill-opacity:1;stroke:none" />
      <path
         id="path7140"
         d="m -48.764652,9.7135693 4.346696,-1.1525638 c 0.14886,-0.039437 0.302027,0.047908 0.341881,0.1952417 l 0.722504,2.6678388 c 0.03986,0.147335 -0.0486,0.298834 -0.197463,0.338271 l -5.661869,1.501389 c -0.148862,0.03944 -0.302028,-0.04791 -0.34188,-0.195241 l -0.530737,-1.959777 1.320868,-1.3951587 z"
         inkscape:connector-curvature="0"
         style="fill:#4caf50;fill-opacity:1;stroke:#252c87;stroke-width:0.1872597;stroke-miterlimit:4;stroke-dasharray:none;stroke-opacity:1" />
      <path
         id="path7142"
         d="m -44.113568,11.338409 -0.938993,0.251619 c -0.07402,0.01986 -0.150111,-0.02402 -0.170108,-0.09818 -0.01986,-0.07401 0.02416,-0.15025 0.09818,-0.170108 l 0.804851,-0.215654 -0.43117,-1.6095631 -0.804851,0.2156539 c -0.07401,0.019858 -0.150249,-0.024162 -0.170107,-0.098176 -0.01986,-0.074014 0.02416,-0.1502506 0.09817,-0.1701076 l 0.938994,-0.25162 c 0.07401,-0.019997 0.150111,0.024024 0.170107,0.098176 l 0.503102,1.8777078 c 0.02,0.07429 -0.02416,0.150528 -0.09818,0.170248 z m -3.889836,1.042307 -0.938993,0.25162 c -0.07401,0.01986 -0.150112,-0.02416 -0.170108,-0.09818 l -0.503101,-1.877847 c -0.02,-0.07401 0.02416,-0.150249 0.09818,-0.170107 l 0.938993,-0.25162 c 0.07401,-0.01986 0.150111,0.02402 0.170107,0.09832 0.01986,0.07401 -0.02416,0.150111 -0.09818,0.170108 l -0.804851,0.215653 0.43117,1.609564 0.804852,-0.215654 c 0.07401,-0.01986 0.150249,0.02416 0.170106,0.09818 0.02,0.07401 -0.02402,0.150249 -0.09818,0.169969 z"
         inkscape:connector-curvature="0"
         style="fill:#ffffff;fill-opacity:1;stroke:#252c87;stroke-width:0.09362985;stroke-opacity:1" />
      <path
         id="path7144"
         d="m -50.801914,10.652007 c 1.237132,-0.7098685 4.582763,-2.6313187 4.582763,-2.6313187 0.133586,-0.076653 0.30411,-0.031799 0.380763,0.1001202 l 1.388355,2.3899745 c 0.07665,0.132059 0.03055,0.301195 -0.103176,0.377847 l -5.080311,2.915434 c -0.133586,0.07679 -0.303971,0.0318 -0.380762,-0.100122 0,0 -0.397704,-0.818598 -0.787632,-1.489863 l 0,-1.562072 z"
         inkscape:connector-curvature="0"
         style="fill:#4caf50;fill-opacity:1;stroke:#252c87;stroke-width:0.1872597;stroke-miterlimit:4;stroke-dasharray:none;stroke-opacity:1" />
      <path
         id="path7146"
         d="m -48.832557,12.397656 -0.721533,0.41659 -0.833179,-1.443205 0.721533,-0.41659 c 0.06652,-0.03833 0.08929,-0.12331 0.05082,-0.189686 -0.03847,-0.06638 -0.12331,-0.08915 -0.189687,-0.05082 l -0.841789,0.486021 c -0.06638,0.03833 -0.08915,0.123309 -0.05069,0.189548 l 0.972042,1.683716 c 0.03819,0.06652 0.123311,0.08929 0.189548,0.05068 l 0.84179,-0.486021 c 0.06652,-0.03819 0.08929,-0.123172 0.05082,-0.189549 -0.03846,-0.06637 -0.12331,-0.08901 -0.189687,-0.05068 z m 3.677098,-1.962692 -0.972042,-1.6837167 c -0.03819,-0.066376 -0.123312,-0.08915 -0.189548,-0.050823 l -0.84179,0.4860204 c -0.06652,0.038327 -0.08929,0.1233115 -0.05082,0.1896875 0.03847,0.066377 0.12331,0.089151 0.189687,0.050824 l 0.721533,-0.4165901 0.833179,1.4432049 -0.721533,0.41659 c -0.06652,0.03833 -0.08929,0.123311 -0.05082,0.189688 0.03847,0.06638 0.12331,0.08915 0.189687,0.05082 l 0.841789,-0.486021 c 0.06624,-0.03833 0.08901,-0.123172 0.05069,-0.189687 z m -3.326329,-0.4846329 c -0.531291,0.3067489 -0.713479,0.9862069 -0.406592,1.5174969 0.30675,0.531291 0.986207,0.713481 1.517498,0.406592 0.53129,-0.306749 0.713479,-0.986207 0.406591,-1.517498 -0.306749,-0.5312899 -0.986207,-0.7133401 -1.517497,-0.4065909 z"
         inkscape:connector-curvature="0"
         style="fill:#ffffff;fill-opacity:1;stroke:#252c87;stroke-width:0.09362985;stroke-opacity:1" />
      <path
         id="path7148"
         d="m -43.482714,10.340203 -6.804296,0 c -0.306749,0 -0.555453,-0.248703 -0.555453,-0.5554525 l 0,4.9990755 c 0,0.38354 0.310777,0.694316 0.694316,0.694316 l 6.665433,0 c 0.383541,0 0.694316,-0.310776 0.694316,-0.694316 l 0,-3.749307 c 0,-0.3834 -0.310775,-0.694316 -0.694316,-0.694316 z"
         inkscape:connector-curvature="0"
         style="fill:#bc8d66;fill-opacity:1;stroke:#252c87;stroke-width:0.1872597;stroke-miterlimit:4;stroke-dasharray:none;stroke-opacity:1" />
      <path
         id="path7150"
         d="m -42.788398,13.967366 -1.110905,0 c -0.536844,0 -0.972041,-0.435197 -0.972041,-0.972042 0,-0.536846 0.435197,-0.972043 0.972041,-0.972043 l 1.110905,0 c 0.153306,0 0.277727,0.124422 0.277727,0.277727 l 0,1.388632 c 0,0.153444 -0.124421,0.277726 -0.277727,0.277726 z"
         inkscape:connector-curvature="0"
         style="fill:#975f39;fill-opacity:1;stroke:#252c87;stroke-width:0.1872597;stroke-miterlimit:4;stroke-dasharray:none;stroke-opacity:1" />
      <path
         id="path7152"
         d="m -43.899303,12.439871 c 0.306749,0 0.555453,0.248704 0.555453,0.555453 0,0.306749 -0.248704,0.555452 -0.555453,0.555452 -0.306748,0 -0.555452,-0.248703 -0.555452,-0.555452 0,-0.306749 0.248704,-0.555453 0.555452,-0.555453 z"
         inkscape:connector-curvature="0"
         style="fill:#ffc408;fill-opacity:1;stroke:#252c87;stroke-width:0.1872597;stroke-miterlimit:4;stroke-dasharray:none;stroke-opacity:1" />
      <path
         id="path7154"
         d="m -43.482714,10.356922 -6.804296,0 c -0.306749,0 -0.555453,-0.248703 -0.555453,-0.555452 l 0,0.277727 c 0,0.306749 0.248704,0.555452 0.555453,0.555452 l 6.804296,0 c 0.383541,0 0.694316,0.310915 0.694316,0.694316 l 0,-0.277727 c 0,-0.3834 -0.310775,-0.694316 -0.694316,-0.694316 z"
         inkscape:connector-curvature="0"
         style="fill:#242c88;fill-opacity:1;stroke:none" />
      <path
         id="path7156"
         d="m -43.482714,15.217135 -6.665433,0 c -0.383539,0 -0.694316,-0.310776 -0.694316,-0.694316 l 0,0.277727 c 0,0.383539 0.310777,0.694315 0.694316,0.694315 l 6.665433,0 c 0.383541,0 0.694316,-0.310776 0.694316,-0.694315 l 0,-0.277727 c 0,0.38354 -0.310775,0.694316 -0.694316,0.694316 z"
         inkscape:connector-curvature="0"
         style="fill:#242c88;fill-opacity:0.96856402;stroke:none" />
      <line
         inkscape:transform-center-y="-0.10167586"
         inkscape:transform-center-x="1.0703222"
         style="opacity:0.3;fill:none;stroke:#252c87;stroke-width:0.22813989;stroke-linecap:round;stroke-linejoin:round;stroke-miterlimit:10;stroke-opacity:1"
         class="st48"
         x1="-50.412205"
         x2="-50.41412"
         y1="13.344081"
         y2="11.148242"
         id="line5108-5-5" />
      <line
         style="opacity:0.3;fill:none;stroke:#252c87;stroke-width:0.22813989;stroke-linecap:round;stroke-linejoin:round;stroke-miterlimit:10;stroke-dasharray:none;stroke-opacity:1"
         class="st48"
         x1="-50.422119"
         x2="-50.417305"
         y1="14.331457"
         y2="13.670971"
         id="line5108-5-6-9" />
    </g>
  </g>
</svg>
