<?xml version="1.0" encoding="UTF-8" standalone="no"?>
<!-- Created with Inkscape (http://www.inkscape.org/) -->

<svg
   xmlns:dc="http://purl.org/dc/elements/1.1/"
   xmlns:cc="http://creativecommons.org/ns#"
   xmlns:rdf="http://www.w3.org/1999/02/22-rdf-syntax-ns#"
   xmlns:svg="http://www.w3.org/2000/svg"
   xmlns="http://www.w3.org/2000/svg"
   xmlns:sodipodi="http://sodipodi.sourceforge.net/DTD/sodipodi-0.dtd"
   xmlns:inkscape="http://www.inkscape.org/namespaces/inkscape"
   width="10mm"
   height="10mm"
   viewBox="0 0 35.43307 35.43307"
   id="svg6558"
   version="1.1"
   inkscape:version="0.91 r13725"
   sodipodi:docname="PeopleProfile.svg">
  <defs
     id="defs6560" />
  <sodipodi:namedview
     id="base"
     pagecolor="#ffffff"
     bordercolor="#666666"
     borderopacity="1.0"
     inkscape:pageopacity="0.0"
     inkscape:pageshadow="2"
     inkscape:zoom="126.71353"
     inkscape:cx="16.335446"
     inkscape:cy="14.157675"
     inkscape:document-units="px"
     inkscape:current-layer="g5754"
     showgrid="false"
     inkscape:window-width="1920"
     inkscape:window-height="1053"
     inkscape:window-x="-9"
     inkscape:window-y="-9"
     inkscape:window-maximized="1" />
  <metadata
     id="metadata6563">
    <rdf:RDF>
      <cc:Work
         rdf:about="">
        <dc:format>image/svg+xml</dc:format>
        <dc:type
           rdf:resource="http://purl.org/dc/dcmitype/StillImage" />
        <dc:title />
      </cc:Work>
    </rdf:RDF>
  </metadata>
  <g
     inkscape:label="Layer 1"
     inkscape:groupmode="layer"
     id="layer1"
     transform="translate(0,-1016.9291)">
    <g
       id="g4773"
       transform="matrix(0.71663369,0,0,0.71663369,53.451141,956.18915)"
       inkscape:export-filename="/Users/divisihct_hcit/Desktop/icon/Head_People Profile Wb"
       inkscape:export-xdpi="90"
       inkscape:export-ydpi="90">
      <g
         id="g6161"
         transform="matrix(0.38204411,0,0,0.38204411,-57.066623,68.561085)">
        <path
           sodipodi:nodetypes="ccccscccssscssccccccccccccccccccc"
           d="m 14.766874,126.50433 -1,2.1967 -0.1,0.23125 c -0.4,0.23122 -0.8,0.34684 -1.2,0.46245 -0.4,0.11563 -0.8,0.34685 -1.2,0.34685 -0.1,0 -0.2,0.11562 -0.4,0.11562 -0.5,0.11562 -0.9,0.23125 -1.4,0.34685 -0.5,0.11562 -1,0.23123 -1.5,0.23123 0,0 -0.1,0 -0.2,0 -0.1,0 -0.2,0 -0.4,0 -0.5,0 -1,0.11562 -1.5,0.11562 -0.5,0 -1,0 -1.5,-0.11562 -0.1,0 -0.3,0 -0.4,0 -0.1,0 -0.1,0 -0.2,0 -0.5,0 -1,-0.11561 -1.5,-0.23123 -2.2,-0.46247 -4.2,-1.27177 -6.1,-2.31233 -0.7,-3.23726 -1.4,-6.82138 -1.1,-7.28384 0.7,-0.92494 4.32786239,-3.78588 4.32786239,-3.78588 l 1.23135639,-1.35902 0.64078122,-0.75155 0.3,-0.11562 0.1,0 0.3,-0.11561 1.4,-0.46247 2.3,-0.8093 2.4,0.69368 1.4,0.46248 0.3,0.11562 0.1,0 0.3,0.11562 1.895508,1.34806 1.679551,0.72831 z"
           id="path6163"
           inkscape:connector-curvature="0"
           style="fill:#54c0eb" />
        <path
           d="m 10.066874,114.6509 c 0,3 -1.8,3.5 -4.1,3.5 -2.3,0 -4.1,-0.4 -4.1,-3.5 0,-3 1.8,-7.9 4.1,-7.9 2.3,0 4.1,4.9 4.1,7.9 z"
           id="path6167"
           inkscape:connector-curvature="0"
           style="fill:#e6e9ee" />
        <path
           sodipodi:nodetypes="ccccccccsccc"
           d="m 3.966874,130.4509 c -0.5,0 -1,-0.1 -1.5,-0.2 -2.2,-0.4 -4.2,-1.1 -6.1,-2 -0.4,-0.2 -0.7,-0.4 -1.1,-0.6 -1.7,-1 -3.3,-2.3 -4.6,-3.8 l 0.1541399,-2.74585 c 6.7728126,-4.43571 8.6458601,-5.25415 9.9458601,-6.35414 0.7,-0.60001 0.9,-1 0.9,-1 0,0.1 0,0.1 0,0.2 0,0.9 0.1,1.9 0.2,2.8 0,0.6 0.1,1.1 0.2,1.7 0.4,4.7 1.1,8.8 1.9,11.99999 z"
           id="path6169"
           inkscape:connector-curvature="0"
           style="fill:#324a5e" />
        <path
           d="m 4.466874,130.5509 c -0.1,0 -0.3,0 -0.4,0 -0.1,0 -0.1,0 -0.2,0 -0.5,0 -1,-0.1 -1.5,-0.2 -2,-5.4 -3.9,-10.89999 -3.9,-10.89999 l 2,-1 -1,-1 -0.2,-0.20001 c 0.4,-0.9 0.9,-1.79999 1.4,-2.5 0.5,-0.69999 1,-1.29999 1.2,-1.5 0,0 0,0 0,0 0.1,-0.1 0.1,-0.1 0.1,-0.1 0,0 0,0.1 0,0.1 0,0 0,0.1 0,0.20001 -0.1,0.5 -0.2,1.1 -0.1,2 0,0 0,0 0,0 0,0.39999 0,0.89999 0.1,1.5 0.1,0.69999 0.2,1.5 0.3,2.29999 l 0,0 c 0.4,3.2 1.2,7.00001 2,10.6 0.1,0.1 0.1,0.4 0.2,0.7 z"
           id="path6171"
           inkscape:connector-curvature="0"
           style="fill:#324a5e" />
        <path
           sodipodi:nodetypes="ccccccsscscccccccc"
           d="m 22.666874,119.55091 0,0 c 0,0.1 -0.6,1.7 -1.4,4.29999 -1.4,1.5 -2.9,2.8 -4.6,3.8 -0.9,0.5 -1.8,1 -2.8,1.4 -0.1,0 -0.2,0.1 -0.2,0.1 -0.4,0.2 -0.8,0.3 -1.2,0.4 -0.4,0.1 -0.8,0.3 -1.2,0.3 -0.1,0 -0.2,0.1 -0.4,0.1 -0.5,0.1 -0.9,0.2 -1.4,0.3 -0.5,0.1 -1,0.2 -1.5,0.2 0.8,-3.3 1.5,-7.4 2,-12.1 0.1,-0.6 0.1,-1.2 0.2,-1.79999 0.1,-0.90001 0.03865,-1.68754 0.138652,-2.58754 l -0.102246,0.0614 c 0,-0.1 0,-0.1 0,-0.2 0,0 0.312471,0.2773 1.012471,0.8773 1.3,1.2 4.451123,2.94888 11.451123,4.84889 z"
           id="path6173"
           inkscape:connector-curvature="0"
           style="fill:#324a5e" />
        <path
           d="m 13.366874,119.45091 c 0,0 -1.9,5.49999 -3.9,10.89999 -0.5,0.1 -1,0.2 -1.5,0.2 0,0 -0.1,0 -0.2,0 -0.1,0 -0.2,0 -0.4,0 0.1,-0.3 0.1,-0.6 0.2,-0.9 0.8,-3.59999 1.6,-7.5 2,-10.59999 0,0 0,0 0,0 0.1,-0.90001 0.2,-1.70001 0.3,-2.40001 0,-0.5 0.1,-1 0.1,-1.4 0,0 0,0 0,0 l 0,0 c 0,-0.79999 0,-1.4 -0.2,-1.79999 l 0,0 c 0,0 0,-0.10001 0,-0.10001 0,0 0,-0.1 0,-0.1 0,0 0,0 0.1,0.1 0,0 0,0 0,0 0.2,0.3 0.7,0.8 1.2,1.5 0.5,0.70001 1,1.60001 1.4,2.5 l 0,0 -1.1,1.20001 2,0.9 z"
           id="path6175"
           inkscape:connector-curvature="0"
           style="fill:#324a5e" />
        <ellipse
           transform="translate(-46.233126,57.350905)"
           cx="52.200001"
           cy="48.5"
           rx="7.0999999"
           ry="8.8999996"
           id="ellipse6177"
           style="fill:#ffffff" />
        <ellipse
           cx="59.299999"
           cy="47.900002"
           rx="1.3"
           ry="2.4000001"
           transform="matrix(0.9465,0.3227,-0.3227,0.9465,-27.589826,40.789505)"
           id="ellipse6179"
           style="fill:#ffffff" />
        <ellipse
           cx="45.099998"
           cy="47.900002"
           rx="1.3"
           ry="2.4000001"
           transform="matrix(-0.9465,0.3227,-0.3227,-0.9465,57.074874,136.1151)"
           id="ellipse6181"
           style="fill:#ffffff" />
        <path
           sodipodi:nodetypes="ccccccc"
           d="M 0.966874,97.050905 -0.91257413,98.7401 C 7.1971733,87.957893 11.818782,95.983319 11.818782,95.983319 c 5,3.899995 1.048092,10.667581 1.048092,10.667581 0,0 -0.310805,-2.50699 -2.410805,-4.40699 C -5.1488851,115.26402 0.46346281,99.193691 0.89823039,107.4596 -1.1944764,108.06804 -3.262217,98.664236 0.966874,97.050905 Z"
           id="path6183"
           inkscape:connector-curvature="0"
           style="fill:#324a5e" />
        <path
           d="m 13.866874,129.0509 c -0.1,0 -0.2,0.1 -0.2,0.1 -0.4,0.2 -0.8,0.3 -1.2,0.4 l 1,-1 0.4,0.5 z"
           id="path6189"
           inkscape:connector-curvature="0"
           style="fill:#324a5e" />
        <path
           sodipodi:nodetypes="cccc"
           inkscape:connector-curvature="0"
           id="path6191"
           d="m 3.4462674,117.77561 2.4544638,4.03965 2.7805337,-4.16235 z"
           style="fill:#e6e9ee;fill-opacity:1;stroke:none" />
      </g>
      <g
         transform="matrix(0.39717598,0,0,0.39717598,-49.07807,66.625708)"
         id="g5914">
        <path
           style="fill:#54c0eb"
           inkscape:connector-curvature="0"
           id="path19-6"
           d="m 14.766874,127.05091 -1,1.89999 -0.1,0.20001 c -0.4,0.19999 -0.8,0.29999 -1.2,0.39999 -0.4,0.10001 -0.8,0.3 -1.2,0.3 -0.1,0 -0.2,0.1 -0.4,0.1 -0.5,0.1 -0.9,0.20001 -1.4,0.3 -0.5,0.1 -1,0.2 -1.5,0.2 0,0 -0.1,0 -0.2,0 -0.1,0 -0.2,0 -0.4,0 -0.5,0 -1,0.1 -1.5,0.1 -0.5,0 -1,0 -1.5,-0.1 -0.1,0 -0.3,0 -0.4,0 -0.1,0 -0.1,0 -0.2,0 -0.5,0 -1,-0.1 -1.5,-0.2 -2.2,-0.4 -4.2,-1.09999 -6.1,-2 -0.7,-2.8 -1.4,-5.9 -1.1,-6.3 0.7,-0.8 3.2,-4.2 3.2,-4.2 l 1,-0.29999 2,-0.60001 0.3,-0.1 0.1,0 0.3,-0.1 1.4,-0.4 2.3,-0.69999 2.4,0.59999 1.4,0.40001 0.3,0.1 0.1,0 0.3,0.1 2.1,0.6 1.7,0.4 0.8,9.30001 z" />
        <path
           style="fill:#ff7058"
           inkscape:connector-curvature="0"
           id="path21-1"
           d="m 7.666874,129.6509 0.2,0.9 c -0.1,0 -0.2,0 -0.4,0 -0.5,0 -1,0.1 -1.5,0.1 -0.5,0 -1,0 -1.5,-0.1 -0.1,0 -0.3,0 -0.4,0 l 0.2,-0.9 1.4,-7.8 -1.5,-1.89999 -1.4,-1.80001 6.5,0 -1.5,1.70001 -1.5,1.9 1.4,7.9 z" />
        <path
           style="fill:#e6e9ee"
           inkscape:connector-curvature="0"
           id="path23-4"
           d="m 10.066874,114.6509 c 0,3 -1.8,3.5 -4.1,3.5 -2.3,0 -4.1,-0.4 -4.1,-3.5 0,-3 1.8,-7.9 4.1,-7.9 2.3,0 4.1,4.9 4.1,7.9 z" />
        <path
           style="fill:#324a5e"
           inkscape:connector-curvature="0"
           id="path25-2"
           d="m 3.966874,130.4509 c -0.5,0 -1,-0.1 -1.5,-0.2 -2.2,-0.4 -4.2,-1.1 -6.1,-2 -0.4,-0.2 -0.7,-0.4 -1.1,-0.6 -1.7,-1 -3.3,-2.3 -4.6,-3.8 -0.8,-2.5 -1.4,-4.2 -1.4,-4.29999 0,0 0,0 0,0 7.1,-1.90001 10.2,-3.70001 11.5,-4.8 0.7,-0.60001 0.9,-1 0.9,-1 0,0.1 0,0.1 0,0.2 0,0.9 0.1,1.9 0.2,2.8 0,0.6 0.1,1.1 0.2,1.7 0.4,4.7 1.1,8.8 1.9,11.99999 z" />
        <path
           style="fill:#324a5e"
           inkscape:connector-curvature="0"
           id="path27-3"
           d="m 4.466874,130.5509 c -0.1,0 -0.3,0 -0.4,0 -0.1,0 -0.1,0 -0.2,0 -0.5,0 -1,-0.1 -1.5,-0.2 -2,-5.4 -3.9,-10.89999 -3.9,-10.89999 l 2,-1 -1,-1 -0.2,-0.20001 c 0.4,-0.9 0.9,-1.79999 1.4,-2.5 0.5,-0.69999 1,-1.29999 1.2,-1.5 0,0 0,0 0,0 0.1,-0.1 0.1,-0.1 0.1,-0.1 0,0 0,0.1 0,0.1 0,0 0,0.1 0,0.20001 -0.1,0.5 -0.2,1.1 -0.1,2 0,0 0,0 0,0 0,0.39999 0,0.89999 0.1,1.5 0.1,0.69999 0.2,1.5 0.3,2.29999 l 0,0 c 0.4,3.2 1.2,7.00001 2,10.6 0.1,0.1 0.1,0.4 0.2,0.7 z" />
        <path
           style="fill:#324a5e"
           inkscape:connector-curvature="0"
           id="path31"
           d="m 22.666874,119.55091 c 0,0 0,0 0,0 0,0.1 -0.6,1.7 -1.4,4.29999 -1.4,1.5 -2.9,2.8 -4.6,3.8 -0.9,0.5 -1.8,1 -2.8,1.4 -0.1,0 -0.2,0.1 -0.2,0.1 -0.4,0.2 -0.8,0.3 -1.2,0.4 -0.4,0.1 -0.8,0.3 -1.2,0.3 -0.1,0 -0.2,0.1 -0.4,0.1 -0.5,0.1 -0.9,0.2 -1.4,0.3 -0.5,0.1 -1,0.2 -1.5,0.2 0.8,-3.3 1.5,-7.4 2,-12.1 0.1,-0.6 0.1,-1.2 0.2,-1.79999 0.1,-0.90001 0.1,-1.80001 0.2,-2.70001 l 0,0 c 0,-0.1 0,-0.1 0,-0.2 0,0 0.2,0.4 0.9,1 1.3,1.2 4.4,3 11.4,4.9 z" />
        <path
           style="fill:#324a5e"
           inkscape:connector-curvature="0"
           id="path33"
           d="m 13.366874,119.45091 c 0,0 -1.9,5.49999 -3.9,10.89999 -0.5,0.1 -1,0.2 -1.5,0.2 0,0 -0.1,0 -0.2,0 -0.1,0 -0.2,0 -0.4,0 0.1,-0.3 0.1,-0.6 0.2,-0.9 0.8,-3.59999 1.6,-7.5 2,-10.59999 0,0 0,0 0,0 0.1,-0.90001 0.2,-1.70001 0.3,-2.40001 0,-0.5 0.1,-1 0.1,-1.4 0,0 0,0 0,0 l 0,0 c 0,-0.79999 0,-1.4 -0.2,-1.79999 l 0,0 c 0,0 0,-0.10001 0,-0.10001 0,0 0,-0.1 0,-0.1 0,0 0,0 0.1,0.1 0,0 0,0 0,0 0.2,0.3 0.7,0.8 1.2,1.5 0.5,0.70001 1,1.60001 1.4,2.5 l 0,0 -1.1,1.20001 2,0.9 z" />
        <ellipse
           style="fill:#ffffff"
           id="ellipse35"
           ry="8.8999996"
           rx="7.0999999"
           cy="48.5"
           cx="52.200001"
           transform="translate(-46.233126,57.350905)" />
        <ellipse
           style="fill:#ffffff"
           id="ellipse37"
           transform="matrix(0.9465,0.3227,-0.3227,0.9465,-27.589826,40.789505)"
           ry="2.4000001"
           rx="1.3"
           cy="47.900002"
           cx="59.299999" />
        <ellipse
           style="fill:#ffffff"
           id="ellipse39"
           transform="matrix(-0.9465,0.3227,-0.3227,-0.9465,57.074874,136.1151)"
           ry="2.4000001"
           rx="1.3"
           cy="47.900002"
           cx="45.099998" />
        <path
           sodipodi:nodetypes="ccccccccc"
           style="fill:#324a5e"
           inkscape:connector-curvature="0"
           id="path41"
           d="m -0.433126,107.1509 c -3.7,-7.599995 1.4,-10.099995 1.4,-10.099995 l -2.4,1.4 c 7.5781428,-7.031143 12.5,-1.6 12.5,-1.6 5,3.899995 1.8,9.799995 1.8,9.799995 0,0 -0.6,-4.3 -2.7,-6.2 0,0 -2.6,2.9 -8.6,0.2 l -1.7,3 c 0,0.1 -0.7,2 -0.3,3.5 z" />
        <path
           style="fill:#84dbff"
           inkscape:connector-curvature="0"
           id="path43"
           d="m 2.166874,113.05091 c 0,0 0.6,3.5 3.8,5.09999 0,0 -2.2,1.70001 -2.6,3 0,0 -3.5,-5.09999 -1.2,-8.09999 z" />
        <path
           style="fill:#84dbff"
           inkscape:connector-curvature="0"
           id="path45"
           d="m 9.766874,113.05091 c 0,0 -0.6,3.5 -3.8,5.09999 0,0 2.2,1.70001 2.6,3 0,0 3.5,-5.09999 1.2,-8.09999 z" />
        <path
           style="fill:#324a5e"
           inkscape:connector-curvature="0"
           id="path47"
           d="m 13.866874,129.0509 c -0.1,0 -0.2,0.1 -0.2,0.1 -0.4,0.2 -0.8,0.3 -1.2,0.4 l 1,-1 0.4,0.5 z" />
      </g>
      <g
         transform="matrix(0.34176162,0,0,0.34176162,-64.849374,81.060949)"
         id="g5843">
        <path
           id="path5642"
           d="m 31.968799,114.65891 10.398299,0 0,-20.425232 -11.141034,0 0,19.682502 c 0,0.40849 0.334231,0.74273 0.742735,0.74273 z"
           class="st16"
           inkscape:connector-curvature="0"
           style="opacity:0.2;fill:#242c88" />
        <g
           transform="matrix(0.28579185,0,0,0.28579185,17.247728,89.080146)"
           id="g5776">
          <path
             style="color:#000000;font-style:normal;font-variant:normal;font-weight:normal;font-stretch:normal;font-size:medium;line-height:normal;font-family:sans-serif;text-indent:0;text-align:start;text-decoration:none;text-decoration-line:none;text-decoration-style:solid;text-decoration-color:#000000;letter-spacing:normal;word-spacing:normal;text-transform:none;direction:ltr;block-progression:tb;writing-mode:lr-tb;baseline-shift:baseline;text-anchor:start;white-space:normal;clip-rule:nonzero;display:inline;overflow:visible;visibility:visible;opacity:1;isolation:auto;mix-blend-mode:normal;color-interpolation:sRGB;color-interpolation-filters:linearRGB;solid-color:#000000;solid-opacity:1;fill:#242c88;fill-opacity:1;fill-rule:nonzero;stroke:none;stroke-width:2;stroke-linecap:round;stroke-linejoin:round;stroke-miterlimit:10;stroke-dasharray:none;stroke-dashoffset:0;stroke-opacity:1;color-rendering:auto;image-rendering:auto;shape-rendering:auto;text-rendering:auto;enable-background:accumulate"
             d="m 54,9 a 1.0001,1.0001 0 0 0 -1,1 l 0,78 a 1.0001,1.0001 0 0 0 1,1 l 64,0 a 1.0001,1.0001 0 0 0 1,-1 l 0,-78 A 1.0001,1.0001 0 0 0 118,9 L 54,9 Z m 1,2 62,0 0,76 -62,0 0,-76 z"
             id="rect5646"
             inkscape:connector-curvature="0" />
          <g
             id="g5754">
            <rect
               id="rect5644"
               y="10"
               x="54"
               width="64"
               height="78"
               class="st1"
               style="fill:#ffffff" />
            <path
               id="path5662"
               d="m 98,21.25 0,9.75 9.75,0 c 0,-5.38 -4.37,-9.75 -9.75,-9.75 z"
               class="st14"
               inkscape:connector-curvature="0"
               style="fill:#83d689" />
            <path
               id="path5664"
               d="M 98,30.75 98,21 c -5.38,0 -9.75,4.37 -9.75,9.75 0,5.38 4.37,9.75 9.75,9.75 2.86,0 5.42,-1.24 7.21,-3.2 L 98,30.75 Z"
               class="st7"
               inkscape:connector-curvature="0"
               style="fill:#589fff" />
            <circle
               id="circle5666"
               r="10"
               cy="31"
               cx="98"
               class="st2"
               style="fill:none;stroke:#242c88;stroke-width:0;stroke-linecap:round;stroke-linejoin:round;stroke-miterlimit:10;stroke-dasharray:none" />
            <rect
               id="rect5668"
               y="71"
               x="70"
               width="6"
               height="6"
               class="st7"
               style="fill:#589fff" />
            <rect
               id="rect5670"
               y="65"
               x="79"
               width="6"
               height="12"
               class="st14"
               style="fill:#83d689" />
            <rect
               id="rect5672"
               y="68"
               x="88"
               width="6"
               height="9"
               class="st7"
               style="fill:#589fff;stroke-width:0;stroke-miterlimit:10;stroke-dasharray:none" />
            <rect
               id="rect5674"
               y="62"
               x="97"
               width="6"
               height="15"
               class="st14"
               style="fill:#83d689" />
            <rect
               id="rect5676"
               y="71"
               x="70"
               width="6"
               height="6"
               class="st2"
               style="fill:none;stroke:#242c88;stroke-width:0;stroke-linecap:round;stroke-linejoin:round;stroke-miterlimit:10;stroke-dasharray:none" />
            <rect
               id="rect5678"
               y="65"
               x="79"
               width="6"
               height="12"
               class="st2"
               style="fill:none;stroke:#242c88;stroke-width:0;stroke-linecap:round;stroke-linejoin:round;stroke-miterlimit:10;stroke-dasharray:none" />
            <rect
               id="rect5680"
               y="68"
               x="88"
               width="6"
               height="9"
               class="st2"
               style="fill:none;stroke:#242c88;stroke-width:0;stroke-linecap:round;stroke-linejoin:round;stroke-miterlimit:10;stroke-dasharray:none" />
            <rect
               id="rect5682"
               y="62"
               x="97"
               width="6"
               height="15"
               class="st2"
               style="fill:none;stroke:#242c88;stroke-width:0;stroke-linecap:round;stroke-linejoin:round;stroke-miterlimit:10;stroke-dasharray:none" />
            <path
               style="color:#000000;font-style:normal;font-variant:normal;font-weight:normal;font-stretch:normal;font-size:medium;line-height:normal;font-family:sans-serif;text-indent:0;text-align:start;text-decoration:none;text-decoration-line:none;text-decoration-style:solid;text-decoration-color:#000000;letter-spacing:normal;word-spacing:normal;text-transform:none;direction:ltr;block-progression:tb;writing-mode:lr-tb;baseline-shift:baseline;text-anchor:start;white-space:normal;clip-rule:nonzero;display:inline;overflow:visible;visibility:visible;opacity:1;isolation:auto;mix-blend-mode:normal;color-interpolation:sRGB;color-interpolation-filters:linearRGB;solid-color:#000000;solid-opacity:1;fill:#242c88;fill-opacity:1;fill-rule:nonzero;stroke:none;stroke-width:1.42866254;stroke-linecap:round;stroke-linejoin:round;stroke-miterlimit:10;stroke-dasharray:none;stroke-dashoffset:0;stroke-opacity:1;color-rendering:auto;image-rendering:auto;shape-rendering:auto;text-rendering:auto;enable-background:accumulate"
               d="M 65.988281,63.275391 A 0.7144027,0.7144027 0 0 0 65.285156,64 l 0,13 A 0.7144027,0.7144027 0 0 0 66,77.714844 l 40,0 a 0.714844,0.714844 0 0 0 0,-1.429688 l -39.285156,0 0,-12.285156 a 0.7144027,0.7144027 0 0 0 -0.726563,-0.724609 z"
               id="polyline5684"
               inkscape:connector-curvature="0" />
            <path
               style="color:#000000;font-style:normal;font-variant:normal;font-weight:normal;font-stretch:normal;font-size:medium;line-height:normal;font-family:sans-serif;text-indent:0;text-align:start;text-decoration:none;text-decoration-line:none;text-decoration-style:solid;text-decoration-color:#000000;letter-spacing:normal;word-spacing:normal;text-transform:none;direction:ltr;block-progression:tb;writing-mode:lr-tb;baseline-shift:baseline;text-anchor:start;white-space:normal;clip-rule:nonzero;display:inline;overflow:visible;visibility:visible;opacity:0.2;isolation:auto;mix-blend-mode:normal;color-interpolation:sRGB;color-interpolation-filters:linearRGB;solid-color:#000000;solid-opacity:1;fill:#242c88;fill-opacity:1;fill-rule:nonzero;stroke:none;stroke-width:2;stroke-linecap:round;stroke-linejoin:round;stroke-miterlimit:10;stroke-dasharray:none;stroke-dashoffset:0;stroke-opacity:1;color-rendering:auto;image-rendering:auto;shape-rendering:auto;text-rendering:auto;enable-background:accumulate"
               d="m 65,54 a 1.0001,1.0001 0 1 0 0,2 l 41,0 a 1.0001,1.0001 0 1 0 0,-2 l -41,0 z"
               id="line5686"
               inkscape:connector-curvature="0" />
            <path
               style="color:#000000;font-style:normal;font-variant:normal;font-weight:normal;font-stretch:normal;font-size:medium;line-height:normal;font-family:sans-serif;text-indent:0;text-align:start;text-decoration:none;text-decoration-line:none;text-decoration-style:solid;text-decoration-color:#000000;letter-spacing:normal;word-spacing:normal;text-transform:none;direction:ltr;block-progression:tb;writing-mode:lr-tb;baseline-shift:baseline;text-anchor:start;white-space:normal;clip-rule:nonzero;display:inline;overflow:visible;visibility:visible;opacity:0.2;isolation:auto;mix-blend-mode:normal;color-interpolation:sRGB;color-interpolation-filters:linearRGB;solid-color:#000000;solid-opacity:1;fill:#242c88;fill-opacity:1;fill-rule:nonzero;stroke:none;stroke-width:2;stroke-linecap:round;stroke-linejoin:round;stroke-miterlimit:10;stroke-dasharray:none;stroke-dashoffset:0;stroke-opacity:1;color-rendering:auto;image-rendering:auto;shape-rendering:auto;text-rendering:auto;enable-background:accumulate"
               d="m 65,49 a 1.0001,1.0001 0 1 0 0,2 l 41,0 a 1.0001,1.0001 0 1 0 0,-2 l -41,0 z"
               id="line5688"
               inkscape:connector-curvature="0" />
            <path
               style="color:#000000;font-style:normal;font-variant:normal;font-weight:normal;font-stretch:normal;font-size:medium;line-height:normal;font-family:sans-serif;text-indent:0;text-align:start;text-decoration:none;text-decoration-line:none;text-decoration-style:solid;text-decoration-color:#000000;letter-spacing:normal;word-spacing:normal;text-transform:none;direction:ltr;block-progression:tb;writing-mode:lr-tb;baseline-shift:baseline;text-anchor:start;white-space:normal;clip-rule:nonzero;display:inline;overflow:visible;visibility:visible;opacity:0.2;isolation:auto;mix-blend-mode:normal;color-interpolation:sRGB;color-interpolation-filters:linearRGB;solid-color:#000000;solid-opacity:1;fill:#242c88;fill-opacity:1;fill-rule:nonzero;stroke:none;stroke-width:2;stroke-linecap:round;stroke-linejoin:round;stroke-miterlimit:10;stroke-dasharray:none;stroke-dashoffset:0;stroke-opacity:1;color-rendering:auto;image-rendering:auto;shape-rendering:auto;text-rendering:auto;enable-background:accumulate"
               d="m 65,26 a 1.0001,1.0001 0 1 0 0,2 l 14,0 a 1.0001,1.0001 0 1 0 0,-2 l -14,0 z"
               id="line5690"
               inkscape:connector-curvature="0" />
            <path
               style="color:#000000;font-style:normal;font-variant:normal;font-weight:normal;font-stretch:normal;font-size:medium;line-height:normal;font-family:sans-serif;text-indent:0;text-align:start;text-decoration:none;text-decoration-line:none;text-decoration-style:solid;text-decoration-color:#000000;letter-spacing:normal;word-spacing:normal;text-transform:none;direction:ltr;block-progression:tb;writing-mode:lr-tb;baseline-shift:baseline;text-anchor:start;white-space:normal;clip-rule:nonzero;display:inline;overflow:visible;visibility:visible;opacity:0.2;isolation:auto;mix-blend-mode:normal;color-interpolation:sRGB;color-interpolation-filters:linearRGB;solid-color:#000000;solid-opacity:1;fill:#242c88;fill-opacity:1;fill-rule:nonzero;stroke:none;stroke-width:2;stroke-linecap:round;stroke-linejoin:round;stroke-miterlimit:10;stroke-dasharray:none;stroke-dashoffset:0;stroke-opacity:1;color-rendering:auto;image-rendering:auto;shape-rendering:auto;text-rendering:auto;enable-background:accumulate"
               d="m 65,22 a 1.0001,1.0001 0 1 0 0,2 l 14,0 a 1.0001,1.0001 0 1 0 0,-2 l -14,0 z"
               id="line5692"
               inkscape:connector-curvature="0" />
            <path
               style="color:#000000;font-style:normal;font-variant:normal;font-weight:normal;font-stretch:normal;font-size:medium;line-height:normal;font-family:sans-serif;text-indent:0;text-align:start;text-decoration:none;text-decoration-line:none;text-decoration-style:solid;text-decoration-color:#000000;letter-spacing:normal;word-spacing:normal;text-transform:none;direction:ltr;block-progression:tb;writing-mode:lr-tb;baseline-shift:baseline;text-anchor:start;white-space:normal;clip-rule:nonzero;display:inline;overflow:visible;visibility:visible;opacity:0.2;isolation:auto;mix-blend-mode:normal;color-interpolation:sRGB;color-interpolation-filters:linearRGB;solid-color:#000000;solid-opacity:1;fill:#242c88;fill-opacity:1;fill-rule:nonzero;stroke:none;stroke-width:2;stroke-linecap:round;stroke-linejoin:round;stroke-miterlimit:10;stroke-dasharray:none;stroke-dashoffset:0;stroke-opacity:1;color-rendering:auto;image-rendering:auto;shape-rendering:auto;text-rendering:auto;enable-background:accumulate"
               d="m 65,34 a 1.0001,1.0001 0 1 0 0,2 l 14,0 a 1.0001,1.0001 0 1 0 0,-2 l -14,0 z"
               id="line5694"
               inkscape:connector-curvature="0" />
            <path
               style="color:#000000;font-style:normal;font-variant:normal;font-weight:normal;font-stretch:normal;font-size:medium;line-height:normal;font-family:sans-serif;text-indent:0;text-align:start;text-decoration:none;text-decoration-line:none;text-decoration-style:solid;text-decoration-color:#000000;letter-spacing:normal;word-spacing:normal;text-transform:none;direction:ltr;block-progression:tb;writing-mode:lr-tb;baseline-shift:baseline;text-anchor:start;white-space:normal;clip-rule:nonzero;display:inline;overflow:visible;visibility:visible;opacity:0.2;isolation:auto;mix-blend-mode:normal;color-interpolation:sRGB;color-interpolation-filters:linearRGB;solid-color:#000000;solid-opacity:1;fill:#242c88;fill-opacity:1;fill-rule:nonzero;stroke:none;stroke-width:2;stroke-linecap:round;stroke-linejoin:round;stroke-miterlimit:10;stroke-dasharray:none;stroke-dashoffset:0;stroke-opacity:1;color-rendering:auto;image-rendering:auto;shape-rendering:auto;text-rendering:auto;enable-background:accumulate"
               d="m 65,38 a 1.0001,1.0001 0 1 0 0,2 l 7,0 a 1.0001,1.0001 0 1 0 0,-2 l -7,0 z"
               id="line5696"
               inkscape:connector-curvature="0" />
            <path
               style="color:#000000;font-style:normal;font-variant:normal;font-weight:normal;font-stretch:normal;font-size:medium;line-height:normal;font-family:sans-serif;text-indent:0;text-align:start;text-decoration:none;text-decoration-line:none;text-decoration-style:solid;text-decoration-color:#000000;letter-spacing:normal;word-spacing:normal;text-transform:none;direction:ltr;block-progression:tb;writing-mode:lr-tb;baseline-shift:baseline;text-anchor:start;white-space:normal;clip-rule:nonzero;display:inline;overflow:visible;visibility:visible;opacity:0.2;isolation:auto;mix-blend-mode:normal;color-interpolation:sRGB;color-interpolation-filters:linearRGB;solid-color:#000000;solid-opacity:1;fill:#242c88;fill-opacity:1;fill-rule:nonzero;stroke:none;stroke-width:2;stroke-linecap:round;stroke-linejoin:round;stroke-miterlimit:10;stroke-dasharray:none;stroke-dashoffset:0;stroke-opacity:1;color-rendering:auto;image-rendering:auto;shape-rendering:auto;text-rendering:auto;enable-background:accumulate"
               d="m 65,30 a 1.0001,1.0001 0 1 0 0,2 l 14,0 a 1.0001,1.0001 0 1 0 0,-2 l -14,0 z"
               id="line5698"
               inkscape:connector-curvature="0" />
          </g>
        </g>
      </g>
    </g>
  </g>
</svg>
