<?xml version="1.0" encoding="UTF-8" standalone="no"?>
<!-- Created with Inkscape (http://www.inkscape.org/) -->

<svg
   xmlns:dc="http://purl.org/dc/elements/1.1/"
   xmlns:cc="http://creativecommons.org/ns#"
   xmlns:rdf="http://www.w3.org/1999/02/22-rdf-syntax-ns#"
   xmlns:svg="http://www.w3.org/2000/svg"
   xmlns="http://www.w3.org/2000/svg"
   xmlns:sodipodi="http://sodipodi.sourceforge.net/DTD/sodipodi-0.dtd"
   xmlns:inkscape="http://www.inkscape.org/namespaces/inkscape"
   width="10mm"
   height="10mm"
   viewBox="0 0 35.43307 35.43307"
   id="svg6558"
   version="1.1"
   inkscape:version="0.91 r13725"
   sodipodi:docname="Warning&amp;Sanction.svg">
  <defs
     id="defs6560" />
  <sodipodi:namedview
     id="base"
     pagecolor="#ffffff"
     bordercolor="#666666"
     borderopacity="1.0"
     inkscape:pageopacity="0.0"
     inkscape:pageshadow="2"
     inkscape:zoom="5.6"
     inkscape:cx="17.844033"
     inkscape:cy="28.832559"
     inkscape:document-units="px"
     inkscape:current-layer="layer1"
     showgrid="false"
     inkscape:window-width="727"
     inkscape:window-height="662"
     inkscape:window-x="2"
     inkscape:window-y="0"
     inkscape:window-maximized="0" />
  <metadata
     id="metadata6563">
    <rdf:RDF>
      <cc:Work
         rdf:about="">
        <dc:format>image/svg+xml</dc:format>
        <dc:type
           rdf:resource="http://purl.org/dc/dcmitype/StillImage" />
        <dc:title></dc:title>
      </cc:Work>
    </rdf:RDF>
  </metadata>
  <g
     inkscape:label="Layer 1"
     inkscape:groupmode="layer"
     id="layer1"
     transform="translate(0,-1016.9291)">
    <g
       id="g6853"
       transform="matrix(1.1999107,0,0,1.1999107,70.903276,1000.8065)">
      <g
         transform="matrix(1.9366471,0,0,1.9366471,-52.692985,23.0484)"
         id="_505270768"
         style="fill-rule:evenodd;stroke:#242c88;stroke-width:0.02222222;stroke-miterlimit:4;stroke-dasharray:none;stroke-opacity:1">
        <path
           style="fill:#3b4652;fill-opacity:1;fill-rule:nonzero;stroke:#242c88;stroke-width:0;stroke-miterlimit:4;stroke-dasharray:none;stroke-opacity:1"
           inkscape:connector-curvature="0"
           class="fil1"
           d="M 4.8,1.94156 C 4.8,2.174178 4.7053583,2.385143 4.55235,2.538084 4.399622,2.690749 4.188775,2.785214 3.956015,2.785214 3.72318,2.785214 3.512287,2.6907258 3.359609,2.538033 3.206928,2.385336 3.112448,2.174403 3.112448,1.941561 c 0,-0.23276 0.094453,-0.443602 0.247098,-0.596323 0.152921,-0.153 0.363862,-0.24763 0.596469,-0.24763 l 4.33e-5,0 c 0.233035,0 0.444024,0.094461 0.596744,0.247177 0.15248,0.152476 0.246795,0.363441 0.246807,0.596736 l 3.898e-4,0 0,3.94e-5 z"
           id="_505270408" />
        <polygon
           style="fill:#d3d5e7;fill-opacity:1;fill-rule:nonzero;stroke:#242c88;stroke-width:0.04834637;stroke-miterlimit:4;stroke-dasharray:none;stroke-opacity:1"
           class="fil1"
           id="_505270720"
           points="2.26555,0.875173 2.26555,3.34628 2.05221,3.34628 2.05221,0.875173 " />
        <path
           style="fill:#ef3763;fill-opacity:1;fill-rule:nonzero;stroke:#242c88;stroke-width:0.04834637;stroke-miterlimit:4;stroke-dasharray:none;stroke-opacity:1"
           inkscape:connector-curvature="0"
           class="fil1"
           d="m 2.26698,0.897673 0,0.704862 0,0.098177 -0.097917,0.00807 C 2.053177,1.718342 1.887012,1.752503 1.716551,1.79592 1.51309,1.847743 1.306079,1.912144 1.170559,1.963877 L 1.03289,2.016436 1.02639,1.868877 C 1.01813,1.68133 1.0314,1.499034 1.079107,1.343275 1.123576,1.198094 1.197359,1.075732 1.310052,0.991598 1.377934,0.9409169 1.557804,0.883 1.735883,0.842397 1.920017,0.8004088 2.112037,0.7754009 2.186564,0.794334 l 0.080417,0.0204331 0,0.0829016 z"
           id="_505270912" />
        <path
           style="fill:none;stroke:#ffffff;stroke-width:0.04445164;stroke-linecap:round;stroke-linejoin:round;stroke-miterlimit:10;stroke-dasharray:none;stroke-opacity:1"
           inkscape:connector-curvature="0"
           class="st57"
           d="M 4.6929779,1.7558578 C 4.6769468,1.5927385 4.5060656,1.4065082 4.5060656,1.4065082"
           id="path5448-782-1-8-7"
           sodipodi:nodetypes="cc" />
      </g>
      <path
         style="fill:#3b4652;fill-opacity:1;fill-rule:nonzero;stroke:#242c88;stroke-width:0;stroke-miterlimit:4;stroke-dasharray:none;stroke-opacity:1"
         inkscape:connector-curvature="0"
         class="fil1"
         d="m -47.827721,28.732692 c -0.307026,-0.04052 -0.610264,0.09794 -0.780035,0.36194 -0.200831,0.312319 -0.132141,0.636325 0.0014,0.955751 0.04639,0.111006 0.101858,0.215042 0.165248,0.311488 0.133652,0.240089 0.33883,0.423615 0.576671,0.549595 0.256499,0.13587 0.551838,0.204651 0.834512,0.204651 0.07099,0 0.147285,-0.0042 0.229204,-0.01361 l 0.0036,-4.68e-4 0.07343,3.307774 c 0.0022,0.112295 0.09394,0.201817 0.205772,0.20177 l 0,7.49e-4 2.919651,0 c 0.114086,0 0.20658,-0.09249 0.20658,-0.206579 0,-0.494044 -0.04767,-1.991088 -0.01338,-2.360328 0.201975,0.190362 0.562367,0.815343 0.615976,1.74482 0.01801,0.312205 0.106042,0.750321 0.456233,0.824485 0.417317,0.08838 0.783465,-0.163305 0.816274,-0.589709 0.121102,-1.548555 -0.33395,-2.657041 -0.763779,-3.410591 -0.395214,-0.692863 -0.987721,-1.314023 -1.762897,-1.654057 -0.252244,-0.110648 -0.430828,-0.177027 -0.597204,-0.153719 l -0.367184,0.621853 -0.383792,-0.649974 c -0.145248,-0.02965 -0.307233,0.0213 -0.5613,0.133012 -0.394183,0.173329 -0.922873,0.84707 -1.275817,0.477901 -0.289292,-0.302536 -0.215258,-0.59272 -0.599093,-0.656835 z"
         id="path8705" />
    </g>
  </g>
</svg>
