<?xml version="1.0" encoding="UTF-8" standalone="no"?>
<!-- Created with Inkscape (http://www.inkscape.org/) -->

<svg
   xmlns:dc="http://purl.org/dc/elements/1.1/"
   xmlns:cc="http://creativecommons.org/ns#"
   xmlns:rdf="http://www.w3.org/1999/02/22-rdf-syntax-ns#"
   xmlns:svg="http://www.w3.org/2000/svg"
   xmlns="http://www.w3.org/2000/svg"
   xmlns:sodipodi="http://sodipodi.sourceforge.net/DTD/sodipodi-0.dtd"
   xmlns:inkscape="http://www.inkscape.org/namespaces/inkscape"
   width="10mm"
   height="10mm"
   viewBox="0 0 35.43307 35.43307"
   id="svg6558"
   version="1.1"
   inkscape:version="0.91 r13725"
   sodipodi:docname="Training.svg">
  <defs
     id="defs6560" />
  <sodipodi:namedview
     id="base"
     pagecolor="#ffffff"
     bordercolor="#666666"
     borderopacity="1.0"
     inkscape:pageopacity="0.0"
     inkscape:pageshadow="2"
     inkscape:zoom="5.6"
     inkscape:cx="17.844033"
     inkscape:cy="28.832559"
     inkscape:document-units="px"
     inkscape:current-layer="layer1"
     showgrid="false"
     inkscape:window-width="727"
     inkscape:window-height="662"
     inkscape:window-x="2"
     inkscape:window-y="0"
     inkscape:window-maximized="0" />
  <metadata
     id="metadata6563">
    <rdf:RDF>
      <cc:Work
         rdf:about="">
        <dc:format>image/svg+xml</dc:format>
        <dc:type
           rdf:resource="http://purl.org/dc/dcmitype/StillImage" />
        <dc:title></dc:title>
      </cc:Work>
    </rdf:RDF>
  </metadata>
  <g
     inkscape:label="Layer 1"
     inkscape:groupmode="layer"
     id="layer1"
     transform="translate(0,-1016.9291)">
    <g
       id="g6258"
       transform="translate(-104.14443,953.30144)">
      <g
         id="g4821"
         transform="matrix(0.11366722,0,0,0.11366722,108.24318,8.5856214)">
        <g
           style="fill-rule:evenodd;stroke:#242c88;stroke-width:0.02222222;stroke-miterlimit:4;stroke-dasharray:none;stroke-opacity:1"
           id="g9296"
           transform="translate(-396.86892,318.05623)">
          <path
             id="path9233"
             d="m 499.48587,276.30766 c -1.2,0 -2.2,1 -2.2,2.2 l 0,95.3 c 0,1.2 1,2.2 2.2,2.2 1.2,0 2.2,-1 2.2,-2.2 l 0,-95.3 c 0.1,-1.2 -0.9,-2.2 -2.2,-2.2 z m -7.5,77.9 -12.1,18.1 c -0.8,0.8 -0.8,2.2 0,3 0.8,0.8 2.2,0.8 3,0 l 12.1,-18.1 c 0.8,-0.8 0.8,-2.2 0,-3 -0.8,-0.8 -2.2,-0.8 -3,0 z m 27.2,18.1 -12.1,-18.1 c -0.8,-0.8 -2.2,-0.8 -3,0 -0.8,0.8 -0.8,2.2 0,3 l 12.1,18.1 c 0.8,0.8 2.2,0.8 3,0 0.8,-0.8 0.8,-2.2 0,-3 z"
             class="st1"
             inkscape:connector-curvature="0"
             style="fill:#3ad0f9;stroke-width:0;stroke-miterlimit:4;stroke-dasharray:none" />
          <path
             id="path9235"
             d="m 499.68587,377.00766 c -1.8,0 -3.2,-1.4 -3.2,-3.2 l 0,-16.6 c -0.1,0.2 -0.3,0.5 -0.5,0.7 l -12.1,18 c 0,0.1 -0.1,0.1 -0.1,0.2 -0.6,0.6 -1.4,0.9 -2.2,0.9 l 0,0 c -0.8,0 -1.6,-0.3 -2.2,-0.9 -0.6,-0.6 -0.9,-1.4 -0.9,-2.2 0,-0.8 0.3,-1.6 0.8,-2.1 l 12.1,-18 c 0,-0.1 0.1,-0.1 0.1,-0.2 1.2,-1.2 3.3,-1.2 4.4,0 0.2,0.2 0.4,0.5 0.6,0.8 l 0,-75.9 c 0,-1.8 1.5,-3.2 3.2,-3.2 1.8,0 3.7,1.4 3.7,3.2 l 0,75.1 c 0,0 0,0 0.1,-0.1 1.2,-1.2 3.3,-1.2 4.4,0 0,0 0.1,0.1 0.1,0.2 l 12.1,18 c 1.1,1.2 1.1,3.2 -0.1,4.4 -1.2,1.2 -3.3,1.2 -4.4,0 0,0 -0.1,-0.1 -0.1,-0.2 l -12,-18 0,15.8 c -0.1,1.9 -2.1,3.3 -3.8,3.3 z m 0,-99.7 c -0.7,0 -1.3,0.6 -1.3,1.2 l 0,95.3 c 0,0.7 0.6,1.2 1.3,1.2 0.8,0 1.7,-0.7 1.7,-1.2 l 0,-95.3 c 0,-0.6 -0.9,-1.2 -1.7,-1.2 z m 17.3,97.4 c 0.4,0.4 1.1,0.4 1.6,-0.1 0.4,-0.4 0.4,-1.2 0,-1.6 0,0 -0.1,-0.1 -0.1,-0.1 l -12,-18 c -0.4,-0.4 -1.1,-0.4 -1.5,0.1 -0.2,0.2 -0.3,0.5 -0.3,0.8 0,0.3 0.1,0.6 0.3,0.8 0,0 0.1,0.1 0.1,0.2 l 11.9,17.9 z m -24.1,-19.8 -12,18 c 0,0.1 -0.1,0.1 -0.1,0.1 -0.2,0.2 -0.3,0.5 -0.3,0.8 0,0.3 0.1,0.6 0.3,0.8 0.2,0.2 0.5,0.3 0.8,0.3 l 0,0 c 0.3,0 0.5,-0.1 0.7,-0.3 l 12,-18 c 0,-0.1 0.1,-0.1 0.1,-0.2 0.2,-0.2 0.3,-0.5 0.3,-0.8 0,-0.3 -0.1,-0.6 -0.3,-0.8 -0.4,-0.3 -1.1,-0.3 -1.5,0.1 z"
             class="st2"
             inkscape:connector-curvature="0"
             style="fill:#074370;stroke-width:0;stroke-miterlimit:4;stroke-dasharray:none" />
          <path
             id="path9237"
             d="m 547.38587,286.70766 0,65.5 -94.9,0 0,-65.5 94.9,0 z"
             class="st3"
             inkscape:connector-curvature="0"
             style="fill:#eaeaea;stroke-width:0;stroke-miterlimit:4;stroke-dasharray:none" />
          <path
             id="path9239"
             d="m 547.78587,286.50766 0,8 -95,0 0,-8 95,0 z"
             class="st4"
             inkscape:connector-curvature="0"
             style="fill:#d4d6d6;stroke-width:0;stroke-miterlimit:4;stroke-dasharray:none" />
          <path
             id="path9241"
             d="m 547.78587,352.10766 -95,0 c -1.6,0 -3,1.3 -3,3 0,1.6 1.3,3 3,3 l 94.9,0 c 1.6,0 3,-1.3 3,-3 0,-1.6 -1.3,-3 -2.9,-3 z m -95,-65.4 94.9,0 c 1.6,0 3,-1.3 3,-3 0,-1.6 -1.3,-3 -3,-3 l -94.9,0 c -1.6,0 -3,1.3 -3,3 0,1.6 1.4,3 3,3 z"
             class="st5"
             inkscape:connector-curvature="0"
             style="fill:#f4b459;stroke-width:0;stroke-miterlimit:4;stroke-dasharray:none" />
          <path
             id="path9243"
             d="m 547.78587,287.50766 -95,0 c -2.2,0 -4,-1.8 -4,-4 0,-2.2 1.8,-4 4,-4 l 94.9,0 c 2.2,0 4,1.8 4,4 0,2.2 -1.8,4 -3.9,4 z m -95,-6 c -1.1,0 -2,0.9 -2,2 0,1.1 0.9,2 2,2 l 94.9,0 c 1.1,0 2,-0.9 2,-2 0,-1.1 -0.9,-2 -2,-2 l -94.9,0 z"
             class="st2"
             inkscape:connector-curvature="0"
             style="fill:#074370;stroke-width:0;stroke-miterlimit:4;stroke-dasharray:none" />
          <path
             id="path9245"
             d="m 452.38587,353.10766 c -0.6,0 -1,-0.4 -1,-1 l 0,-65.4 c 0,-0.6 0.4,-1 1,-1 0.6,0 1,0.4 1,1 l 0,65.5 c 0,0.5 -0.4,0.9 -1,0.9 z"
             class="st2"
             inkscape:connector-curvature="0"
             style="fill:#074370;stroke-width:0;stroke-miterlimit:4;stroke-dasharray:none" />
          <path
             id="path9247"
             d="m 547.38587,353.10766 c -0.6,0 -1,-0.4 -1,-1 l 0,-65.4 c 0,-0.6 0.4,-1 1,-1 0.6,0 1,0.4 1,1 l 0,65.5 c 0,0.5 -0.4,0.9 -1,0.9 z"
             class="st2"
             inkscape:connector-curvature="0"
             style="fill:#074370;stroke-width:0;stroke-miterlimit:4;stroke-dasharray:none" />
          <path
             id="path9253"
             d="m 471.88587,336.70766 c -0.3,0 -0.5,-0.1 -0.7,-0.3 -0.4,-0.4 -0.4,-1 0,-1.4 l 17.9,-17.9 c 0.4,-0.4 1,-0.4 1.4,0 l 10.1,10.1 24.1,-24.1 c 0.4,-0.4 1,-0.4 1.4,0 0.4,0.4 0.4,1 0,1.4 l -24.8,24.8 c -0.4,0.4 -1,0.4 -1.4,0 l -10.1,-10.1 -17.2,17.2 c -0.2,0.2 -0.4,0.3 -0.7,0.3 z"
             class="st2"
             inkscape:connector-curvature="0"
             style="fill:#074370;stroke-width:0;stroke-miterlimit:4;stroke-dasharray:none" />
          <path
             id="path9255"
             d="m 526.38587,308.30766 0,0 c -0.6,0 -1,-0.4 -1,-1 l 0,-3.8 -3.8,0 c -0.6,0 -1,-0.4 -1,-1 0,-0.6 0.4,-1 1,-1 l 4.8,0 c 0.3,0 0.5,0.1 0.7,0.3 0.2,0.2 0.3,0.4 0.3,0.7 l 0,4.8 c 0,0.5 -0.4,1 -1,1 z"
             class="st2"
             inkscape:connector-curvature="0"
             style="fill:#074370;stroke-width:0;stroke-miterlimit:4;stroke-dasharray:none" />
          <circle
             id="circle9257"
             r="3.2"
             cy="318.00766"
             cx="490.08588"
             class="st3"
             style="fill:#eaeaea;stroke-width:0;stroke-miterlimit:4;stroke-dasharray:none" />
          <path
             id="path9259"
             d="m 490.08587,322.10766 c -2.3,0 -4.2,-1.9 -4.2,-4.2 0,-2.3 1.9,-4.2 4.2,-4.2 2.3,0 4.2,1.9 4.2,4.2 -0.1,2.4 -2,4.2 -4.2,4.2 z m 0,-6.3 c -1.2,0 -2.2,1 -2.2,2.2 0,1.2 1,2.2 2.2,2.2 1.2,0 2.2,-1 2.2,-2.2 -0.1,-1.2 -1.1,-2.2 -2.2,-2.2 z"
             class="st2"
             inkscape:connector-curvature="0"
             style="fill:#074370;stroke-width:0;stroke-miterlimit:4;stroke-dasharray:none" />
          <circle
             id="circle9261"
             r="3.2"
             cy="335.70767"
             cx="471.48587"
             class="st3"
             style="fill:#eaeaea;stroke-width:0;stroke-miterlimit:4;stroke-dasharray:none" />
          <path
             id="path9263"
             d="m 471.48587,339.80766 c -2.3,0 -4.2,-1.9 -4.2,-4.2 0,-2.3 1.9,-4.2 4.2,-4.2 2.3,0 4.2,1.9 4.2,4.2 0,2.4 -1.9,4.2 -4.2,4.2 z m 0,-6.3 c -1.1,0 -2.1,1 -2.1,2.2 0,1.2 1,2.2 2.2,2.2 1.2,0 2.2,-1 2.2,-2.2 -0.1,-1.2 -1.1,-2.2 -2.3,-2.2 z"
             class="st2"
             inkscape:connector-curvature="0"
             style="fill:#074370;stroke-width:0;stroke-miterlimit:4;stroke-dasharray:none" />
          <circle
             id="circle9265"
             r="3.2"
             cy="328.20767"
             cx="500.58588"
             class="st3"
             style="fill:#eaeaea;stroke-width:0;stroke-miterlimit:4;stroke-dasharray:none" />
          <path
             id="path9267"
             d="m 500.58587,332.30766 c -2.3,0 -4.2,-1.9 -4.2,-4.2 0,-2.3 1.9,-4.2 4.2,-4.2 2.3,0 4.2,1.9 4.2,4.2 0,2.4 -1.9,4.2 -4.2,4.2 z m 0,-6.3 c -1.2,0 -2.2,1 -2.2,2.2 0,1.2 1,2.2 2.2,2.2 1.2,0 2.2,-1 2.2,-2.2 0,-1.2 -1,-2.2 -2.2,-2.2 z"
             class="st2"
             inkscape:connector-curvature="0"
             style="fill:#074370;stroke-width:0;stroke-miterlimit:4;stroke-dasharray:none" />
          <path
             id="path9269"
             d="m 525.38587,338.50766 -10.3,0 c -0.6,0 -1,-0.4 -1,-1 0,-0.6 0.4,-1 1,-1 l 10.3,0 c 0.6,0 1,0.4 1,1 0,0.6 -0.4,1 -1,1 z"
             class="st2"
             inkscape:connector-curvature="0"
             style="fill:#074370;stroke-width:0;stroke-miterlimit:4;stroke-dasharray:none" />
          <path
             id="path9271"
             d="m 535.08587,338.50766 -5.2,0 c -0.6,0 -1,-0.4 -1,-1 0,-0.6 0.4,-1 1,-1 l 5.2,0 c 0.6,0 1,0.4 1,1 0,0.6 -0.5,1 -1,1 z"
             class="st2"
             inkscape:connector-curvature="0"
             style="fill:#074370;stroke-width:0;stroke-miterlimit:4;stroke-dasharray:none" />
          <path
             id="path9273"
             d="m 532.48587,344.40766 -17.4,0 c -0.6,0 -1,-0.4 -1,-1 0,-0.6 0.4,-1 1,-0.9 l 17.5,0 c 0.6,-0.1 1,0.4 1,0.9 -0.1,0.6 -0.5,1 -1.1,1 z"
             class="st2"
             inkscape:connector-curvature="0"
             style="fill:#074370;stroke-width:0;stroke-miterlimit:4;stroke-dasharray:none" />
          <path
             id="path9275"
             d="m 508.28587,299.50766 -17.5,0 c -0.6,0 -1,-0.4 -1,-1 0,-0.6 0.4,-1 1,-1 l 17.5,0 c 0.6,0 1,0.4 1,1 0,0.6 -0.5,1 -1,1 z"
             class="st2"
             inkscape:connector-curvature="0"
             style="fill:#074370;stroke-width:0;stroke-miterlimit:4;stroke-dasharray:none" />
          <path
             id="path9279"
             d="m 554.08587,333.60766 c -2.4,0 -4.3,-1.9 -4.3,-4.3 0,-2.4 1.9,-4.3 4.3,-4.3 2.4,0 4.3,1.9 4.3,4.3 0,2.4 -1.9,4.3 -4.3,4.3 z m 0,-6.5 c -1.3,0 -2.3,1 -2.3,2.3 0,1.3 1,2.3 2.3,2.3 1.3,0 2.3,-1 2.3,-2.3 0,-1.3 -1,-2.3 -2.3,-2.3 z"
             class="st6"
             inkscape:connector-curvature="0"
             style="opacity:0.5;fill:#ffffff;stroke-width:0;stroke-miterlimit:4;stroke-dasharray:none" />
          <path
             id="path9287"
             d="m 547.78587,359.50766 -95,0 c -2.2,0 -4,-1.8 -4,-4 0,-2.2 1.8,-4 4,-4 l 94.9,0 c 2.2,0 4,1.8 4,4 0,2.2 -1.8,4 -3.9,4 z m -95,-6 c -1.1,0 -2,0.9 -2,2 0,1.1 0.9,2 2,2 l 94.9,0 c 1.1,0 2,-0.9 2,-2 0,-1.1 -0.9,-2 -2,-2 l -94.9,0 z"
             class="st2"
             inkscape:connector-curvature="0"
             style="fill:#074370;stroke-width:0;stroke-miterlimit:4;stroke-dasharray:none" />
        </g>
        <g
           style="fill-rule:evenodd;stroke:#242c88;stroke-width:0.02222222;stroke-miterlimit:4;stroke-dasharray:none;stroke-opacity:1"
           id="g9174"
           transform="matrix(2.4503892,0,0,2.4503892,35.189044,549.74485)">
          <g
             id="g9373"
             transform="translate(2.0404922,11.951454)">
            <path
               style="fill:#3b4652;fill-rule:evenodd;stroke:#242c88;stroke-width:0.01389052;stroke-miterlimit:4;stroke-dasharray:none;stroke-opacity:1"
               inkscape:connector-curvature="0"
               d="m 39.958827,22.777959 c 0.193149,-0.83822 0.852602,-1.38016 1.680198,-1.38016 0.195024,0 0.394422,0.03 0.59382,0.0893 1.310155,0.3888 2.387781,0.68884 3.392275,0.94449 0.480682,0.12254 0.851975,0.15628 1.152636,0.1057 1.132007,-0.1894 2.132751,-0.69321 2.962849,-1.16077 0.2094,-0.11809 0.535063,-0.26753 0.897606,-0.31004 0.475057,-0.055 0.958863,-0.0901 1.426419,-0.12437 0.31566,-0.0231 0.641325,-0.0469 0.960738,-0.0763 0.09314,-0.009 0.179395,-0.006 0.258154,0.005 0.08002,-0.0138 0.131893,-0.0138 0.173772,-0.003 0.142522,0.0387 0.250028,0.13693 0.318161,0.28941 0.01317,0.0288 0.02499,0.0588 0.03437,0.0881 0.01379,0.04 0.126884,0.40316 0.341916,1.09513 0.209399,0.6732 0.473806,1.52329 0.657576,2.10649 l 0.05563,-0.41943 c 0.02813,-0.21064 0.05563,-0.41942 0.08125,-0.61319 0.02001,-0.14934 0.03812,-0.28816 0.05376,-0.4113 l 0.0031,-0.025 c 6.13e-4,-0.0231 0.0045,-0.0438 0.0075,-0.0631 l 0.02563,-0.2094 c 0.0106,-0.0838 0.01813,-0.14689 0.0225,-0.18003 -0.03187,-0.0751 -0.06313,-0.14628 -0.09626,-0.2194 l -0.01195,-0.0294 c -0.01812,-0.0438 -0.04,-0.0913 -0.05875,-0.13249 l -0.03688,-0.0594 -0.0013,-0.008 c -0.03875,-0.0738 -0.08376,-0.16502 -0.08376,-0.28253 0,-0.0457 0.08564,-0.31816 0.141895,-0.41317 l -0.0019,-10e-4 c 0.07501,-0.11119 0.173146,-0.13693 0.20565,-0.14505 l 0.03626,-0.009 0.03875,0 c 0.035,-0.0107 0.06251,-0.0107 0.07501,-0.0107 0.07626,-0.003 0.24878,-0.003 0.487558,-0.003 0.238778,0 0.411298,0 0.478807,0.003 0.01812,0 0.04812,0 0.08314,0.0107 l 0.05313,0.003 0.02187,0.006 c 0.03126,0.008 0.122518,0.0312 0.196899,0.13249 0.01625,0.0194 0.03063,0.0481 0.08002,0.18438 0.05875,0.16315 0.06875,0.20377 0.06875,0.24191 0,0.11686 -0.045,0.20753 -0.08376,0.28253 l -0.03875,0.0682 c -0.01875,0.0406 -0.04064,0.0888 -0.05875,0.13188 l -0.01195,0.0294 c -0.03313,0.0732 -0.06439,0.14444 -0.09564,0.21879 0.0045,0.0363 0.01195,0.0982 0.02187,0.18001 l 0.02563,0.21066 c 0.0037,0.0193 0.0068,0.0406 0.0075,0.0631 0.03688,0.28689 0.0869,0.66506 0.138142,1.04948 l 0.05563,0.41881 c 0.183772,-0.58257 0.447552,-1.43267 0.657577,-2.10588 0.215025,-0.69195 0.328164,-1.05513 0.341914,-1.09388 0.03875,-0.11502 0.0869,-0.19876 0.150641,-0.26253 0.05751,-0.0574 0.126272,-0.0968 0.203149,-0.11686 0.02126,-0.006 0.04376,-0.009 0.07001,-0.009 0.110005,0 0.313162,0.0556 0.680081,0.18628 0.08375,0.03 0.165019,0.06 0.235028,0.0856 0.07563,0.0282 0.139397,0.0513 0.180645,0.065 0.509436,0.17314 1.00762,0.34129 1.507054,0.49506 0.01562,0.005 0.03126,0.0107 0.04688,0.0138 l 0.02001,0.006 c 0.59757,0.18377 0.703833,0.62069 0.713209,0.86634 0.0031,0.0907 0.03125,0.34755 0.05939,0.59696 0.03626,0.3294 0.07437,0.66944 0.07751,0.82134 0.04125,1.85397 0.04188,3.87733 0.0013,6.1851 -0.0087,0.45005 -0.101262,0.88886 -0.275033,1.3039 -0.174395,0.42818 -0.441301,0.85386 -0.795718,1.26828 -0.0099,0.0107 -0.01875,0.0225 -0.0325,0.0418 -0.05064,0.0643 -0.09438,0.13188 -0.131893,0.20002 -0.0087,0.1669 -0.01625,0.33441 -0.0225,0.50319 l -0.0075,0.16877 c -0.04562,0.9995 -0.0975,2.17651 -0.136258,3.32289 -0.0031,0.0881 -0.0093,0.17877 -0.02001,0.27065 0,0.53632 6.13e-4,1.07263 6.13e-4,1.60832 6.12e-4,0.72321 0.0013,2.68844 6.12e-4,3.41102 -0.0019,1.15015 -0.445679,2.14589 -1.250148,2.80534 -0.628823,0.51505 -1.435168,0.78697 -2.332149,0.78697 l -0.01119,0 c -0.144392,0 -0.289411,6.1e-4 -0.435054,0.002 -0.146274,6.1e-4 -0.292534,0.002 -0.438801,0.002 -0.14626,0 -0.292534,-6.1e-4 -0.438801,-0.002 -0.145019,-6.1e-4 -0.289411,0.003 -0.444428,-0.002 -1.868345,0 -3.256007,-1.15764 -3.53479,-2.94847 -0.0325,-0.20815 -0.04938,-0.42505 -0.04938,-0.64384 l 0,-1.01449 -0.262532,-10.52685 c -0.01687,-0.60134 -0.03313,-1.20266 -0.05001,-1.80398 -0.03437,-1.25076 -0.06939,-2.54405 -0.109392,-3.81607 -0.0039,-0.10874 -0.03064,-0.22065 -0.05876,-0.32942 -0.222526,0.0862 -0.441301,0.17253 -0.656952,0.25754 l -0.07751,0.0306 c -0.620698,0.24502 -1.138882,0.44567 -1.687698,0.61507 l -0.17185,0.0538 c -0.519437,0.16252 -1.056999,0.33067 -1.584562,0.33067 -0.09126,0 -0.181272,-0.005 -0.266906,-0.0156 -1.707076,-0.20751 -3.460408,-0.65257 -5.358756,-1.36016 -0.765715,-0.28503 -1.223895,-1.13076 -1.041373,-1.92459 z"
               id="path9338" />
            <path
               style="fill:#3b4652;fill-rule:evenodd;stroke:#242c88;stroke-width:0.01389052;stroke-miterlimit:4;stroke-dasharray:none;stroke-opacity:1"
               inkscape:connector-curvature="0"
               d="m 55.784441,20.167029 c -1.847093,0.0331 -3.537291,-1.62956 -3.556044,-3.49729 -0.01875,-1.8946 1.585189,-3.51978 3.484162,-3.53291 1.914599,-0.0138 3.531665,1.55643 3.564169,3.46103 0.03187,1.84084 -1.626442,3.53667 -3.492287,3.56917 z"
               id="path9340" />
            <path
               sodipodi:nodetypes="cc"
               id="path5448-782-1"
               d="M 58.702614,15.756615 C 58.572012,15.049764 57.756157,14.299382 57.756157,14.299382"
               class="st57"
               inkscape:connector-curvature="0"
               style="fill:none;stroke:#ffffff;stroke-width:0.19494769;stroke-linecap:round;stroke-linejoin:round;stroke-miterlimit:10;stroke-dasharray:none" />
          </g>
        </g>
        <g
           transform="matrix(1.9535583,0,0,1.9535583,65.507035,581.9625)"
           style="fill:#324a5e;fill-opacity:1;fill-rule:evenodd;stroke:#242c88;stroke-width:0.02222222;stroke-miterlimit:4;stroke-dasharray:none;stroke-opacity:1"
           id="g9498">
          <g
             id="g9500"
             style="fill:#324a5e;fill-opacity:1">
            <circle
               id="ellipse9502"
               cy="48.700001"
               cx="10.2"
               r="4.9000001"
               style="fill:#324a5e;fill-opacity:1" />
            <path
               id="path9504"
               d="m 20,64.5 c -0.4,-5 -4.6,-9 -9.7,-9 -5.1,0 -9.3,4 -9.7,9 l 19.4,0 z"
               inkscape:connector-curvature="0"
               style="fill:#324a5e;fill-opacity:1" />
          </g>
          <g
             id="g9506"
             style="fill:#324a5e;fill-opacity:1">
            <circle
               id="ellipse9508"
               cy="48.700001"
               cx="31.299999"
               r="4.9000001"
               style="fill:#324a5e;fill-opacity:1" />
            <path
               id="path9510"
               d="m 41,64.5 c -0.4,-5 -4.6,-9 -9.7,-9 -5.1,0 -9.3,4 -9.7,9 l 19.4,0 z"
               inkscape:connector-curvature="0"
               style="fill:#324a5e;fill-opacity:1" />
          </g>
        </g>
      </g>
    </g>
  </g>
</svg>
